<mxfile host="65bd71144e">
    <diagram id="UvcIaeIoL3oFvAXXAyl2" name="Page-1">
        <mxGraphModel dx="1699" dy="1142" grid="0" gridSize="10" guides="1" tooltips="1" connect="1" arrows="1" fold="1" page="1" pageScale="1" pageWidth="850" pageHeight="1100" math="0" shadow="0">
            <root>
                <mxCell id="0"/>
                <mxCell id="1" parent="0"/>
                <mxCell id="3" value="" style="shape=image;imageAspect=0;aspect=fixed;verticalLabelPosition=bottom;verticalAlign=top;image=data:image/png,iVBORw0KGgoAAAANSUhEUgAAA98AAAQuCAYAAADFmo6CAAAAAXNSR0IArs4c6QAAAARnQU1BAACxjwv8YQUAAAAJcEhZcwAAEnQAABJ0Ad5mH3gAAP+lSURBVHhe7N0JXBTl/wfwT+KqoAiKJ94YoiJqeJF5oD8TjUTTvMqsn1Z4/Cz1/yMqLC2lIvupaR5Umpp5n6gpZl6YYipe4AGJiqJ4oCIK6gL9n9md3Z1dFtgFVtE+716Tw+w188zzPPN8Z5555pm/BRARERERERGRzZSS/yUiIiIiIiIiG2HwTURERERERGRjDL6JiIiIiIiIbIzBNxEREREREZGNMfgmIiIiIiIisjEG30REREREREQ2xuCbiIiIiIiIyMYYfBMRERERERHZGINvIiIiIiIiIhtj8E1ERERERERkYwy+iYiIiIiIiGyMwTcRERERERGRjTH4JiIiIiIiIrKxxxh8n0KYrxvc3ORp+Hp5OZEkE/ERYRjm5w1PdzmPeDTHq3MS5NfJVk6F+RrKpZsvwk7JL9BTaj2G6/e3mFgXW239cEX6uQ0XKUrF6xEcD9YPV+xD1ntPLtZn/xRG9a5vmIgqiJ4M1gXfRgenwk2+PKJRgVKxfkQH+I8Nx66E28jMlher7+JGepb8h3UyL+7H/E8Hwa9Nc3jo8qO7J7w7BSBo1nbEZ8pvtFLMRB9F/maDjYhKCjUSVwUhoFMbdAoIwqpEtbz8SVP8xwMi+id7WupGelKx2zmVOKmLRyFo2y3o2lhKDT2ayHMWUqdgc1BntOz8OkKX/ImE1Lui2pVlZ+L2pVismf4uerTsjNGrEg2vWSQGGyKvyfOSJKxbHiPPExE9RpcX4v8+XoPYS6m4FLsGwe//iMvyS0+SYj0eEBE9JXUjPbkYfNuSSU8B2/V+epq6WZ3CjwsOGhpadm4YvGAfziQmIlFM8/vIyy2hPoG5A/wwZs3FgoNq9UVsCfZDz7ATlgfgOxZjjTL2Fq5FbhAhORHRY3bvDtKVEWtmBu7Js0+OYjoePLJjMRGVeE9F3Vhy8FZF61kXfPeZrzng5Z42I7Cu/B6NLphm9n2J2BXMM9WUnzOIT5JnBYceH2CSbw2o5L8tp0b0pHcw9Vi6/LegqoOeIb8gcv9RnDlzFPsjf8EXb7RCJTv5ddHESwwfgjGb0uS/86PGtnXbkSH/pXdtDRbvkOeJiB4X97fwQb/6sJfqN1H39fvgLbhrX3mCFNfxgIhI9lTUjfQk45VvKlkSzuKCPCupUrtO4Rpap6bhw2WKy9KOXTBt327MHv483KtXhEpVEdXdn8egz1Zh74phcNMH4OnYNuVrRBd0+Vu9Ext36kJvO9jpP5+B7eu2Wdl9nYiouLmg+9QdiEtIROKZ3Zja3UVe/gQpruMBEZHeU1A3kkWyM9Nw69YtpOkHCykZGHxTyZKVhaIPoaPGtjk/w3DBxBEB0+ehTx71q713MKa/qei6cW0lZq7M/+p32sqF2KqPvdtgxNue8h8i/N66ApsZfRMRFU2xHA+IiOif5m7MIkz+LBRffvklQj+bjEUxd+VXHr8SFnxnIn6ZNAKhYURqj+adEBC0rODRqNUp2DVzlNFnpUeRdAoYhbCIePHNhadOOaQdKdvbE+6K727jNwifzj+EFKNAS/EItfE75WVaO8fLy/O4JyIzPgJhowLQyeR38toGw30W42H0SzvHy8vzGl1eSudPMUj52BZp5G+z21MImfGICBtmPLK4Jr2Gie2Iwx0z36/fFv9wRdAMJIX767fF8nvZo/Cr/qq04DEc47vmd71EBa8xw9BG/kvqfn5wx858rl6nYdNmw32Idm388fYbL0EffmfvwcoCgnekbkOQSP/mzb3hF7QNqfJi66iRcmg+Ph3khzbNPfTp5O4pvnPQp5h/KMWmV+Ctza9axo8YbDZ2h0iLvZg5zA/NPaRl7ujxrcnjgzRlW+Qn/e+4w9PbD8PCIjT1QnRIa/335ZdH1Cm7MFNaX0VaaeqXUWGIKOxw9yasqyvMyLfsFFSP2T4/2DQNNdsu1eGKesnNA807BWCUvK/NMXrcjGb/i3TYNdPosVSaNBg2E7sK2AGFy9N5UWPbmGaGdcvnXjijPOzmg4kmA0cULl9ZOBaIKF+H5pscD6R0b+OHQZ/Ox6GiHhAe2/Gg8MdiHU1+F3WTt6e79v2a4+QwzNxVcFkq9rJyKgy+8vfo1jszfhmCAjrJdaeYNHk1KO+ybvQdzaCtfqWyIu8b9x4wrX4l0u9I9Yo+HeQ62Gz+SJqJnvrfcIOPaWbWUYv8qc9v4lgwxrTH2CM4vhWm3Wg0foD2sYKFzyfabZT2oXHaSu1ey8qeVfvGKoVMfzP5VKoDlgUpy4K2Xg9aVlCdmvsRg+6e7TVpc6RwjSZZAXWjmX2cK53N7eNc26lrq/wKswOqF0eZ1iuG8mJV+8OQhv7hRrU0wv3lzz7Wx26eReTGOGTkyH/mZCBuY6RYWjKUnOA7Kxb/69ESPUKkEQgNI1Kr715C7JoQ+HcYgfV5FLbMmJno79MRw2ZsNfqs9CiSS7FbET62B3xemYsTBeY8UyIzrxoBn44DtCNl3840DPwivjs14U8sCR2Ajj4jsKoolZw0IvfY9mjeYyzCt8biksnvFG0bjKlTNiOos5TOS/Cn8rEt0sjfuu3pPBbbClmxpW4LQueWPTA2fJfxyOKa9NoltqMXWonv31zUBl1+TuzDYUXsXeuFLjAaksAcp27wNVy8RvaBXSKEz8PlpVgerQ+90cb/ZTi59sZLhugbBzdvEiF63jaFjMYakf53795GwprRCNkkv2CpzBjMfKU12g8IxZI/E5B615Ce2ZniO/9cgtABHdF5bGED+3wUY37NuPgLhncdihm7EqDdhGzcv6+41pW6DWM7S2Vb5Cf972Qj83YCdoWP1dQLP5y+qVmat0zEzOwvyvEwzJDWV5FWmvplazjG9vDBK3OtGGwvl6LXFQWXnR5o2SMMMeZaKzbPD7ZMQ5F2m8eifXNp26U6XFEvidfuXorFVrGve/i8grkFVoDSY6l80HHYDKPHUmnSYNcMDOvYE2HmvsMmdbAKXXp1gYP8l9Qo2RJhLtKLwZbfFXm4mh96e8vzxZCv8qNOWYUR4tg5INTkeCCle2oC/lwSigEdfTBilQUNNzNKxPGgkFIjpHQX+V3UTbcNGUkcJ3dhxrDO6PW/vPL6o6hvsnEy/BX49AjBmthLct0paPLqGlHW81s/nQxc/GU4ug6Vyoq8b7LvQ1n9asqF9LQQ8TtSvaJPB7kO1uaPzhirbDDU7YOeHvK8cG33bzCX69WbN2KPPr85aMqK/hT5Izi+FVe7MXV9fvmkY96DuEoDwvYXdZXYRmkfGqet1O4toOwVZt9YqhjTXx37P/QQdUDIGmVZ0Nbra0JEGovA1/x3mH/EYHZmiiZt+nV9BYseSSR1FhuDtGXNKJ1N6oLME+a2U9dW+Q/8eoYVkJeKUKaLYX8Vqf1RIqXhjukoevfu5Nsuf5RKTvAdtQCz4/POmdm3tmHi5B25Mp76RBh6DZyBw7d0FY+gqgAXZ3sRFhmkH5uKISPyKuTmqaMnoU/wNui/2s4ezu5t4depGWpoRmrQktYtuM8k+T5hJzTt4gc/PzF5VdO8rlPNS17u1wVNneSF0lXUMX4YE5Eiip5MWn8XF81UQXHBVrMNQYY0cGraRf4+Lxj9UjUvebkfuhh+SDpKYITfGKy5qEhFaZtcKhjdR5edEoHRAwuqKHJLXS8O5CPWQPn15vaF9P1j/IxPpui3pX0DRWNVHJIbtNdvi1/bOvLSApw9h2R5VtKomZc8lx9X1KmlWMuMsziTx7MnklZHIE6el7qc+78spbErehuib2RHL8dSmz274hT+12sgZigGk7Ozd5bzjLN2EBGNbKREjMZbc5VnJYuq8PnVrCM7sVMxJp4R0TgJGzgaESmKsm1CKns7j8h/mKXGibBeGDjjsKEcC6oKLnBWlGHpXv9jU4dgRF5n+ApQuLrCQKrHBo4uuOyo48MxcMBco6uBts8Ptk3DtE1j4DcmAobdrEIFOT+5GGcoTB0ShB35ZaidoRifx2OpNLITEf6BafoVc55WUHV/Bd0UFVrSrt9Mfls49Rt2K4anqObXG7rYu6j5Kl/qaEzqE4xthi+HvbM72vp1QrMainyXfQvbgvtgklVfXhKOB9Yei5WSsDpcke65qBE/72P8mGtnPpr6BuIIFxVxTHxLXsT6zS74+4/s3JnPd0jBj+nTQqQ8YlwmxA5ExOiBipNadfFqgOJMdtJe7DJzLIzadcBQ3hy64ZXuui+1/fGt+NqNOxE6Pr98Ig3i+gFyr6KUtkMw9bCyrjKXtlLZ80NQrkqvsPvGEsWZ/klYEDwb+TTtkb5zAiZtM32DVI4G5vmIQQ1xPDhm/a4vhCTsXFNAWZv3FjoMyX87sxPDMWaaudNQOoUt00XfX4Vrf9QRxwptPdq+gVEtjQbtdfVrW/Gux6UJvD3LyfNa5Ty9xdKSoUR1O3dsEYjw3XHyyOhnsG/BYMVAWKKsbY8wuRp5CtPGhCNRVzodW2Dscmkk6+M4GBOHhLjdCB/sps885gt5XtKwcuZK6NtEjl0QFnUUMZHLMXdhBPbFHcfqYYbvNtwn7IpeE+di7lwx/VtxABI8/y0vnzsRvVzlhUmLMHubodA4+kzC9lix/gcPaqbjsRsQqEiE9M0/Qtej2bXXRPn7/m3o8izx/Le8fC4m6n8oDes/mGAIdOxqIGD6bsQlxCHm4HHN6N8bQ3zgKL8sVRQfWHNQU+/A5ImKA7n0SJhw8f2KfTE9oIYhvdJ3YsIH68Vaaem3JaQ7qsjLJFW6h+i3ZW5gK3lp/k6dUZ4OrYwaNeTZAjRsUEuek6TjjtlTZElYv+WMPC82s40/NLG34Npb0fVchOcRq/NOP7/R49FKM8y6HSq1Go/RftrlllBvm4Of9JneDm6DFyM6LkbOMzGIi56GLrodKSrcuEXzi+/xZ0XIr3lToU7bIRj35Zf48ssJGNZGm6Cpy6bgR/12Slm2O0I3ivIt1w9HN4aiew3Db5l1ahrGhCfqD+COLcZi+dEzOHP8IGLiEhC3OxyD9eubjp0TJsHiKkKvsHWFTAqC3lHUY7nKzlaEdKik/3x23DR8+Ivh8zbPDzZNwyQsmr3NUG84+mDS9lgcl/PTweOx2BCoSLv0zfixgAxlnE8SxfqFKrZfOBOBVcqutTbJ0zpdMah3ZXleOPMbNpsEIkm/7ZIbM5K6eGWQLvQuYr4qQNrKmVhp+HJ0CYvC0ZhILJ+7EBH74nB8tXIgymuadbH420vE8cDKY7EpcYzsHroRR89o81GiVA59FBkpOw6/mu7MR1LfyOwqoUOIcv2M2zua7/9qZsFlXSUa0UPGae6L/HLCMMjVL9LWf4AJhgYDagRMx25pG2JEmTgj1b8h0CeHyUkt02Phru2mOScav+81dE9z6BYgSoqW7Y9vxdxuzJVPdiPUuMJBhFGFI45t0rPrFWedHX1CsPHoSX3a7lvwBhrpg+h0RHw8xWgbi7JvClL86e+IFoHhYv3k9BFtzeXKegsZ2Lo2Up6XJf2Ij380lCN9/SF9XkxSOQpsoUxjG1M1whuK3z9zdDnGKn8/+xZuid2havQGFuw7o93OxDjsDjeOYZK2RIjcl49ClOki769Ctz9aIVCui0O6G9XS6B6iq18DxbseF3u0GDIG/VvVRqUKlVC7VX+MGdJCLC0ZSk7wXXcYlqwMxot1dEmjQg3fUMx6W9FhOOMoDipyrpTpftbXKNVEhlmJ99pWNFzFta+DF0MXYIy+C5Qo5Cs2K84U5ucyLl3WF32gdS/0r6E8pWgP7+BAtJf/kjJ1/Ml8i5V518uivnz2yM+vLz74ZCjclD+j8kLwx/6Gs//ZBxEVJc9bQzQwwxWjc7f5ZCNm9K5jyIiqivAcvghT/fW/hDNrl+VfUShc/nE6IvTHEgd0/GIFQl9UfL/YF71nbMQXHQ3fn7EzHIssPSIUWgVUNHtlo5Bi5mOpPvaWu5zLf4kWh6Lref7pp/IaiVWHE0QFm4DDq0bCS7nPC3D9QRV01OeZQHz8QQcYjSXn0geTRyhW5Nof2GnmPr5CKfb8WhdDVx/F7uWfY8zAgRg4cBiGdpVaw0n4ZZny+b5t8MnGeRjsqSvfKlT0HIx5G7+AIkuZMBl4r9pghK98D20rGlbYvs6LCF0wBoYqYitWWD1aXtHqCvXmHxRBkFQ2TctOIwyfPxsD9BfvjMcksG1+sHUaXkfZ+rp190PfDz7BUOMMBa/gj2GolsS255ehHDriC6N8Iq3fYEz7P8OIDkAiTuq7rgg2roN9+vkreiaJgG2DMmC7jM2/GU7moW5PBOhPzdv2GHT50mVD+UJr9Opv/AgvaSDKQMOXIzv+5FNwPLCUtM4bMW+wJ/RZXSqHiz5DF0VjOu7Qn/Kc5FHVN1oeY9Zh8XDl+kntnRVGaVrgoy/rDsXqo7ux/PMxou4V9e+wodBUv2IrFoXv1D9K067NJ9g4ozf0zTNN/Tsci6YqysWZtVimyyAmx8KDmzcYn7g5tRt/6O+0cEC3AF3obfvjW/G2G83lkzoYPO3/FGPIiBrHqMIxeXa9lE8WDYen/guktu9n+CWkjT7gwbXd+E1f+Iq4bwpQ3Olfd9gSrAx+0bB+oq3ZdsIUDFCck8w+HWdUt5xatgJx+gTKXX9I5Sh45RIMK/B+wuLggC5hK/CZ4vdVFdvivW+HG8qxxKELwlZ8Bl99HW2POi9Owgc9FOUx6SRi8ynuhSnTRd1fRW1/lGh2VdFm4Hv46NOP8N7ANqiqqLsft5ITfDdsZjYAaeLRUJ7LLepXQwWEuq9giI+ZLxCN+y4vGK5oZsfH4rQ8nz8nVFSeWDu0Mfc9dar+WCSfCZOmQ6E+8gtWaBUonyGSpm/wurk+ETVrKs7+Z0OtvCfLQpc3/wZDzNgJgwcbFU+ZCl06Kc5TFVBRGKRh+y7FwaVyb4zsb+77XdD//X6KhugZ/GZ65aCEi9kQabgSBW/00F321jDueo6kdVhu3Sl5ixh6PEjTf9HVzMkF15rKbpZZ0qDBxaO482vH0Qjx1lfzBmm78IciJnHoMRxms6xLMzRVnnQ1YjzwXt1XhsB8FdEFhipCBDCxcg1hNBhK7skwmGHR6gqj7pd5lU2VD4YM9pK7krnAOe0yzssv2TY/FDENC2Q4ey5N35jPUKip2MfZ+WWoKk3RzEzyObXxznvcB1vXwd694adI/rhfN4iwWpa2Hcqq06PvYEW3ONseg5yMvxwbc91bqkL/RYbvTjwUCsu+/Wk4HlRBU3MZSeWBRsoOUkZsXVaMudY1l6NN0zQDsUfyjow6jg6BuepXNBhgOCdkh06DBxs36GWqLp0UV7aScFLfYHDFa/0V4WfMbuxUZK5TEVsMJykcukERe9v8+Fa87cY88olTG3jnVeFc3oW9ipNMeeUTl8FvwF+u711c7uG67pl7Rd43+Svu9G/YzMtwYkPPB21ayLO5XMYuZQLlVX+ovNAs7/CgGFVBIw8ziWBUjoV2vdAn19tUqFNb2UC5gMS/5FkzClOmi7q/itr+oMIpUd3OrXMKB48aDnRICoe/mQayNPVeoLgDOPmchaPduWKAOHjoT5Sk70Rw+6bwbC+NvLsAG/cn4GaxDjyQifjts7QjFSpHtJUmkxFfC+PPQ4rGUPZOjNeNpGgyeQRHyW+S5F9RGBxGjPLEbos2eTfSvDvDR3ES7/QxG0SnRu7m0X28MHZg8RpD6I02/uhtUtEZd7e7hs1rouV5G1Cn4NDyMIwK6GQ0uqVmMhndt/gVU34trTJzYBaSkgwBitCqk2IwHkudOgjjKkIxUrLR1BvGVYS1o7gUpa5IwJFYxUrWagSPPDa0yfsb5K5kYlo9Cu7ycj1b5IdHloYiR8VvxyxpRG8RKBtG3ZYmfxgNpmoztqqDvTHoFUWjKm4XdL1w0zZsxkHtrOCBnn2UjS/bHoNcB/RHG8OXY2dwezSVRhIeFYYFG/cjodBfXpKPBzb0CMtKvrzboKXiCo/xVVdjpVV5VDZ/HjKMayKa5jvHm9Qnuskj2OhWwAuKBoNTb3/D1d/sA/hdH30bB1eVew/Sdzk3YpPjm63bjRaIOWYUyDf0MHe2T1C9jBm6+l5M3/SQlxfDvrHIY2tfnMaZc/KsJL/647EqDZWinNmUJWW6UPurGNsfJVH2dRxcMRNffv4lZq44iOuGrl6P3RMcfF/BlRvyrI24DF2IFYGNFI3+bGSmSCPvTsH7r/uhtacH2gUEYVncnSJ1wdCPQP7udO1IhcoRbYvFZVxRxIzF7w7SFeW3biOjzjgmrLiKVUjGvSVuIiVFni3A2XOKgy0cc3VXV29bh+2K7Wzj39vQ5VzHpLvdzQ3LRche/HQjtQ74OBxbYy8ZjW5pa7bPr4LJoHl5NhLzc+UKilRFlHZEFf2Vh9xTFcfS8huLUleYXDVo6FGoAUFslh+KmoaWEI0G7ai972K6NKJ3qnLU7UfD1nm6yeC+ii6KB7F5gxR9q7FztyLY9AzAqyYXPmx6DHIZioUrAhX3lopvl0YS3hqOKe+/Dr/WnvBoJz0OKM7s48DyVrKOB4/MoygrFmkIo+FLCuFycTQYnHojwEcXMWRg569yKGjU26My/HrlDq1sd3yzfbuxQFlqRd1SF/kWDzOKZd8U4HG2L0zrj1oNHsnl7RIu/zJd+P1VPO2PkikTx5bMwqrDl3Dr7i1cOrwK3y6OEUtLhic4+DYuoMoRvvOfrBl9T7qnbiuO7g7HWF9341EkNdS4HrsGIb3aoNfEvVaNpK6nGXFWOQK5CnV8AzHh+7WIiorSTj+9hqIdS9NwxzC2B+DQAO3Npo3plNdIsCVcwwZG6RUfe0Key89lXExWNLcdGsLDaCAe0VDeqOiuJhyc9Jzx2UXN1AFTlSclM7ZjXaFH1MlD6mK8pRyp1a4SGvcbh29/iTTkmQmKmzWL0yPJr8VEZHrjKsJcHjcz6UZRdh+F1YorD6bT6lHKc7+PoK7Iiy3zQ1HTsEBqRE/qYzRqr6qOLwInfI+1unWP+gmv2TJDPYo8bfL4pZitm5Cm3oyNhmctwfOl3sg99pdt85V0X/fWo7sRPtYX7rm/HOrr0uOAeqFNr4nYW6yZ9ilk87Ly6KQZNxgUoxfnPxk9XQVOeNnf0HMjY+/vkPqBpW3aahjwqbIfcsXeNj2+PYp2o20Vz77Jx+NsX5hhpzKc5CYzStj+KjlOISbuvjyv9fDUMaOxBR6nJzj49kAj5VWCqj3wif6+h/wm60ffkwZ3eG9BpHYUyf1r8f2EQPRoVlVxNUKN+J9HY3K+z8AxL9eIs9P2YfeCYAzr1hK1atXSTtUcDV0PC6UJjG+d98Iws2ljOuUzEqyRinBUdB3MvxvdWSgvMNukYvVqj1bK9fljZ8FdRk3uvbRr54uO8rxG2kos3Ko8alvKmkH+LBMzcw4O6trsdm4IXBuNX6eOQa/n3Q15pnJZ+Q3F69HkV8GjUd736FrK5Duq9vjETB43M1k4qr451tcVJvf1XjgLK8YO0rBpfrB1GopyNdOQoeDYZRr27V6A4GHd0FK37rWqwbHIGSpvjyZPGz9+KfvgDuzcuQsHdPsNbdD/tbwrW1segzSD+ry3AJHHz+DM0f1Y+/0EBPZohqqKWFwd/zNGm3nUp3kl7HjwqDyG+sa8M4gv4m0apmPteA0zs95mJsPTVbScXvY33Npw83dsiVFj5w7DYGPV/Pvl6lJs2+Pbo2s35klU+IbikQxr7zoorn2Tl8fZvtCqgRqKwdiS4hWDv/xj5V2mi7a/it7+KLlcUKmiPKtTvmLu3qqPyRMcfLuiZnV5VhK3HVuK88x85k0kJyfL0025q4IKFau3RLdhwZgTcQCxGwIVjxFIx+aVJo9LsEBUlGLUy8ov450+5obOKLoaytosYy+27i3OcLAxPBrIs0L2of2aM9xmxRzEUf0Gi0+20D1Wpzh1xEtdFK2/M/MxrYBG6al5CxT3XtqhTVfje4zTNm02VHBWyt6z0opHExUkATv/UHQ78x6KEdYMlV5Ejyq/wrUmlMX72MFC3Dtv8h1x27cU7xVnnSLVFa7waKjIqxdOIi6PrJoWuwUrVqzQTlti5dGDbZwfbJ2GUVGKclUZL7/Tx+zgQbb0qPK062v9FffA7sHEoO2GK6Vmxo+w7TEoEzf1352sv3dcVbE6WnYbhuA5ETiQ6xFrK2HZt5e048Ej8qjqm4KcOmN0f7JbU8V9UJaqUUOURp0M7N26t3AnkJ0GYEAnXR66ht2//Yhd+jNO1eDX23R/2/r4ZuN2oyUae8BQPLJxOi6va3FJ2Ker78W0Txd8Fde+Mevxti+0TC4WxR0p4FFm/wB5lumi7q+itj9Ksnro9pInHHRRbikHePbyQ0m5ieEJDr6d0DvAR3E14ghmfrA+z4Nd6rb5WJVoRRUVGYSOHTvKU2/8z0zPZZVXAF5U9EUszP1qWWpFyyMtBaaD2UpSD8YY3f9aGMaPu7mJdZOm4UQeyaE+sQrzrepj6Ar/FxV9Km9uwNxV5j6fhvWz1yhGC/fAi/6WnY21jgrdR72huAqRjohxI7A+j01SnwjDmB8VpxWrDcB7A5Qt4ctYujza0EC364Jpuucw5jEdmazIm9nRiNDc41kcTO7RuXrFaGAyLTWiD5oZkKMYPKr8Cqdu8DW6d34uzGap1FiczOsePqN7DoUjM/FBXplA1Bzb5q+CNVWEXhHrio6+7RR5ZQ+WLTO7oVg9cTQ++ugj7bRQ1xyxcX6wdRoa3f+YhhTzGQoxRc5QeXt0eVqZltlI1/d/tYNPgJnxI2x6DIpEkP67O6K3+S9HgPGXi9xmiZJ2PHhEHlV9I7ucZO5SmBo7wpcqenpVRrsXCjE0kk8/+CsGSL65bhKm5d1gwKr5ed3yoIJ/r076+i3p59mGcVOq+SFX7G3z45uN242WcPVFB8XV96R1SxBt5ifUe7/De7r6/qOp0D8IoNj2jTmPt32h5YQ23ooEurYei81dPBHbFmtlr4GSzvoyXfT9VbT2R8lWwftNfDIxRLPOIRM/wZveFeRXHr8nOPgWRXTA2/BXdJlI3xmEXiOWIV5xR736ThwiJr6CriNCEfzKAMzNq5Iy1aUrDMfRZCwaNwUxiu+VZMaswW+KFlm12sr+TILJvcdx+/bmutnfQ9kHSmT87ybtMjT+pNELZw1F98mKKzNmmQzGELcPe01/yHs43vQ0HHKyE8MxZEAYdilbmpkXsX/+CHTuG4zQf/fC2G2WV9l13xyN7vp9kYGojwci5LeLhu0V27IrpB+CFI9icegSiDdNkqzYNBmPrwYrjlDpOzG+fWeMnq8bxVeNO1ePirzRHz59w5GoT2BHdJ/wgfGjP5JWI0JRd9l16gX/Ak4uGnW3Ew6uWmpcKaZuQ5CfN5o394Zf0DYrDo7PwqOh4ouTlmLy/HhDOmfGI+KDXnhzmeJsaDEqnvxqCVe8NkjRSMqIwse9RmCZvnCL/Re3DCN6fYyoPO8GcMKAt/3FHtVJx86gXhixTJFemu+JwMRXumJEaDBeGTA3z5NSeSpiXaHyf8f4GZqTRdnZpXjsk6bsDMRXR+S/jYI1W+cHG6ehUVfdbOz5bpKiTlIj5dAsDO0+udC9Tizx6PK08T2wenZt4G/0yEJZcRyD8tQFXRWBYvKicZiS+8uxxvjLjbpV56fEHQ8sOBYX3SOqb2RnZg0y/m71Hfw5cwDGGR6wLvaZP/oVaqhobwx/01PRKE9E+JABCFPWS+KXL+6fjxGd+yI49N/oNdb8cUzl3wv6i98ZGfreHtX8eotfMWX745tN240WaYK3hynqgWvLEPjmfKPfz4yfjzdHr4b+UehG+7H49k1uj7d9odNk8EAYmqvpiBjZCxMV9Ufmxd8QNmAIFpiLVZ9g1pfpou+vorU/tJ51qyfPSZIRs8/0sZWPj529EypVqgQne0U6lQBPdPANVVdMXaLsdpeNlG0h6OHpDk/vNprh9j1aiiDy52Oi+ArpsVjz62nLMoXTAHz0tpu+gstOXIBXm3vCu1MA3hopPQ6nOVq+usAQtNl54s3hJoeSxs3QSLG/r60eCk/NoFy+0D0i2LiSyUbismFo31T8jvh+D4/2GDB9L3TjKOhkqU23oDGaGf8QhnpqBwAzPIu4LkYunIouyoPOsXAMay/SqLlIK+nROp6d8XroNqRIv5edgp0roiwPCp1eRuhnXQwND3FAWBbYGZ4ezdFG3pZhyxINDVjHLpjydR+jAly8VPCZtBSTfBQbrL6ILaHaUXzd3DzQ8vm+Im8cVqSvHdwCl2CWSUM4af0WwzPS4YAeA/3FtxdApIe/MvoWDa7VigPFppDRWJNwG3fv3kbCmtEI2SS/UCAV/F83buBFh/bQprNmH/bA2NXxJnm8cM+GN6d48qtlnF7/BCMU3V6zU7YhpIe076S8LfZfrxBs02TWvKm6TsWSQEM5lvL1thCRXu7SOrdBcw/pe8bi52Pag1t67Br8etrK9S1qXaHywaQfFPWYVHaGtRfpab7s2HmOx1ev6/Ko7fODTdOwyWAMNDopuEzUSU019bf0ve0HTMfe3BmqWA/sjzRPDxhgCERkdm38YS72LpZjUJ5EoPjR20Z5bsGrzUW6d0LAWyMxyE+kf8tXscDw5fB8c7iZYCkPJe14YMGxuDg8kvpGx+i7veHZtCUGzZDbOhrSieTxlu8zE3VHLsRU4wYDwvX1kvQ4QE90fj1UroNF22vnCkSZj74xsIeia6tGXbwyyNyaPYLjmy3bjRZyGTrHKG3To0P1v+8t/dsjFNH6HemIgC8mGO3HYts3uTze9oVe3bfxhaLugzoeP0v1h6bMusGzcyDC5TL0VLG6TBfD/ipS+0NL1ayp0Un0g6Hi85p9NRzr5aWPS3ZmGm7duoW0R/0IlQI82cG3oPIKxoqfAtFCUQ9JOz/zdqrxcPt2ldBhUiS2BJt74L85KngFr8BPbyge85KdiduXYrEnUnoczl1DhlY1whs/LcRI07P24qAzVlmBmFN3JBbODkAN5Zuk39F/vx0qdfBRPKYGSDyjfEqkRBTAsYqGVF5c+mDeujB0N/oxUa/dFWll9GgdFRq9sRg75lt3/6VLn/nYMa8f6igTWH0Xqcq0EuxqBGBW5DzY6nZhPZUbhi6KxALlPsyLqg56hpnLHzGYv1Qx4IdDF/TqYkkOEo3bAYbudtKAGWuXFU8rT9PAC2qhqHAFKZ31+1Dsvw5tFPeFJSOhsA08U8WSXy3VBP+3YjYCTPKrkl2NFvBUDGeQm1yOA03SS7POqTCuIjpgUuQWBFt9j1vR6wpNPTa7oLIj0rZVENauHWl0BdL2+cGWaSidFDTdx9r6W/e90nf6GGcoo+fkFtmjzNO5AhE7dBIBufmgsxiOQfnQHjvfUDxqTEr3S4jdE4k/E5T7VToe/ISF1ny5UKKOB5Yci4vFo6hvtOq2kH9D892mj+dzRIug3CeSreOCPvPWIax7DeN00+xD499TNXoDi3fMz2MfqtClVxfFIGNC3Z4IyOvx1o/g+Ga7dqOlpLRdgqBWlRRpq/3920YJWwf95u3AjK6mv15c+ya3x9q+0NOWo6ndleljQtR53Tsq+7M8+QpTpotjfxWl/aHR5G2MVZ4MKiHuxizC5M9C8eWXXyL0s8lYFHNXfuXxe+KDb4lLh2CsO7QPK0OGoK27Mwy9C1So4OKOtkNCsfFwNBYPdbOyAnVBh8+kx7z8gpB+zVDb2d5QEdjZw7l2M/QInIGtR7fisw7majb5QGz0GBc72DvXRjVF+XHpPgO7oxZoHiXjrFt56fvdfTF2QRSiF38CX0VuT97+a67h8rUHk7Hwda+g30Y7e2fUVv6QoHLrj3n7jmPrDGm03NqKR9do16tZj7EI330UWz/rYFXgrePSfSp2i/SYESi22cWwLlBVgIvYnsAZW3F83wz417BuTxSaqgZ8xT6M3bcSIUPaGq+T0T7cjdn9zeSPmA2IVPTYcejSCxbF3oJRdzshad1y/cAhfqPHo1Ul6UWpQhuP0X7a5ZYR+WrkOkRvDUU/5T4UaVy7WT+EbhX7b/5gtFD89r6txTfienHkV4u5dMeM3VFYIJUhffmT8qo7fMcuQNTuL9ChwNt4RDkOXodDujygLMeafNkWQ0I34nD0Ygx1K2y+LGpdkX/ZkfZryEqRtqtGIndb/VHkBxumYUH7WHznJ8YZCr8W49VKyaPL0yIQ6aQYN9mhBwbmew9L0fNVflw6fKap+34J6YdmtZXHTt3xIBAzpPzzxB8PLDsWF49HUd8ADd/Mr8xHY93IYggYVW7oP28fjm+doRkBv7ahwSCyn2hfNOuBseG7cXTrZ8gv+6mk46Yi+q7bMyCf5wk/muOb7dqNFlJ5YeSqaEStDNFsp77e0dV9crtkavc8EraY9k1uj7d9YSCdYBDps0Bq1xr2j6qCqJf6hWDNvq2Y90oj7cKnROHKdPHsr8K3PyTyySBxjKqhz8eiHNV2VQT9j9pZRG6MQ0aO/GdOBuI2RhoNXPc4PfO3IM8TET1Z1KvwpkcwouQ/HQJ+ROyMrvJfRCWNGtvGPIcRm7V3vjr4z8ORWd3NNKiITJwKg69/uH7gpS7TEjG/j/wHET15WKZtKAY/fbDc5CR5Ewz6+t+FvhWnOD0VV76J6CmVuh5hM2MMA4iYSF22GvvkeYmnd3E/M5eoGKVtxgr9IGMOmu64DLyJiIiKUxN4e5aT57XKeXrn0+Pm0WLwTUQl1Cn8b2AQwmcMRIehs3BIOTK/CMcv/haCgcpRqB26YHCuhyUTlQyaEXrfmgh97F2tH/7dnaE3ERFR8bJHiyFj0L9VbVSqUAm1W/XHmCEtxNKSgd3OiahEuvfb++gUuBG35L8lqgouqFgWeHDHePAiaTCSLtN2YL7NR/Ejss6pMF/4h5s+E8cObSZFY8VQ5leyELuoEj1dWKb/sXjlm4hKpPIvfoPNs4xH4NSMzG8yarB2RNp1mMfAm54Qjl2mYg4DbyIion8cBt9EVEKpUMNfGoFTGo35MY1IS1REpR2d5HyrHcW4Z+hWRFv5GEciIiJ6OrDbOREREREREZGN8co3ERERERERkY0x+CYiIiIiIiKyMQbfRERERERERDbG4JuIiIiIiIjIxhh8ExEREREREdkYg28iIiIiIiIiG2PwTURERERERGRjDL6JiIiIiIiIbIzBNxEREREREZGNlYDgW42UQ/MRFNAJzT3c4OYmJndPeP93q/w6Ef1jnAqDr1QHyJNv2Cn5BSIiIiKiJ9tjDr7VOPG/Xug8IBRrYi/hrlpenJ2J27fuy39YKfMi9s//FIP82hiCeTd3eHp3QkDQLGyPz5TfSLnFYKKPIfBx8w0DQx/KJXUvZg7zQ5s2fhg2cy9S5cVERERERJS3xxp8q6Mn4Z3Z8SIEz61uIw95zlJqpGwOQueWnfF66BL8mZBqCOaRjczblxC7Zjre7dESnUevQqK5H/2ni9mAyGvyvCRpHZbHyPNEsj1fjcaMXQlITU3ArhkjMHmH/AIREREREeXpMQbfamz+YSUMsZ4jfEK2Ii4xEYli2hXcRF5uCTVOzB0AvzFrcLHAoFqNi1uC4dczDCcYgBvZsXiNYn9IriFyA6Pvf45TCPMtuOfDnfQMeU7yAPeVfxIRERERkVmPMfj+C2fOZsvzgsdwfDW8EezlP62huYI+9RjS5b8BFer0DMEvkftx9MwZHN0fiV++eAOtKtnJrwPZieEYMmYT0uS///HU27Bue+4o6tqaxeCFTVLyGz0e7aqqxJwdKrUaj9F+2uVERERERJS3xxh8n8W5ZHlW4loXdeVZ65zCtA+XGV1B7zJtH3bPHo7n3aujokqFitXd8fygz7Bq7woMczME4OnbpuDraF7+lqh3bsROXextZyfCKlnGdqzbxjQiA5XXSCw7cAaJiQk4vGokvKQ4nIiIiIiI8vUYg+8sqBUXvgtLvW0Ofk6S/xAcA6ZjXh8X+S8T9t4Inv6mIsi/hpUzV/Lqt0iBlQu3Qh97txmBtz3lP8TSrSs2m70vn4iIiIiIiCxTtOBbnYJD84MQ0Mkbnu7yfaLSY8I6BSBo/n5cNDew+Prh8j2l47FTXqSxc3yB95qaE/XrTn3QCHhg+PiuyO9CnMprDIa1kf8Qsg/uwE5lZGn0qCNfSE86yoxfZvwoNI/m6BQQhPmHUgoOSkUa7Zo5SqRRc3jovlfz+VEIi4iH2bHXzayDWAksCwpAp+Ye8nIPNJfSeVke32GNtE3YfFB3JsQObfzfxhsv6aNvZO9ZiZWWnqEQ6xkRNgx+bYy3t43fsLy3V0Gdcgjzpe309oS7/Hl3T2+L01udsgszRynTyQ0ezTshYFQYIgoY6V7z258Ogp/it7XrPgifzj+ElHx/PBPxEWEYpcwnulH2LfjtgmTGRyBM2i6Tdcs3H5ncw91s7A79SOXadXRHj28TFGXSH+GKE1lICoe/7reGr5cXStnTV36/NMn50yxtmgwzevKAyLfSKOlhESjqgwce374mIiIiIrJeoYNv9Ym56O/TEQNC1yD20m1k6mI36TFhl2KxJvR1dPZ5BTNjitjCztcJ7DusuE+51gvoUmDfdSd08zUElsg+gF1R8nwu2TgZ/gp8eoQYPwpNfReXYtcgdEBn9PrfiTwDwsyYmZo0GjZjq0iju4b3aT6/FeFje8DnlbkFDvymjv0ferTsgZA1sbhkWAncldI5RHyHCIyK8riny0uXI1ofe7eB/8tOcO39EvSplH0QmzcVHH2nbpNGm++BseG7kJBqvL2pCbs029uyRxjMZwlp0Lz+8Ok4AKHSdt7OFKmvlZ15W07vjvAZsSqPwCgTMTOlzw/DjK3KdJJ+/hJit4ZjbA8fvDLX3P5SI2XVCO1vL/kTCYrf1q77n1gSOgAdfUZglbkfz4xBWI+W6DE2HFuV+UQ3yr7mt8XrYTEFnnzIRZ2CzWPbo3mPsQiXtstk3azJRxkXf8HwrkM1I5Vr1zEb9+9naV4rdqnbENRZmya7jJ48IPKtNEp6+FhNng4rVP3wGPc1EREREVEhFSr4Vp8IQ8++U3H4lr7ZKoI2ezi7VDC+6px+DDMG9kKYMiqo0xZ+fn5i8kI1eZFGNS95uZi6NBUhsiVM7htv1Axe8mx+XOvUMtzTjAycPXNZnjeVjKgI5UBuptSInz0EI9bnDn2lNOo1cIZxGqkqwMXZXvHbUhJNxZAR+QXPSVgQPBvx+cQB6TsnYFKh78tOwuqIOHleir39IWJvkUi9Ybj4nY3o5UuRVypJpO0dONpktHkz26uOD8fAAXPFrxpLXT8CQ6YehnGWcoZLBWWOysatbcHwC9phElSJwD2sFwbOMP68qoILnO2NUhvHpubeX9KAfX2Ctxk+K+Vld5FPOzVDDcXns29tQ3CfSTAeJiAVi98aiHDFDlJVqI1mnfzQ1l1ZHkReCR+ItxZbc5okDZvG+GFMRIohQJTS1MVFMymTRpOPcqWLiSM7sdNcZtaXyfZo4CAvkzg0QHtdmWxbR15oAfUJhA0cjTXGmQEVXJxhtDvU8QgfOABzTTNDvh7nviYiIiIiKrxCBN9J+PHjH5Gob/hKjwjbiKMn4xBz8DjOnDmK5WNbiKWy7ESEj5lm6EbeKhBz584V078NV1Ylnv+Wl4tpYi+4yovzdeqMCL8NKteoIc8VoGED1JJnJel38rmqa1cJHaTtO6N9BFpi3G6ED3ZTBJTp2PnVTBg/kOsUpo0JN6SRYwuMXX5UpM1xHIyJQ4LJdxQcPDuiRWA4dsfJ6yCl8TDlOmRg69pIed5KSeux5Yw8L76xjf/L8okPV/RWdD1HXARW5xUkqaMx6R3F9tq5YXD4bsTpt3crQjpU0q9vdtw0fPiLIs1TF2NU0E7DSQ5HH4RsPIqTcTE4ePwMzuxbgDcaGSLN9IiPMUWZ4KemYUx4oj5AdWwxFsuPis8dP4iYuATE7Q7HYP1Ae2J/TZgEQ3Knae771w/Y59gFYVFHERO5HHMXRmBf3HGsVqb1tZWYqeyDHzMTcxRd9t2GrcbR43sQsXAulkceR+y+MHQxFAYcnGOaV/KRtAiztxmiZUefSdgeK9L04EHNdDx2AwKVAwhu/tGC2wNUItYegnFffokvv5yAYW3E3taXyRB0ryK/TVKlO0J0ZTKwlbywIGpET3oH4YbMALfBUt49g+MHYxCXEIetIR2gf/BAdhymffiL5eMuPM59TURERERUBNYH3zumYXacrukL1B22BIuGe6KiLjZSVUTb91ZiyTBF/++knzHnEYyYXaGiZdfLreExZh0WK7fPvg5eDF2BLzoqLhFeW4PFiudxGQ8CV00EoivxXtuKhqugmu9YgDEe8t8FDGompfHK4BdRR/ccNimNJ0zBgMry30L26TiL75NXipm/FIbYW9vlXMeo67l419pl5n9BvfkHrNRHNCKA/2QFQl+sY3hsnH0jDJ8/GwP0XR1EELpjp357T/24APr4VZNeizDc05Beqhq++OyXELQxREXY/ZtuXdTYNudnw5X0aoMRvvI9tNXvMCm5X0TogjEwJPdWrNis+/XLuHTZkJ/Ruhf61zB8Vnwa3sGBaC//Ja17/ElFOiRdUoy0Xwsv9vM2elyeqkZ/jO2vONVz7TRiLY3nrpdFfd2VZ7+++OCToXBTrprKC8Ef+0OfE7MPIipKnjerLoauPordyz/HmIEDMXDgMAztatFpLsupN+MHQ2YQWeoTrAhV5F2ROo2Gz8dsQ2bIPe5Cnh7zviYiIiIiKgKrg+/o3/cqBjhrg2FjvBRda3VU8BrzDnz0wVIGdv6ab1RQYrnWNXcTuQv6v99P0W0+A7FHEuR5k0Hg6r6CIT65U0gKhLq8YAjKsuNjcVqeN9Wwmbk09kGbFvJsocVgQ6QhUIJ3D22Xcx2jrucizly33OxV26hdB/RXImHXCYMHmxltXuWDIYO99F2mndMu47zmhcvYtVdxST2v9HIZjDf8tZ+VpnvXL8gvROFX/TPSpI8Pgfnk7gJDcougKlaX2k6oqL8yLRzamPteX1V/LJJ6HMjToVAf+QVBfNhwGiYZv63JfV+314Qo/WcTE1dgqKXniPRXpKXpG7zeRF6uVLMmDBers6HO7xbujqMR4l2YJ+lbIWoXDhgyAzoNHixKiykVfIYMhpe8L12c03BZmxkK8Jj3NRERERFREVgZfF/GkeM35XmhrjekXqtmOXVBx8byvJARewSG8NQ27ubXfby4ebdBS/3JBSDxpO6+6VM4eFQxCJxyxGiTqfcCxQ3ryeeMutA/EjsWY40i9m7j39vkXnuTrufXNmNNtDyvl4AjsYrtrdUIHuYCIqHJ+xv0XaYPrh4Fd83SGBxTnnVo6AFzMaYUsL08Q/6sNH3TQ7v41EEYJ7e/2bR2c+sN4+TWpbYrBvRvY+hqnL4Twe2bwrN9AEaFLcDG/Qm4md+YYB0Hobfiin7iglfh6dEcfoM+xawV23H06p08ezRYLhPx22fh00F+aKMcnVua/MNz3T+fp9IqMydxilfCkVjFyblaaJR3ZsAG3b48uBqjtJkhf497XxMRERERFYGVwXca7igHbMozUJK4oqZyRLWsLBT7uMpNPNBQnpXcTEmR5wpw9hyU47Q5Fqq7ekM0UN44rncFV27IsyWaGtvWbTfqxeDfO3c6GHc9v4kNyxX96zXEflXu2HzzhDnGz3uv20jfYdgyV66gqMntMnQhVgQ2UgSm2chMicXW8Cl4/3U/tPb0QLuAICyLMxNIq3wwaX0YuutvYhbUd5Hw5xJM/+hd9H2+JZp6dsWwmb+Zf/ReAdQpm7Wjhr87HUv+TECqcnTuEijLODPAw7rMkL/Hva+JiIiIiIqgEAOulSQmAXB8LE7Is/m5fDFZEcA4iHixOO97vYN0xdU5o1Hc853aworxpItOvRMbFV14gYOY9JyZq4gdpsIwFjqQsX2dYgCrEuBOuuIEgpTc5tLWzGQ0erd0r+9WHN0djrG+7kajiGupcT12DUJ6tUGviXtzjUwv3dc9L/owNob2Q7MaxqO7S7Izz2PXjEB07TAUixOtSDxpILs+YxSjhqtQxzcQE75fi6ioKO3002tGgwc+1UrAviYiIiIiKiwrg2+TeyYvnM2nK3kCzupuy5WULo3S8mzx8UL7VoqBz5L/wM4C++CmYfsuRThp1w6+HeV5q5xBvNnf8kAj5W3iVXvgE/19u/lNgbB0POnikLZyIbYqIxlLGQ1gJbEmT5hTEY7KXajvImwhj0YwTu5PzKStmcnM6N3SYF3vLYjE8TNncHT/Wnw/IRA9mlVVXCVVI/7n0Zi8w0wAraoIz8FTEbFPGt39ECJ/+RbjhrRFfaPHV+3F5Pd/tLibeNrKmYqB7BzRZdo+7F4QjGHdWqJWrVraqZpjrmD/cXIyzgw4W5z3mpSUfU1EREREVAhWBt+u8GioiJQS/8T+vG6zTvsThxXBt0Oz5+R7fItXx5e6KAa8OoP50wp41vGpeVhwUJ4X7Np0RZdcV78sYPKYM7emus7ZrqhZXZ6VxG3HlhJ3+SwNmzYfLGT35WzsWblS8Wgokzxx4STi8tgBabFbsGLFCu20JVb+jsbwaKCZ0chv1PakffJnpWmfHMK61oRxcm+x7mpl5k0kJyfL0015sDQVKlZviW7DgjEn4gBiNwTC8ESvdGxeqXusmxp3ruo+m4yrd+QNt68M9+d7Yczny7EjLhrTDM8aQ3bcGqyyMCCNilLso8ov450+ZgayK2FcPRoqyuMFnMw7M2CLbl+u2GLZCPCPdV8TERERERWN1d3OjYPdg1gw64TZYPfUvB8QrY8cHNDlpUJdXi6QqvsovKG4HJYeMQ4j1ufRJFefQNgY5ZXHahjw3gCTQcaMXU4yd51SjR3hSxXfUxntXtCdWnBC7wAfxdXII5j5wfo8g4TUbfOxypquyMXh8lIsN+wc2HWZhjOKEZ5zT0cw2TB0PbKjI7BBESx19G1n2N7sPVi2zNzWpmL1xNH46KOPtNNC3bjprvDtoNiBSeuwJNpMeqj34rv35M+Kaermy9rlTr0RoFg3HJmJD/La/2Idts1fBaPkjgxCx44d5ak3/mfmvgWVVwBeVPTtztYPKf4X5g7UfbYjnh+z3kxZcEGfXq3leYnJPfL5yFLeDJ+WAtOBuSWpB2OMxi947Dr6op0hM2DPsmVm837q6okYrcsLHy207Nnnj3VfExEREREVjdXBtxTs/ttwaQhJC4bgzflx0F3004zMPP81DApXBK1138Co7oW5vGyJJhj/1WDFY7/SsXN8e3QePR/7E7RXt9R3ruJoxET09+mL8ERDQOPYfQI+MPusIoMzswZhxLJ4+SqZoL6DP2cOwLgIxchz1fzRT/FEIqcBb8Nf0fs2fWcQeo1YhnjFgFvqO3GImPgKuo4IRfArAzD3hJnIykaSVkco7uO2Q6de/orutuY44WV/xSjROIhVS+XgV1D5v2P8DO/JAxGyK8UQiKpTsCtkIL46Iv8tvsknwDCyepO3hxk9w3tZ4JuYr0yszHjMf3M0VusH2q8Gf32CO2HA2/4wJLfY/0G9jPeZdIU6LgITX+mKEaHBeGXAXOiTu0tXxSPxkrFo3BTEKH5akhmzBr8pItxqtXUnC5rgxc6KUQWjpmDEKsV2S8S2r9p4SP5DsHNFbQuHGPBQ3r+QvQffTdplCMDF9x6aNRTdJxe2B4M5z8KtnjwrSY7BPnMRf35U/njH6BnekzEwRLHeInVSdoVgoCEzwM4nAGbG+jPjce5rIiIiIqKieeZvQZ63mPpEGHr2DYcijhUtaHs4O5fFg9u3kWm03A2Ba7cg2Ms0vFuP4W7jsVP+C12mIXF+H/kPa6mRuPhNvDIpWjTHLWPnFoi1W4KRa7VOhcHX3OOb8to+EQp0n7kH84wekJ1HGomg097ZGQ5Zd5B6VxnU2MEtcC22BMvP8zZZhy7TEmEuadYPd8N4XQLWDcTmXcEWjDSehJk9fTHjjPyngz/mHZmFAs+NpP2C11p/YujN4DEWu7a8p78H1+z2qirApSJwJ/WuUUBq5xmE3zeONLp/N3X9cHQVG6Pcf3b2znAu+wC3TUb4dgz4EYdmdDW6P/dEWE/0DU80DkQ1+8wBWXdSYZzcyjxp5rPS52o2RHNPB1w5dBLnletv54mg3zdipG7lU0U+7irysWLFVRVcUL9pa9TMiMPxs1dwW5Fhcq97PpLmote/piJOuVGabbLDPZM01ekYdgaL+uu+/RTCfP2hPw9mQRk7FeYLf+WJMx3FZ43fUxeBm3chWJnxpB4mPY1PdIlUQQVtZjDZFybpaZL36wZuxi7jL398+5qIiIiIqAgKNdq5yisYW9YGoZXy8UrZmbidahKYOrbA2BUbzQTexU0Ft6GLELngDTQq8KdUqNMzDJHmAm8z6rZoob3SZm77xCstgpZglkngLZHSaMVPgWihuAIuXRXOvJ1qHHjbVUKHSZGGwNvWYuZjqS7wFhy69LLsnnenARjQSbG/z6zFMsXN2Zrtnd0PdZTfpb6LVKMg0Q6VWgVh7VrjwFvi0mcelgS1gnGWum3yaC2x7/rNw45cwasKXsEr8FOgvK90NPvMOBizq9QBkyKVJ4Pkz76hePyU9LlLsdgT+ScSlOuvaoQ3flpoHIy59MG8dZPQQbHi6rupSPgzEntiLykCb7HtHSZh3VQLA29J3ZFYODsANRRpot0m3TpJ3+kD5cPZEs8oH5puvSZvj4XiFvXCUXkheMVs9DPODLiba1+0QtDatVYGt49xXxMRERERFUGhgm+JymskVkVHYWVIPzSr7Qz9oM7SlaTazdAvZCX2HVqH97zt5RdsTYUavp9ha+w+sU5D0NbdRfEYIemKc2006xGIGVuPYvfs/nCzMAJq+OY6RG8NRb9mtQ3fp6qA2s36IXRrNNaNzDtodukQjHWHdOujSCPxiQou7mg7JBQbD0dj8VC3PL+juMVsiIR+AG3pXvxeXSz8bRX8e3USKamThHXLje/Udek+FbuPbsWMQF+4u1QwfK+cXiEroxC9amQeJz1EYDRyFaKjViKkXzPUdjY8sku6Au7uK++7qd1hftgxF3QIXodD+8Tnh7SFu+Lzmivw7m0xJHQjDkcvxtBcO1989jPp8VO/5PptXX7uETgDW8W2fdYh96+r3IZisfSosRmB8DXKd9JPu8C97RDtti8eanG+03HpPgO7oxZoHovlrMtA0jq5+2LsAuk7P4GvIkBM3v5rngPWWURzMiFM5Pcahvwq7T/XyvIfFnLpjqm7j2JrrjQReV+uH6KiV2FkoU7MPb59TURERERUWIXqdv5Us7DLNxEREREREZGlCn3lm4iIiIiIiIgsw+CbiIiIiIiIyMYYfBMRERERERHZGINvIiIiIiIiIhtj8E1ERERERERkYxztnIiIiIiIiMjGeOWbiIiIiIiIyMYYfBMRERERERHZGINvIiIiIiIiIhtj8E1ERERERERkYwy+iYiIiIiIiGyMwTcRERERERGRjTH4JiIiIiIiIrIxBt9ERERERERENvYPDr4zETOzP4b9cFn+m55q6m0IeikIm1PU8gIiIiIiIqJHx6rgW71+ONzd3NBrbu6ANb/XLs/tBTc3dwxfX0yBz6kw+Irf8g07JS+wlhonwnph4KxbcGtVSV5mzimE+bqJdR+O9fKSJ14h0k69bQyaic80G7NNpFwxSduEES3c4DF0JdLkRZY6FeYr9okvrNr9qlZ4oeY2jPEbgfWp8jIiIiIiIqJHxKrgW9W2NRqLf+Oi/8gVhEXtOoBs8W/cru0mwZQaf0THiX8bo3VblXbRY6beEYQh4dfRaeoKTPC2l5eSeWrs3LgTGWIuY+tCrLQ2Us5TBjLui38y7+GedoGNuaDPvCUIrLoHQW/NRZK8lIiIiIiI6FGwrtu5awe0qyX+jTuKw9olsmj8vlcKz4S4GJPXDuOoFHvXaocOrtolj1cMpnwcgYw2/4ev+7jIyyhPaSuxcGsGHOrWReXsg9i8yfroe/1wqfeAyZVqpwFYfCYRZ1b9G48sW6i8MP5jfzjEzcZn64vtLAIREREREVGBrLzn2wvtWzkAN4/jiLJ3+and+OMm0MbHB3YZe/F7tLxccvkIjovX7Dxbik8/fuptP2HNNQf0GD4YDL0LlrZpMw5mO6Dbp1/Br3I2opcvxZN8l7yq63gM98jAzvBFvPpNRERERESPjNUDrrXy9hT/j0P0H4aO55d37RWBTF14v9cD3riJP3YrLnHGHMNp8Y93+47avzUyEb9sNPyae8DNzQ1u7p5oHxCEVYnGndm1V0yHY/62IPm9+dznqz6BsG7u4ru6YUpMprzQlBqbV2xFhkM3vNK9KF3grVt/0/vFc92zvH645nuGz9+GIL/m8NDfky3fc+4bhr17Z2JYV0/NffXS73UdthAnTPr+Z8YvQ1BAe3i6S7/rBo/mfhi9LF6sbWFdxtLl0cgW6RXQ1Qe9/CqLXR+B1bmiVt16TsGquYPR3lPsB7Hd32m20w3jd0rvSUK4vzI91mO4tC3DTVJHnYJdYYPRSZe2Hs3hN3oZ4gvcCDVSdoVhcHtDGrUfHIZduQZYq4sXfesCZ9ZiWV55iYiIiIiIqJhZHXw7Pd8WbuLfuKO6zuVp2L4rDqjWGS/6dIOviM2T9u7SXx2N3n8I2VJg3sZJXpIqYk0f9AjZhhu1AzDuyy8x4e12UJ1Zg2C/nggzjSixB1+NXo9LFTzQyc8H9UvLi5WkwLtnX4RfqIqA2fndxx2FXQeyAU9vtJKXWM/a9bfcnq9GY/2lCvDo5Acf5YbeWIrRwxchpfFQfDQhED3cy+Hirs8xJGiH/t77tE0j4NMjBOtvNMTQj77El1+OQ0DNFGwJ8ceAuYW8xpu0GhFi1zp0C0BX8adPP39UwxmszStqTV6Ej6fG4G7tVvDr1BwN/YPFenyJAR7Si5XR6X1pvYbDW/Nmc5Lwy5t+GBYeg2daD8ME8dlxAbVxY1sI/HuF5TrZYCANoNcTHYf9iHjnl/Cebp/EhGOYmQHWmnR+QaxNEvbuepKv4RMRERER0ZPE6uAb7s+hmabn+RFtgK3eid0xIrT6V08RVLnCt0NdEZnvwnbNLbWXcUTqc+7QEm2aSH+Lt++YjIk70+HoPxt7f52KMQMHYljwAmzfHYI2SET4mGkwDu3Kov3nUTi6LwIL536Fge7yYj0RDI8YgvBEB3SZuhEzuufTmTzhCGIzgFpez0F3KsBa1q+/5cq2/xxRR/chYuFcfKXc0IxK6L86Gr/OCcawYcGY8+sPeK0akL49AlGaN1zHxtWHUcYlANN3/4zgYQMxcOAYTN00G69WzkbcmlVI0LzPOknrt4hQuzJ6D5JCb8G7N/zE7yatWw6xy3PLroXXVx/F8cjlmLvwffRs1lOsx0D4aG7qroAm3aX1ag+RQ8xK++VDTIpOR91hq7F9gdhW8dkxU3/Fti86omxiOD7+MY9gOelH8Voiynb8AtuU+2TRYFRL34mvZpqsbd3aqCn+OX3M7FYQEREREREVO+uDb3TEC9Jl47hoaHqeR+3CgWwHdPiXj+ZV7VXFOMRoLozH4JjU57zVC+JTWpErNyMdHhge1B3K69OqGsMxbkBlEUhtQYRR9NoOrwyuAfOdxLNwImwggnYCXcIiMa+gAdTuZ+KB+MdOZe7yuWWsX3/LtXtlMGqY29C6PdHPS/mCN56Tev9npOOO5u+qGLLwIA4enIGXlW9TucClgvg38aTYI9aKwfylZ4DKfuil3bWCN3pL0fe1zVijvK9fR6znwCKMHh8VdRDZaINhY7yM9rdL//cwxs8PtUtdkZcYS1i1BnHZldF7ZH+j+/hVPr3wL7FLrsUcML5P3bUmxFYgOzNT33OAiIiIiIjIlgoRfKvwgo/2vm+p53n073uRYdcOvrro2udf6OCQgb3SqGsnjoqgCPD0eUEOpk4h7rRYYFcPbmYufzbxaCj+n4R4EfNZ4u5v4zAkPBHZDi3Ro2teAbrC2XNIlmcLp3jXv3ipkfhrGIb5eevv+XZz80d4YUcVi9mAyGtS7N0L+thb8O7tJwLXm9iwfIe8pLjIaVv5WTTK1S2hFQLnzsXcQPM3C8SdTBT/v4llr+m2Wze9hmU3xUvpd8w/S/xCIv6SZ4mIiIiIiGypEME34Ppcc1QWwc6BP/Zou5V7d0YXfeTbEb7t7HDzj93YsfeACHYro/lzJg+TKlsODvJsUdy8ALy2IFT8YhQ+HrUYJrf25ubRKM8uz1YppvUvTqf+1xN+//kRp6sNxP/NXYuoqCgx/YTXpEfDFcKOxWsgYm/cXPaacUD76s+a5Rnb12GbLS4b29ujvDxrndroobnX3cwU7G/+cWb13PCsPEtERERERGRLhQq+4fM8WtsBKScXQRprzdO3m+IeahW6dPYGkmKw/tQVwK4F2ugvWDaBZ2PxwYyzOGPm9t3DMVLn6LpopBmgq2C13pyOYN/BmDalCxwOTsbAsBP5dyMuXRpSh/O7d4yvg2pHH3eD6cDbUrd2dbb4x06l+Vxxr3/x2YHwnxKR7TEGy38OxrBuLVGrVi0xVYOjWF2rqbdh3fYMoFpXjDcTzE54ua5Ig61Ysbk4o285bZNP4Eiuy9RJ2LdiBVbsM38Zv2ED6QxDBip5SfeUm5l6NjO+xz/tDu6Kf+xEoF9gbwkiIiIiIqJiULjgG95o0ViEOwcOIE4Emx18ja8rOnXzhad4ZceOm0Dj1miriHD8+vaAg3ht3pfbjB+BlboY4ZtFwFe3JwLkwdkKort326XP1/isiwMSw9/BpOh8AkLdYHF/xRt1Q372OS/NlewDv28zCt7V0cuxKVn8TpuO+nvWrVn/io7St8bhiHJcL3UK9sUUrfN7bhm4L93MnpmJe9oFGuqUozh5Q/7DCurNK7BVbIrHa5/iP2aC2WH/7QsPZGPPypXmu3ObKK2y7AxAx45tYIcYLJ5nfBJFvWMaRn70ERYekheY8Hqpq6Yr/MoJpiOiq3Fi1fzcjxs7dQZnxT+NW+Q97joREREREVFxKmTw7YoO7WqJmC8DGZVfQGfTYNm1A9rVEq9JI4u362DU5VfVfRKmdHFE+ubR6PBSEGatWIEFYcPQuf0kHIQbAmeNh4Wxt4IL+kwLRXfHa1gWmPvRUgbaLvGIi4HuQWkSVfdR+LebHTLEOvm8NAphC1ZgVtBL8HljGa7ZueHtjwbor5xas/4dA7rBEdew9J2XEDRLet9/MahbZ4QelC6nF6eOePlfjkBSOPp0HoSRI0di5Fti/TuGIErsA+ukYeXKPSK09kDPPnl00q/7Jga3AbKjI7DBgujbWzpTgyQs/XgiFsxab5T2Sk6vf4UPWpRCYvir6DYsDAtE2mr2Q2AEMtwC8fXIPNbHewJ+CHSD+CBe7TYIn4q0XrFiFoJe8kHf4K8w5ccTUCbD5SPHRaie+6QRERERERGRrRQy+Aa82rfSXC126PAvowG5tLzQvpXmVbRq76VdpCcC5fk7sHhsR1S5FIHpH30kgqMDUHv0Q1jkFgQbjeptBaeXMWt6ABzTdyJo1HyYXuzUUsF/YA84ZGzHOqMblpvg/7ZEIqxfE5S98BvCp3yE6esvoGyTfgjdvNFknSxff1XXqVgX1hNu6rNYM128b8E23Go2CTOGFsud5wpOeHnWOrH+zeCc8iciIyOxIyYbPp9vRVh36arzWZyxdAT21NVYG50NeAbg1TxX0wm9A3xgh4NYtqjgEd1c3/4CQe2q4v6xnzHlu99wXV6eW128s3I3FgR64+9DCzBFpO30iFTU6hOKzRuDkXfWUMEreAsiw/rBQ30Cy0Raf/TRd4i82wivfReJLRO8NXlVKwmrpYeXe/TFYOvP8hARERERERXKM38L8vw/xCmE+frjx+qTEL1iqNGjqegfIGYifF5dA89pf2B+n8I+7Z2IiIiIiMg6hb7y/eRqgvGfBsDh4P8QssmSO5bp6ZGEuROXItVzNCYy8CYiIiIiokfoHxh8a7uDLwmsit9D3sJc4xG66KmVir0hwzAtqROmLhyJ4u74T0RERERElJ9/ZPCtvUd4I1YML419e6/Iy+ippj6MDUeew4zIeejDew2IiIiIiOgR+wfe801ERERERET0aP1Dr3wTERERERERPToMvomIiIiIiIhsjME3ERERERERkY0x+CYiIiIiIiKyMQbfRERERERERDbG4JuIiIiIiIjIxhh8ExEREREREdkYg28iIiIiIiIiG2PwTURERERERGRjDL6JiIiIiIiIbIzBNxEREREREZGNMfgmIiIiIiIisjEG30REREREREQ2xuCbiIiIiIiIyMYYfBMRERERERHZGINvIiIiIiIiIhtj8E1ERERERERkYwy+iYiIiIiIiGyMwTcRERERERGRjTH4JiIiIiIiIrIxBt9ERERERERENsbgm4iIiIiIiMjGGHwTERERERER2RiDbyIiIiIiIiIbY/BNREREREREZGMMvomIiIiIiIhsjME3ERERERERkY0x+CYiIiIiIiKyMQbfRERERERERDbG4JuIiIiIiIjIxhh8ExEREREREdkYg28iIiIiIiIiG2PwTURERERERGRjz/wtyPPFRp10GYN+uY0EtbzAlFNF/Pyf2mhhJ/9NRERERERE9BSzQfB9F2FTz+HbG/KfphxLo+a9LFyr7IxN4+swACciIiIiIqKnng2C73RM+eo85tyS/zTVqDqOt74Hv+V3iz0AP7nxNLrtVaNeh/rY38tRXirRrZMDZoU1RD9p0cGzcF2doXnVPBVGvdcYE2oZvle5zEhGCl6dfB37cmDy29cwNPgqtkPxu0RERERERPSP81ju+a7SogEi36yI+jdv4+VpF3EsW37hUXKxx0tNystTWVSXlpVRoYN+mQO87DXvVFBjc0y6PG+QdihdE3gTERERERERmfPYBlyr0rge1j3OANzNFT++5SZPzvCSlpUvj0n6ZXXRu7LmnXoOZUrhwrFbOCT/rfUQa2Pvi8/awUVeQkRERERERKT0WEc7VwbgI37NfUW5pGnv4QCH9LtYlygvkNy8gWUXxGue5VFBXkRERERERESk9OiD7/ircA0+oZ+a/3QHZ5+ULtseFeFXJhu/HrktLwCSD99FbCl7BDTnU9uIiIiIiIjIvKcyYryw97xRgO8anM8AcFZxwevN7XA1Lg37NH/fw4oTD2D3bEUMfpCF65plRERERERERMZsF3wbDV6Wz+SmgoP8keLi0rASvulTTTFVgm95+cUiSM98iPatKqD6vbv4JVYsuHEbm6+Wgn/rKlBl5iC/sdOJiIiIiIjon8t2wbfR4GX5TC+XR1X5I8WlQk0nvPZ8dcXkhKZl5BeLICXtAeBWES855iDyaCrOH76LU2Uc0LsZu5wTERERERFR3mwXNabdwaufn0TzgqYf7+CS/JEngzNeb6FCxplUvHvkIRw8KqJnMT2nnIiIiIiIiJ5Oj+2S7YMH2bhxT0wZOXgcj/kuiqbPO6LJwweIvVUKfi0tecBYFvbtv4qlyunoHaTJrxIREREREdHTzXbBt1NFrP60KY7nMX3hJr/vSVTFGf7Vxb/lK+D1ZtpF+XuIZeuv4b/KaWsakuVXiYiIiIiI6On2zN+CPF9M0jHlq/OYc0+FDg3LoKK81FTypXs4pni0d70O9bG/l6P8FxEREREREdHTw3bBt5WP9mLwTURERERERE8rG3Q7fwaqQgxAVrrUM/IcERERERER0dPFBle+AXXSZQz65TYS1PKCAthXccb3ga5owVHDiYiIiIiI6Clkk+CbiIiIiIiIiAwe26PGiIiIiIiIiP4pGHwTERERERER2RiDbyIiIiIiIiIbY/BNREREREREZGMMvomIiIiIiIhsjME3ERERERERkY0x+CYiIiIiIiKyMQbfRERERERERDbG4JuIiIiIiIjIxhh8ExEREREREdkYg28iIiIiIiIiG2PwTURERERERGRjDL6JiIiIiIiIbOyZ8+fP/y3PExEREREREZENPPO3IM8TERERERERkQ2w2zkRERERERGRjTH4JiIiIiIiIrIxBt9ERERERERENsbgm4iIiIiIiMjGGHwTERERERER2RiDbyIiIiIiIiIbY/BNREREREREZGMMvomIiIiIiIhsjME3ERERERERkY0x+CYiIiIiIiKyMQbfRERERERERDbG4JuIiIiIiIjIxhh8ExEREREREdkYg28iIiIiIiIiG2PwTURERERERGRjDL6JiIiIiIiIbIzBNxEREREREZGNMfgmIiIiIiIisjEG30REREREREQ2xuCbiIiIiIiIyMYYfBMRERERERHZGINvIiIiIiIiIhtj8E1ERERERERkYwy+iYiIiIiIiGzsmb8Feb7EurQ2BJMjb2jmvYaF4z/tNLN5OIDvAhfghDRbxQ+fhPZFbTGbdWELvv1uExLhhpf/8z561istvcNiB74LxALtl8Lvk1D0lb7Uli6tRcjkSGi22msYwvPfaCIiIiIiIirBiiX4NgSmpkqjnEstNG0fgAE9mqGSdfGuXnEE32eXfYCvd6VJS+HkK+YHN9TMW+pJDb4fXo7C0oWbcPjibTzMAUqVKY/qjbpi4Fsvo4mj/Ca9h7gctRQLNx3GxdsPkaPZf27o/NowBDSrJP4y5yFunN6DTWt/w+FKfTFrZB7r+fAyopYuxKbDF3FbWpHS5eDi5oN+Q/qjVfVCZgwiIiIiIqInhI27nWfhfuoFxGychY8/X4JT6fLix6Be+xfgKsV4pV3xQvt62oVPuYxD4fhw8hLsT85BzSa+CAjwRZNqwNXYjZjxyXc4YLI/Lm2YgslL9uOiuhqa+AYgwLcBKqb/hchZn2GeyZsfpp/Dn2tn4ZMx7yNk+irsvyCC+2z5RVNZF7B2ymQs2X8R6mpN4BsQAN8GFZAWvwvfT/ocGy7J7yMiIiIiInpKFXPw7QjPl9/AG2/IU8DzqF1e+xM5V6MQvvK4CMcfj9L1emPi7HCEz56I3lZ2OX8yncWGlTG4hzroNeFLfPzeYPj7D8Z7n3yNcR2dgMwTiPhNEfVm7MGKrVeR49QR477+BO8N9of/4P9i8hdD0LRsJk6s2SS+UecSNn31FeZHnsRt56bwe/k5uMivmJMRtQqRV3Pg1HEcvv7kPQz298fg/4biq6FNUTbnKn6PPC6/k4iIiIiI6OlUzMF3WdR+rgM6dJAn/7fwyUcBqCP/SuahPTisib6lruGBCJSmkLUilDOQundrlgeGYK25K6Lpp7D2f0EYrXnPaAR9sRB/XC04pJe6rmu/NxDfHZAXaqQjcXs4Jo0fg5Ga10dizPhJmLUpFrfy+lrNOgRjzEjtOrw/aSEO5XpzFm7FbsKsSe/L6xqI0e/n8b1ZV/FH+CS8P1r+/U/CxTaZu4ychQsbPtN83+jPNuBCfpt96Rhi08QO9nwRPWoqTzaURqOObTTB8o3LydpFkpNx+CsHqOLji0bKtzu+gC4tygJpJxBzQV4GBzzbbTg+/OZbzJo8Bn2fq4Zn5FfMuXnrlvi/I5q3bWTUdd3xBR80Ev8+SPzLKA8QERERERE9bWzc7Vyo6oWmleX5nCtITpHnCyluzUxExt+Rr6Bn4c6F/Vj85bxcXagtky6C/U8QtioGV+5J9zhLcvDw3hXEbpyFz+YdEO8wdRO/zZwh1kF7D7W0Dvev7McPXy5HvD4YFkHylqn4bNZGxF65L6+rWHpf/t6p2xTB5nVs+WoSFsdcwX3NG8XvX4vB4u+3a+/3NnIcW7dd1nxf1uU/sE8fDJtRril6vvEG3unllce92iL4da4kz4lYPemSZvtr1sp9M3tt12ri/6m4qt93ldG8S1s0cCwj/50/Ozs78f90pF7XJ5DW9esiNYVKlcQ3EhERERERPb1sH3wjAxkP5FnYiUBMni2knFKV4R3wNt5+uz9869trF2aewLI1cdp5a1z6DREnMjWzZZsORuiscITPCka36tpkyTyxChviNbMKIkR1aomAt0dh1Ns90EheBaT9iaiT8vz13/BzxHlI31yqfEP4DhmHD8cN0a9v5vl1WLEnQzOfsWcxIi5qw37Y1xfvlb43AC0rmds1zeHbqYommC7t+gLyvXW9SmNN7wPveg7yAp0sxEcdFKG0E1o9L113Lljlys6af2/f1ITKVqvZ1R9eYtNPrvoW2y9maE8eZCRg04/bkQx7tO3eEaZrSURERERE9DSxbfD98AaOLVmCP3SXj52aoFlNeb6Q3F8NQaB/G7Rp0w2D3++LRvIWZMYeQa44uSA3b+mvbJdxrg5n6UJuGTf4D39Hvm+9D1rnuiTrgq4jR8K/TQu0aPMKRvZ2l5c/wJVkbXB6KWovtPG0I3zeGY/BHRujQeOOGBzUH00178jBX3HaSP1k3F+aK85Sl/3WbwaJ90rf64+RI7uauY+6NDwGhmJ2eDhmT+yNwty6nn5gHuZEpcG+5QD0tm7Ad2Rmak8YWM2xHUZ8NARN7eKxaso4bbf5cd9gY3JldBk7GcObF2JDiIiIiIiIniDFHHzfQORk7f3NmmlMiAj0rsrBpT28+r0MK+O9XMo5KK6ROrjj2aryfPptSHcWW6VpG7SQr1yn75uJccFfYOayzYjLrA1vH+19642raF83eMbo6r2DQzl5ThecZiAhUddhPB37Zow2pMfoxdBdHM+5lIRL4r+kS/JVb5EyTb0UQaj4kfzuoy6MrAtrMXXhCTyo7ItR77R+dFebs64iatk6nL5bGlXcfeDXPwC+nrVRPjsZUUvW4EihbhkgIiIiIiJ6ctj2yresVJlqeP6diRjRLteDpYuoJmpItyNrXEGytaN2lW6ONz8ahGYVpaA3Bw9vX0Dcrgj8OP0TjHs/BAsLFRXehGZ8MavZobQNLwBnXd2Jb6dH4mpZL7z18WDjQdUsZG9fuHD9UsRMLD+VhcZDv0Lof/+Nvt38Mfi9T/D1h35wubkf34fvNHNvPRERERER0dOjmINvk0eNvTEKH37xDb6dNRlvta6U58BfhXcJyVfkWRGImxkrrEClq3fBmKnT8c2Ho9Dfzwfu1cpoEyXrBvZ//y22XNe8zQoOIkiVZ+GCbh+HIzzczBTaF4VY3cJJP4B50oBwaIRBH42AtedAbt68rfnXuXJhhkW7hD8P3xA5rQleeMH4h0vX64EuDYGchD+wt3C3kxMRERERET0Rijn4NnnUWIcWaODiiHzHxH6QAcOdxFnIMveELYX7GYr7jrOScVkXtDk6wzB2t2XObf8B8+bNE9OvOFe9Bbr1/Tf+O3k6Pn2plvYNORdxNlE7a7nKaFhfF2Sm4mBUvH60cw0RCK/dckFeVht1a+t2QTyOH1G8Mzsbf8uzRZJ+BPNDF+KE2hUvjXsfXaqbPwVSu25tTWa4nJR7CPVLl6+J/7ugeg3t34WiKmMmH4hlKunfh3ioH5SPiIiIiIjo6VPMwbel6qJOdXk2/RDWLPsT584dw/ZlU7FKd1N0HhJWT8Wi7cdw+nQUlk1dhhPyLdNlPTzhpp21WPUyd3DsyBEcORKJ1Wvl529npePytbvaN6Cs4iq25Rr5doQ8YDrSor7FxPDNOHbuHI5tX4YvP1mAyPXT8cMh7UmElj7e4lckD3Bo0bdYd+wczh3bjLlzd4jQ3ZQVz/mWZF3A2qnf48+0qvD7IAS98xuhraU3PMU6p/6x0fixbel/YOcxERk7ecE7v9HV81QDtWqKL35wDDv1I+9pZd3ahf2nxUwxDMRHRERERERUkj2m4Lsm2j9fR/7xTJzfNR9ffTUHq3YlQV06v1UqhVI5l7Fv1RxMn74Eu85rHxMGey+8Pug5q7u1O7R/FT1cpU/l4GrULHw4WhoU7UN8fyhN83pp1+7wa66ZtU5tf4we0AjauD0LN2IiMOerrzBn1S5oVtm+OhrW0N4/Xfq5QXhdeg6XJDMeW+d8ha/mRODoLd1AbEpWPOcbl7Dh868QedUOdV7wRbWL0di7d2+u6bRubLjS7dCnR3WUyjyBhRMnI3ztdmxeNhOTJy7ByQdFGSyvNNr18Ydr6Qc4ufhDhHzzE9Zu3461P32DiRNWISGneAbiIyIiIiIiKskeU/ANVO35Pt7zawTnMtpVKFXGGY383sN//pXffcWV0fXtofCuWU4OtEujYr3nMbQQ9zFrlK6H3iFTMKZXM9QsL9/rLf5fpnxNNOs1BlNCXi7kfdmlUb3L/+HriUPwfD0XlJPPCkjbWO/5/gie/BG667/YEe1GfISh3jXl94nfd24Ev7FD0VZ7SVyhOXp0d9Vse4HP+UYyLl6VAng1LkatwM8//2x22n5W+25J7d6fYtLQ51FHdQ1HI1chYtcZ3Cj3LPzGFHGwvNovI2TKGPRqVhWZF/5E5KpViPzzArJqPY8hE7/Gf4p9ID4iIiIiIqKS5Zm/BXmeiIiIiIiIiGzgsV35JiIiIiIiIvqnYPBNREREREREZGMMvomIiIiIiIhsjME3ERERERERkY0x+CYiIiIiIiKyMQbfRERERERERDbG4JuIiIiIiIjIxhh8ExEREREREdkYg28iIiIiIiIiG2PwTURERERERGRjDL6JiIiIiIiIbIzBNxEREREREZGNMfgmIiIiIiIisrFn/hbk+aLJuoW/dm3Ayh1HkJx6H1nSstLl4FLrOfR8YwCer+OA0po3/sMdPAvX1RnyH8bsHcrgeZ8qmNrNBTXt5IUlibzu9TrUx/5ejvJCIiIiIiIiKkjxBN/pRzA/9Hv8eStHXmCqNFxf+gAhvesxAJcDWAcXe/hWU3Y8yMZf5x4g/v7fsKvijE3j66BFSQvAGXwTEREREREVSjEE31k48sN4zDv0QPNXqUpN8GK31qhWDrh/cR9+3XMW9zQxuRN8P/gagxtq3vbPlW8A+wBr5v+FMfE5qN62Do70c5aXlxAMvomIiIiIiAqlGILvS1gbMhmRN6R5N/T/JhjdFHHZ9U2fY8LGZM18Fb9PENq3tmZeCtpvxW7FktW/4fQVbTf10uVqovGLr2JIj2aopL9EfgDfBS7ACWm2ih8+Ce0L3Tcc+C4QC7QvwO+TUEhffWltCCZrVkYsG/sq7ixdgAPXHsJzWDj+005670NcjlqKhZsO4+Lth8hBKZRxroNWL7+F1zq6ooz0Fp2HlxG1dCE2Hb6I2w9zgFJl4FynFV5+6zV0dDW8M/3AXExceBSZ9i3x1mcj0S6/uLSgAPbmZXQPS0VslUrYFVQbjeTF6qtXEbT8JjamZCFTrIp9xbLo9S9XTPWpAJX8Hp0bp5MxdtNtRF3PgRrPwLGqPQJfro3xjcvK74AI8k+IIF+Fd990we1N17AmNQf1OzVAlH8F+R1mMPgmIiIiIiIqlGIYcM0Odvru0cmIO3pLe7+3rGr3cfjiiy80U1CPGvLSLFxY+zk+nrURsXLgrVl6/wpiN87ChNANuKD8kkJJx57w77FfBN6GzvDS707B5CX7cUETeEty8PD2BexfMhlT1l4wrLvUlf7TyViy/4I28JbkPMTtC/uxZPKnWHhcd9/2NezeelRzdT/n3lHsjbkvLy+kyqWhSaXsv/Xrok66iK4zRIB8uxTata6MoLYOqJ/1ACvXnUPXzenyu7RuiAD5hZ9uIiqrDPp0qIxRLcqi0q0MfPPTXxgW81B+l042lixLwco0oFJ5OzgbnXkgIiIiIiKi4lIMwXdNtH++jvxFD3ByyccY98ksrI06jWsZInws4wgXFxfN5OwgX84+uwqzI69qg1/7+vAdMg4fjhuC9q7a17Mu/4rvIy5p5gvvATIzc1C6nCMcHR1RXiW+N365/ndLVWqJgFEf4sPhvqhvL70/B1cjF2HrdWk+C8dXLpLvYS+NKt4BGPXhhxgV0BKVpA3NuSWC9Q04K70V1dDOtwnKi+WlyrdEB+9ymqWFpT6dgSPSTMXSqCX9m30LIYtv46yTE9Z/5IGl/WphXL+G+H1CPbxbSSTl3qtYrDsPkH4F76zNQHbDaogOcse3vWphwmvuiP6wGjqXycHWX1NwSH6rVg7s6lfD4c89cfzTptj4Yj5XvYmIiIiIiKjQiiH4Bqr2fB/v+brKg6nl4OG1WEQumY5Pxr2PoC8WIuqy8RXX47v2I00zVxat3wzC4I6N0aBxR7wZNBCN5DW6sW8X4rWzhValSzCmf/sNvvnmG/zbGzgZ9af8u47wefMd+LdogAZtByNosJecEMk4nyj+yTqMPYcyNUvg9go+DPRHiwYN0MJ/JEZ2ddEuTzuF2Cva2aqdx2La3HDMnVZAl/N8ZSEpPhmDl6UjVaxNtzYucJIWn7qNtelAu/Y10Ep5ZdquIgZ4qkRyP8ABaZ2F5Oh0HMixQ98u1Y1HS3esjlfri3/T72P/Te0irdIY/KLJe4mIiIiIiKjYFUvwLQWzTQZPxPTQUejVrCbK6e/XzsIdqZv2Zx/gyy26Lt1XcO6CdnA2oCGaeunfDDi0hrduQLb08zhrFChar2YDN8U93MrfrY/GTQy/W7rVMHwpd40f4iXWMjEB5+We5khchf8GBiJQnr7Yniq/cBUXk+TZQriw9zxcg08oplPwmX8T+x7aoXXXWghvo13zk+ceQLqwfWDzGZP3n0C3vWrxSg7S5fME0UnS9mVjyY/G75OmMZozGTlIk9+r9QxKM/AmIiIiIiKyuWIKvrXKVGmBl8dMwrezZyF03BD4NqooXw3PxPn1s7FK0087G9nZmoWCHUorYm8RfcNB32s7E5nmH4ddSMrfNVHaAc7KrvG3bsP4TuriJz1q7KUm5Q1T28r4ZkBt/PFpY0T4OUPTE16vFDp0qoZv+pif3m0gv02jDPr3Mv++b/pUQUAl+W1ERERERET0yBQ9+L5xGnv37tVOpzVDngtlUKVxRwz+vy/xfkdN52khDbHHpPu4lQO0ZSNLP8KZJAMZ+vHK7GHvIM8WC+XvFsDeHvpxwZsOxezwcISbmbSjpxdO1SbV8eNbboapXy281qoSGtib2yU5KFetOl573vzUoYr8No2/UbWB+fe99nwVNC8gTdWZmbh0MwOppmOzERERERERUaEVPfi+eQjrf/4ZP0vTymhoxivTK43atarJ8zo10aCeLrQ9i5MnFNF3xiHEaEcxAxzro2FleV7ngQjO5VmpS3tWXleyzVL+7nmcPmX43azjP+Pj//4X/xVTePQD4Fk31JVfw+n9iDK6DJ6FC1vW4oCtL43LajlpzxjsO3UDUifz/NSsKL1XjZ2x97QLCuHcjgtoG3YWg3fn7nYQf027BqVLPaP5l4iIiIiIiCxT9OC7kS86Vpe/JnkjQj9biM26K+GbwxG6OkH7mvipylW00XRz3+e1g4nhAQ4tmoplUadx7nQUFk1dgXj5Xusq7X3lZ1zXRZ3qmhkg/RDWLPsT584dw/ZlU7HqpLzcQk07tpV/Nx3Ri37A5mPncO7YZvywdB9S09ORnl4RtRqKAN2hHXxbyh2/cxKwcuLX8joexOa5E/DV+kgsnLoBuvHYped8jx8ZiJHj5xZ7UO7U2gndygAZcTcw6ZxRNwFknruIgO+v4Kx8EqJ9e0fUE/+e2nsFS27rblqX5ODKH4kIWHMTur4JeWnUxAFScsceTsUx5cmNhzcx94gUfNuhUxOOik5ERERERGSNZ/4W5PlCy7r1B36YvARHpYdd58Heaxgm/6cdtIOBa5/z/ZXucWMmSru+hA9CeqOefD/49S1T8On6iybvLaW5XzwrS1paBX6fhKJvbeDS2hBMjtSGmF7DTLuG5/e7pVDd70N82ree9j719FNYMnUmoq6aW8NSqPT8SHz6VnM44Bo2ffYJNl7WvtLotW/xf53zedzYwbNwXZ2Beh3qY38vy4ZGv3EwEZ3X3sMtEfg2aVAeLzcqhfMn72H9BTVyqjhj/ft15JHQc3BscwIC9jyEurQKPp7l0cMlB7vi7ontyIZDo2rY9ZZ2dPM186VB2FQY9V5jTNA800zngXjtL/FaDuwcyqBjPZXYxmyc+us+zonY27FRdfwxvJpIcSIiIiIiIrKU3SRBni+0UvZ10eZfL6BJ+XtIvnoLmQ/UyJZC+lJlUL6GG17oMwbv928igjidUnBu0hEvNLBDysUk3LybpQmGS5eriaY9/42xwzqhhmIgtvLuz6Gh+jxOX7yF++KLS5Vxhnu3QLzuloDos1L3aAc82/lfaFIRuHNqB/ZolgHVn+uFtiIgN5B+9wV4O9/G+eQbuJcp/W4plHGui7YDxmOMXy15gDihbFU07/gCGtil4GLybWSos/G3eLVczab412ujMfKlhvJ94eVR0/4S/jiWgmyHlgh47XnU1t8wbsblW/jfSTWc6zrjbY/83mjgUKsShjUFUpLu489LmdidcB8JD0qhtU8NrBtaA41U8hvxDGo0qoxBtbLxl3hfdGImdpx7gKt/q9C9Zx1s6F1Z+5xy4dSRa9iSaoc27aqgk0g3g9Jo2sIRz/19HycuPcTRKw8RfyMLDyqURV+/OlgtvkN3Fz8RERERERFZpliufBMRERERERFR3op+zzcRERERERER5YvBNxEREREREZGNMfgmIiIiIiIisjEG30REREREREQ2xuCbiIiIiIiIyMYYfBMRERERERHZGINvIiIiIiIiIhtj8E1ERERERERkYwy+iYiIiIiIiGyMwTcRERERERGRjTH4JqLHIvNcMvx/uoI0+W8ioidTDq4cOQf/Nbfkv+mpdvMyBs5MxuGH8t9K+b1GZAG2jZ5+T37wfWktQgIDEShN3x2QF9IjcfAsXINP4PmN6fIC0si4jmETT8B14nnskheRMXXSRXT//iZSSpXGPXkZlSxr5os8HHwaU5LlBY/JyY2nNfXM0IPyAio2TNvicePgOfguzwDKP/No6rPHcoy5hqEir7h+dREn5SX/WKpyqPfgJvp8exHHsuVlOvm9Ro/Vyc2nUUfkYf8doqyWUGwb/TPYIPi+hLUhcjAc+B5+OJIlLy+aS2tD5O8MxNMdY1tygHu0B8EnrYF2PvKMZn2fW3NbXlI0uu3PPcXC48t4jP0jHZnyezXKlkJFUbLsKpRGNXkRKWSnYuz82zhfpwoi36wKV3lxSQn2bCb5Ip6X8s38a/KCvMjl26LpLNbIn6LHLR1Tvsq9j+pMOAnfHy5i3eXiORaS7RTqWHfjMl5bmwGH1q5Y38MZ5aVlBZ6Y1uWVQpbfPI4xJelYnXn5KsZ+ewoeIXJZCIlDu2/PI/zcA/kdBsW13o/sGOJYGV+PqILWN29jwLJUqOXFGvm9ZiNPWhvNcubrVM0k56clVtSrDvalRNBTCtWdS8tLShi2jeQFT7/iD77PRiH6hjyPBzhx6ATY5KBH5zZ+OKjt73X16C1sKcYzz9Vdy+OlJoqpYRmUv/cAKyPOo6WoNPTZ3s4FMyZ64WJQbTSVF5HByV+vY939Mhg3oCaqyMtIqQx8lPlMTB1ctFV1rjzYxB51Na9QyWGHFop91LHqM7iYeBujvz0D/9/uPJLGOD0qD7Fmwy3Elq6AL/pWgkpeanMl/Bhz4+BZtPz2Glam5KBKLbks1FPhwbV0fDYvAV03PwXlwLEmQturkH7iKiYlyst08nuNCsG4TpUm32qlcCMlHR+IenXowdwndMyp37URLoR5YoF3GXlJycK20T9HsQffx3ftN7pP4UHMDuwruT086GmTkIaIdKBeFRXsHt7Fspgc+YWi82rvhh/fUkzvNkLMZ/UwStSS6fFXMWIvb/IqUEYKPt2nhoOnC8bw6JIHZ4xS5jMxTWpip3klVx58yxVtNK9QyVEWbyv20dL3m+B0cA28UjEHR7ZfRGAM64mnRmIKpsTnoEmHauipLaIk6vgRazOQXsYeXwc3wR+j5LIgjpdHP6yFgZX+xuk9lxH2FFzFa/ovZ7QvlY3FkSm57s/N7zWylnGdqq9XRzqjYakcbF97EYuf9DiDbaN/lGf+FuT5oss6gh/Gz8Mh6SRU2bIo++ABpFn3QdPx3y4OmrfoSN3IJ0dqrxV6DQvHf9ppZrX3cE+O1F5F9BqG8D7Jhr+NVIHfJ6HoC+X7h+Lz52Ixd+VxXLmfhVJlnPGsXyDGvOwGo/NcDy8jaulCbDp8EbcfiuCsVBk412mFl996DR1dFe888B0CF5zQzHoN/RgNo7/Dpvg7cPb7BKF9a4ulWbh6eBWWrIlGYup9zRX+0uVcUOu5nnjrtY7Qf1XWBWwI/Rq/XgZcX/oAIb3rIe9OL1KX06vYXskZ2z+sk8dZ7Xzek30Xy1dextdxD5CiBuxUpeHpWRmzB1RHQ6PGwQMc3nkFIfvuIe5ODrLxDBydy+KN3rUR3NReewZf6jq3OneN1u1VLyyWWvzy6/U61MOSqjcwfEsG4u+L7FTaDs29q+KnPlVR06RBcuN0MsZuuo2o6zlQS79Z1R6BL9fG+MZl5Xdou9iMiVfh3TddcHvTNaxJzUH9Tg0Q5V9BfkdecrBl8SkMj1Pho/cqYvd313GgblXEjqwBJ/kdhSF16eq2V23YblOx5/Dsz3fxoHENXPx3VbHAdP+kYvQnl7HOwRlbPqqDFtpPCbcRMuUifsqpiNWf1kN7eSlwB5O+vIDvMypg0eQGeFFeiofpIq9dwTR536J0KTSq74zPB9VCJ0ftW6TBXrqHpSK2YTVceLe64UqMqNhfnXwd++pUwalRNQ3pkX0Vgz++ht01XXBwrCtqaRZakDckUlehmbdxoVE1bKx9B8P33Me1nPKY96UbAuS3mErbk4Ammx8i4LUmmNfC+Nyfbr+Peq8xJmhXRL/s/berQbXrOsLPP0S6KGj2Fcvh3/3qYkJjO5z+IwkjtunynkiTRlUwf4gyv0td185jzt/OWPtmGSxYegOR+vzngM/eqI9B1U3OQ4pytPHXq/jfoUzt95YqBWcXe3z8Wl0McTUtvTk4G52E0b8r0ssoX8v5Qftmg0bVcXm4ZTcmFJgHJRaXfdNyKKVnWfT6lyum+lTQ71/9/hhdG8/uTMbEeG3aqyqUxesv18FnzynyQp51gdgfzaph2YDcdYHULfWjVTexMSULmaIaVpUrg47tq2KGX2Wjs/55bnt2JnZsv4zP9xn2UY0a5fHBoLq596duH/12F8fvKvKJx110XJchf7eu/shB+14eWN1BedSQy2p6OYROdMe/jQ9nMjmf3XLArLCG6Ccv1buRjH9NvYlTZuv2B9gTeUk0vuRtMS3b2SIPTRB5yMnMZ+VyeN2zJk4NraLfJ5bUtUVOW/m3s5+vjcVVbxVQDourPGupr15F0HJD/jGXhy3OlwUd6/Kwb9VJvHrIDv8N8sB4ZabV/2597O+lq5yVzOQVfX1aHcdfeIDANXfwp1SfSGlfxxk/vF0LrfRZ0uQYY+H6W5InNNJvYsrPV/HTRTltXRwwOsABR3+6UUDbRJCPhxl51G/aY8B9NJSO6dWuFrzeFtTFunxszPhYUmAZ08vBlZPJ+M+GOzh0O+/6UStH5Ok4kafN1Qt5vHbqAjwX30FWoxr4U7QXitI20cmrHKuvXkdYxE38LJczO5UdGrq7YN7g6mhs1CjW1sfvL03F76nZ+dbHEkvr7jyPIeL9r/Spi6nKY4hZBdSpwm9L4vDmiRz0GOiFBd5iga7sPe+KjzKvY9xxNTIrV8KuoNrIyvM4aknekNclrTxmjS2PKH3do2hHVHmAHb9ewn8P3Ncfg9u2q47wXrnT0JS1bSPddjbsVBuhpW/q1135m+U1+zS/9s6T3zZ6Upm2UIokY98OxMi9P9wDBsJLrs8TonbgunbWtuKWYNLiGE3gLcl5eBvxG6di5k7FfVfpB/DdB59hyf4L2sBbkvMQty/sx5LJH2LuAfP3aP21ajrWi8Bb+82SLFxY+zkmfb8L8XLgrVl6PxUX9i/B5ClrcUG38PhWbNPcl5KFy3/swwXt0uKXfQdTpp3D+ONZqFS3IoK6VkTHyn8j7ug1+E67pLg//IEozH+h19Z0XLQXBaFnNUzq4IDaD+9jzqJEw5WZBpXxTZ9q+D+51dPEu5rm73cbaP7Uu37oInw33ke5Wg54qYkDmpTJxvE/U9D3V+O0lLqivfDTTURllUGfDpUxqkVZVLqVgW9++gvDcl0NysaSZSlYmQZUKm8HZ5MDhVkZ1zD/lNin9RwxtFY1DH5WfMv5NMzPfeameFUqDSnkzs4RFZFZldC1vvjndib23NQu0UhOxw4pie6Jhq7yKsDNu9h3W1Tc9cvDV16EjFSMnXoeHxx9iJyq5TGqqzP617LDub9uYtA3Z7FGl9SVHdGpkvj3YobRQDzquHs4IGV3sXy7siv+qQxIt4nVa+ioD7wtyhtK529g4I77SC9jhyr2pWDSRlZ4iLWx98W/ZeHbzJqqR43vFiRjfnppdHTXdl/MuiOtzzkME3nnxU33YSfnvebl/kb8yWt4afH13Fcbbt9G/1nX8aeqHF6Uuq2Jg0rG9XsYP/MvzFXmEbkcBe7NxP3qjggSeT6odRlUvHUPH8z6y+SKTQ6ObYyH77p0xGWJ9WtbGUFtDfla2x2uPN4V3/GNrwNcpI+I75TK0TcdNHeHFg+Ly76hHO64ZYdWLZwRJNajftYDrFx3Dl03mnYHzcbP888hOOkZtJLSvmEZVMh4gIXLL5i9cpW7LshB/NEUvLTeePyFtNjz6DDrGlZe+xvujaV1cEQrezV2iILwgvIWjjylY+7sRAzZkYGL5cvira6V8VaD0niQko7xM+IxJUmu22U39iaiq9hHx++XQvOGYjvcy8HuvEibDcqGfyn0fL6CZh8dOHHTOP/IZdWuviP6mg28LVClKobUE/+KfLTWKO20ZW7QDim/VTAp24mIkFbRrgoGNxFlJtdnRcM75p44ppRCtxaVDYG3VXWtKevSVnLpwCW8+KvJfhflsOvsyzgvv8eg6OVZGpSo64xrWHO7FNq1lsqcgyEPb859DC8wX1p4rDN2C+tPicrU2QH/KqhlbY2k63hh0R2kVLKHn6infJz+RsqFm+gzP58rqBasv8V5QrrvdFoy5kgNmErlRHqVR5cKany76AZ2ym/Jl4sKNaV/rz8wO+CYU9MqmnUL9hIH9YLW28K6uFYL7XeKmFKwg6+v9D1VECAdCzUsKGMyzeB5i27jz4el8YKmPs8vb4lyJ+oS4D4iDpmWq7xe+xtZoghlpKtxV15iC9oykoI55/+Gp7eUzpXxhmspnBPl6cVvjY8JmkG+RH286VYptPAyqY9/Mi571tfdZo4hDx9i5fJzxdIlv5aTNu9kmeS164dTMOJoFkrbi3ZJuWfkpeZYnjc0cu5h7IzriFaVRRcPRTtiTiLe/V7Um9HZqP+s2M4m5VBXtPn3703GK2bqJGOFbRuJ5tfeS3g9OguuDaS6rRxq/S3/5k+Jmn36Rym5vSP2/X3Nep7PvU1Pc9uohCrG4DsDhw7+JZJb4o5W7duhtS76Tt6PqEvaWavV7ovQ8HB84mc4uklXysPDQ6G5+KyUUxZ1fftj1KhR6N+uurxxOUj4Yy+0MU8G9ny/ECc0o2OVQqWWARj14YcY1aMJyktvFoXq6C+LcMA0YwqZmZkoVaY8HB0dUVEUZmQdxsbfrmq3t0oX/Hf6bITP/gpDvew178+5GolVUfIXNfdFpyrSGaHScH2hPaT2V/HLwb61lzDnhgr/frcRfn+3Hsb51cPS8Y2x6XkVsm/cwqe6btHXUvFL8jOo4l4Vu8e7YYJvdbzbyw2/j68Cb/E9W/fcgKYMVamE156vjp41tSlZy6265u8OJg2NDJTD1KDG2Pqu1B2ooeZ72omPXIi9jWPye5B+Be+szUB2w2qIDnLHt71qYcJr7oj+sBo6i4bQ1l9TcEh+q1aOaOhWw+HPPXH806bY+GJBV73FQeFQOvaJHdK+uQucxP4NaF0BDqJSW7W/oIqvaG7E39ecUHGpmNc5XN1B+AH2xRsarudjM3BBpJOdaIxujjGso/psJk6Jf1u7O8uN6Rz8tjYFK++IvC+i+IPvi33mVwffjmqMw686wPF+BsYu0TXMHNFVasiIYPmPJM0CIQfbT91HtvRbORnYoOiKf/LcA7H/7NCxsXx619K8oZRlhyEjmuDsxKZiX9WHv7w4t3QcuiL+qVQWzbXHS4vVblcPR8c31HY5E9u9u6touOWosfU0MHxkY5HftXlv68e1MERsSvrp2xDZzUQpdOndUKSf9ns0ZaODCnaiYfW/X28Ygs6TN7Em0w4ez9dC1ChRjkSeH9fPHVFvOMJF/OYPO1PlNwrJyRghXXGp4oxNEzywtF8tzXt1+Xp75FWRr8ujg/iO15qLRof0GScHTTl6TRy4i4cVZT/jGsaLI296OQfM+rAx1r5WB+Ok/TuhHt4VDdWz+65hmVG6ibxSV5TZjxthqZT273pgd08RuIrUijgoMqSJvOqCq3Fp2Ce/R2rcf7wqHVdEQyPoPfHeN6V1qI+1H7pjVqNSFt3Ccf63K/giOQfVPWviwAfu+MKvFr4Q63ZU6oYo1m3O4kuG+iT7BiZEZkItdYNVrpvY5sDK8nt03J0QIPJPdtJdKONyTVkV/7bzqlyEK1Vl0K6OVKLViL+sXSK5sScJY+OBzgENRX6rbyjbr9jD4f49TNwiBYhScO0g6jM1dsYqx8C9h60JIv+VcUBvXaPN6rrWmFVpqyN+32i/i7SVbsdRJ9/CV8cM9Y1Okcpz9i2ELL6Ns05OWP+Rrsxpf1OTh/dezdUFtcB8aeGxzsjNTByVdkW1soreTMXgoR0Gi/TWdddeG6RNg+zz6WbqNFlB629Fnji0/ipWit+p93w9nBb7X7ePDveV8p8FalbFWFGOces2AqaexZRDd3BHGRjJ6/pyXbHPC1pvC+tip7pVNJ9rrymcpdC0ufQ9VdBcXmHLypjkLubvEvWjyC8Txivy1ngpnUTeir6B3+R36jjVLwepKXoiKXc7w+xrTerj6CfPIm60rqeZbezcfxdp9mXwzluNsFZsx2siDb8Y1Qg/P2cnqsQ0zI6V3yhs+V2Upxw7DHxDvFdzTBD1cVBdTXlKP30Li3UXDQpVd+d1DMlGxOGiPprvAaLOS0duO9Rw1i7RyRBB57SPmuKMaD8eH1MLjeTlpizPGzql0KG3KDty+ZSOs997ivx7PxObLpfFNOm4Km3nW+74I1hbz5w9fNNw/DOr8G2jbCe57SH/ZvS4ymgilp89fQ9Zinp26fuNsay1+HKxTT+ZOVH0dLaNSi5tjVccru/ALl1gUccTLRxKw6u1lyiikhuIjjqrmbOppv0RNLgbWrRogW7DhuAFOZ7AtcvQxP43d2OPbh1r+eP/RvqjRYMGaPHKWIzuJDepHpxAlJnou2zTIfhi+jR88803CO5ZE7hzE7d1bYqKVVBDbC9KV8ILg0bgjTfe0Exd3eTXS3tgYKgIzsNnY2K+Xc4VxIGrm+nojvrJTDcN3MIvx8URrp4TPmig/IVSaNGmvCbgPyoO3hrVXLFWqpDermHcFcaxAnykM8X3s/M+w25G7eeqYpCzIiuJ72klJefth/hLuwTJ0ek4ICr3vl2qG3c/dayOV6Wrwun3sV95VVik0uAXTd6br3uYf+i+2FwHDH5eHCUFVTNHdBOzF47dyrexWWjZasQeOodXtklnLFUY2F5/mj0Xp2bl0Uz8e/Av3cEmAxtPiQqwjjMCRXa6cDZdH9QePP9AHJbKomsz7XZIwcPPcSKzOToh1M+421uVNjUQWF1qmN3RHyDbNxEHDWRh3xldPr6FTQk5cPF2RoD4yn1ndOvwEAcuSg13e7zoLi8qTN5oUAkhRnkuDzcfIEGq86uWzbvLolkq+LepaLTd9Zs5aE9iifw+rq4i79lVQjvNZZdsiHa/iXLo7aPs5ibKxktV4C/SJCMh3dBTwKs+jog02NnHeAAlVWMHPCf+zXhgaEnqrjr6d6+FFib5OrBFaVTJeYA/bT6Ap+VlXx2Xjp1iHzRpXwP9dPWjxK4i3nneHlXs1ThmVFXnLodVGmoblJdSpXxvLM+64F6WaLBpqWNuI0J8tHrrahhn1KWtLPr1dtY0HPYdMnOSRy8dSw6LMlLKHuNerWKUT1V1a+Fj6Qpxejp+0jUuj93BZrHNLs1dMES5bmKb+zZW7mGJM16R7q/PyUSE/mqgXFbF7wUU00A9CSm6xngGlsXcR3b5ChjzgnEXzCo+FTW3oly9mKFJC119dupUmiFtbqZh61XAwaMidPccW1/XKlmZtjp1HY33u0jb4O7SyU/RyDphWhCLWJ5PiUBcJF87kYcN3bAF8ZsDPMW3ijJ3wOSKmiX50mqXH0D6mXrVtCfci41pfZpvnWYZy/NEOrYmSPVbObzb3XgfVWnjCN3dgfkT5fitepjWVHz6VgbmrLqAxh/HwuMbEYjvu40rhuqzYFbUxXmzvIxJV6XV0leWKoUqyjMNjlUR/n8N8ec4V3SQF+nVKoOG4p+MOw9zHxvzeM2+gj0qKveDDXQf2ATHP/XAZ+6KfC+OCZ0aSq3yHKQrHtGi1rRlS8HF0aQM/0dsc3AdvCk3jwtXd+d9DEm9ow/rrKbOvIN1v5zDFKlxX8kRIu40kqvMm2VN3tAph1d9tJGNVin0bCJdXNEeYwYpj6uW1jOFbhuJ+sfT2bjtUaUiumiaoqZluBTa19eud0qa3EVZ72ltG5VcBeVMi10/EKPPoHVatYN0QaG0V3NIJ0Alaft3oJieOpY3u9KKwNYBDrry8SBT+yioxPP6dXRp4qXpKqzTsFVz6MpMUqIuZDRwrNNA6l1sULk1WtWRNy5xFT58fxK++WkttieXRYu2HdChQwd41yts/0ShjAodmkhdV8xNZaHpXaWUnAFNW/HCDTQxDdal+8jES0YHquxM/LnzPHp8GYd6+vdK99bIr1vBzi6/Lj1a0UlSYc/Gkh8V6yVPY+Kld+Qgzeh5Xc9It45bLjEVP0uN0CZOCNB9zq4K+nmIfSQaiz+aufpire2rTdb949PovuouzpZSYcCgegjO7zS23B08I/Gu9gxoRhp2iNq4XbPqGNJE1HBX7mGbJlZOx46zYj9Vsse/dFflUkTFLFbfrpY9WsuLDMqjh7tUDT7AEV3/TpFH2ovNjk1I0x7wE+5iz0M79GxZCy+LA7F+HbJvY+dF8b3K7u0Sa/OG2P/KijhPmdli64pZWbui3TNnVxm+dcS/Dx8gRnl0fJiOdRvPwvezOM1zQbVpkPuk16lrUuNBBU9dXaDg+6rU+HHHKFvfumRF2U9IUYtSWAqNa+U+s1yr87NifZvgf17yAg3ryqEldYF2HYDnGphcqpDoGg5X7+OwdokZmYiX8mLlcvDJVcXqGkI5OH5B26nzZPJD7e/Vz/vkmFJrH0dNIKjvei6XVbu6FdC7CFW6eXdxUMp39+7gVdN9p8tvuhNeuvrsyl2slYPn5MN3ESu22a+lptOehvV1rZJ1aZsflQiopdsqM66I79QuKpgF5VnbW0fsn83aR0oqJ+19v8aBhcSSfGm1zBzNehQ7S+tTK1ieJ+T9X6kc2hUlr9tVwKA3G+OvSfUwu0N5NK/4DDKui0B8w0W0+vQMQk6bNv7zYWFdnDcryphoBfb1Uml6iI2deBpDNl7BtvOZuJNdChWdHVC7clnkOtWi2193skyCNCG/1x6BzMvXMOWHM2g6QbHN5u6xf6682HI15sw5iR7LkrEhPh2p4phiX0HaZsOJgsLV3Va25czKwBij/XYC9SZdwOjjapQSgfe8EbVyBa2WlXlr8kbBKpSz4CKEObZoG4n6umKRyvBT0DYqwXKnSqGcxfY9+tAbrdrJUUPpVmgjdceQPDiBQydsHX0XIDtbHGK0nrEzqQ0cHOSr9FKsnmfLRKEqer7/nsicZTSJmHX/ChKiI7Fqzlf47/vj8fWWC/r7wAulfHlM0nQjMTc5w6h9rODkVkl7z4S5SX8fxQOsWZiIPlvv4raoMEP6uGJTsHSGsxbeMFOnFp8y6N/LzHppJuX9WdbbJxqhV8WeUN73KHmxvSOqi72+/dhNQ9eZQjJ9zFP/DlXwzZC6ODGxMWYUOHCI3B383gMcFg3ntJh7OCRf3dZe9ZHvC8u4C6knlkvDCoaDyeWHmgCqdhXt2dW86O95snNGF6nSvHIff4p/Dh2/h1TN1W2RPqLxbHfvHtYniBcSM3FEFAhD93bJ48obj0spqOSqQHv2X5Dua/r2PEbvewC7Rs4IG1AbOzVpUAUvyG8xZgdX0+7Lj4FlZV9ih5pFKGtFpTsou+U6g6iQ83fe5TX5AaTsi8pl8uxKKMnKcwyGAtSqjP5Sb5Kke5rxEdIO3cUBsbhL62rFMjiSxL2G8vKIUNURX5rbb9LUw0nfPfXFllLX3wfYeFhqQD/EtgQRxJRxQB+pW42RQta1xZm2usAj+++iHQvNKoUOncxtm3bK/17tfyrbHX/zorKviFd6uWFriCcSpUC8bTlUynmInxZdwCxLxmKxui7Oh4VlrKl/I/z5ZmV0rpiN3Xtv4K25f6Hxp1JQehXSefEnhfY+7qsIvwx071gNc4fXF+km0q5n7p4aTt5uOPp+NQwQwdCpozcxcv55eE2Mwws/JGOPIiosct1daKaPGnPEqJ7VsHBkI5z+sD4CCrzCXQAL88Y/y9PTNiqJiif4jt+Pw/pTQxex/qNABAZK02gsOKHbaw8Qs2Ofbc4UW0oE3LoN/lsE4kYyMsQaapW1t7AbmWMTDJ4wHf+bPA5vB/jCs15F7ZX3nHs4u346Fh1/9Ccb0kqX0d4zYW7S3UcRexnB8Tmo3roWot6pg3efd4F3ZekMpwqONrhAYPA3qjYws16ayXB/ltWyb2Cx1O1WBNkRS+MUZy7FFJ4mgnKxe0/dNrmX1Xqmj3n6tldNvOblBBcLe6Jqu4M/wI7YB9h+JhPZuqvbtZzhLxo+hxJuQ306UwTlpdCpiaIl5FpGcyXu0o3c3XwlatG4NVYG3d3LirZ5Jn5L0HYj1F3dVnk7okupbESdTkd8fCZS5RMAeo8tbzwuD3FHLvgquXJI3pGCOaJh2K5nQ/w+uBZea1UJHpo0sMt91UMjG5fz7Mb76FhU9jWycSWvXgyPQJNqUkimRqJUMHMRgVpBcV2tstD0MLz50OwV1dzlwVrl0ddTlAnN+AgPsCFOlLtSDujtXdTDpXybh2i8NnLVLtHLskMbc/tNmlpWNAT9zZzRV+xKTa+WjJvYfFHq6uhseCKCXiHr2uJM2wz5ao4Iwgt5PSgfOShXzdy2aSf9PcOPWXaR82JxstHx18SFM1exdP8NHDc53moC8X7u2Owrla0H+Hlv7jEjTFlfF+fD0jImjr81m9bCkg88cXFyI+wcXg3/rgnt4JWzzA0g+Ghk3s3ApZvSVXh5Qb4yMG/tbZxFOXw+3gMz/KqjdyNHkW4i7cqbP5Dbu1bHjPeb4sIXjREz0hVBje1wSTPo2Dn8Jv9mkevuQjN91Fh9zXg03eub6YlQGBbnjX+Sp6dtVBIVQ/CdhSO7/7Soy0RO/J9mBzO7LwJfPREU26z8utXXn8FKPXXCaAT2s4eP67ehrtuz8lze7sSswrx588T0Mw4+bIw2/oPx3sdTMf2d5+Qr6JlI/CtFM/dIVCqNGtK/5+9hSwGVc/wFbbc9r/rG921I+/KO1H3VBmpq+i2ZDhZUPNL239bc0+ngYq84M2qYfKuKbJ6TiUVRxf/bVhHrInUHP3E+Bb+JI7h0r4726rb2qni22Heh8feRXaocuko3T+nUEA1i8bnsZCkwN3UPvydKJ3nKoo10c5msVlN7EbBn4+iRm9gpAq0uzeVHEMlXxS+IQH/pBREIKLu3CzbNG7o8WpJk38EBqUtVmbLw1txXCRy+JB1xVGiluTdOQRdMKOgaI3EXdScZDU7uPY+3FyZhg60PPlaUffcaKtiJwOV0cu6ykBZ7SaxvIuYUwwi0+dGuA3DknOlANsKNdERJi2vaw0e7xAx7NJLOTd28j+hcx5McbI+X9l8peDfQXl1uWquM9vfOW37GoX4bR80YDTuPXMKWJJPbWQor+Sq+l7qwODqgh/5Sigo1pPMitzKw1ZIrgaiEPtI96RfuYvkh6QkG0u0kxpcsi1bXWpe2+VEn3If0oE4HsS/zu4puLd3oxvtOKQYCehycS2tH6DWndlnNvb6XLt8z32VV7uGE8qW1I4PbmOV5Qt7/aQ9wKNf+t8yxfdfw3/VXMUe6V8qM+pW1p2Ku3JJb9vmwpi7OmxVl7NYtrNx/FRvOyesmjgsejaoj9D8NMaG2OFxcuYMVyi64ShVL532FNL/XLPTbqrNoG5aIj6TRWE38dUNbEgzdu+/hiBQgO5VDO5OimiY9G0zpQToixTYvPXlXW57sRHrVd8G4N7WDs+H+XSyTR84tet1d0lhb/9oI20b/OEUPvrOk7uS6SrQKWvfXDjamnLpJV+E0EhC1Qxvy1q5bW//jZyMXYfvpczh9cDPmzt0BxXh5Zv21dx327o3BBWsPDpU7o5PuJvTkzfjf3M04du4cjq2bgdl75ENkWS90tOBmp4pOWUg8cgRHjkRj3YrtUs9g4SFuXEnVNwjs7eXvkZ7z/dloTU+AzzYUsTt6XhxcMETatod38fmG29p73HUe3sak7/7CT1e1haCBKBRSBbov7rrifVk4LA6Yy/I5NquzzR9MLdG+vfY+ylN7r2CJfqQ6SQ6u/JGIgDU3LXi8kDkPseFEpggz7TDw1WcVZ0YN09K3tAOBnIq7bXTWWp2Zqbmv6ZGRA9+MuDuIeKgYYVxo37I8XB5mYEmciJ7qOKCb/iAq2FXBG9LtG+lpCN2ZadTgvHEwBeHiIGtXvyKGKrv31KqAjtIVssN3cArl0EV3+wfKoG+zcsDVO1giKlaj7u1CYfOGRRzKaJ99f/2B0WNOHp372KB5vIVODo79ekN74sbdUX/f+7NVtAeNncfkxogkOxPLl93UdD9WauotDWiWg83bko0fq5N+DV/9lo5fL4ldYdrtKruYu+VZUfZVno7oIvbBqX0phsfTScSBdtaWW/j1TA4q2LgVoJIG/pOy4KHrCDeqCx5gjVh/qW3ZvnWVfBqrjhjSqizscjIxPeKm0faqk5LxhfS4QUdH/FvXFbtFRc3AManHU7HcZJvXns5jT1SugsGiwso+m4HdOblvZ7GW+uoVDPpRuv++FHq8VEMxdkMlvPWc9M0PMWftVePBqESeW/JTQq77Y9u3qoDqIi9/EZmB7PLl0cdkoKGi1bVWpq1OUnqu/BS27S4yxPZ28zI+OVBUTq2dNAPPZcTdwKRzxkfTzHMXEfD9lSJ3D7boWCc/UuvCNaMSp1XTCX7SZl+4iTFGdY7kAfZEpGnqkuqeTppBnYqb6fpbnifE/n9OujKdibnbjB87eONgeq76z5yebSqIb5HqxItGXZa1RBk/ru3B1c499/VE0/W2pi42+NvksVNWlLG/M/Hj+msYueKayWPSsnBPswKlDGMJ6ci3ajhULJP7Cqm517LVSLmZgUt3rWsJdna3F8fmHETuu2pUftW3r+AnqZtKKXv4NtYukwbQcpN+UASVm1IMaaq+fRVjfjfpQVf2ISJ+vYb/LjM5Jgj3HkqXwkrBXjpuC0Wvu0sa6+tfm2DbSKu420YlmK5FXmjKZ3vDvRte76YdbEw5vfIv3ajnoi7aH6UdebzlC2gt91PIuXUUq6Z/hek/RuBoeimzXdRqt2imr7wy47fi55/XaO6dtY4DOr37FrRPA8vBraMRmPPVV5iz9RTuSfVIqfJo+fqblg000vBl9BMBk5SAmfGr8NkYqZv9GHy2KUl8s/RV3ujRWc5Zj+Q532XQb0BV9BDrfuHARbSedhYfR17BlKUJ8PnsIr5PzsKFDG1lqatAM06loNnXCXh74Vn0mHwavQ5kSYN8igr7oaYS1WnaoKxIOWBvZAJeK+yVsVq1MK9TGageZuKDqfHou1SsU+QFvDbtNNpG3MOZ22px4JXfa40b17FIiqirO+Ed3ejypqpUxZvSiK5X0/CDbt2TL6LTpL/g9XWSbUZCN0vuDq6ZVYwwLnGvgE5lcpAhKrtmolFifBAvhRf71sCAisCBrWfRcc55TNmVjI/nnEar1drHRs0YUsPkM5XwoptcvGuWR3dFntaOvC79lkn3dsHavGEdR7SWWqu3HkBzl8Ajl4Oda0V5mHMB0/dL6RePgL1qZIv0C3tF7hkgNH2+IqSnNp3afR5tvj0r0iABL0z8C+MT/9a+R3mAlPJ1B7H0xm0EfBGPdzZewfQ14v1hV7H9oR16+FU3BFq1HKAZLPtcKnp8n4i3fzdz9aBQLC/7cKiGaQHy4+nCTqPvmmR8vzERPb5Iwpwbz6Bxh2oYbEn9VxR2Lviiv6MIXO7jM0Vd0PerBIyJz4Fjo+oiTeXWXh7qv1gTH9cqhatHkg3bu+gMWs6VulqqMGpobUO621XBFGmbRd0z/iuxzaIO0+7TC5oudOaVQd/mUmNXmlU8xssiD/Cj5je002vfnsSz025gz307dPKvh3CTEdObvuSK96s9g4yz1+AzNQHva/LQWfxryl/44PRDXBSNXKMGiVtFvOQomkDikGI2eCtiXWtV2uo8FPlJSluRn5ZK+3KqlJ9EiW9UFVNaWJN2FtDk4fKoVEqNn76Px7++F+V510W8L+rDxvNu40haFm4Xsn6x6lhX2R6iCQBce2B4pKaeI4Jfq4TGpXOwfXUCWmrqESk/SPVpAgYdUUNVrRIW9inegTTyXH8r8kT9bjU1j4m7sP8CWor9r8vDrdZm4r4Fu1LVrB5Wit8qdeMOBn0RhxfESmi3PQG+E7VlXNr2T+SnkkjyWm+r6mLBp650fM3CT6LuU15Zs7iMVa6BqdIjlm7dxstTzmjqc01+/uocvrkq9mrjSsYnuQX1xQeaNp1X3dy9Qcy+lpKCV8LOou0K6xqwTs9XQ6DYL9I2tBJ1pSZNRf5vM/UGDojqvWF7Zd0tn0QTQeWMWae1xxupfIRdw+4sbbdzwxMXXPCZsn6UyrAoT++IvPFuXI6oPp0wWneyrRjq7pLG6vrXJtg2+n/2zgS+qSr74z+SrmnTfaEtpaWFQllkKyKIiggCIhXBDf+4jYqK419kQEZlBB3c+SOMM4zLIMow4jADIoiAIKAissvWhZbSltKV7mnTNm3C/9z3XtrsTdKkFLzfzyeE3KTJffeec+459557n3t8o65LB0dFFQ78kiUEm+yrkq4fKRhQUzyG3oLr9ban/CCEu455XIdHXnoYw6J8pGDbAz5Rw/Dwqw8Kq5RmJN6LZ+8fiAgvscrsntvsdtsOoxyJ37+7GLNGxSFI+i76MgTFjcKsP72NZ0xzdKyixMhn3safZo1CXKj+GugqfEIRN2oW/vT2U0jRN8Z1k3B7NPuEO+/zTSgj8OlL8Xh3iDe8K9X4bE85VqVpcDkmCOsWJmGJ/vYlZED/Nj8Gc+LodVUjvs1oQK6vL16dHY/5wkEazcgwPJpzYDQ+GOIJr0YN9mWocaL9rVoWkGHwlD44+EgIxgVrcexkNZbsqcUhlRyTU+Nx4nFHbivWxtEfaoRgcGRKOFh8bRkvzBzNbnujxb/3S6mK3nKw7DdPEiJLMusuxHRw8h/7Bpjs0wzFNHaSMZmwm/tbqJEiFCsWsL71gqZIhVXbK/FZoRa9+odh6/xE49tGSYzty+6lSd03IMh4JjokCFOZoTdNb2c4KhsOIa26U3Cy74wUDHYqCrz1XDiuU9dhxWZqv/wW+IT7YfmcXsbtFxaNbXMjcGd4N1QVqfHtWQ0awgPw4YLuuJMNEDUaZLQOkCTXU5Ow724lkikY2EHy9d5R9nkl3n0uCZ+OMFwmISfnHiV6ybXIyKnHrosuzIGxV/eJsBGJ+PmxENwSRHp4uBJL9quFPp7/SCJ2TjG+vZC7CBwYj/3PsQN+LuPkadEWHGvwxJ2TeuLnxyOMb3NnESWeeTYB68YpEF7TIF5vZgu8YwPx0dwkLDK8XRURNqIXvqU+us6nBQcz6vFttgaefSLw0SjrVxs42E+4fzOb+TfKRGkXLU6y35AeP1d2Q3L/EKyZn4Qvbza+VaAAu6XP3EThWno1NOE/ggw1otjPD+8+3xdrjW4Bw5Buh0bafcdQS8FbR22tY20r0DsCu+7wQuWpKsyn3zqo6oak/hH49lF7+tJxwkYk4CiTn+7dkJdbi/e2V2Nz6WWkjInG4XmxxrcgcwSHxjppC0C1Gt9bmMTx7NkDOxfEYjHZbO/KBkkeyJ56eOG+SbE4OLeH8S14XIHV+jsgEySPi56Owfzenmi8RPaP6n2oyRvPPxKNJ41neK3AfqsvMp+PwKOxHmRD9brQhGIfK9durd4O2WIaX8d1x0tx9MVs7DrbgHP6hSG7dYzZ897YlarEAK8WfEefY/J8sskT48bFkN0MN5nk1m/F8EFqiqnQ2XrPCVi/PC/a+O50DUKb5lB7BCvIdvfGnqkmt++b0JvGJT8keehwisabnUWX0SelOw7e5yf4PBfL2rLomH3cJ8iGDiePVmI+6dN3Nd0wYEgE9s3rYZQd13Hb3cVw2P66A+4buc036qJ0u0xI/+dwOBz3oi7BPX++hBPJUch4uG1G1b2osPRtdqs0BT54JxEzpFIO5+TmDEz+pQWT7h+ET4dJhRI1+89h4NYmpD40AH8zO02cI1BYgFHsdnZJkSgix/s3x/kLGPpRDULGJeD7iWwZnPObQluOp5cUY1t0OM48Y5J9Zu29M7no/c86RN3cCz9N8ZcKOb95uG/0m8LCFDaHw+G4CUV3vD7aE+qMSnxoNeWXw3ElOpzcmo3fHTQ+LwGacvz91xYaBQ33Skpo67D6aAO0Pn64lwfeHGskdMeiJBkyDpS1ngjN+e2Qt6cS2zSeeCrVdNuXtfd02H5cDbXMG/eN5IE3xwDuG/2m4ME3h8PpVPrfEYlZfk14d0Oxk4fscTiO0IxzZRrs+OqcsIf15Z2l4t6z14uxpbEb+t0SiYf1Oz0qL2ER25f7Zh6WFQMDx4S3HjbD4ZjDzlsIwUhNHV7cVGU8ucO5tlGV4qUfm6AYFI6FpieMWXuvqRbptTIMuCUKz111+dkcd8N9o98OPPjmcDidizwYbzwchPiCctz9H2dPuedw7MUbMx7viz2pSsQ2NOKfe8rw3uEmlPv5YA7b5z7JYFNbkwYHzqpxqlGGUeNi8fUEnkrMaQdlFD6ZroD6aBFm/mhwCjDn2oXdReLDMuwPCMKGmaHGKcK23vMOwh9+n4xdhjaHw9HDfaPfDHzPN4fDuSI05Bbinn0yfPFYlFnKHofD4Vw96FD8az6eOB+EbTNce2s1Theksgj3r7uMF5+OMT/cz9Z7HI4dcN/o2ocH3xwOh8PhcDgcDofD4bgZnnbO4XA4HA6Hw+FwOByOm+HBN4fD4XA4HA6Hw+FwOG6GB98cDofD4XA4HA6Hw+G4GR58czgcDofD4XA4HA6H42Z48M3hcDgcDofD4XA4HI6b4cE3h8PhcDgcDofD4XA4boYH3xzObw1NNZb/5TzWqKXXnGuYCsxdlost1TrptTG71p/Fs782oFl6zeE4TguObc5E7MLTuGlr7ZWXJW7f3IQOJ7eK/dx3dSmKtVIxpxPhfcDhXAtcG8F3YQFGkTGKXl0mFVwpyvAwq8fbBUiXSjiugretS9DWYunKAryvAkKbpDI3k75NdBam7Ok8bzidHJRo+s2Hj0gFv1W03hjsp8bT7+diI/W5MTokxMix+8vzePxIJwmDLQov4qaXTiP2L0UolIo4LkZ9Cb9bTHZ0cR72SUV2Y/VvPTB8Wi+sSJIhZ3/BlZWl34h9cw4NtqxJI7uYhrkZUpEDNF8oxNP7m4GwIGx4NBJRcukNJ+D22Tlc1gddxmc2pWMy2ql0xJZ2As3Vl/Dyygwk0pjKdG3cjjrpnS5Ol5VN19Lh4FtvRO15jNpq5v1xrhRHciz00Rn0fSsLc/dW8xnVLo8zkxE67FpfgFWVPnj9fxOQGszKVFj6Nuv7HGwUPmMBSVac1V+Fr4wMjQyRQR5SCaMLTaZoG7BnZw7GvpYmONHsWhNfO4tZWy8hx0wPXFTvzhpg5P54bHY0ZnmqMXd1EfKkYhEZEm9OwJqUbti9KR8flEvFHeX8BQy1o41qfswW2rr32nJxtdRbhgAakRRKT/gLn7gacUw+Oj0IkdpY7u+BCKnIbmz+rTdmPBqLOfTGmWOVOCuVdi5dyb51RTzg69MNcpkcUQFSEcMuW1SPjXvqURkRhM3Px2JwBwJvd9Hmi57F8vZsmbYcT/+Jfba963YlHR07ukAf2CErG1ezds3EUqdmUK3IaFfEij3sGhNL1Vjy1xJ8VtQCn3AF7kj2wz1J7Y+qzdUVWP7JWfRfJOnGS2kYtjIPH+Xw7DhX0+HgOzBa7Ni2hzci2RtenhhjVO6H26K7oMX+jaMI9TXoI29ENWqwYUcBrn87F9v5XMm1RWEhXj2tQ/LYaDymlMo6gfhxSch/ZwA+HeYllXQh2ErZ8nOYtUeNXJknbpJ0YbBvC37YX4KxS89bWDG+ypAH45WJCngXV2D+fo1UqEeG0VPCMN6jCe/+pwQ1UmmHSAjFQ2wQqFLhX+fFInPUWHu8kZ5lmDgsDJ6sKCwa294YhLOPhSOQvea4HnkoViwehIIFPdBfKrKb9v5WHoBFfxiA409Hoa9U1Klw+9YOMkyY2R8Fb/XDwhipyG788MCj/XD2D7EY3tUvExr884dq6f+WqfmlGttMTWGX52rqA2fpiIx2Mh2xpe6mUIU95LfI48NxYF4i/vFoAuYkSO9ZofxkLm54pwjLzmnQFOAj+EFju8tQU6LCax/nYOK2LrCl6Bqiw8F3zPCeQse2PYIwiL3h54clRuUJWDpcIfwNp+sQnhxp0Ed9sO+1ftg6zhuK2jrM/vDilV+V5LgIDdZuqUa+lz/mj/eTyjhHN1/EqnIgbmQsMv+UhC8kXdj0YjL2TfKBt7oeCzeUuSYovYIEjgjF/RSQHNhXgqNSWSuKCPzvEDm0eZV412qw7Ah+uH+QNz1r8e2vVpzgympsLaZnpRKPDRSLOBzn4faNIyInr7b0RBW2W83eq8fqww3QslVLqYTDuaYo0iCfnnr08LNvIltVjCe/rEMxPDH76WTkvNhH8IO+eD4ZmQujMSvsMjJ/LMBTx6+6GasuS7fLhPR/F8FSa0qxOzgIu/8Ya2VGqAk/7ryIVw80IKuRft5DhqT4ILz+QAxuNp2xVlVi+ZeX8FGeBqoWMpaeHhgwIAR/uy8SiXrLyVJh/kIDb1IkTt3YhKc21uJwrY6Mqwy9EoLxl0eiDWYKWRpaHlZVKfDBomBk/LMUawpa0KADfAN88OyDvTCvl0n6mEaFdRuLsTytCSVs6sdqfa1fe0NRKV76TyW2loi/5enjhZtGh2PFxBCESZ9pRbjmMvztfHNrvR6bEQpsLsQqiN/d52Qukr+oQ1N8OM48091IwY5uTEfqYS1GTumLr262MkXKUu3+q0bcmHj8MtW00XXYvjYDj6cB4+/pg7UjjL+jPLMQc7+pxk+XdGhGNyjDffHUnT0wrx9zuMW0m/H7m+lvB9DfGs7v6LBxdRqey/LC/AV9MU9/4do6fLmhCO9K7Wuxj13Qtiwd6rksX7z7YjDy/l1m1O+PzeiJRVL9BaT2Sby5B97wqGyVVVa360dG4qOpIfCj333+i3LsbG0HBV57KB4PRJrOadkj7/bKpf5z4l+1YlPfCHUx7n6tHKcHRCHjYWmlUcDgd99JxAyp1AgzWXFMh9rkYRDJg531t0smGDrkHMzD49vVUtvKcd3AUDzrW4WnftH/pvRRM9T4YEUO3ir2xJz/7YdFZjPtVXjx9YtY1+CHD98Kxyk76l2eW4ylFAS0yaIHUlIi8Nc7QqX9eZIcC582gGxX0eNtyWvNpaVY8GWbTPsGeGPqbdF47wZ/g74jmG1aX4Q3szWotmmb9P2gw6wn+uPdPlKhHsmG1qX0wOl7hXxdohLzXyvEFzq6/oUJSHVk7lRdgnv+fAkH/AKxZVFPpEjFevJ2nsXoPRpj+2Ngx1vbolX24rAuvNygn+k6B0Zg/X3hJvsemTxcwLPf1yONjQEW7FMbV14vjXVDKrRB+/LFaKvzu0/74Kt1Vfil7jIm3T8Inw4zsaNaer2IXgdaqKfUH5dabYZ1G2yXvOr7clQ0Xmq4hBdO0fgWEox9C3ogSfiAA36BKV3Gvrlp/GvVjQhs7VGLx39sRBnTy7dIL9n7bOvMtxfx0tEmFLC2I9+ne3c/vPhAT6PxSBwD9fbOxbbIIg7aZ7vtvjliuwOpA7phS5rGQvtLsG0xH9VA1dMHcRcakWFyvazOxenFWPCt3sexds2usg229FX8qN19QO239dtS/N9RSYdIDoJCffHygz0xK7pNZi3aWnuw4++MZYwKDP7G1D/vHhuET56IMVrJN/57vc5YGqOldqv3x+olvTBZkg9X2CLmUz7/RQW+r9AK32HZpzSxh9J3msJkfLVXB/11BtPx3UV4XW8fLep4e7JmGX0dBo5PwHcTLExe6vswMgQH5sUg3rDMgiyYyYAeB23dTwPqjcf8pDCsnmXBFjhgN4zjF0ftmeuwYJncTRN1zDk8sKcBjZH+mDMuCPfGyJF7rhIPLDuPLYayqyLhXlaIZeeaERyjFD47KeQy0k6UYezyApw0ndm8cAk3fl6LkmBfTEz2ww2Bl+l7K3D/Py2tXDXiZfruNXUeuLWvH+6I80RLbSOWfZyHtYZ1UFdg7nt5ePGEBrpwP5P65tiVklpzJg9jPijDhrLL6NMvCAvGKDHctxl79hTixtVlMNqepK3CKx+I14xgMfXj1mAtPllTCBovWvEcHITppCPaC3X42kjfVdiRTQ0j88XdKTYU2SYyTB7lj1AahPaeqjZKNSknA3Pjmkr81OKFaWNCMGewN4Kr1Fi25hx+J82K9R+lRDI97z0l7eXUoy3H1+fomfp9eqvjwdJ+czHvVAuCewZgwbgA3NTax+2vvDvUtgINeGlZkVm/r/o8B3PPkJU1IW//RfzPwRZE92LbK3wQc7kFv+wvxN1rzuN2+t2fZT6YwNJzomVovFSPeavyjGXYEXkXaE8uvZE6KQLLpoltDD8F/jCNXk8KhK0srZqjdThEzyOSQlxoYOzUISPsqL8DMpG35xzGfVWPrBYZrkukOvTxRnNWGeYcMpI8KygQJ4yCWqQVWDqdyQ+zUqluqcEYbEe9Bd34sBwbq2UYNzoMyyYH4XayQYf3F2Hs2kuSDfLDbPZ3YxWkX0Skkr6TXo9pG/CaLxRg3Ioy4XtGpoRgwfUKxLc0YcNXuRi3zcDgCIdLkW1Kb0ZAtGgfbclW/36+9JtabD9hOjITMf64iapQkVGLA1IRo4WphKYFhSxD3BEUIUjtSc+qOmzIFovaqMcmco4BL9xLtsIeLh0twNitjfCJYXqoQLKXDlknSnDHZsOVdXYScBbGfqVCWosHbrqetV2bfXrY6CCwrqGXjmCffBnSiCWfVuJwkwxhfnIoLY328jDMTKY3qqhPTPZoph+vRz6NBeMH27YZdsurxKVjJXj6RAs8fOUI8+kmlTraH8Z0Hfvm5vEvrxz372mEyovazlcmrdxS2312HrP2N6Iu0BePjgvBoxT0NZWoMG9FFt6xuvfWhbbICg7Z5w76Anp6jArEaBLpvUct+X06bN+vQim13P2DfWCpG9OpzmM/r8QP1XIMF2yIwTVbPM3fVbbBsr46NB5Q+z21n+mQEgvoNxaQDxhAuv3iB+dsyEEnYcE/L8mvxLTVtrY7yZCa4k8jdTO2HTeRt8JqbKOhTNFHifH6wNsFtoh9B/PtvqmSYfAgE59yjSU7K9ErRNCfP0jRXvIw1ucRmN3LFf66Cn//G+n4HjUK/LzNdHzpBb3vKsmatAUmNDFY1Gmb41AVNqSxYMoHM29s030jYkLxYBQ9l9Zja6VY5DCO6vc5Kv+6EXJpzL/O5zKy0ssw7uMSk5jJ/u/Vxy97qki3qU8WkK2zrdvuo9OD7/IfL2BuFnBLaiJ+mhOPRRNjsXJOPxy72xeKxnos3q53pjTYuOESdjfS4H9PHxyUPvvJvH74ZpQnjWPV+PMvJikQGjlmzu6Ln+dIqaMLYjCLfDt1Vq2FFCQdIobG4oyUXvGPOUlYn0JKo2vAV0f136vDrk0l2FALDBoXjyPPJ7TV9x4FlI1qzF3Xzj5JbQVe/o8KxaQUC/63H3Y8EosXpsZj0x/74IMkGVRZpXjaYB9m3u4yrKEvZGmwbXUTf09hFBsG474BYn23GKaClNdiLxkkeU9/3NWRLP8+vhhKT9pLTWj1nVlqyiY1tIkROLigD1ZOjcGiB6lv/hiBW8gZ3vGtlNIaFoQpkfS3efXYbdDuzWfqcYCuIXlAkDhzRu17YBNL+/XEY7OT8P3sOLwwMQ5ftPZxFV4126NqgINtqyfeQtsqdVps+K7Y5EAq+onAIHyzqK+UjkzX+kKIMIDmZNajZWQcTkj7ab54vp8oPyTDa1rlxxF519OeXHrhuiGReHCUQjSmXl6YPIpeDwmwmV50+AL7W08MiHWlytujQ6a0V38HZEJdgvm7mtDs5Yvlf+yPHbNZHyXi+0VxeCpE/Eh7TL4tCIkyHX74Oge3rS/G/ooW6R2Gvq7BiGu33vXYQMGdNzlWb8zri0+mRuHBscxeJWJRD1KdzCqsFQYtP4xhf3edl3ioWKCCvpNek9MmwCbf1lYjJzAQm18iuZsRgxdmiNc0O5jkbn9pm+N/shwf0SgUOjTaQLaSsIXaicnhX382cS0TfMAyvCsKGyycJh6IYd3pqb4Jx1oH1xCseCUJx1/tjWfsbM82vDBzNHOatNh0qEIqkyisxH9K6TkuAI8bpqbYQE2OwXsLSMf1fTwvDCNJlEvTatomCwrbTgIWdFZouzb7tHtnaWvKfVfRS/uxV74M0SFqeCyylvbHqVf7Y+UQqdgIFlzT2EJux16yz23Uk1NIbemlwF0DbdgMR+RVQi3zwfKX+uMs1enUczHCSpPj/WFM17FvhDvHvxY5ZrG00MWsT+MxhZUVX8KKLPriHmH4geThzYkxeJP8oB/uorbTNeOTvSb614oLbZElHLLPHfQFWmlGVnUEHk+WUfvXYLXp7Lu6DKszqK0iA/EkBUVmlBdhLtVZpfTHJwv7YZPBNc8hW5Wz/yKWmG3NcZVtsKCvjvRBeiU2NsjRd1QM6RC1H/0Gs38/PaREqE056CSs+OfaPBXIrbSK50AKrimWzM+uNfLP8s6ojScHXWSLtn9P36GT4/6HkrDpQcmnXNBT+A7LdlYiLFjQn8lRog2KSWB9HokxwhjXMX89b1cx3izUIXJAFA6RnOl1/MQz5L+QzK9ae1Ea2yRZSxCzHPyjAkWdtjkONaOEmf5gH4y0WgcFhsdQ/dGEX02dZLtwRr898dQz/eizot3Y8XIiFsdRbfMqsOikPhhyxF8sw7wtaqh8FPjgj6TbQt8mtMnHgTKst2XPXIwrRyo7UGP98UZo/fzx3I2+RjPUYTcEYDQ9lxaoRcdQW42vzzEjGYTXRximC8ow+OZAjPGTI6fQZCarVzBeMUgHYwcNjWSzNWjBuRKhxABfPDs1iP7VI8PoePF3SmqkFRJtOf6ZRnVQBuKNicYpCWEjuuMpYYCtta6MRPPxamxppMtIicALRunI3phxV5AQyB04Wi45w3X49ykmKD6YPcmwbuz3lBgp/V9PylB/4XC7Q6crWycACn+tB7tDw8hBIa5x+qo0wvcxCg+qcIiM0vRbTW5xoYzEPcybUDXiFynAmD6ArKVGjW8Mbhex77SaJMAb00boZ9eq8K9T5J3EBeJFw35jfUyfIT3DCTLM1nCsbfV4YuII07YV+9LSrF4cOUpGp4qGBeBWUlShj24PMJAJC/LjiLy3YodcOowameXMWHkiWRj9XYU76mq/TDSn1ZM8UvB5XSgeMFxAlQdgej/D1raOZ89YfPVIEFJ8tMg4UY773s1A7KIMTFpfiO+KDAPx9vDDnDnMaUrEw0aLud64KZ7VRYeaBrHEJhnV2ESXN3J0d+NDdeia7htA36NrwiG986e9TKEtDbB+nkZyOPiOXji8MBFrx/hIZRJyX/QNoufaZmE/mDEyJEew9m5BgaGP5uWN7r7ODROegwMwka5BfbYWu6QyxlGyI+z3R1O/2WujegwNxwNBBvUg53g4++P6FrCt4wz9Su2U22OMdZbs01ODPRBGbXdYOKS3q+ilIzgjX6Z1tozeuc3IqGm75soa7Cgll6tvQGs6p0UckVcJs750qj8M6Wr2zY3jn6mPw9BdJq2lJlfIjfQpbEQc9pMd2DfNSU/Aib41xDH73DFfwBj9hJL5wWt5P9UIEyCjrw+XJkCMSf+lFiwBbvTYGEwyqfPC28XJxH8fMA1iXWUbLOirI30wKB6/UhC5d1qwkQ559lMICynqJjZaXEGs+udaFFpIxmpFHoK7+pC9MPLP1NiaQb6ylwIzBku2xCW2iOSWmRLqw1DDVCHW/79PpHE1Fo84qU7O++sqrDvWBK3MFy/cE2a0ldKzZwxeZplLKhXWnJEKHaXQYIHNBkE+Ynu0OCVGTuh37xAs6mnYB7546mamgzrsPq0XGEf8RRX2ksgkk3zMMNHtJ0f5Isy3GSdzpLJOwFjq3E4djjBPqb4W97Bj7I0e0t6jRq0omCUkEKQEiggfcyMZEoUNZGR+vV9IlmpD3s3I6NiGPmvLqWBIdZDH+JrtWWQD7KQ+7NdszwRllzQLDvLQXszrNUEfyJU24phQoEYam6m1OQNlQEIwZtDft6WyaPBdNhl7UtJUN5y8evACG0i0WPcP075j+zvYJ9ocwPgRSgyk1ztP6AeqCmw+S40Z5Y/p+lnvQjWEScD8ciSbfF802/NBb9kaMBxrW1v44TZhptCRWT0ZAtrtIwfkvRU75NJh6DccTRu2CzfU1QGZaO3/eGE2xGnC+sViy+JkHHw8DI/GeUFxuQWnTlTi0ZUZGPBxsYXbjVlDh+KcYsylv+v7Slu92f5Pe0nPbSIrQAP0trPG1976PTqo9EHWgABMovg6f38+hqzMw/vHqnC2jtxwCph7hCgsBM3d4MEy6wwCVkM8yX4yWSmxvcjoAKF4bAgJCAUhG1tnqqvxVQY1qEyBmaPst1FyoW62yShj7WN59XPsPckUuPYRboXVdfTSURyVLzvrLA/DjL7UZsV12CQ5t4XH6nCGbNzEISZjrAkOyauEeV860x+GdD375rbxz5KPExOEaeSRa7NK0e/dHCzdV4Hj1c1olnuiO9mBHv6GTqn9ONO3hjhknzvoC5jiOThYOGDS+OC1anxyhH7Eyx+PW7E9ehsyItH8fc/BfsJEkLq4AYK704qrbIP59zjcBxoVvtpqfNvMVh260jjknxsiw+RhbDKlCVuPCY5u64GdbHJwgljiIlsEjB/qByVbTV6VLkzCf52lQgWJja8/6VKILwKc7Wun/XWSNxZrhvjgBjOfk9ommU2y63Aqvwvfx9tV+p2sADsiQl3eJE7GOuwvytAvxjy1PuaW3uQfJOP/hNPCO4dODr4lwpV4i+1DsPQw2ZsQHuj6INJu9CcGhpmsIJlgayZIb8wT2JSXNXSXSdWdQYlZQ6l9dA3YzVbo1RXYQhWW9w7ATHuCd3sI9hL3KbXihXunWug34REm3VuVCAnC1Ciqkn7VK7sOP5KSDBwQZNS/jEAySpa/jx4G+89McWXbioGHs7N67eCAvHNEnJUJ5/FAz6QovDmnL86+IQbidwZ3Q1VOOe5YX2GXDJUfycXYj8vxVYMXHpoQgc+eYTPlifhXiqPOrwxjbrZw3dKD7SETUITj01fi8e4QsgFlKry34SJu/XMGEskBX57pyIqL+xBn+3XYfbJSbMPztfhWRVVPDkSqSxxWU+SItjdF/irTS9fJlzkThhg6t5JT6KXANLtOordTXtvjWrKTnTD+taHEwnm9sW6cAt1r1Vi1vQh3vpWJ3n/OwtyDdU76Fnpc1Ld24jq7H4Qn2UGxmjqslrYnNp+swr/J9kQOCbaSzaFCxiX27InewoqsFbRipkHnYWcfsL2vK/Pw7IEmyJOC8M59PbCX7MPhhWG4UfrIVctAMYvqTFq1EHTVnKm3MjnYcXkNHJaAE89H4L4I8jFPVOKZ1XkYtDgNN35SiB9NFmcdw0l/Xb8yHeIlHUxpmRbydZ2iu5fFLBBTqhvFCXSPDozbHdZv/QSOyWSs/d8rR1TH1mpcxpUJvlvkGMH2IVh6mOxNuFQjGs4rQrSXkLZwsdzytHozGeH2SI5gotKM82yPoxlkxJ3UFz3xw/2F4Jgd7lJ+vF7Y93HrdYanvTpJdgN+pSd5uDeMD0a+jPBeFvpNeIThulYjosDDw3xo8GvALrIcR0/Vo0I40MHcytR4eFn4Lumh339mAVe2rSsMi1UckPcrx2WSZ+m/XQBnZcIh1LX45pdSfHHWcK8rQwzEP17QHak0VqpOV2Fju21TgcVsP5EyAOsXJGLR2EjcHs9myhWIbD1Uyl508ImwcN3SQ9xDJuFFA/rMJJx4YwAyX+qJz8b5IbxGPGDsWQsHCHY60j2/1Rk12EJteOBYnXDY0XSyFR22URbRosjGNiAjrgq91ONK+bLAQPFAoDPZNahRV2JbAUsXDmpdVbKNA/JqC7f2R2fbN/ePf0bIfTFuYiJ+XjoIOX+Kx4a7AjFYJx4kNGWXqX1zBBf1rZ240u7H3yQevHbg8CXkCROALO3fCw/dYiFTTkCJ5HD23IxzllKDyN/r2ESGs9jXB4V7SsBumzlyciK+nxmDB4cHoy/LfAiRG6eyu4JOb4tQ/M915JwV1+M7tQZfp5FP7ueP/zGbHHSNvPpGR2LF8/2R/2Y/HH8mGgv6yXFROPwxF7s6YEec8tdjJB+8UmOScSFiTxxiE7kXYplqVTXikJRYYI4axwrZhXuir62JqXbosH6rtRDmPygIN5xytv97tSi2tcWhE+nk4NsT3YVOVmOH6UEYpnQngaPaqcsazQ7BYjNGb392Hk9877L8SMtIddAWNrQe1NNGPb4/z+Y/vTEiUSyxRJ/unsKJpL/mWqhruQo/seIoX9wgFCgwgBkHm0pgQlgwppEyaM/VYl56A7Re/pg5rKPdqsHGH+vIWSBD3jeo1TBECfk2pgfzWCcwxR8jSdi3nygWT3SM88d0Q98j2APsjCfk1du4J6d1HGtbW9TjYAGrgDeG2jMFaDcOyLtb8UZMgPRfM5S4Tsgc0OC4lf17B/LEVdTugeI+NrfigEzo+//0BSftQE0t3tlchvnbqs1tDEPujR6C3W5BvrBX2AbFDRCOayB5G80qZYB+YsceYgLFPz6QYXJSshnNyDhdii9+qZTS4mUICArE7RMTxAN2yAnZcsR0b6KEnwesj59ydLfmmzqFdM9vnRpfHy8X92cp/XGf6a3OXIB+Mi6twLy90/fn4YnPLuBrITDvKnrpAC6SL+vQOJJMX5xfhy+Psr26ckwe0v4Sgf3yaouO9kfXtG/uHv/0FJ0rIztwCcekVTlffyXGjO6JLfPCwO5UdeZElUWnvT062rcO2WcXtYURCvHgNZTW4JM08aA1eXygzUMe9TbkSI75ok/zGTWO0LOih8LqLZtcjSN9cOwik2NPDE80kWN9wOIKYnzAmhQljUJbmFOFQ0I+sBwxLl5hHD3Ej8a1Rmw5VIHdFygcTxbPg9DjElvUpMJONiGfLmWMsK0b8aF44ZEk/HMofX9jHdafFD7pHE75675IYm1Z2YiDZnGBDruzWL/LMKyX0WEgDiAdBkdtu/5nK759eRU2swmpYD8ho8dhXKXf5xtxmp4UNA4KWQAO+4s6ZBaaX2PNmYvkH5zHKhtnWLiajkZpDhKMR4cy46bBqk2lKDZsLG0D1q3Jxiv6dEl5EO7qzQxnNV41ukWMDie/v4S/ZdSj2tt8FtmlyMPw0ACqg6oGb+xtMFLo8iMl+KiUPhIfgIdtpDl6DgtCqg9dxtFL+Kja0Elqwsavq4XDFkanhEmpaP64/zovem7Ex98ZH3tffkQl3ErFHGmGnaWy5NArg9suOEcTftyYi3lZNFCRoXh9DKuPyOjRSiETIGN/MdYZXYsOxT+fR+rGSuNbAChCcTcFsxUnKvBJFQXyA00OWKL3ZyVR+2rq8Dq1hdF2HE01lvz1HNaUWncsHWtbPc3Yedy0bcW+RCQZFntTVu3CAXl3lsvsitrDCz0CmKpTwGbh1KJbBrKUUy3Wbza/fV9zaTHeYwFTh25dZwPT+jsgE57DAjGFqlR6ohxfGnoX2lpsymy/VVj+0X1sICEbM/9H8/TMZnIad7LcJqUCt5kOOKb1jvBCL9bEeXXYYuC3NeQWYOFxG6OCyQpCYEqgcPiVOq0cS3KNkxvZd6W27kH3xMWT5ZhPI+IiI/tINF0W2s3bk1XIEGnvWICnoMemiNs4PBDbmsmnQ221Ghcrm4z7wUFibiQniaqy95tS7KS2iRscbOEMjY7Tfxg7YEWHbd8VGsuxqgxv71Lh24tUF0G/u4peOoCz8uUAo4ezLQKNeHOnGlo/P0yzY4LEfnm1RUf7o4vaNzePf3ou55L92lyC339vcqucJp34nWQHhDnE9nDaFlnGIfvsorYwRobJY5Qk01r8+8sKHNDJMGV0hM0Miv6jAsAO9z+wr0jYJtAK1fmd7+qgJvf9/tG2z0FoFwdsgyN90DtMnDjYe9JgLCP9+XJ9pRXf0Zjmhgay9Wphf7N1qE+ZX15fi4Vmt2bSIWdvOTZRbCOPVxpPNLmCPoFIpfjy6O4K7LUwOegSW+StwZZvyzB/fYnZbYTrNdRxJFO+dpqJZq0leXXGX1di1nBvyOlv3t9SaaQbzRcK8SY7vV+pxGN2bRGyTMrtwcLdQ87sKTBrO6gq8eKaSvKnZZh0e2TbxJN+IsY08KXx9usL0v/1OKPf5yoNbqFGaOuwfDfTQRnGD5L63hF/cYASt1LfZRww6VvS7Q+2V+Hbszr4C5F858CarlPpf0c0no/oBnVOGW54LxvPby3G+xtzcNvSc3gxU4MCCqJEhfbCjPvCMd5Hh92bzuHGVfl4f18BnlyZidT9zZBFBONPDhzY4xwyTJjeHfcFAId25OCmVXlYuq8QL6/KxPD/ikfWr5hlfMN8M+ShePNeJaLIqXntvSxM/6IAH+/Mx/S3s/EcBbjKpEh8aBDgxo+PEm5pkf9LPoYszxFmYx5cmS7+nvQZUwJTlIJzy+rb3j1ZTbmUUSr8hvjIxo2LsvDAYbK+EYH419M9jGd4Y2Lw4c1e8NQ04EWDa3lweSau31KPs+yQFyPj5oW7BvlC3kKDukXnRuzjSWSk8w8VIIWu9+WdxVj6RTZueI2+u7AF+WpLBkzCwbbVk3eAte156kv6rc/P4pZN1LYyT8y5J8quvS+OYL+8O4o/RrCAsLoGT62ivtt0ycZpwMD1PVk7WF4VDBzRA+/0oxGgvBp3Ls7EdL08kJz3W1GOQy1yTJoei4ddOphaq78DMiEPw9JUBZQkj/Pe1tebZHhxPj6pticV1w/PPR5Jv6XDgW25wh7JB6Vrf3BlBvr9vRo55GxNmhhpECxaqbd+ok5Tj2dfF+vC9Lbfh9W4IOhmM7KK2LNEjALCGSu5FZj0MX2PPotHEYHlqX4IljVjzcdZuO1j0e49z/qCvuvXmhZUSzo24S7RPv7wFbUNs4+/iPI85EsaoEien7zVxEm80IRMegqN8bWwf7YWp9nqvp83hrdOQNXjLx/m4Pp3LuJbqcQppHt+axt1Qtqnvff2dhhmn8aQ9SM5Tn0zC08Kukby8E4pdmuM+7Gr6KWe0wdEuTN/SKv1jsqXMyQE4A7qmmbyvSIHBBqtKlnFAXm1RUf7o+vZN4abxz+JmHHdDXwGNq6VCnJ/w/uSw3yz6QS0CS6wRRZxyD67pi3M0G970dDfUoDyhP5kbGuERWPFBG8oVSr8z1tn8eDGQny89TzJYb6Q0p04pgeWJEifdRgnbIMDfaCfOMj4IQ8jVjLfkbX1Ocw7f1n0CS812bxXevbufLL1OXjB5spuWz/l7M9Hv3ezJTt1HtPfzcDYHY1oUvi17xc7RRDuTpZDS/qktZQ95RJbFIrXDGWW+v8L+o4nycedncYWpALxbDtBbv9e3hRiA/t3Zgv+BHW1Ec746/ETovByjAylvxa26QYb6wUfhXzXh3t0bEJbGYVPHvAnX7oZH3+Yib7LpH6ltkt8sxDrBNmPxUdGB8OFYqYwJtXhabLZwuep3Ye8TeOt2U5dZ/S7GR/9PZP6kclXDia9mYdlxVTVpHAsbdVjB75XkA/qW3aL6HfEvmW6PenNC6Tb3dBvTITrzsqyg3YskRtgR/bPTRQOB+nV0IT/7C/He0cbUeznh3ef74u1NxjcakQZgbXzYzA/wQPlhbV4b3s1vquU46Zx0Tg4t4fx7WTchSIUKxaIhxppilRYtb0SnxVq0at/GLbOTzQ+st4KgQPjsf85doDDZZw8XY0le2pxrMETd07qiZ8fjzC6dQBrn0VP0zX39kTjJTW+zajHoTpypB8Lw3jpI2YogjEhmp7buyerBdQVDcJvCI+zGlQF+eDR1DicntsTN5tdmwyDp/TBwUdCMC5Yi2MnxWs5pJJjcmo8TlAgY3QLMiJwmL8wo2b1PobUx5++xNrXG96Vany2pxyr0jS4HBOEdQuTsMT0tiomONS2Ap54/KFozPRpwpqd9FvpGjT6+2DOI72Mb2vgKhyRd4dQ4OnpoRjlTzFVfj125mooVLKOmAIJHMmSDr4ywhszHkvCrnuDcEuQDifPivKws0iH2IQg/O25JHxqdLs/V2Cj/g7IRNiIXvj2biWu82nBQSbD2c1QDojAnql27nJjv7WIHVbkh2SPZvws6cJPly5buXZr9ZZhwqze+HKMD8KphVldfma2alIsdo8V/z67xHD6jAb5e5ToJdciI6ceuy62zTaHjUjAUSbT3bshL1e0e5tLLyNlTDQOz4ttu40K1X31C9GCragtos9tpnbKaoF/dyWWz03CQhOPOy9DjYuwkk4sbdMwTeVzDfp7fhMO3Nvbccg+TU3CPpKHZHLAdgi6pkFDuBLvmvZjF9FLPaVFkg02e6hxWpjOd1S+nEF0bqlxcMdQ+/ce2C2vtuhgf3Q9+ybi7vFPgPkMz4vf4V/DDlwrE+S+NliB+Y/1xqft3vnEBbbICg7ZZ1e0hRl+ePx6X5JoIHlEqF0BSv9xvbGPfJxb/Frw8+FKLNlfjzwPHzz2QC+qt+HtRR3FOdtgdx+ERWPb3AjcGd4NVUXkO5I/1xAegA8XdMed7DM1GrAbTXQYqZ/+NkaB2AYNdkq26mSDB24ZE4ldLyXY5Rc7g/52XZE0TlnqS1fYIiazrP/HBZOtOFqJ+fQd39V0w4AhEdg3z2RByhIDo/HBEE94NWqwj+z3iVqpXI9T/roSzzybINjH8JoGUTcyW+AdG4iPaKx3he8aNrgXDi4U/Ql5daM4/hS0iIcLyuSI8e9mctAgjUkz47C8vxd8VOLndxVexsCbY2icsqAlDup33OhY7LrTB9pCFgepcaqxG5L6R+DbR038ege+N2xEIn5+jHQ7iOIXQbfVyPX1xfxHErFzSkd023G6XSak/3O6MtpSzHy5DD+EBWPfgh7Gpx6qS3DPny/hxIBonJvVwZSoa5iNq9kt0Twx53/7YZHNpYBrEQ3W/v0s/ljkj9VLetm+dy/nGqQey5efxzJ1ILYs6mnmuOTtPIvRe7R47Kn+eKN1ZacCz/6pCF8FWLA5HE6Xgts3DqcjHPhPOu45KvuN+kedyFXmr7OtOQ99WI4f1UBwYhi2PB6FRG5fO4wblvo4HUJVht/9tQDHjPbd6JC9uwb76X+RCf4mTjC991MtDulkuHM4D7w51vDCw6lBiNPU4f099sy3c64lms+U4aNSGcZP7G6+YqCtwHsHNFAkheFFg5TK5pO1wh7tgUOCeeDN6eJw+8bhOA2NAf86o4U8KgCzeODtRq4+f90zMgpfvhSL+TEy1NZo2K21OS6AB99djOaqJmQXVmPqa5niHma232RlJsbvaQIUfnhtsj4dUI2vN7F9f9J7UcGYa3xDbg7HmJgY/F+KHGf2FGFNRzNUOVcP2lq88U0d1GQjXmf3vjVCh5NbL+ErjTeev8vwMKJmnCxuQUD3EKyYYNdxTRzOlYXbNw7HOaqaUeHhhaemd3f5uTccxlXur3sFYd7/JuP8vDgL21E5zsCD7y6GZ89Y7GH7LuK7IS2tGku2V2PHJaBX/whhL01q674xHc7l1mNfkQ7BcSHYPCeaG01OO8gwenoPzAlpxKsf5uNH7qBe+7DTbj8rwMcNCqx43NRG6FB8MBf3/aLF+OlxeM5oI5UnUib1wfEXYjrttjocTsfg9o3DcYqw7vjyT33dc+4Nh7gW/HUZPHm6ucvge745nN8ammos/7ASwU8k4LFOPN2RcyWowNxltRj3RBxSg8wdq13rz2Jzv55YMdTZA8Y4nC4Gt28cDofD6cLw4JvD4XA4HA6Hw+FwOBw3w3NMOBwOh8PhcDgcDofDcTM8+OZwOBwOh8PhcDgcDsfN8OCbw+FwOBwOh8PhcDgcN8ODbw6Hw+FwOBwOh8PhcNwMD745HA6Hw+FwOBwOh8NxMzz4vpapLML9fynEMY30msPhGMNuS/SX81ijll5zOJxOg93q7tlfG9AsveZwXE1DbiGmrClGjfSaw+G4CB5jOA0Pvq8lCgswauFpRK8uE197+iCuqRLTVhbgpFYs4nQiR3IQTf0xaqtKKrDNxtXUdwszsbRQKrhilOFhJkdvFyBdKrkiqC/hd4upHovzsE8qcinaWiwl3Xifuie0SSpzCA22rEmjPkvD3AypiMMxxN0y7EoKL+Kml04j9i9F6BwTpENCjBy7vzyPx484pYCuodOv+2pEhaVvs/EpBxulElukb8tELI0hU/Zc2VnN5gsFuP3jSpTIPFAvlTnE1aS/nCtCV5H19nGDv8JjDKe5AsG3Y459+tZMIYCJXngWy8ulQmtoy/H0n9hn6aEPQDuBrhM0maAMwbtPhyGlshr3ra/onNUFBwPOK4veobDweCUNI1fmYV1Ri/TZa4TyQtzGrm/pBRyViros3jIEkIWS+3sgQipyHTrsWl+AVZU+eP1/E5AaLBUzNCqsW5+FkYvPSPJwBn3fysLcvTUwNkEe8PXpBrlMjqgAqeiqRbLLth5XejLGDbRru00nNB3FrTLsYqS6KpSe8JeKGO4b32RIvDkBa1K6YfemfHzQ3vjuEA74GVauu7O4Ej6O9T51zcSrwldGvStDZJCHVHIF0FZg7upq5MWGYecj4YiWihkNRaWYuzIDfV+R2lIa7z/KNZkEupr0tz0k38zW4+rw2xzBjkmjDvqsXULW7cKKv9KRMe5KxBjXCGRWrhY0+OcP1dL/LVPzSzW28fQHY5RReGO0J1SnS7HkvFTGMUGOwcl+uMPgMTZChvISFV5ceRYPX8lVGRdz9IcaCJOeKhX+cVInlHVZ5KFYsXgQChb0QH+pyGUUFuLV0zokj43GY0qpjKEi5/ONPLx4ognlft6SPPiiV4sGG3ZcwPD/u2gwwyvDhJn9UfBWPyyMkYqudrw8McZEF1ofST4IlD7GsRN3yrCrCYvGtjcG4exj4Z3YzzKMnhKG8R5NePc/JVcmNfiKXLclrh0fJ35cEvLfGYBPh3lJJZ1P+reX8FWjF164LwphUhmjnIKtISvLsKFEh7AYybbFeaKpTIXXPszGuG21bUHE1aS/dqII9TW37dLjtmi59CmOvXQFWbcPN/krPMZwiqsm+JZTTUtPVGG71dSGeqw+3AAtm6WUSjgi/W8LwmiZFmt3XiHnpsvjjSceTcA/DB5fPJ+MzGeCkCjTYfemAqy9JvYEV2FDGilQsKdwXduOlv9GZyo1WLulGvle/pg/3k8qY1D5ulLsbpThltTeyHyxjyQPidjxpz74cqgnmsuq8PS319rqgAF+flhiogutj+nhuFbmGDhdCEUE/neIHNq8Srz7G3beuI/jQtQlePVAMxQDQvGcYeRN5U9vUkPl5Yt3Fybj5zmSbZudhBN/jMH9wZeR+WMR3rmG9x+EJ0ea23bpsXS4QvoUh2M/PMZwHJcF382ll7D0k7OtaTyxi9Ix9vNSZLbO0urTP8i5ZS+rqjGepTrYld7kiSnJXuQb12H9cSurdecr8M9SGsd7+CBJKjJFn2qU+JJYx7jFZzFrZ6VJKqlBStaFOnz5eds1sc/PNTgcRp8u9lwWe9WMVX+R/k4w3G3pLutyCzHjz2IK6++Os/dEmkuN65P4RhbmHqwzD4i0ddi6NQdj9WmwL6Wh/7Lz9qdEk3Mzszd9TZ4KNO60kZGPAfTbfddccq/CWE3rsZISZO/1tn5vLXIOnm/7/CtpGLv+Eoo7uAfFs2csXh1AKqJrwL5MqZDhcH8048et2Ri2iF0r040MzNhqLndWkdKg9X8vXN8nhfjRwRiw+WQ1NtUDA4fH4MmedBnnarHe3kkFKTXp+s1VyPzZpK1Jz3MstnUTftxp0E4W621LTyykQBqkSJVnFmDGG2nCfivWB8NW2Xnwh7oCX+WRWvRRYryRF6vCoSL27IN7bvQlq2OIN25ODcRI+l9+Zg0ElSfM0zel63npPDYa6fcZ9CUZ+bKU7Je2AXvslAdX2yyXoNe7zRXYsj5TrNt7F1vbpDy32KTO7PoqLOijDsXp1IdvpSGOPsc+a9UGEuWZhZi1TP9Z1p45WJ5pnJWib4cl6Zcw911RNm7aVie96yIcsjsmMqyl16xdLI17kmz3Xms4KdZRHWLY2c4m6YfWxzcdtq9lewdP4579pgpXjVeWss9lO3SIYcoNSsRBiy3HqqQSRiXmv0bftfg8trhz8tNa2iWzu6RL/du1u004tjcPk/S2SNimko2l6Y7onQt8HDvGJet9qpchO/wzVSWWrjLwW97NwYe5xmOf/ncePiIVSLTvJ7bBbN/sZent2j5L1BxV4YBOhvGDQ4zt+PkGnGDNGx+AWUEm7q8yBEtG+9B/mrHzhN5mWB+DYteUkf4b9LvBWNhcXWHcRm+QPJjYKhGmm4Z2zZoNNPCVTNufvnu5Sft3FNt21AF5l8a61i1cbJxemSeOg2a4wta5Asfa2lTW216bXqNOaleT7SWkt18a+HfMH5i03sSnarVRpTi2MxtDmP6Qj7FFetvedjb2VyTZ/ks18tnLrFLxb5kdtLE9sWb/OaHfB/3HwFZbiTEKf8gW5PqmbQ46q78BXBJ8s0Mtxq0owaq8yxgwLATLpoXgoWgZctPLMGHlRcloeSN1UgS9p0Qye+mnwB+m0etJgXatpvQYFYjRVNu9R8ssBIrkDOxXoRRy3D/YB5bG6ZozeRjzQRk2lF1Gn35BWDBGieG+zdizpxA3Mkde+lwbWvxzdS4WXuiG4X38cEeiF/w1Gmz4Mrc1tSJmcBhdDwldJHslx9ix7PrCjPePohFLPq3E4SYZwvzkUEotLrZZGTZWyzAyJQQLrlcgvqUJG77KxThDQWWHQi3PxVP7G9AYqcQC+r0FKV4IqKrHix+cs3OGlgahPmxQacSWo4aj3GW0kG6qVc1wsXvqPE5c76WjBRi7tRE+MQrckaxAspcOWSdKcMdm2yl89hATKEZnLXpD6ET9Lh4oxAMHtYjvzVK7fNATLfhlfyEmb6xq3zmjQHHueywNWgNduB/mjAvCvTFy5J6rxAMUfGy026ZpsP5AHemGD2beqMTMFAXkugZ8/pNjx9BcPHQRE741aWvS83F/KwLFswY0kaE/hwf2sHbyN6m3JWfasp5Y5cIl3Ph5LUqCfTEx2Q83BF5GSX4lpq1uf+a15mgdDtHziCQTx4xsVE9hL1QzTl+w4BwoAkSbNSEAgsrbQlePuSsu4aCnN27t64exkTKoL9Vj3qrzmP3xecyyIA93mwxQ7rBZruTSsRI8faIFHr5yhPl0E8pYSueNH5YLdm3caLKPk4NwO/XN4f1FGLvWeJKv/EguOavVOKzxwI3X27CBhPC9ayrxU4sXpo0JwZzB3giuUmPZmnPkeJl67lqsW1+CDfRjwSRLQW7KBnTK7sjDMDOZhJvsxSYTW5F+vJ6cIMOAwTU65Eg7G2J9fJNh8ih/hFLpodOVxvpGQdwe+kp5vBLTHVlEi/HHTX5ARUYtDkhFDDY+QdOCwkbxdachHMZIdje9GQHRShttL/bR1B0qFPj64qnJEVgyRoEemkas+vw8njKTTet0yMexc1yy3qf2+meNeHlZIdbUeQh2jaVrt1So8fqn+dhoyfEywD4/UUQ4KI1s3zdVMgweZGL72l0s0GDTGSYw3hg70GQgCfVEFHu+1GTxgKjA/mL7LBzUvtHQUrDC9F8Rw8agtrHwDrLvM98vwie1bW2EOiYPuWb+Qfqec6SblfihWo7hprq51SD9vRUL7V/biGUf57khO8+SHXVE3umzn9FYt78RdYG+eHRcCB7t5YGmEhXmrcgyaQs3+wtO4Vxb9x8l6tDeUyaZhdpyfH2Onun6puuzMSS9nXeqBcHkfCwYF4CbQi4j7UQZxi431gmBvHLcv6cRKi8ac31lpMEMR9rZED/MZjo+ViHYcpDdYLK/bAwZ4rBwzIqjMlUdvjLyHXTYfbaBJEOO1OGGgY6VGEN7mf6Cwvzadj3d3xwuEdm9v9ShxtcLTz6ahE0zYvDgqBi8OScJ/xwqJ3mrwd/OsE954bohkfSeQjTmXl40gNPrIQF27LNqRlZ1BB4np0WbV4PVpl6nugyrM6iLIwPxZC+pzBBtBV7+jwrFZIwX/G8/7HgkFi9MjcemP/bBB0kyqMiIPm02g0/f1zMCB19OwhcsJWd2X/ww2YdErm12PrBnGF1PJEYLFyBD/+vY9YXhOiOnQ4eo4bHIWtofp17tj5VDqEhbhVfWViMnMBCbX+qLL6jNXpiRiO8XxWE2yXPO/tI25U6vxMYGOfpSm/40Jw4v0O+9MKMPfnpIiVBdMz7ZWyF90DaB8T7oQc+nLxg4W8nxOPGn3kh7NrrrpJM6cb0soHxvAfXrbJY6Re04LwwjSbJL02qMHDnHacJPecxoyNE9SCxxpn5aLwU++GM/bBJSu/rg51djcL+S/NTDZe0cMqTDrk00+NUCg8bF48jzCVg0MRYr5/TDsXsUUDaqMXednWk+0mqv3in2HBaIKTSYZvxaaW7gbUHXYtTWJLNzaCBpLqzC2wZ7yMt/vIC5WcAtqYnUTvFt9b7bF4rGeizebhqgWNATW2jkmEk6qU8b3LQgBrOoTc2yOyxw+ALTdU8MiDU1f/54nAYiJdmbjz/KwqytZTjT0HZNbLAaY7fNkmHMXX1wUKrfF/P64WOWRdHYgG+KvLHcUB4WivKac6yyTV7dZLNciVrmg+Uv9cdZ6q9Tz8UgCfXYcKQJ3uS4vzGvLz6ZGoUHx8bik3mJWETGR5VZhbWV0h+jDqv3qaEi3V1En221gfMicAvJZc7BcuySPglVMZ6kTtUm0rUt6IOVU2Ow6EFq2z+yz+qw49sSk9l5Hcl5BI69PkCQpa0T3HOMlnN2hwXXCihIxvaeMZz4qseObLI1pF93SQGDa3TIgXY2web41icQqUzfLtThawN9yzujFlZRRg4KcXD/dCCGdaen+iaQGkiEYMUrSTj+am88EyIVdRYny/ER2ebQodEGbZ+ELaMokKK2/+vP0kWXVeBfhd0Q1iccP8wj+zw2ErOnJgiyMIz6Y8eP5XaeoN5BH8fOccl6n9rrn+kQMTQWZ/RbcqhN1qdQCKBR47+nDG2lOfb5iSLbvyf/SCfH/Q/RZx+UbN+CnoJ/ZGxHLKHC0WJ6CvbGdab5+VHhmEv2k63sp76Xg6VHa1FrGISHBQvtc2fP9oNvePjivVY7zsbCKKTSn6ny6nEihuwP2WqxjfrhELPD1A/rDhjY4fIizN3VBJXSH58spO8x8APZmJqz/6KFSVMr7a9rwFdGCyuuwIIddUTeiy9hRRbJRI8w+mwi3pxI/c3GpLvIfpn4Sm73F5zCybYOC8KUSOaL1GO3gWw1k70/QM2RPCAI8UKJDgc2XcSqck88NjsJ388mvZ0YJ/gK35Cd0ZZX4VXTMb5FjllPJyNnMbvueExhZQ60szGSP3Odl3jQZKBCkP0H+7KteF6Yfp2v4Dt8+6tB22srsYutspDM3p0gFumxFGPEjKP44qUknJjZ2Qa86yOO8h3k9vuTSRD64rU+hl8nw82J3vSsg6pBLOkYeqfF/FCSvJ/I2SHZG319uCTUxjQfr8aWRhq3UiLwQqRhHb0x464gYZbqwFHTQdIDMydEIsrAeIclisJV4dAsji+enRpE/xqQUY1NJJ8jR3fHcEMbLw/AfQNocNc14ZDe6A6Kx69kXPZOCzZapfPsp8BQelY3WZi+tUSMFxLpSV2rMQrWfP19EWA6QF1JnLjeHkPD8YBhChkZhuHMY6hvoeDFOZobavHVv3Kx9CK9CFaCYiQRJ+oXR3I3w/BQL68QzB/JdEODHb/aiBS15fhnGgm2MhBvTPQ3+r2wEd3xlGDga9txRETyfqoVVntvpboIzpQ8BHcxfa1S4V+OrIr2VBq3Ncnswtv9SS912H1a71iosf54I7R+/njOJH077IYAjKbn0gK1ib5Z0BNb9ArGK70MTheVB2OksKShRaHNOFONzHJqU6pVsoUZp7ARvfDt3X7oSc7wnv2luH1JmpjuuLUUh6vZ39mLD+65gfWxHhkmJ7OZYXLorwvFA4byYEFer5jN0qebmj4spJ+a6R0N5nPmMKcgEQ8bXh/V+aZ4JgU61LSOBZfRzFRFJkOY4WSlMhwf/SERh1+IxhipqPCgCofIEZ9+q/G1QRmJe5jBVzXiFyMdMG8Hd+Cs3fEcqMR4svsZGTVt/VdZgx0spbhvACYL9XaVDtnfzo4RhLuTqaLkiG5pXe1SY2sG/V/mi1SHDx+SITmC6XMLCgx9RS9vdPc1lLFOQnuZLAng7+dp0PYyDL6jFw4vTMTaMaIuIyIam2g8OPVEd6NDvZgs3MAWhhq19k2OCjjv47jMT2gXUxmTYXS8aOfyLtnOonLET2wWTK0MoYZLmmys+T3J7MJYPGI8I2BMZROymUiGe1s4JI3s56NxWN6fWqlKjVX/yUe/l8UtLEsPVDu2VS0+wNiOy8MwQegc0VYZyoMlO5z+Sy3OsD4dG4NJRt+jH1O1+PcB08DJevuX1Nh3MGz+/jxz+06PUWbbAi3YUUfkXXeZtJkuRyE3msAJGxGH/aRD+6bpSzvBX3AKZ9vaD9MHkP3TqPGNwS299p1W05V6Y9oI/TkzVfjXKRK4uEC8aOjL0O8Mps+whecTeSZ9Yur3MOxuZ8cIHOYvTiZn1LZNbmeosJt0KzI5AClSUSsWYwwZAoK83dxPVycuG9UaisqEvTyt+6PY47/tLEE5iOfgYGHF0PhQkmp8coSkwcsfj4+yPOBnlzQLA+nQXvrlSwPCAnArMxqljTgmlkh0g4dLnLdu8DT5nvTcJlJC4NC2s0bGjz3G72fG2XggYnvPvmJ7uV7T77FhD2lvlr3IqR7subbFxIh1QRy8XjldW8dQ47nW3xEfcUvy8eypZsgo8P7w6RjjQdwF/RHT11cYjM+X2piZKiEnggZneYyvuaEjAz+pD+vRJvxqnO9tgTYdmTlMr/IUDA5jjh4N8Ps7dvCa50AFRtCzurhB2vdbhyMs+qivxT0GbWrUTmZOqbme2EQvzw5Dv2szhVWGxBsScPD1fvju3iBMifaAh0ZDgXgZpr2VjnEbHdirbwV/n/ZvSXLFbJa1084tnHRuWe90KM4pFvZ8t97Ghx6iXTNEiemDPCHXqTF3cSZmbS3Gd3kNqNWywVqBHiFtA/bBC8zR0WLdPwzlSHyIe1cNg3qGq2y3bZy2O+Skz+hLelhch03SpEHhsTqcIdmbOERIACRcpUP2t7OjiPu0DVLP1TXYQ3WW9/THXUbZX/bhKbSnFiWmi1xXggEBmETxdf7+fAxZmYf3j1XhbB25uF7e1GYK4wkBbQMOsz2wBnvqoxfmYZUTySbO+jgCrvAT2sVBO22CvX7i+KF+QgbSqlXpmLS+EF9nqVBBTeDrz2S2nQWDBi1Mw0gj5P544JF+OLckDn8b44frArpBfYkC8a8LMPzVs3jF4t5sRyDdskP+M8qYTfTEiETzPvUc7CcEnW1jqp6OtT/D2mnn5iedW7Gj9sp7TBCmUYTO0vP7vZuDpfsqcLy6Gc1yT3QnHerhrx8HO8FfcArnfyN+hBIDaVzaeUI/eVKBzWfJmYvyx3T9InChGsK8ZX45kk2vW9qHbTZpZsnvsbudHUTax22Yen4go4G8ZTnuGGrBL9HX7WqIMboALgm+xf05pfioCLj9pgj8/fF4YXb48GRXz3cE4ckRbEapDqt/YVJLv32yCv8mSxs5JFhaMTBHb+QSbG3U1F3uUADiODKMuZntsbL8mK1PLZP2nj17oAnypCC8c18P7GVtuzAMN0ofuaa4ItdreqsxJeZMjsBnzyQh84/xSDVc3XJV/UhWmbjaXJEo0ggGuEeYtMpihdb96NbIrsEW0hGzA8YGio6eOltllB7lMHqjqxVnYFsJV+ItC7ItPOw86+GKQQPXwJRYfPJ8MnKWskA8ECmKy8g8XIgHdzm2T94ZrpjNsnbauZ0nnQv7iz8ux1cNXnhoAtMhphuJ+FeKuQPQf0oSDj8SglsCtPhhfzke/fs59HuVOduWDvDzwr1TLciR8DA9Z6PrM2EIm/hqwtZjLPDQ4Ltscvi9FJg2UHy/FRfokGPt7AAxIbiXZd9cENMr9WcptGbXXM0owvHpK/F4dwj5G2UqvLfhIm79c4ZwuJjxIX/ifstpO+pQHRaAV6ZF4xthPIjBQxb80/Zxzse5GvwER/zEwGEJOPF8BO6LIFt4ohLPrM7DoMVpuNGJg0at4ekbgLunJmDHKwNwngXi1/sgWKfBms9dfc95S6iQcYk9e6K3kLFlBdMx1QVYO+3cvpPOHZF3JRbO64114xToXqvGqu1FuPOtTPT+s5VDNa9mf8GUkCBMpX5Vn60Vt/Vk1+FHUueBA4LMriMwIdjyNbMH23/dLg62s93IkJoiZmDsSWNKV4XNGWTog5X4H5OUc47juCD4VuPDTdXIgQ9en9cXKyZG4q4kpTA73MOvoyuS5sTfJB5KcuDwJeRBh90nWSoHOXq3WB/pkiNYaNCM86Xia2PIuF2W/tup6OATwfZYWX6MkXJ6CveUYBUNBCMnJ+L7mTF4cHgw+rK2DZFfsVSO5oYGXKxUCzPRrubKXK/prcbihb1Mt8ebrwq5rH5qHdghd3KZDR2J9hJWli6WW16qbaaBuX102P5LHdj8qzqt2GCmmj0KsIbZVANHzynU0koDBeFGIVaLHCMsyLbwsGvfdCdTXoUvfinFN8KecAOEQLwntjwbIqR7nzlaiZPiO26ja9qs9qjA4i1qqJQBWL8gUdIhphsKREoHshkjQ1T/GKx7cQAK/pyEvY9H4DFyWITDZj4wPcDvMsJ7WZAj4WF6zoajUHt2JAh1hoFBmE5+1ZnsGtSoK7GtgG1HCMIE6e1WXKJDjrSzI0jplTo1vj7ehK/TyE7JFLirNbvmKsdLiVkzk3DijQHIfKknPhvnh/Aa8ZC/Z1m+MONMERZm6RCZEoOfnozF7FGhGCaMB55QOun+OOPjdEU/wRjH/UTf6EiseL4/8t/sh+PPRGNBPzkuCgdw5WKXk/qaf7aUbHw5TpkstguB+Iw+2DaWyXMT/rm/VnrHXSiRHM6em3HO0h4VGts7dzHIThyVd7kvxk1MxM9LByHnT/HYcFcgBlP7sgPlpphOYrvVX5C233QaCjw8zId8qwbsygaOnqqn0ZEddms+UNV4eFm+ZvYQ9l/bgSPt7AD6LVL5adVIP68C+6q4AUHXzD3vryQuGCXr8StzEAN9MNJw3wpRY3RYkYtQiIeSoLQGn6SJh5DI4wPxuNEGFGP6dPcUVhl/zbWQz1auwk+sOMoXN4glbkd/gvaBjPbTfY9dZLPsnhgu7IsyQB/wOEqAR4dnEHP35OP6d3Iw8wfzdLEsYcUO8LAVVNrA5dfrYlxVv8K8JiEgTu5hw7h29wbbHqctbDC73QPTu+/Pszlxb4xgG22soT+ox1o6caIXuQF6R885mrMbcZqeFaRD4i1wPNGdXVaVGjvcvoLgKN6IEU40t8CFKizcXIa5+yydMkuEeYq6U9ss3prDjXQ1m2UXxQ04xeYtqF6jTVboqhtNxoKqKmz4pRRf50qriF7e6JsUiTd+Lx7Opi2uxb8lpzRKyDE1PaDMNQyidmb7jE/mWZ58qslpFPo6NEDI7XAhwZjG9kzn1+HLo/XCnvbJQwyX712kQw60szOI6ZXA3l8vYvsFsgHJgUg16XvHMDjc8orRjIzTLEirlDIDWIp+IG6fmCAeYEYB8ZYjYjppVr64hWxQvPFeayZTtc7OZzrh43T1cdMhP7FJhZ0ks1+kS6t2LH02PhQvPCIezobGOqy3NfsZ7AF2dp8lTh4ow/zNpVjF9nNZID5EnD4urpL0xY3oJ1iP5JgLSvMZNdidqxQ9FF0q0HFE3ovOlZEOXcIxSQB9/ZUYM7ontgiHs1Ecf6JKSql3p7+gxHVC9pgGx62cbXOAfDFG90AT3ekggSn+GAkttp8oxo5sMiRx/sZ3gNDLaV69jXv7t4/97ewE+i1SVfV4e68apSwDbZSJApvighjjt4ALgm8fJLApKVKcb0raDFpzdSme+97G5srLzOw4gwyTxygRSUL97y8rhHs5ThltO83Nc1gQUn1oLDt6CR8ZHZrUhI1fV4OdiTA6JayDAmP/6klgSqAwm6ROK8cSk3sGNuQWIPXj4tZ0wN7k8LOW2nvSIH1E24Av11cKKX52U9iEbHpSBHi1tZW2GSWValxke9kcIClZIdxq6cyxCuPbdWgq8fdfWS3luDnZ4IThHt7CQQz52bVGAV7zhWrsNN7I47rrdRPO1C//aJnxLcE05fjzfmbwvTBpqI0lOzJ8D7ETslU1eGOv8T00y4+U4CNyZuTxAXjYxkGSNcfryLFnKYvdscFodV96zO4hHNyG0jpssmfgu6AyvhZtLd75jt3CTIbxg/TBQzAeHcraSYNVm0qND7Ghtlq3JtsF++qcxQs9ApjZIwfbdGPSYAocyE6oM8ot1q/8iEroY3lPBW4Ri9xG59gsFxPhhV6safPqsMXAEWM2beFxE+N4uQH/2FyGZ/5dZnLLnxbUC4Iug0LyhUaPFvcWZ+wvxjqjttCh+OfzSO3APvykIeLBNoe+LzC/bZ+qEksOsDHM9LYqrmH0cH+yo414c6caWj8/TNMf6ijgIh1yoJ1tY2V8CwnDTGpAbY4aP5jeV1nTJGRIldg5CS9utfBArH7bO/VvbTWNT5VNsHEyhhvwxMWT5RSkFWPREZM2bros1MXbU3SdelEAxeYaDqRdMqhjC45RgLfe6bkix30c58ZNGz6L0/6ZNRzwE7012PItBcnrS8x0sl7DUn5k8CX/ySoKL5Y0JtxOzPSQyMkj/Ckc02HbdwUW79e+8ZRYl5F9bLW2a+g/KgDsxgYH9hUJKcmttI6pctw/ulUZugSOyPvl3GrSoRL8/nuTyewmnfi3pEPi0oN7/YVbBopn26zfXGB2e7nm0mK8xw49k/ni7hRbQuUEilDcHQ9UnKjAJ1UkUwNDjXWY3p/FTt7X1OF1GtONbJymGkv+eg5rLN4P3Rj727kdrGRbTBjJbivZjN1Z9K7hbdJMsRRjODgG/JYQR5AOocSs4d6kkBqs+CATkz4+jydWZaLfO2X4oUVc/cwuMbRy/hjB9rhU1+CpVfTZTZcc35yfEIqHKGBQa6hDlUo8Mbidy5CH4s17lYgiR+e197Iw/YsCfLwzH9PfzsZzWTookyLx4RjnFe+Gnsx7acGaL7LxxGcX8HV7p08rIrA81Q/Bsmas+TgLt32cj/f3FeB51m4fVuPXmhZUS0ZCb6AzfsjDiJU59P3ZuHHxOcw7f1l0ciwMMJZoLmgSVnAG9TSYtSopwd3v5OD6f9txXLYhCZFYJN2u486lZ/HgZ9SPrF6vFwp705RJYXjBcE9IVDDuY31eWokpy9k1SDLyd3Y7EfEjelx1ve7CmfrJNWo893Ympre2U7FwknXimCg8Z2M1g6nnhOndcV8ABQc7cnDTqjws3VeIl6nthv9XDZWPAitmdbfhlNVj9WF2T0ZbKYt+ePx6dksJ8xN2LULXMpddy8ZCfMF06L0LQrqjMikcSw30sP8d0Xg+ohvUOWW44b1sPL+1GO9vzMFtS8/hxUwNCiiIcq1zZz/XC7eRaUZagYnwkZ1Y8Xgw+pFerluThcR3mT6zPjuP6cvSxDb38MLvp3TCnlY32yy3oJ8s0tTj2ddFeX9wZbpg0y4IotGMrCLhkxS0dcd7Y8iRk2zIkyQfgjy9nYtlpSRP/YLbJpViYvDhzV7w1DTgRYO2eHB5Jq7fUo+z7HAZa0FEe+i/u5HpaLo4frE+J7s85G2yZ1Xd0O/mHljijj1uCQG4g8xxcwv5NAMChQOWDHGJDjnSzlawPb7pb0nD/tt2mzSBkxeFDKm7d9sThdbidBk9+XljeGt96vGXD2l8eucivpVKHKa+HkskHTZ7fG/d3k24KxzjfXT44ats3LCKxudfirH087MY8mUd1DJPPHmrGBTpJ8nUGSUYKNiLHEz6cyamHmphB8zTGKkRJsocxkEfx9FxyXqfusA/s4gjfmIoXktVQEn6Pk8/1pB/9CTp++w0HZmZQDxrejaCEUqksGuoagKLqwzxHBiHDaTvsvJaPPBmGm5k1yjIQzbGLhZtq2dEMP5k62A7VxEWjRUTvKFUqfA/b5EfRdf58dbzpN/5wpiaOMZNdqcDOCLvMeO6C7dMy/8lH0OWnyffpZTsF+nT+5X0GRkm3dw2eexOfyFwRA+8048sVDnZwMV6P0ySvxXlONQix6TpsXi4Q1uXLOGFuwaRbWyhoNZicO+FGfeFYxL9bv6hAqSQb/zyTrIzpJM3vEZjXGEL8tXtB62OtLNFYhQQbk6RWyHqpaldlG4ryWi7TZo5FmMMh8aA3xa2LbqdxE/ojX13+yHJQ4dTOfXYWXQZfVK64+B9fmDyfLHMcNVOgaenh2KUP3Ahnz6bq6Eh1lH0AQMJw4hQCydBmxM4MB77n2MHeFzGydPVWLKnFscaPHHnpJ74+fEI49smOAgT/pfiqDZVjfj2bAPO2TFJFzYiAUdZfbp3Q15uLd7bXo3NpZeRMiYah+fFtt2CjAz0trkRuDO8G6qK1PT9GjSEB+DDBd1xJ/tMDRm7dh1PHXZnsUr5INUls3vsdh0JwgEPiTSA/5RRj28zGlHi6437UuNxwqw9/fDc4zGYE+eBxkt0DfT5vVUyTL2rF5aLecptuOR63YgT9bv1rt5Yd4MceefEdroAD4waE4OvpgaIjpEtFBQQLhAP/tEUqbBqeyU+K9SiV/8wbJ2faHwLM1POV+CfLNUvLsBmymLgqCDhnt/GJ+xaoXcEdt3hhcpTVZhPOnRQ1Q1J/SPw7aMmfc5ulzI3UZCRXg1N+M/+crx3tBHFfn549/m+WHuD8S1FOhMxHQw4klVpNqB79uyBPYupva/3QWyDBjsF2a7HMZUMyUPCsHlBHyzs6RKz2S7utFnuQYYJs3rjyzE+CKeWPUjt9nOlHDdNisXuseLyapuDLcPgqb2xi0b1AV4t+I7kg8nTySZPjBsXg58fCzeY4KDPTumDg4+EYFywFsdOim1xSCXHZMHedOS2YtJ3zw6jdu6GXBqTWH9/m98M7wglFs9OxM4pduipU0i366KRzPLpsa7QIUfa2TLtjW+Bg/0wmJ7NDnR0BGkrRWhygNkkRIfQNGO/pMNmDytbDQSUEVj9QjTm9/ZEbRGNz5vLsSqrBf7dlVg+NwkL9d6sPBR/my+ObUL7ZDQg19cXr86Ox3wh3dVCho1dOOjjODguWe9TV/hnlnHET2S3fNwn6LsOJ49WYj75R9/VdMOAIRHYN69HO6nYXpg+kCJENGGffm9+K0zf+yLz+Qg8GutBbaWXhyYU+3jhPrJVB+f2wGBn5dhB+o+jNmGHIfq14OfDlViyvx55Hj547IFe2GOPf9DZOCLvZL8WPc98F2/417CDwMrIfmlQG6zA/Md641PD2xG61V8gf/WxJOy6Nwi3BJE8nRX7fGeRDrEJQfjbc0n4dIRd6T8Oo79dl9U7QJCd+fQlsY28K9X4bA/ZmTQNLscEYd3CJCwxva2YJRxpZ4uE4rV7lOgl1yKD9HLXRdNM2CBM7M18Hi9MGW5tDd3VMca1T7fLhPR/zrWKthxPLynGtuhwnHnGYKX0TC56/7MOUTf3wk9TDNLEORxTCgswit3+IikSRRT4Xd1osPbvZ/HHIn+sXtLL+gnCHA6nXWr2n8PArU1IfWgA/mawIlnzYzaStzVi/D0DsHaE7QmrvJ1nMXqPFo891R9vtK72VeDZPxXhq4Bg7FvQQzpPgsOxA3UJ7vnzJZxIjkLGw2FdL4jlcK4aqvHK0gKs8Q/FkbnRllfRrcQYhbuyMGJ3EybdPwifsg3onFY6ZwmHc0XJ21OJbRpPPJVqmKKsw/bjaqhl3rhvJA+8Ob8lvPBwahDiNHV4fw9Ph+JwnEZbh9VHG6D18cO9RqnA9Vh7vBHw8cdD7Z1+rq3Aewc0UCSF4UWDNNvmk7XYqQEGDgnmgTfHMRTd8fpoT6gzKvGhswdCcDgcNJyswn9VwNDrzG+TpsdyjFGPf59uEsaAmSw1imMED76vdVSleOnHJigGhbelyjGaapFeK8OAW9rbd8zhXIPExOD/UuQ4s6dIvN0ah8Oxn8pLWMT2e76Zh2XFFCCPCcdY6S0BtQblWjnG3xmNCTYzS3Q4ufUSvtJ44/m7DM9SaMbJ4hYEdA/Bigl2HRfE4RjR/45IzPJrwrsbip0+kJHD+a1y5HtxX/zAL+ugogB67i1WNsVbizGq1DjX4oE774ppZwz4bcLTzq9l2ImJKwuwGkH4Zl5sp+1j4lyDXFNp5xLaWixdno+PEIB/PR2Hm23tn+dwOG0UF2LcXyqRKZNj1M3RWDcxyIn7SetQfDAXY79qxMh7emOtm/Zdcn67NF8owLi/VwPDYvDVvSFd8JwMDqdrsu3zM3gy/TJ8Q5V4f3ZPpAZZWKvlMYbT8OD7WqayCPevu4wXn45pO8CNw+G0QYPH8g8rEfxEAh6zMrHL4XDcw671Z7G5X0+sGHrlDmDkXNs05Bbinn0yfPFYlEFmBYfD6TA8xnAaHnxzOBwOh8PhcDgcDofjZviebw6Hw+FwOBwOh8PhcNwMD745HA6Hw+FwOBwOh8NxMzz45nA4HA6Hw+FwOBwOx83w4JvD4XA4HA6Hw+FwOBw3w4NvDofD4XA4HA6Hw+Fw3AwPvjkcDofD4XA4HA6Hw3EzPPjmXGF0KP41F1M2VkmvORwOh8MRKdx1DlN2VqNBes3huARtA7asy8Ir2dJrDofD6SR48H2F2bj6NKIXZmJpoVRwRSjDwwupHm8XIF0q6SzKj+Ri7JdqwK8b6qUyt6K+hN8tpmtdnId9UlGXpfAibnrpNGL/UoQrKh5WaMgtwqxlaYhjsrPwDGafkN64migswChW/9VlUoEtNNiyJo2uNQ1zM6QizlVH17C5jpG+LROxJKdT9pCt7NK4Xke8Yz1Ru68At2+tRbNUdlVwJIfa4TRGbVVJBba4cmPwleDK62ATNn52Hk9T4B0i7ySp6uLjuSFd29604NjeHIxdfEbQr+hXzmOb9M5VhSP24WryWzl24ZrgWxIis8craRi5Mg8f5TZJH+xi6OtNA95JrVRmikMDKMchyovw4CY1FCnR2DwpCH6srN32VmHp20y+crBRKnEIbxkCSOrl/h6IkIq6LFJdFUpP+EtFjC4RPKhL8NDHFdhz6TKi4vxwR3IApvSU3jNCjQ9WsPpm4YNKqciAwl1ZQn/fvsvCIH+hANcz/fy4tIs43R7w9ekGuUyOqACpyM106UBRo8K69VkYqXeCFp5B37eyMHdvDcqlj7ib9K2Zwm8/fEQqMKDz2s4Om9TBcUThK6PBWobIIA+ppKtiRUccmuQyJqxfHL6a7IO8/QWYe0YnlboDHbavZRMHp3HPfo1Udu2j1yFbD0v6dTWTtysfc7O6Ydas3vhDgqdQ1q696IAMC1gZz7silu1N15ggqtmfh2k71Mhq8cANyeR7DFdiiPSeMRV49k9U3z/lYpdUYsiudeIk4bNnpAIDmg+eE+T++s21UskVptP91t/WZOCVwDXBt4Qi1JeccOaIS48YOcpLVHjtw3P43fEuPJhVVePpq21W/apHg41fV+GMhz/enB4McfjrBOShWLF4EAoW9EB/qajLEhaNbW8MwtnHwhEoFXUZ0upxgPzgyOt74OCcBPzj0Z64K0R6zwgFhpMdYCsNv+aJJW1o8F22ODF3JrsGNcL/2qjJa8RFeh7YS9l58mETGSbM7I+Ct/phYYxU9FtFRYPzG3l48UQTyv28JZvvi14tGmzYcQHD/++i9QlNjsPEj0tC/jsD8OkwL6mkq+IeHQm7uTueCtbhq80XcVQqcznqMqzOEIP7A4cvwcxcXeNERhv4biaPG0KlD10LUD+/+mMTvAdE4I0+LnWBbdOVx3MTurK92X22AVrI8djj/bDpUfI9pofDsqlRIiWKnjRNOF4slrRRhV3nma7r8GOG+ZbHIwUsXpFhRO9OmmVvj6vJb+XYhUstT3hyJDnhzBGXHnP6IfN3AYgkAd/xY3mXTrXJ/6UIb1xw56w6x4jzJViapUPymAhMZrEZ56oivUScqhrUM0h4tsVoCsoU9Hwkx2SQ01Zjb4H0/wI1dpsEaz/kNNK/Hhjdl/01p+ugwdp1pdjdKMMtqb2R+WIfyeYnYsef+uDLoZ5oLqvC09/ybCGOq1DiuTG+kKtq8LabVqVrjqpwQCdDYhgNSKUqrOvKDosbGDTawHczecxJkD50DXB0ezl2a7ww546wLjKpy7EfFTIusWdvDGtXJr1wex9vem7GwWwTm1FYh5+kfY4VOXUmq7v0Xh5zRrxxU7JYwuG4GrdP+3n28cUg9p/SRhwTSojW9J1SHNuZjSGv0P9fOo8t0tuM8sxCo/2kfZflYHmmpfT1Jvy403D/RxrGflKIHx3w+3pEedPQ3oyPvyh0YLVGh+J0wzqeRuIbWZh7sM5sBV2fzrQk/RLmvpsm7KW5aVud9K5lynOLMXdlBhJfEr87bnEGZmytQLFR/QzSHVWVWLqq7fOJb2RjeW6L9DkDTD/3LmtX6xfdXFpqVA+L16hPqdxcgS3rM8XPvncRWdLbljhwrA6lZBynDNaVW4AAAP/0SURBVBeSzTtGa0pnLXIOnjeWhfWXTNrMJJ1GS69ZfS2l10hy2nttudH12iOb7fV5Q1EpZi9LN+jfs5i1s9I4XdckzU2fHvic0LDNWPUX8TeWFtpKl6zGK0vZ57Kxpr3tW1Ia8bBFYp0s65LYfuP3iy2y+7/SZ22l4iX4CDagorDBaAKu+Yy4en5jIjnVukbsMdojWoX9LDD38sGNBunszaWXsPSTs+jLbAb9buyidIz9vBSZFvxxu9rYgPLMAsx4Q+yr6JfScOMnRThm8r3mqYnO6eDyTyQ9kT63NJP+ln2PJIfW+5q9lrCrvwiH9MMeVDhUxJ59cM+NviYOrDduTg3ESPpffmaNsQ3Q1uFLg/rGLsrApPWlyDH7/SYc25uHSfq+ENLZqY3SG9r0ULomUzlk6bF2tZ0l7K6fK3BMbkzT69tem04Y6yQZPYvlhoJuz7W1Ny4zefv8LPq3I2/GOiLZ279UI5+9zCoV/5bZi/JC3Mb+v/SC2Wp2zf5zQt8P+k/bhF3gqADcSh7LgVMVRlkyhT9kC7b4pm0dmeypx+qjjWRvFHh1hj8iSW42HqyW3jPHMdty2UTv0jFpo/16194Y3HwyF72pPPbvJWbZQ0c3pgt/c/ePrpuwcNQ3WZdbiBl/Fq/9d8elt63Rjpx2/FqrsCGNvizSH9PDpKIO0CrrF6jepBv6cYnJw9xfDewVwzRtXXodS6+NPkc0k31j8n/bTsOTcOzxddtrd+a30jj3lm2/1dje6L+zFLvZy6pqjGd/K4xV9Vi+nL2XjlfOszcNUJfgHiYjr+fjgFRkDaZPxjJlQZ8Em5+HVYJJUOM5qf62tkTExHuDJW2cvmBsG/LOqMkeeeCWRBq9qhrwveGWOLUKB9kPRylwk8HCkH1yz7Cvjduwxz6Y+K0MA3ky9V2GrSo0810Yoi1JN/Bdz+NLKhO+W5BLW33dhl39RTikH78x3J9zo9ZSdxKBnugtFBiQV4779zRC5SVHmK8MejkvJyW7cU0lfmrxwrQxIZgz2BvBVWosW2Oavt5EnXsOD+xpQCMZ0znjgnBvjBy55yrxAAnVFjvPipAnhuO9ftQUJGi//9a+9PP0PefI6a/ED9VyDL8+BAuuVyC+pQkbvsrFOIsp7FpylEuwgUaMYD85gmxk8wjX/2E5NlbLMG50GJZNDsLtgZdxeH8Rxq69ZDboAI14eVkh1tR54Na+frgjzhMttY1Y9nEe1hq2gbYCc5cXYlU+OXbBPkI62a3+zVj5eTn2Sh8xpPlCAcatKBPqMTLF5BotODqXjpXg6RMt8PCl/vTpJpVaogqbM8iyBClwmwsGQD2XjhZg7NZG+MQo6NoUSPbSIetECe7YbN2JgjwMM5NZ39djk4lznn68ngy0DOMHh7QGGPbLJsNyn7N2vf2DMnxTJcPgQUFYMEaJ4b7N2LOnkL7bUv+KxAwmWZgWgZmR7JUcY8dG0OswpAbLMHmUvzDIHDpdafz3hSrsoa6Sxysx3dYCsppk4z2WRqyBLtzPRJdYgCB9Dn6YTXX4Q6KorcnDWB3oMcbGJIpCiRtYPxer8ZPBgLLvtJqGUJLD6X5IoQHLKP2rsgEnmN8R5YPrxRJJHkuwKu8yBgwLod8NwUPRMuSml2HCyotGg4PDbXzhEm78vBYlwb6YyNIsSd9yz1Xg/n+WWe0PY+zVwSq88kEhlp0jC6HXwWAtPllTiI8Mfsh6XwtvO9BfbTilHxbxRk8hG6+ZnBoL2UKKAPyBycQElvUkoa3F0uW5mHeqBcH0xwvGBeCmkMtIO1GGscsN+0606VN3qFDg64unJkdgyRgFemgaserz83hKr2O9WP+by+HsXna0nSXsrp+rsVNuTOg/Sgm2KLP3lPHEILTl+PocPRsGF45em6VxmX3HSpK39GYERCsdGGtFe7FsrEKwT4hUCn0j2IuwcMyKozJVHb4yctx1ramlqcMNOk0ehFtj6Tm/DpuMdOoy/QW5p7UdcOXOV+CfpUDodUGYkBCMGfSzpSeqsN3MsXbctpjrnRanDpdguh2ZIfaMwZ6Dg0AmFFpycL826gcVdmTTBch8cXeKa9KHnfFNlnxaicNNMoTRGKi05XHaIacdvtbsWmyncaVHghLxUlHH0eKfq3Ox8EI3DO9DOpzoBX+NBhu+zMUS04DUkJgQ3Es2SntOhS1GcqbDllNq+lbDxQlHfV3L7S4ccPt5NQ5rPHCjqd9qdfLKG6mTmA0VbQ78FKJ9nxSIGNLvx1N8qFCLb381Hkea0+pxiBQzckAgRktllqg5k4cxpE8byi6jTz8TfWKBpfQ50eYHY6zQJF6YyepAD2bzrdJHgRF07eoCNU5KRfQKWzNoHKHreO5WX7JLTdhzxsB3O9+I0/QUGuPbms7uiNw72sYdsQ8CFnyXkvxKTFttMkGlKsHMv1A7F+kQHC3+1nBZIxaQfWnz/231tYjd/dWKk/pxjWPLFHaYhopyLP1HJQ6xAOa2CPO9Ci1yzHo6GTmL++PUq/GYwspUxXiSRlZtYgQOLuiDlVNjsOjBPjj4xwjcQs7ijm9LWmfJy3+8gLlZwC2pifhpTjwWTYzFyjn9cOxuXyga67F4u71OpQdS74/AJLIhOQeK8E576eflRZi7qwkqpT8+WdgPm2bE4IUZifh+URzmkMOTs/+iBaHSUQAUgWOvD6Br7Y+tE6wduVGPDUea4E1C/8a8vvhkahQeHBuLT+YlYlEPap7MKqw1O7hKh4ihsTijT/+ck4T1KeQy6Rrw1dE2o3J0cyk2kJGOGxXXlirK2ouiMrO4jAUJa6uRExiIzS/1xRcG1zibHJOc/aVmzqFa5oPlL/XHWbq+U8/FIEkqN0MfWEV4Y7BY4hJYIPfegn7YMZulylFd54VhJEl4aVqNjZlXFlyz62/G3jOGs8z1NJiTM+elwF0DJTVxQDZFLPf59u+pXXVy3P9QEjY9GIsXpsZj04KeQrta7l+RwJ5heHBUJEYLG8Zk6H9dJL0Ow3Ws8/oEIlVJ3WbilIgzvMDIQSE29pnpsGtTCTbUAoPGxePI8wltunSPAspGNeau0xtyP4yhOkyOEtskJoHVgR4UOFjHHzfFMxe+CT+1rm5Le66i/HB7WCDGRRmnfzXnNIB9dCBdl77ee3+pQ42vF558lNqN5PHBUTF4k2T9n0PlFHPU4G8GB6c43MYaOWbO7oufhf3rCfTZGMyi9lRnkbNmwQE3xz4dzNtdhjXUkHEjDT8rtrPCwOzY7GuH+qsN5/TDEv54nIIpIVvooyzM2lqGMw2GNlOUkQeHBEh9p8OBTRexqtwTj81Owvez4/DCxDh8Ma8fvhnlSX1XhVf1GRtlFfhXYTeE9QnHD/PousZGYvbUBKGuw+h7WrcvhQUL7WMqh2PI/tpuO0s4UD+XY5/cmBEWhCnMcc+rN9quoc8mSR4QJAUXTlybpXH5ZDk+Iq8qdGi0wVibhC30HaCx9q8/m3n/EpIsXEcOF3sZqBD6RrQXXph+nS+F2CaOu7YSu9iGaxpf7zZKLfXCsGh2AJQGRw3G15hxvZH2UhJOzLR46IRdiJlY+mBfiVlDKYDT1GH9cXNfwFHbYk3v8s9UGwQEFrB7DA7GfQNEmdliOAFcXou9VYC8pz/usjXxajfO+SZRw2ORtZTJUn+stHwyFmGvnHbsWgvzmlBBz/1iXLmXl2SkJ/kELyfhC6bDNI78MNlHkOstxwwmlM3ww/QBJGe6RuwyPEhQL/8GE2iO+7qW2r0Oq/epoSJ5XET91ypP85j/QvJ0sNziwWRM764bwmyoQgzAvLwwmemwZN8DU5QYzcaRjFoD/0eH3RmN1AJy3DHUxtY0bQVe/o8KxRT0Lfhf0pFHJH36Yx98kCSDKqsUT+vtk2DzA9FfmFvxwGhWB3owm2+dQNzEJuyqG/CjXjbVNdhTDCgS/DG6jz9upu87ml3dOomZnttEOivDzcnMFjAckXvH29hp+6DHiu+izVMZTFLqsP2rChxoYVvFEslnSBQ+K+jXaMPcNdt97VB/teKsflzbiJ6Li8jfnyekFOgfie8WY1WhDFPu64XVI9jeCxN6BeOVXsantxYeVOEQDWzTb41EFPPX9SgjcQ/zJlSN+EUQdDUNjKTcfv54ziT1MeyGAGGmrbRAbf8+c0U43r/LD0pdMz76t+308/RfasFs5eixMZhEQt6KPAALb/enQE6Lfx9gJt4QD8ycYHJNFvHDnDnMYCbiYcPvJmG/KZ5dpQ41Zjc89cWzU4PoXz0yjI4X27ukRp8OLc0Mk6LPvj3AuL1GKIU0USMyqrFJRUHb6O4YLhg7CbrG+wbQX+uacMhkgqHH0HA8EGSHSBU1gf1pXERbjV2B2e+T8zacWYz6FjIW1vEcqMR4usaMjJo2eamswY5SEou+Aa170u2XTT2W+7xZGGdlCDVcBmCy8/tEHF4Yi0fEiMVBgnB3Mv2QkVMizfDKfJFq6+AUbTn+mUaVUgbijYn+JrLRHU8JTn6t1UkBexidyIytDsdzpdlcac9VXKKSjLwCt5mkfx0hJ4kN3EPi2zyp2+9PJr3oi9eMDsmhQTKRyboOKgO9cLiNTW2RPBgj2WEtaMG5EqGkHezRwTr8+xTrG9LBSYaftaKD1nCyv5zVD0uEjeiFb+/2Q09yWfZQEHD7kjQx9WxrKQ5XC41vQBX+dYpsT1wgXjSy9zIMHuEHtvh5ghwFgYhobGKTd090h5FPRXW9gflCjVoLq2sdxYH6uRx75MYSkuOuUeMbg+0aYjaJN6ZRvUWcuDYL4zJbXWajh7+fp4G80Xfc0Yv0KRFrx7DVL8cJHOYvTgAZOu4ZKuwmNYlMDkCKVKSnf3f26zoUVRo6eDIEBHkb6ZNDkD6tZW0UrMT/SMF+/HB/MbPgqHnmi6O2xareVWvAkhSs4sAYnDKUpcobZz4V/lovTGDannhto3ULkcmjLa3XFb6JNeyX045ca3opC7E8kRQtvnYN5uN8GI13FJehop1sDFHOKFA9bRCESPI/cFCwNIHmjK9rqd0vo5kpsUyGMMMJCmU4PvoDye4L0RgjFTmEIgSpbGuYUQZLFb7JZmOU6QSaMc3Hq7GlkXQ9JQIvRBroCMnUjLuCBB08cLQj50V54cY41mJNOJIjjkvNaWrB1ozuywaUYIyjRmaTmOItvDQ4VMD6zAsprfV2RO4db2On7YMeq76LFoWtYlWB/7DDJM1kiPRrmJ8gq/bgXH85rx/XMoat12HMTjtP9kEvzxZs+28enjpiwZGQdzMyJIyDF9jntFj3D/NBQNzDpxf0OhxhHmN9Le4x+VzrfgUHHbXAYT2E9HNtue3084wy0YCPSDQPaDwH+wnGUF3cYLLnuRs8TIIw6+hQnFMs7KnQ75FgD/3+RnOoHdv9bqoPU8RgH4y0YxZcnP2jAW7bWYN2NayHcbDDkFN/2kWDTvhuV2P375siD8OMvqQKxXXYJAUshcfqcIbUY+KQtmNe7ZdNPZb7fPxQP2HVcNWqdExaX4ivs1SooMHW11+BHiG+CLBbToxJuUEpOCmtTok0w9vuykdJE9g4KY/xNXN22cAzqY84eJmfVu4A/cTvzi+oE+pWmN6AfNKhKcPE0aw/vd+W/iUdeCLzwZg+wtutNBSVCXu+W/edssd/zaXJ4Ta2YIscwx4dVCON5WTZqYNWcbK/nNYPi8iQeEMCDr7eD9/dG4Qp0R7w0GgoEC/DtLfSMW6jwf6vQjWE+aD8ciQb6IzwkPYCq5uYxyKhbcBhtufbYM9c214/N+Bo/VyKPXJjmfgRSgwkm7PzhH6itwKbz5JgRPljun4R2Jlrs6QLAwKEzLD8/fkYsjIP7x+rwtm6FvJRvUmfFOju66QroYjATLYfzcBxP5DRQJpiecXMU5Jh2xMTjlHzSzW2URslDw1py84LC8Y0cmC1eTVYbZJH6ahtcVbvHBqDpVT5tswn6U4S7U28GmDttPMbjE46d4dvQjgipx241tomMQBzLY74diZIcqY+W9u6IrrrhDiBNnW4fpBwxte11O5KTB/kCblOjbmLMzFrazG+y2tArZZNXjHZdXYCywszUxTCSmZrBkt2HdjWe0sTaIZklzQLk3pDe1lYHQ8LwK0sPjY8L8oJkpKYbwEaD8UW2ne2EVqZAncNYzZLhvF9yLBpGrArm71bg5/YWTNhvrjRaIy2V+4db+MOj8uW7LUphY0QbuRAPgOLT5zFuf7qgH5cw7g0+DY77fzRPvh5YSTGe2mxY1OBlCJlD164d6q4n8P8YbJ3L1yJtyx+jh4G+xTsw8uO9HP9aYue6C3MLllBexkWjlqyC2HPyMfl+KrBCw9NiMBnz7AZ9UT8K8VkNcLtyDDmZgvtKj1s7rW5ypgwhKWeN2HrMSak0mDupcC0geL7bTggm1YIHJaAE89H4L4IIONEJZ5ZnYdBi9kBX44dFGiGfg/ZBTEVteZoHQ5R8a0pEbZXPoo0gnPTI8z26lWLiY/uEAp/CBmdxY04rG9fP1+M0yuoYfqXth4nmMMb64tbxHcFxL2WpfioCLj9pgj8/fF4QS8OTzZ3GdzWxl2Bzugve5F7YmBKLD55Phk5S1kgHogUxWVkHi7Eg7sMt3FQn5DTbFlv6NF6ZkATNn52HtN21KGaBvNXpkXjG9bHC2PwkI3sRVdgX/26ECFBmGrouEsO78ABQWbjXoevTRGOT1+Jx7tDSEnLVHhvw0Xc+ucM6cDOjgTCMqSmiNlie9KYYkrngRisQrsXDTadYvvLTQ//VODhFJYSr8G2YyZy3Km2xd4xWEqV1zVgN8uKUVdgCxkJee8AzLRzos/aaeeGJ5272zexT047fq1dBwWmD/AmMVRjs7BtSr8dy2ACTY8LfN3+U5Jw+JEQ3BKgxQ/7y/Ho38+h36tsEqljB0t6DgvEFOqS0myVsHXswIl6VJCPPOMG20Zbv5CVwFIZrKG7bHUhzC4SfDGUIh3xwFepfWMVGC8FhIED/TCQLMBPmaS8FxqFrNbQeD+jbZOOyL272rgr0Cn99RvBpcG3RZQReIiliZKh3JcplbXLZYT3EvdzmD9M9u61yDHC4ufo0brn0AHaTT9XIjmcPTfjnKVcTQq6OyZ4FVi8RQ2VMgDrFyQKex5vj2czZgpE2jzEzB3o4BNhoV2lh+29Nh1DS+3YqQwUD3IR7jetrsS2AunwHentNhyQTRv4RkdixfP9kf9mPxx/JhoL+slxUTg8JRe7nDbQ+j1kanx9vAlfpzWShutneG0Q7SWsmF8sZ7f2MqfZJX2hxDh2OJamET9nis6SsOdKepdaG9P6ysT0rww1WKZjYpzSQH/V+HBTNXLgg9fn9cWKiZG4K0kp6EUPP8t64Z427gJ0Sn/ZoLwKX/xSim8usKUqA4RAvCe2PBsipJ+dOVpptGetxsPLgs5ID/2ZAWeKsDBLh8iUGPz0ZCxmjwrFMNbHIZ5Qutn82VU/m0gph50GBYjD2lZtjp5iDq8PZhov2Qh0/NoILwp6ZibhxBsDkPlST3w2zg/hNeJhk88a7ll1EP22n/y0aqSfV4HN2cQNCOqc+9mWX8I6NpNFQfay9wxXFE8jeSsLysnhPFJhcpZHZ9oW+8fg1lT5U+UoP14v1PnW61x5Oy33+yb2yqn7rvVy50xaGhBzI9tyJB04Ksn/yGFh5sG0S3xdGaL6x2DdiwNQ8Ock7H08Ao9FQTzU7oMi5+9tLw/BXczPFw6urca2s9SIweSPtDMjkBzBeqwZ50vF18ZQX7hiKNMf1MgOfM0UD9wzPEtGP4mZn6PCkbMNuEhFIxINV1EclXs3tXEXoFP66zeC+4NvB4kScrZMD7+yhCe6M1tcpcYOk7SwjmKUfv6TeSitF8AjOSbOJ9F8RgwcFD0UzjkPxQ0QtoVG+WK0SapGdaPzDg65C0hi9qSmCUftyECICRR//ECGyWm6riDIQzz51hI9vJFITxeL6i1vGVDXQTijwc8DthIPHCcY09ie6fw6fHmUndIpx+QhxsvY9sumDZpU2EmByxfp0m0nKGDpHh+KFx4RDw5DYx3W23XKhmXEVFRySn69iO0XSA6TA5FqIkdmdPcGGze1hQ1mTiY7bOT78yyHw5sGJLHEWUbEe0OOFpw/yk4TNU7pZ4zt6wM5BecbjzcLaaejkgwPJazHr8zgB/pgpNG+KxJpo8O+CDe3sfMoMIA5y1WNOGR3FpAFOqm/rHKhCgs3l2HuPitbc8I8RcextllYoUewB7qz57z6dg+vy8oXU20HxQebONItqDU3t67BgfpZRonrhJUADY6bnIOh50CeuDrcPVDcz+0qAlP8yXHXYvuJYvFMjzh/47sadPjaGM3IOE369EultHLDUigDcfvEBPz0kJJsuQ5bKEB1Gv22H3Lc396rFm5Bee8oEyU3wVXtePSHGmGvsLWU6+HsXC6VCv84KdmYTrQtDo/B+lT5c7WYl94ArZc/ZrY38eoIbvNNCEfl1MlrFcdwywwSzhNowck8y4amJqdRsGehAcaWqcMoQpEaRyFeRi3WpDH590Gq0YntLvJ1q6qwgWT361wpU8XLG32TIvHG78WDw7TFtfi3o4d/tCLD5GHiwbXbdlQId1gx2sZhhT7U5qxHfs21cDhyuQo/sWKStxvEEifxwshYsW9/OsoO3DNM6WdIZ85QcL66mGmaD27qJ74j4Ijcu7WNO0CMD9hNfUA+g2OHqxrTOf3128CFltkyzdWl+JTtQ5P5YqyhQFth9Ghx32rG/mKsMzq4R4fin88jtXUvYTAeHcoUSoNVm0qN74mnbcC6Ndl4xel0OIP083LzYa//qACwA7AP7CsS0vxa0dbine/qhMDh/tFWw0vbRHihF+uVvDpsMfjuhtwCLDzutPdEtKVq/f07Y6e5/IhKSE82JDAlUFiNUKeVY4nJPWdZXVI/LnY+hSbUUwic88tMNo0zogIxkcW8+ZV4zuycgCb8uKVGqGt7t69whtHD2UEujXhzpxpaPz9MM9lvbL9s2sBbgy3flmH++hKz20HVa9i0oQy+huOuVazM0IeEYSZVUpujxg8649ukWYWc34cGkNCpavDGXuN7L5YfKcFHFPTK4wPwsPOHCQt4DlAI+792nyYdkflgHFu6MEB8vwW72SnzMm+MNEo79UECm6omB+Sbkra2Z/blue9NVoBd1sauxh/3X8d+uBEf26GDbZj0tTv7S9OEi5VqlJhOaBgyOBCpZBvVFBRYsrH6a5H3VIjbBsi5nJVE9dXU4fWvq2Gk9ZpqLPnrOawpFX+vV4Q4uB9Iu2TwuRYc21yK9TbmvJq11uprx0qWA/Wzxi0DmeOpxfrNBWbZUs2lxXiPHSbV3m2QnIHqfnc8Oe4nKvBJFTByYKjxCpgLro05/xdPlmP+5mIsMrXJTZeF7/T2pN+wByuZYRNGslslNmN3Fr1r4x7M6SXsr2WIDjFoR3tk1iLV+IqluFO/vPCk5ZTrTXeylHgddp+sFOvdibbF8TFYyoRg6dg59KqPsjW11iW4zTchHJZT5641LoilCTcjq0h8bUjSEPFgt0PfF5jfqlFViSUH2Dhjcvs7lyCd+l+vwpKDJGWmE2iu8nUvN+Afm8vwzL/LTGxUC+oF4ZZBYc+cFom58HFTpOzB/Cx2hxXTbRyW8RwWJIwlpUcv4SMjn6oJG0kO2MTY6BQLWQAOIp4p04yvTlM7BfviNpOxUX/mzG52mIrpmSyOyL2r2tjlhOJeFn3X1+GDg4ayosPJ4/XCar9FTPranf3V3NAg2HF2fsZvATtHTPu4lFGKJz473/b4OAsj3ivDD9SYiaMj7NuPExODD2/2gqemAS++l4XpXxTg4535eHB5Jq7fUo+z1c2tqX3974jG8xHdoM4pww3vZeP5rcV4f2MOblt6Di9malBAwmHRSNiDPv1cemlEWDRWTPCGUqXC/7x1Fg9uLMTHW8/T7+ZjFUVfiWN6YImz+9X0jrWmHs++nonp1I4PrkxHvw+rcUHoLcsDhz3Ej48SboWW/0s+hizPEfqIfffwTQ1oNJUERQSWp/ohWNaMNdSPt32cj/f3FeD5VZlCXX6taUG1id2xmxBf0DgHlDVZuJWCEgsfDEY/D3J4/puNISvFej7xWQ4m/TkbD/zaDM+IYHw2zQ0bQBMCcAd1eDP5ORaDewdk0zqheC1VASV9x7y3qX9Jdr6gdn2SvmN2mo66PxDPmu0zN+aGnsx6t2DNF9nULhfwtdGp1vrb97D/GtwmzSYyTJjeHfcFkOOxIwc3rcrD0n2FeJn6evh/1VD5KLBiVnc709psoN/3Tch7+pk7SwrxlmNqDRl1gz1ZIkrMGs5WzjVY8UEmJn1MMsFk8R2yLy1i6ld2id5j6ngbuwurOsjaWfqMIZb72o39dfIirn8nB3fvthHpykOx4nHSUbIN69ZkIfFdVjfR5k9flibWwcMLv5+iP2vACzPuC8cksv/5hwqQQtf98s5iLKVruuE10qHCFuSrxYFcP7irM0owUPhepveZmHqohR0gC1RphAFeT/9e3uSGA/t3ZuNB+v1VBivPtvXEEPvrZ43AET3wTj8S2PJq3LlYtNtCmzAZXVGOQy1yTJoei4ftGQMdwgt3DSJ9b6Gg1mJw3/FrY0y4KxzjfXT44Sv6u1U0FvxC3/H5WQz5kk2keeLJW9uZbI5RQDgLK7dC1N3vTVZOpFslMtpuk2aKDqeElSnDk4gJe2TWAs0nq/BvUjpFcpBV38RzcDDup3qpM6qxXshW6UTb4sQYrL/tE7MRdk28OoIbfRNn5NSZa42J96YeBDILa8UCQ/Tje6Maz72dLsop02Fq+yFvF+LfVd3Q7+YO+HY2EE/9Jx0m32P0dSYTaIRLfN2Q7nhvjCfkVWSjlp7Fk/QdX5D/Mv3tXCwrpRG2X3A7E7b+GMFWTapr8BQZ2ic2XTI51Vq6DRzDxgSaETSWvHmvElFoxGsGPtX0t7PxXJYOyqRIfDjGBbNZ0r5vRmQfpfmKvHDmjI58D9LwRH/j9x2R+w63sbuQYfLdhjZclO3p72bgzv3iIWrGWOlrN/ZX9u58wY6/cEWyEjsfSRxdg7qiAd9m1Lc9cpuhCVZg/iO9sWeq8e2trCPD4Cl9cPCREIwL1uLYyWos2VOLQyo5JqfG48TjBkfWs9t7zE3EunEK9Gpown/2l+O9o40o9vPDu8/3xdobjG/L4Cj69HNL9B/XG/vYoQp+Lfj5cCWW7K9HnocPHnuglwPXaglyrGf1xpdjfBBOSn2Q2vHnSjlumhSL3WPFKbO2IMNBqL0WPR2D+b090XhJLfTRoSZvPP9INJ604KmHjUjA0ecicF/3bsjLrcV726uxufQyUsZE4/C8WOPbnziElOJdrcb3FpaKPXv2wM4FsVg8xAvelXqZakAuOfT3UTscnNsDg40CM1ch3a6LQjzL96Z0QDZtwG7TxGRnXLAOJ49WYj6163c13TBgSAT2zevRbqpWzLjueCmOfqiqEd+ebcA5k0nvwMF+wv3THVr5UFBAtUA8UElTpMKq7ZX4rFCLXv3DsHV+ImbYzgK1EyVG9hD1KWWApVvCSOlfRFysv9n78RNI5+72Q5IHOeE59dhZdBl9Urrj4H1+QgB2saxtFbijbew2LOlgHQUvj4VhvPQRQ6z2daf0l3WYju5ZTL9/vQ9iGzTYKehoPY6pZEgeEobNC/pgYU8D26mMwKcvsfp6k06r8dmecqxK0+ByTBDWLUzCEv2tUmhw/9v8GMyJo9fsmpne+/ri1dnxmC+kdjcjw9DjGxiND4Z4wqtRI5wVcMLAp25PT4ywt35W8caMx5Kw694g3BJEMndWbI+dRTrEJgThb88l4VNLt9t0AfrbdVm9q0GHr42g71j9QrQgt7VFNBZspu/IaoF/dyWWz03CwnaXOihovUeJXnItMkh3d100XslltndibyYvNlbMtJWg2NPCyqAzaLD+gJilNn2Urb3CQXhyBA10ugZ8zu6NSHSmbXF4DFYEYwK7jZbdE6+O4EbfhOGonDpzrX0CMJnE6+J5lYW9t9L4PjsM91Ggm5sv+bH5zfCOUGLx7ETsnNIR384G+tt1WTux3SW+Ll3f1N7YlarEAK8WfEffMZ/8l5NNnhg3LgY/PxbezoStAk9PD8Uof+ACtc3OXA1Mp7tSBiiE77A+gWZO4MB47GcyHnEZJ0+LPtWxBk/cOaknfn48wviWk84ip2BSGD/kmHCdJd9OvOUYY2i8aSs4IvcdbWM3wmz4HGrnaBmKBdlWI43k7b0HgoSMD2Os93Wn9NdvgG6XCen/HE7ncf4Chn5Ug5BxCfh+YvvpSRz7qdl/DgO3NiH1oQH42xVa4eU4iLYUM18uww9hwdi3oIfRSaudSc2P2Uje1ojx9wzA2hGudt45HGtU45WlBVjjH4ojc6Mtpi02n8xF8hd1GDK1L/5rsLpSuCsLI3Y3YdL9g/DpMKnwt4q6BPf8+RJODIjGuVlObn27WnDyWo9uTEfqYTnmL+iLeTxScCli23rgpYVJeO6KrPByHOZCAa7/WzWK+3VHwWPCadJXhAP/Scc9R2WY87/9sKij+wyuArh3xbkyJHTHoiQZMg6UXd0nT3c1tHVYfbQBWh8/3MsD766Hqgy/+2sBjhnta9Ihe3cN9tP/IhP8r1jgDdRj7fFGwMcfD7nyoCYOpx0aTlbhvypg6HXmt0kTqceHe+ugDg7C60ZpjfX4N9vHSTI7k6X7/KYhO/JTLQ7pZLhz+DUeeHfgWlMmh2G8lwYf7aiA09sSOeZoyvGPU1rIY/zNb5PGueKwW7WmrjE5MwAt2L6vVtjzPbLPFVuTJ7+1Av86Q7ITFYBZv4HAm8E9LM4Vgu3xCsFITR1e3FTFB8GOUnkJi9j+2DfzsKwYGDgmHGOltzhdh+aqJmQXVmPqa5nifim2X3RlJsbvoQBC4YfXJrvhLAN7UWtQrpVj/J3RmGDvdgUOpwMc+f68sC9+4Jd1UFEAPfcWy/nk5QeLsbJYhrvvjDFO665S41yLB+68K+Y3LLNqfL2J7UOV7EhUMOaaHGZ57eCCa2V76Sf4QH26FK+wA7Y4HeN8EZ74LBs3vl6MLY0ypI7r3uED0jiup6ZUg7OZZbh+qXhOlbAX/d2zwlkVnhEhJpOanUxVMyo8vPDU9O52b1e42uFp55wrSvmRHNz430YMmhKH9Tf7u2c/1W+B4kKM+0slMmVyjLo5GusmBsFXeovTtWiursAH/ynHR3kaqFoAuacciX1C8eHMSPS7guMfh9PZbPv8DJ5MvwzfUCXen90TqUHm6wHsVOHbP64GRsd18DyVa5U6/N//5eL/yrohIi4Yq5+I6cB5LF0dV11rEzauPofnLnjjjTkJeCySr0M5zYnziFtfD52nJ2bMiMN7Qzt21hLHfTQUleKl/1Ria0kL2M0hPH08kJISgb/eEWrXeUUc18GDb84VRofiX/PxxPkgbJvh6lt4cDgcDudqpnDXOczWheG/fEKR40q0DdiyvgCHRibhDZPbinI4HI474cE3h8PhcDgcDofD4XA4bobn2nA4HA6Hw+FwOBwOh+NmePDN4XA4HA6Hw+FwOByOm+HBN4fD4XA4HA6Hw+FwOG6GB98cDofD4XA4HA6Hw+G4GR58czgcDofD4XA4HA6H42Z48M25yqjA3GW52FKtk15zOK6E3fouF1M2VkmvORwOh8ORqCzC/X8pxDGN9JrD4XAchAffhQUYtfA0oleXSQVXAYUXcdNLpxH7lyIUSkVdFlfXVeuNwX5qPP1+LjaqpLJrAg22rElD9MI0zM2QijidTvmRXIz9Ug34dUO9VOZerqJ+V1/C7xaTrVych31SUVeiufoSXl6ZgUSyN9Fk08ftqJPeuZpQYenbrP452CiVWIfbjGuB9K2Zgrw+fEQquBq4inyQ9G2ZiKX2nbKH7Lor8PRBXFMlpq0swEmtVHYN0JBbhFnL0hDH/OGFZzD7hPSGO+jiY8nVistlneM2XBd8axuwZ2cOxr6WJnQ+G0wSXzuLWVsvIaezDJSNQLozB7iNq9n1Z2KptVGpowG/twwB1HMKpSf8paIui5W6tttG1pD747HZ0Zjlqcbc1UXIk4rdypEcQXZGbXVntO8BX59ukMvkiAqQilyBVHfjxxn0fSsLc/dWo9hJ3SzclSV81+27LBj5yiLczn5nhSXHrBZL3mJ1OIcv3WgXnNL38iI8uEkNRUo0Nk8Kgh8ra7fvHQmWLOGmfncHki7L/T0QIRUxukbwUI0lfy3BZ0Ut8AlX4I5kP9yTZNk6dnXZtZ/Ol50uHShqVFi3PgsjF58R6thm52pQLn3E3dhqH6fHPIexwyZ1dEy7inwQha+MHF0ZIoM8pBJGGR5mMvJ2AdKlErtRhuDdp8OQUlmN+9ZXoFkqdhmOyLGrFo/UJXjo4wrsuXQZUXF+ZD8DMKWn9J47sDKWdAx7xuKOjtfuwxW21bKsc7oiJP4uQFuLpcvPYdYeNXJlnriJHB/m/Az2bcEP+0swdun5a2yV8goTFo1tbwzC2cfCESgVdVncUVd5MF6ZqIB3cQXm779Wcr9kmDCzPwre6oeFMVKRC1GE+go6KT68EdWowYYdBbj+7Vxsd0I3Y+K9EUrPGRfN14drztTjDPtPcT2+M41v1PU4WU3PUQrcJBeLugYabPy6Cmc8/PHm9GB4SqXux7397lLkoVixeBAKFvRAf6moy1Cowh6SY3l8OA7MS8Q/Hk3AnATpPROuHdm9imTH3agomHojDy+eaEK5n7dk53zRq4XZuQsY/n8Xr6lVyivOVeSDxI9LQv47A/DpMC+pxAUoo/DGaE+oTpdiyXmpzBVcKTlOq8cBHRB5fQ8cJMP5j0d74q4Q6T130JXHkqsYt8g6xy24JPg+uvkiVpUDcSNjkfmnJHxBjg9zfja9mIx9k3zgTU7Lwg1lqJE+z+F0lMARobhfCRzYV4KjUhnHOuHJkYJOio8+2PdaP2wd5w1FbR1mf3jR8dn/Pv64mey7tkCNA1KRiA67sxul/zdib5rJ3vzMBqG/esT7o0vFC+dLsDRLh+QxEZjcpSYFOHZRpEE+PfXo4dd+MHCtye5vHg3WrivF7kYZbkntjcwX+0h2LhE7/tQHXw71RHNZFZ7+lq8AcFxH/9uCMFqmxdqdJS7yba+cHKeXiOv3g3oGCc8cDse9uCD4VuOXAjYV54kpI4PgKxZKyJB4axim+9GnztXhB6lUpAk/sjR1fWrNK2kY+0khfrRgV8pzizHXYC9f3OIMzNhaYZAyK6UQ/aVacMCQVSp+J0vFkdKrxu8Xjcvu/4rfYU9qR3lmodEemL7LcrA8s0l618W0poHVIufgeeN2WX/JOD3YNNVIeh1Lr01ToJrpe9k2gNt2Gq7y2NP2bek563ILMePP4md/d1x6mx1MlV6AGW/p2+c0Et/IwtyDdcZ1MKmrPrXmuSz2qhmr/sL+lqXi1WP5cvb/dLxiOpOsLsE9rO9fzzdwloPwP4M9qZp12JAtFTEy8jGAPtt3zaVOmeyxLSM6G6mGUvv+KRfbpb41/6xBipSqEktXtelA4hvZWJ7bIn3OGTwwfGJvrBggg7a8Bm8fcTSDQImUKHqqb8KxSrFEQFuJXWwvQC9f3ELW5cBZ44PLDuQ0Qkt2YURv4zxZe3WtoagUs5elG9iCs5i1s7ItHc9JfT9wrA6l8MKU4UKyeccwkPnyTNKRN6StOC+lYdgq84N6jPvdMZlh2NN2+u9ckn4Jc98V63PTtrY90e22q4BJqqaNtm4+mYve9P/Yv5s7pkc3pgufu/vHdmROv5VJb6dY+63Mw5elhkGx1Cb/FZep8/fniZ+1mU7qQtnV1mHrVuM69l92HuuKLOgmSyf9/Cz6LxLbydaYJ2Cq8+/m4EMTnXeJzaDPLf8k0+hzSzPpb9n32NHXrdjVX4SD+tE+KhwqYs8+uOdGX5OsFW/cnBqIkfS//MwaCMOOHuq7L9dnYZjUH7GLMjBpfamFbXIkJ3vzMElfTyENmNoovaFtrLPRPtbHPOGjNrDfR3IFrbJ0gdqF5LTvK+I1MFsw91eDa2V01Aexp+1bf6MUx3ZmYwirz0vnsUV6W5C3rdlt6dlW5M04nVevHxTkspdV1RjP/laQcwd9EEUEZvamauSpsMkgS6bwh2zBFt+0zdGOckSObfi8BjSXlhr5zuY+mvg9pnJr/D12yD/DIb02GUsMaL/O7qH9OINhYF+lklYkG2C6lcNVPos947yl1HWH9JrTabgg+FYgTlhq0CKtwFJg6odZqRFYlhqMwVIJU+aNq8/hgT0NaIz0x5xxQbg3Ro7cc5V4gByXLQaGrJwE88YPy7GxWoZxo8OwbHIQbg+8jMP7izB2rT7A8sPsafQbYxVCOiEilVjGXo8hR7pXiPD/PySKy1nJw6icXs/uJby0ivC7ayrxU4sXpo0JwZzB3giuUmPZmnMUgDrsHdjNpaMFGLu1ET4xbN+iAsleOmSdKMEdm1m+oxViQnBvJPXAORW2GBkKHbacUlPPGAYV9re9SCOWfFqJw00yhPnJoZQkRjiY6vNqHNZ44MbrQ7DgegXiW5qw4atcjLMx6MQMpj6k9p9J9QXkGDuW9UcYUoP98HiKD5Vp8e2vxtfanFaPQzSeRg4IxGipjNG/ny/1txbbTxg6yZfRQp9Vq5rh7uOW2pcRGVJT/ElDmrHtuEmbFFZjG1Vb0UeJ8e2utDbi5WWFWFPngVv7+uGOOE+01DZi2cd5WGvWX44gw+RR/tSGOuw9Ve2gEfbCjVQPJk8HsgycnQwVdtOlj+wfhdtjqR/O1xlMmKhxrJAJqBdSDFKC7dW15gsFuP2DMnxTJcPgQUFYMEaJ4b7N2LOnkP5esgVO6XsVNmdQvYIUuC1MKnIFFy7hxs9rURLsi4nJfriB7FZJfiWmrba1UuKYzDhmp7RYt74EG+jHg0mXg6TMNLva1RI22tpzcJAw6aqlAf9rIxlVYUc2tbXMF3en2EqNU+HvfzsvbGUq8PPGo+NC8GgvDzSVqDBvRRY5EnqZ80bqJPpdKc0uNDFYqMOySYE2VqddJLvCdqtcPLWf2VIlFtDvLqBrCqiqx4sfnMM7hsEV+ywFBi+mNyMgWmmX3TXT+Qo1Xv80Hxvt0nk7bYa2Cq98UIhl50j7g32ENNdbg7X4ZE0hPjLs+Hb1yt7+MsAp/bCEN3oK8yHNOG3pdxQB+AOTiQkBEIYdhtR38061IJj+eMG4ANwUchlpJ8owdrlhJpA4Xk7doUKBry+emhyBJWMU6KFpxKrPz+MpvY7ZaB/rY57wUSs4Ok67Ci3+uToXCy90w/A+JDeJXvDXaLDhy1zb6dWO+CB2t71EXjnu39MIlZccYb4yakEGtc9nJG/7G1EX6Gsmb0a6Z4RkL6Ypkcxe+ilE2RDshaM+iAzj+7DPN2LLUQNbq71MV03hZa2jYY0jcmzD55Vgdn3cijLBdx6ZYs1HE7/HVG7bvsdO+TekA3ptX51dj31xhuO4ymfpeDzipF5z3IYLgm9g8m1BSJTp8MPXObhtfTH2VxjOrnvhuiGReHBUMOKkkvIfL2BuFnBLaiJ+mhOPRRNjsXJOPxy72xeKxnos3q43fPXYcKQJ3mQg35jXF59MjcKDY2PxybxELOpBw31mFdYKKxd+GDOKfuM6Eij2MlBBv0evyelAWLDw/8lR4qXGJLC6RGKMLSdbVYwnN9GAkRiBgwv6YOXUGCx6sA8O/jECt1AwvONb96U6q+GD9xb0w47ZYrrR9/PCMJKqXppWY5IiaYgfpg8g51PXiF1nDIy2fiWHBu/p0vXa3/Z6dIgaHouspf1x6tX+WDmEldVh9T41uVs+WET98sWMGLwwg9WVtQ+Qc7Acu4S/NSewZ5jQ/qOFCRsZ+l/H+iMM1ynovRQlRrNrzag1aF8ddmewFSc57hhqkhKV4IOB9FRR2NB2OFJyPE78qTfSno12b2qonTLiOZACJWqT/Oxao8Ph8s6okc8G78Ehduwv1iFiaCzO6NPQ5iRhfQoZal0DvjIc9J2hjy+G0pP2UhMMEwjsISmJTX4AR861TX4cyGggGfbGuIF+uL2PN6lwA2icEdHW4UgpPUfRe9TfAg7o2vbvq5Gjk+P+h5Kw6cFYvDA1HpsW9MRscmJbbYEz+l7ZgBNsUSbC22CC0AVo5Jg5uy9+FvbQJVBdYzBLSc1gslJiit0y47Cd0kEeH4Fjrw8QdHnrBPGoJLva1RI22zoY9w0QZXSLoXNQXou9JC7ynv64Sy8DFsjbVYw3C3Xk7EbhEMn9mxNj8Ca15YlnaKwh53TV2ovStUnjS4J4wIx/VKBQhweHBNhMP3eJ7KZXYmODHH1HxZAtjcML9LsvzOiDnx5SIlTXjE/2VkgfJE6W46NyIHRotIHdTcKWUdSTZHf/+rOpQFjReY0a/z1lwTE3wz6bkbe7DGvIA2Rbxto+S+PBPQooDH+mHb2yv78McFI/zPHH4xSEKOl3Pv4oC7O2luFMg2HlJf+gVSZ0OLCJbZXzxGOzk/D9bOq7iXH4Yl4/fEP9oS2vwqv6s0TKKvCvwm4I6xOOH+YlYNHYSMyemiCMy8Poe3b8WC6OPTbax9aYZw3Hx2lXQe3Wk+zJy9L2QeqfHyb70OirxZZjbbpijr0+iANtr6dFjllPJyNnMfNB4jGFlRVfwgo2cdYjjPolsVXefriL2sdU94zQ+6MK0T/w8sJkA9lw1AcJjPcBuaIULLcFhjHjyP94KQknZjq6adoRObbh8zLYpNpasuuBgdj8koGPtihOsOs5+0ulSTjxe0zltvV77JV/Q5zVa7vr7GrsjTMcxyU+i0viEWf1muMuxN7uIJ49Y/HVI0FI8dEi40Q57ns3Q0ojKsR3Zul3aqw/TobMzx/PmaTWhN0QIMwqlhaoJYX2w5w5zOAm4mFS3ja8cVM8+0sdahrEEldSeFCFQ6Qw02+NRJQ4GSWijMQ98fSsasQvTipje/QYGo4Hggy6RemP4WxUqG9BsVhikfjh/khmg8RpA0WSVnIGDgoGq7Zjba/HF89ONd1OcBnNbHZbJkOYoQOhDMdHf0jE4ReiMUYqcghFCFLZCZuqOnzVOhtXhW+yyXBQO9xteoCS3Bd92VhY2yymXkn4+vsiwLDf3IDdMiIPwV192Ghej62tMqPG1gzqGC8FZgy2RwVN+0CG0fEUHBAlNZayTZygSgOH71bUR4ERVH31RbW0WqHCHpY3GOyL28jviOnvizhyJH5Ml0bM8w34lboyNMa3dWLEEV1rFvwQGUL16RcMeQAW/p5kbmEsHrEVbdmiqAlM3OIijKW8w/QKxiu9DE4dlQdjJEt3pgGv0NZ4Z6fMOG6nPDBzgslnCXe1a8pQf2Gl8dDpytaVg8Jf6wU5GzkoxEZwrMK6Y03Qynzxwj1h0PsgDM+eMXg5meqpUmGNcDKak7hAdjEoHr++2h97pxkf0OfZTyFMaKmbDJYAtZep18m99vM0+KwMg+/oRW2ciLVj2AqaIdZ1Pu+S+UFx5thjM+rw71Ms0PHB7EnGNj5shFJIcbUPJ/vLWf2wQNiIXvj2bj/0pD7bQ0767UvSxPTOraU4XC0IuAFV+Ncp6o24QLxo+PusP0b4CYsEJyhQEIiIxibq41NPdDe6LjYe3UAONBq1Tq+KWceZcdpVmNuIsEQxwKxoZyXXPh/EgbbXYyonDN1lMM9SrpAb2ZGwEXHYT/q0b5qTRstRHyTGC4n0pK7VGMiBDAFB3kb6ZC+OybENMqqxiZpx5OjuGO4llTHIrt83gCRK14RD9qx4OiP/zuq1q+pM+vOckJpt6ZGHVWZ1cF+c4Yqx1TXxiPN6zXEPBhLRMcL6xWLL4mQcfDwMj8Z5QXG5BadOVOLRlRkY8HGxwV6eOhxhUWR9Le4xUwxpH46RQutQnFMs7MXQ71VgD/3+CHdw8AJzTrRY9w/DuokPcd+We4J+hlzeTfqfg4QFYxoZOPXZ2tZV510n1GSGvDF1uD5CdrTtGd3gaeKsk9Zj+iBPyHVqzF2cSQNDMb7La0Ctlg06CvQIcW7gYbPSM1MUwmxca9pXdh3Y1tDI5ACkiCUGdIMHa652Jibcgf0yIsPkYQoo0IStxyRHvrIa1GRQ9A3ABLGkHSz1QVcgEDfF0lNVIw6xS6tU4Uca2OIGBIknmMb44yY/4Ex2jSBTWVkNYOsRIxLZqC3iiK6NH+onrAqsWpUuTOx9naVCBcmGrz+TuQ5MuDToSE/cAOmyoeNsP/bJjON2ivTFQhu5rV0TgjGDurot9VyD77KpzhSkpdo8jbUBWcxBCvHBDWarg9Q2ySxQ1eFUfkc2lnRcdgU0KnzF9nwb3GKz1ZYaMiAAk6ja+fvzMWRlHt4/VoWzdRQ+eHlTGyvQ3dd0KO6oztvz92qksY2HwT4YaWMVtn2c7C+n9cMSMiTekICDr/fDd/cGYUq0Bzw0GgpgyjDtrXSM22iwx7JQDSEZI78cyQY6IzykPbTGEycNOMz2vBqcb2LZiXcVzozTrsKyjbALe3wQR9ueYUlOYoIwjaJBbVYp+r2bg6X7KnC8uhnNck90J33q4W8SrNuNgz6Ivm61LS6aDHFAjm2QntskjGmHtp01bmN6iL6zDip7fVhH5d9JvXZdneUYLJwSb+nhiwSLQ4974gxXjK2uiUc6oNcct+Cy4FvEAz2TovDmnL44+4YYiN8Z3A1VOeW4w/R+iOFKvMX2llh6GOzXE/YWf1yOrxq88NCECHz2DJsxSsS/Upw1rvbihXunWqib8Ghvv9aVQIHpA7yFtMTNwgpDFXad1wFR/phumv1kZ9vbov+UJBx+JAS3BGjxw/5yPPr3c+j3KjMwlg6ssR/PYYGYQsaxNFslrEgdOFFPTq8nZtzQFU/htFNGBgZgIl3TmbRqYYAWb2ckw8Qhwm6trkGwl7gHziG8MDKWDbMaHD2vvy45buqnnz4OxoQEMjEFauzW6nC8kFkAH3pffLcN+9oxcFgCTjwfgfsigIwTlXhmdR4GLU7DjW48hOiKYbfMdNxOua9dlZg1lC5C14Dd7ORwdQW2kHct7x2AmbaCvUJpC0SIF5KEAsu06C5L/3MGF8iutI/72QNNkCcF4Z37emAvjU2HF4bhRukjrSjC8ekr8Xh3CLVHmQrvbbiIW/+cIRyi5rZDPDuLTukvO6Hga2BKLD55Phk5S1kAE4gUxWVkHi7Eg7uMMwYCE6TzASw9DPe8fnYe03bUoTosAK9Mi8Y3Qh/H4CF3D0kuGKc7F/t9EPva3hZKLJzXG+vGKdC9Vo1V24tw51uZ6P3njh/O1SV8EAfk2DoyjLnZQvtKD9vnoOjpbPl3RZ298QRLrbb4iMQkC+LlrjjDdWPr1RaPcNqj48G3uhbf/FKKL86aGgQxEP94QXekkiFTna7CRsOgrEWOEWxviaVH696sCizeooZKGYD1CxKF/Sa3x7MZIwUifZxcIbabywjvZaFuwsP2fi2Ry2jpQBDqDDE3slRBHX7MqALOq8Bs9MhhYeaDtF1t3x4yRPWPwboXB6Dgz0nY+3gEHouCeGjKB0VGe1UdQp9yW1WPTeyAqbPUiMF+mO5mT6O5oQEXK9XCrKT92Csjofif6+TSvYM1+DqtEfDzx/+wDetXmuwG/EpP8nBv9BFLHEI89E6HI+cqsekMXZeXLyYYfNGEIWzvaCP2kEz+VEAFYb640Ux37Nc13+hIrHi+P/Lf7Ifjz0RjQT85LgqHEOVilxv1TavthMDBCHtlpqN2SsRd7SqmogJ7T5Wj/Hi9sDft1uvCbK+MxEiyWKkxPp1aotlFfdFR2S3cUyLcYnPk5ER8PzMGDw4PRl+26hYit5z546XErJlJOPHGAGS+1BOfjfNDeI14aM6zhvtkrzY6qb+sUl6FL8gH+eaCifEWApie2PJsiCCDZ45W4qT4jkCNh5cFnZEe+j2vZ4qwMEuHyJQY/PRkLGaPCsUwoY89oXS3C9LhcVraHtaJ2OuD2NX27SH3xbiJifh56SDk/CkeG+4KxGCdeDjXFLsDVAtcIR/EWTm2jg4+ERbaV3q07im2RafLvwvq7DDujTNcM7a6ZpzndB06HnzX1OKdzWWYv63acsAl90YPwZa2IF+4e4EnurPXVWrsaC9/prgBwpa0KF+MNkmZqG50n7MSJeSCNGPvGecM+KDuzLVswck8y5FcTU6jkF4VGuBMco4NFKFIjSNTklGLNWn/z959wFVV/n8A/8hlIxtBQQVBEBy500xNzZlppWnZ35Zarszxy8xRamllVmqWSqWVmVammWbmSM29t6IgCMgQZCN7+H/OuHAvXJZylerz9nXl3Oeee8Zzxj3f84yTiThYYqBej8JVyPvyJCfjZ/Ej8ds1tcTG3AJN/Nww/zWlg4qC2DT8dMf1wLVVbvOw9c9E7E4HAlo7KVVBy2JjCrlJ0V24tjsCDy4IxbC/1Wq+OoLjlfvopibFJ+Kq7iOdWtmIC/1sbD6aiF2RYtsHKG337q9cbNh3S65O26GJQ/kBUVm8rdBanEWiElNxwlBV+gAbdDIRAc6pNISIw8HZy0avdKzS+ZiTju3STb5LaqmGVL3QyxmTX/TD963FNLJvYV3lrkhKczAV26YM9S3kNn1RMRmGq3lm3oLcX0k17IMlVbTP3O15SmbMfJWoVVELrqZhyqUsFJjXxrA2Ff3sWMFPupOflI0jpQ7HQuwKls47JmjTSK+BXtXd5b57MkpaDjO09VHaUhfJLIB+oUYegs6LPD6cpNYKkprn2KN3H2+lczaxTpuPl9VBlDFZo5l0Mauten/H7tH2KktkMqaJa5BJe9OUfbgkFzMl+NP2DeJoirrS3/AMvUf2GRIcoVSFbeGl365f+n1PM/zzXg3u9nfaFg/IPavn4lQZbWQPhSu/3XXtS+y7d6uia5Aq5H15Yq7Gi+PpJk6qB5pVbVt07iQCVLkjMBEznkk2eCOocu7gGsTO9O5rIlR1Py6Hh7302yB1IplgeFqVdC/3/+pa5iozVpxRTb+t1fI7TzXO3Qff9RwxVLrqjEvBG+JCvuRBkxeZgu3SVautNR6Vr04d8VJr6TDOxbKNcfrP0CvIwppvQjBTWw3P1RyNpCUMv4XNOgd61rXrmHaqnDN3we0yD968gooPpk6dbOWOP4IOxGKNXicXhYg9GIaBFbS78RMXzdL3j/51HRtKVi1JT8KcQ9liQIOBbau7rog5Bj1gBU1GOuYcETngWRuD9O6IVSHvy3M7C1+LH4mxP8XjrN5myEeGnPEmsK7Ub3oZtQOaK48pigiWencu79nLaltDOzM5v2UFebiRlIkoqT1lFfgFWMudQ104mai/TrlJWH5aWikNugYovUNLqryP+NpjoLj2PLErEXsKNejX6n7XE8rBvg3XMCW4EBoRIL3bufgCSaoFUOkaABoHdJfazgbfwq/iO52alFgv9fOokEy5U7PWXvrlNZXOR4tcbP4jHm+su1HqmMrIlUrWTGCle59JVZnjHc5mcuAcEW+g4VQ9e/SRVikiCROOlzw2RB5uTsVRMVTyMXjVooJ95m7PU7I7zFdDDOe1NV5oYykWKQu7QsW7Sj1azxbD21pAI76zaHOSOMqL5UVG4/0gMR9bW7x8tzVH7nLfbSwuhsUSYc9Znd89cR79cV2SvE8UM0PU2QS8sSkWs0ruQzm35fWzMLv7n+Kqq41nHpA2bja+3KF/wZ9wPL3EOujT39bG3F75SJTO51J7XjWllJbiOBG7WKa4aDf0+6VdF01DazwiJYgAcbifyO/cW3j3txS95UVuCuZ8fhXfqM+KbuRqJs78IiC4eFNnvHyc3BSHdeVcC5d93qlMjbi7/51+pLkUPBZg3abrJX6jxbLFxWKh1OlZhY/7uxMVXINUIe/Lc/uauN7cdAOv/VUiUM0pVKYpjqeyrhr0iFOcwf2qstcgapMLazvz4poIuTlyLbobej2VV0JV92NdJa557dvZy0/MyLyYgDklnu0vXT8P1OuHqWx3uv/fiepa5iqrUpyhvbGVjZ1ndbdvDjack67rdVTTNUu1/M5TjVMNv/g2mDDSDX2tC3Fo6zW5zc1z34ZhlHg9tyQI/stTECoO37593Io6q2j6mDsmutZCZmg8Oi4MwcQtsVi0IRSPzruKNy/n4rrYweQTicYFzzeTTtQZGP/uZQySp3kJ/itSECkveR6CY6S/Kg9ryP34XEtE3y/FMvxV/DiOpo0sxI8RcGB7iLx8y8q4Iyzz8MCKruYwy83CmwuDMWjtdXy5PQLPfXoZD27OwBXpQqC8k4D2+9mZmPDhJWVZpDz5MhitPozGT8m14N+1PuaU7DmzGti3qY0OJuJELM5dnR5wLlU1rdJ5Xx6nuljYWZyUk1Pw+LwreEVMY63In0EfXsPHceL05O+IFyp4ykbHhlJ0no9v1oaIvInEb3q9NaqPKZLoPCatlMgcXBZ/9HogvnEDTy0IxYM/Vdj9oz5vN8ySLgrUdVL24RA8/K7YXuLEaevngsm626vK+4gDngrQoCD/Ngpsa2PondTxvgs3g+KUfVC7XrOC8ewx8Uvjao8fxtQvvqsffR1d51xFi48iK/H4Com27awgLuZ6SserHnPlsU25Uqdmluhe8vNK56Mz5g60hq0Yb8qH4lywIRpr917HK2K8Vy9KNxDsMV7n4r5Kx7uTFVpJ11bxOQaq89li2nOO8DctxK5fQtBqSaiah6Ho+14Inj2dBzNXR3z7pDEawFWwz9zteUpWtXw1pKK81j6+R/q5qdyj9QCvXvUww8MEcaej0e7TUMzYHot5311BK/n3xAzjXqhvoAPGqrq7fbfpQ3ZoLpKC/g5He3m/EMfV7KuYEnZbWcebOUXPLO71RB30tCzE37+GoOOyCCw6rK7Pj7eQaWKGV7rfn/4fvHrWwzhxfo04HIFWIp+V3+1LaPuL9CjJ0sra1sbbXkmYLJ3PV9xQ2pUbonHG4pHiGDXJE4FpMHw+kn5TlHPdoI8vKutiao7X+ruqv4fmGDy0jrhmEet99Hrx8orfoo5zxTEUnY+ITOUi16yNA5SA6Aaay9OVjvvLGHA0X3rYh/i90H9KRHnHQvm/efru9nfavn19LPAXv6EJ4vdstnLtJOfJssvwX5yAo/ka9B3UAC9IC1vNyr8GqXzel8ejR12d/TYM8/bGifwR01iUJLaHCfp2NdDcTk9ttJfuuKakYrTYSKM23izRYVrlrkHyrufIpdAtGurU6jgbJdeie2pXFaPTKu/HQlnXvNau+HSgDRzFtL4R152PfinOOeK8PlHa/uL6+XRqPlIq/G2o+v5/V6ppmausinFGv/a1xVVBITb/LH5z5e2jXAtMkB59p6earlmq5Xeeahp517prtq5YNUvq/MIGAaZ5OBiUgT/Ea//N22jg7YAvJvhhVXudolCpq/1JPnJnGY2ycrD+QAIWnshGrI0NPprYBKs7ah+vYYJewxvjx86WqCMOgCNimgeTNOjStwF2dVOmF3JD9xJB7OxP26KRpgBBoRnYGaVz96y5O5a2MoN5di72BmXiTJqabpAJWvb3xZEXndDDsQAnz6Zgzu40HE3XoN9AL5wZWfpxPfrU77/qgqHiB/RahJIff0TkwcLVFrNf9cH2/naVugitMu2jMsrqUbjSeV8esX4DGmPnQFs0M8/HDjGNN0T+nM0xQ48eHjj4cp1SQX9J0o/ndE+RicnZ+ONKFq6WuNHbrpm1PI2AZg7qI0pKCxfbMQrVVYpsgcEvecv54iMukPbL+3A2blhZYKi8zV31H7VxB/uI9tFLhntuN67MxCxlH5ReV3KR7GCJlwZ64vykhuiqWxvUQgMnU/Gja6WRfwgqQ/ujgQY2Bp/drDy2STDYq3Ll81F6DMteebxCnD2RhDe2pWBHai00a+WKvVN0biBIqnS8O+JJEeQiJRN/GbiFbNawPrZPbYDZrcxhkaTNxyxcExdCQ8W56Mik+mhZ7vngzpW/z9zteUpRpXw1pKK8tnZEL3fx19waT0jRaqXYYux45Xisk5qFb3cnYNnlfFg0sEfgJD/Malg9P113te+6uGPrJFc8XqcWkmMy5eMqq44dVkyti8elU2+quDDVXhSJ38iVk93xRmMzpMWkYeEmsT7B+ahd1xafivWZdtd1Vu+Q+D2YNcZDXq7sm2IdxL599JYZXnnZBT3VUfSUua3vzfYqi3SM7p7thY8etESDrFxsV891J9NNENDKBZum+mKa7jJI1yzTpQ7wLMQxnaks78Vc3PZwwJppfpijfVSSCIi+eMMD4zzFe+m3SjrurazwzqteeEMuActDkG7UVs6xUNFvnp67/p0Wv2cv+2HnEAc84iCO6ytKfmyPKTR8TVadKroGqWzel0fabycq06idKnW4Fi/yJxdpjtZ44+XGWFXu0xQk1hgzyBkP1QYixfXZ9mu5KBkqV3wNom1SUbJ5352r8n5czjWvS3tvnJjgiqF1ayH8mjjniPP6prjbaNfZHcemNNB/nFdZqrr/36VqWeYqq1qcYdbcU34cnJ9pvjzuHyHZyK7riB9fdlB+K3RUzzVL9fzOU81S67agDhPVGCc2XMLAY6aYLn6MJxgsRc/Ap5+G4eNMe2ye1bA4MLlwDY2/v4V6XRthf//iauJE5QqLROvAVDj18MZffSpVYZEqK/MGnn7vJs40c8fV4TWoh38qW0Echs2Ix98ujtg7tX65vZgbVWYsnpqbgBN+bggb6WqcG9ZEBlR4DVKQgDFzYrHVvQ4ujK1bVOAQvTMY7XfloO8zLbBKaoBORFSCcW9HE92J3AR8fa4AGo/SjyjRyrsQj8A4E/TsU1enRLAQ205lItPEAkM7MPCmKvCuKzc7CDoUb9Re0/97ChGyPw1HC03weFsG3jVOejxGfH4dJ/X6eBDbbFcqDoghN+/a9y/wFsIPpuOEuEwZ2KGCHvKJqlMlrkHCdydha64ZRg8sDrylQoGfzucAlrUxrKWaRERUAoNvqjnCYqC0s47F5mxxwdWjruF2WwVpmP/7LWTWc8S77XXqIeWk4VKaCZo9Ug8TymonTmSQ1BbRCR1yb+HNjcmosN8DqkAmftsotZ27jJ67xcWoOFYnVf1B8mRkeck5CIlOwYC5l5W2hFKbRO02s7bB3H738NnGpeQiJuM2nP3qYG6lmysQ3YXKXoOkx2H6vhxYt6ij32QkORNX803x+BMe6MWqwERUBlY7p5rjTBg812Wg0MwMgwd7YmFrA+3apN6Evw3DlEhLLH3DB4ON9PQa+m9KOB6Kh3/JRov+nljXtTZL2+7YLXzyyTV8El8Lrp6OWDnKw0jt9ehu5aUkYun6BASG5yI9H9CYaeDj64wVw9zgz21G/yWVuQaRemVfch0r4YDfpzQwWn8fRPTvxeCb/mESMenjNPQY5YmBDiwNoepWiNjTERgV5oCtg6ujIz8iIvrXSIrBM2tu480xvKFIRHeGwTcRERERERGRkbHokIiIiIiIiMjIGHwTERERERERGRmDbyIiIiIiIiIjY/BNREREREREZGQMvomIiIiIiIiMjME3ERERERERkZFVf/BdkIXNa4IxM0R9T0RERPef9Iziz6JxMld9T0RERPdUNQffOdjwbRjGiMDbSZOnphlZdBS6TD+PBp/FIFpNqrFq9LLm4+SeUHSbfQHu087DfWYYtqqf1HQbVorlnXYZ82r8DkD3RfR1PCTt0yvj1YSaIhebv7ko9t2LmBSkJtVUmTcxYrbIw9nh2Ksm1SR5KTcxY0kQfMT5VTp/9fjzlvoJ6TGzhGdOEp5cch1nC9Q0IiIiumeqNfgO3xmBScG1MHx4Y/zP20xOqzAwutsLYwsT2Im1sLY1Q201qcYqY1lrQvCYeiAcT/6ZieB8U3QMsMFjbW3RSv2sbPm4fDAcfT+4CE9pG4qX5+wrGL4lHpdZslJF8XhBysMPr+OSmlKeS1suy/ntPu0KPk1QE8tSkIAxbyvb594FoFVbnxqpEuemuzt2TWFlWQsaEw3q2alJNZV67tLUNoWrmiTR7ocvHFcT7osUzPn8Br6NyYdlHWs8Js5fT/tV/GuQl5KCwHXBaDNLPTamX0TTj0Px6aUsGLx1XM7+8I+5AWjrhI/GuKBdUgqGrks0vJ5ERERkNNUXfGfG4519ObBo5or5vtUa05fPxR1b57fAlZfrwF5NqrFq8LLuupKFAmjw8kh/bHzJG18PqgMP9TODCtKw9LMr6LE5Hedu1UKAjwjYAyzRSFzO7T4Qh14fhGFDujouGVEuvv87RR02LPVwCrbyZkgNZIJew5ri+gf+mFbuwVYDaJyxeHYLXJ9aH03VpBojOh27xblG41UHh6b44Gtx/hrnrX5WhrzIKPRZeB1zz+Qg1coC3aQbjg00yEnMxMffXUXHNQmo6J7WP5ZtPczvZIb083GYE6amERER0T1RbVHyiW0J2JVrjnGPuUAp86Z/jnQE3ZT+WqBNBRetikIc2hiFD6ILYevnipPvNsWfr4qA/SVf7J3rj919rWCdmYFJK6L+uaWe/xAacQTHnUnGtjKrkGZg5bEsFEillmoK0b9KTC4ixJ/69W0qd1Mz8yZGr0zG5UJTPPVsY1ye6Ye10g3Hcf4IndsAr7oAsedj8cq+HPUL/z5NH3VAJ5MCrN5+A6lqGhERERlfrduCOnwXkvHmu1FYU9sJh6Z4wEtNlUjV8SYEm2Hc6/6YZah0R6rK91kKIvzcEDNSqdBY9J3x9dF4TzRmB+ciPV9qrmaOp55siIWtrYoD/JLfV99Hifdh4r3ujYC846Hw/iUTfj288VcfGzU1B/u2R+GdQ1kIzhZZYWoCPy8HvPusB7raqqOI4HTeh+FYlmyNj8ZY4tc1yTh86zb6PtMCq9pInxci9lI0XvstDSdSCuWqfFZ2FhjwqDsWdqxd5rJKVTZ7HihZ8U/Kqwaw/ikMH8dp8PLoppivGxBn3sDT793EISs7/PKOJzqpyYZkxcRh+vokbLmRj6xCJf+6dKqDxX2cIK4vFSJP3EWelNTz6RZY3V59U5J2Gcxr47t3GqFXqaguV2zDELENgYHPBWBFS/Uejzovz85eODygKHOF4vxdusAHg9VUScLlaEz6PQX7b0r5Wgu2daww+vH6mOJvoY6hs7+8LLb/7jh8c11ZXys7S7w8uCFm6YyrlRcXh6k/FueNwe0lK0TokUiM/ysDF9MKUVDGMpQlL+4mFmxOwvfhyj6sMdPAx9cZK4a5wd9cGkO77vLoxRwdsOutBmWWMir7jsjfZrWw+WKu2F7NxPYycC8tLBKtA1OR3tASnpHZCNI5zhTSvhuLqX9o87jsvKjccVnR+lR0LFVh2xTcwpY/4vDJCfXYNTGBg7MVZjzXEMPdTdWRBAPnmEqpxPdKnd90vnPu4RyM3pCGY9J+I5atbgMHfDXKA23l7a7Q/36heH9Rf3pF1HzLqI2Vcxqhn3rMVSqvtMfdQ+6YnnUTk8/lIcvJEXun1oef9HluOtasi8H7IblIkXYAg+dAqRlBHHZpt2M5542V5tcQsPYWcrzq4MLYunoB8YkNlzDwWAE69G+CX7vqZERJBVnYvSsG72rPy1L+1bXBm882xLNu2v38zo6d8O1X0Gl3roHzkCo9Fk+9n4CjNvbYPKsh2mnXXf24iNjGu1yTyjiHF2+/is8BYrfZGYz2u3LwyFPNsK5j8XGceuAqmm/JQrsS+ZV35Co8f81C854+2NHLWkms7PEg0+5rlpg/2xcvq5MgIiIi4zJwtX4HQtKwLQOo722rF3jfnQJ8v/IapkXWQltfGzzmY47aubn4+cdr5VeV83DCEDfx7avp2KxXGliIzecyxVTN0b9tceC9YeVVPLs7C9lutTGuhwOGeGhw7WoSnv04DJtLXVtmY86qJBzLMYGLjQa2au4lHL+Gbt+l4FiuKR5+0AlTH7SGV34Ofv71GnpsLbvutUdLF3z8pCvENZigQbduruK9CwY62mBkO0uRVoA/TutXKc67mIGj4iLbrZl9uYF36oVwdF4aj5/jb8PX3wFTO9uirVUedu+OxsMr44urVDZyEvN0RDc5S8wxTCyPtEyvNpI/NSj1RDoOiWVwbu5gIPCWmGNwB2tYizzfdb7klXHlJYgL/Ie/ScL+fHM82dkJ41pawDE5Ex9/cxUjTpWsR52HwO+i8VWaKbo3EfuLpwg9bmVj2XdhmBkiFlZHXuR19Fgcjw0pJujQrrztVYizW4LR7dd0XMw3RRd52xYvwwvHyy8ZU+ZzA8vCb6NZGymfnfC8uwmuXYpHryXaWgEWGNhXynNbBEhvbazxP2kb9LUvv9q/qv5DYj8Q++GeE/EGSrAKse1AOuLEvvVMS0uUDpVEEL/7qth3k/B3igZtS+67W9LkYFxfRcdlZdfH8LFU6W1TkIZ5n17D6APSsWuLqWIeU9uZwy45A28uvYoF97vtbeRNPPxdGm44WqFPgA062t/GjYgkPLmyvJJGEwxsV1scN3nYeqrEeSM6BVvFoWTta4ue2sC70vux4ubJGxhzJh+mVhq4WNZSEqV8XBKONy/lwc7dthLnQJV83nDF/3yUhQloU3zeMGvpgEHifFIQeQu/6X0/HX+GiJOyiRWeEtuqbOlY/kUYhu/OxHUbC7zUwwkvNTJFzo10TFkcjHmR2uNZ3dfaKNNy9nGUl6H8YycTW4Kkc4cFnnvYQOAtsXXDM9L5L/0Wfpaf2mGDV6XpdrOGs/RW7G/yfDrblHMOl95X9hwgfguaWsFT/D1+Vfd8Kc6fcnMg4ERIit6xuPeqdO4xQ9em2sC7qseDCXr6Sr8x2dh8gm1SiIiI7pVqCb6jw3OQKP76e1Rnr0HiAquhK47MUKsEvtoEf/ezFJc3Bdh8sryAzgaDmomLscJs7LygE3QVJGFnuPgrguxBarFvwr5ITAoGHhnog/3jvDCrTwMsGeePk09ZwTo7A7O3lWxLW4h6bRsgeF5TnHunKZbIPZLdwsq9meJy0RKzpjTB2sEemDzYB39NccUjYjFCjyRgp/zd0uwbuuC5h9zQSS4aMkHTB9zEexc8IK6n7NvZykFVXFAaTshjS8TFWFC2yAENHmvtoKYZUJCIGevTESsuMKe+7o8/X2yAyQO8sPEtXyz1M0F6cBzGHFAvuFwcxTzt0VS+fjVFJ7E80jJ1LioaLy06Vbmr0dpLvcI0xNsSLcSfzNgsiCyuuvRYvLIxEwU+Yh+Y6oslAzww6zlfHHlLytdC/PnHDZ18UVg3dsNJsY5Sm0+pCumFF23hVpiPb7bEQtr0soJkzFydglB7e2yarrO9ZnniVbE6oQfisFobMERHi3wSl7wuDvh9lnbc4mXYtT2u1DLo2nP4FlKtzPHKS37YKL773EMeeH+cH75vLfbihFR8cUEayxwPtJLy3FoJGMzN0U/aBq3sKlGFNg/BKa4YGWCCgvBUrCzZSDUzHiuDxDHgZo9XDN1MSYjBpJ05SLetja+m+cvLqM2LcWL7hx6IMnCjq6LjsrLrY+BYqsq2uZSEDVkaNBF5un+cJyaLeUjbZv/ztnAuzMNXe6Qz0n2Uq8EwkTcHx0nNMbyxcaoHhotYryA8HWK3LpNZcxFci2MxIiSteJ8Vwi9kIkIKmFo6KSXaVckrVaaJJT6d3hRXRH6fm+ChlHqfTUCg2G+cW7vrnAP9sPkhMRdxDvz8YBkLK5833NCvnvIT4uGte95wxNBmIigvzMJm3ZtkCWnYI3YRTcPaeKKcktbwnbF4P7oQbs3q4eibvni/jzhuRF6eGesAH7HPL1sdpR536r7mrZTq1q5nLy9D+cdOBk7HiT8iqG/rpKSUZoIH6km5XIAb8k+ADTpL033AXOko095amU8Tm3LP4ZLKnQMEj9roYiO20fVMnFWTtL9ZUtMS/ZvJ6TgaJY5DGyv00N5luIPjwd7LEvXF3/ORZd8gJiIioupVLcH3pTjpnrwZ/NyV99XDFMN6uaGeTsmqi49ysZCYVro8TpdX29oIkAJV3VLXoHTsEteBzVs4qqXzmVh3SgSyNrUx4WGdauyCS0c7uVQ5TlwI6RcYWGH8AAfxv67byJMuikxM4KJ7QWlbB4H/88Gxye7orCZVibUTBjYUf9Nv4deiACgZv0uluCJYeqqcttl5p1KwOVvEXO1cMbmoiqbEAoOfcJBLJA+dSLjjx50FxZef/zJrDeRypYLbyJcTqib6iLjALNRgUHf9fUAqlXpa2oDp2TicpCQpzPB8X9fi6vSClb8rRtQTA3EZ2KIdNygFG8W1ZodOdfWq/0JjJwIGsRcU5uComt+XTmXIAU//3h5oWWIZRrc0hYsY91g5nYf3fiZABJZNMFevA0ITdPWRqqsXIj1LSbk7UkAm1TIo3fFa+P5UuYZCpwfrGKyRculwGqT7U526eaCvbiGgyItpvaUS2AL8dKjkRfudH5f6DBxLVdg2aOGF0yKI3POko96xa+Zvjdbib2ZOUaRyfzRyxMxGOlV9NY7oIO2LIk+jy7t3qHHCE9L+orvPaktrza0xWNuEoyp5parfug6edShxyhfHp5RTtW3MdPLRBC0fa4Rj03ywurNUOlp17VrXhlQYfPR8UlFJf/TpDEhPVOvQwqmc4Dgda07moMDECpOfdtE7ns0aemBGgFj+9HR8ow1aq0ycj8Q+D3MTlHP7skjIjbsLTCt/DnBEL28xTkoW9hWdq6TfLA2GdRLHYmE2dmsfR5d5C9J9Lmvv2sW1n+7kePAwh4/4k5mWy3bfRERE90iJK7E7k5YjXc1Ut1ow1Q14qsLFEU+KC93MK2lFpc47z2SKS1gLDGirjZBv4Xis+JORhqelx8fovdT2fdkFJS5KasGs1DLZYlALM2gKMzFp9mUM3xKLHeFZSCswgZ2DNeo7WZQI1ivLHMPaWcslikVVz0NuYZ+4BncLsEM7JcWgkBt58gV160YGLi9d7NBdKrCOy8ZJJaVGOhIpVasswJqvS24bqY2sNEYhUisMXq3R1UsKgPJwOUZJuXQtR65+fXTrlVLTVdpuFl8QKzcZzNCsQenDpNvT0kW1L8ZV0IQ4KyYe8766gqbaxxlJLwNtZe+GWUtHPCOCZ/2O11Lw1XEpYKuNkQ/pRmfFtOvX3qf052YtbeQL+9I1F+7iuNRT+liqyraR5abj1y2h6Db3IhoUjWugbe79oBHrpw5WjQn6tZFupuRgy0l1P0lKgTitwLqJHXopKVXPK0EjlqmUZnboK+LriAMRaLUkHItEVHflVr7YbyzEucsada3u8CfC2xGDxXmmuOp5LnaEiGNaBNUD1Wrihon9Tbo54WSJjqVKx0XeBEg3AwpxLuKf8xzvyp4DujWRapDkYPcFpbbAoaAsZNrY4MnHpNoQhdgXpNy1ybuYKZf8d2oinch1VPV40O6jafl3fCOWiIiIqqZagu+axxqDmlmIi5FMbJJLSJKxM6wQqFcbg0pWNaxjiw+k9nuGXpVsd9u0vx+OveiER+wK8PeBBLy0/Cr837mEvuviEHoXBXBmbezRX1ynxoWky20DD53JQKK4XBrcsfwyG21Q5S23QyxD4W29NoRV0di5ZOc9BmQWQC4zEhd4lRi7DOYYMsDAdpFfxe0qy2MmBxwlAxETdO5qaJrKS7+9uwbuZVZPLZ/U3rP30jgEisC/dxdXLB/pJZcmHut3Z7djyuaAV9qLHSX3FlYeVi7c884m4yexAdxaORZ1zqVP28O9GRrLJbJluMOaC3eukttGbas8/lAONH4OWDC0PvZIeTvNBQ+ro/xjNbdDH7E5L1xMkYOi1AsZuCDypU8rucWxjqrsx2WwroNVM73wUSsxw/h0LPw5Ct3fC4LPR6H49PLd9PZti+GtxTQLs7Drojj3ZiZic4Q4mhrbYVg5Vc4RnQO5mbWTuVItvgz54vx1Z8T5SPrVyy1EyUZFhvjWLaNdeCVV5Rxg1sxavqmqVANPwdYrBUrptsYJvbyAxKA0HBKfHA/PQQEs0b2Zzs/3v/l4ICIi+he5R8G3uIC/iyD0Tng8bIsOIuiSSwvC0rEzA+jQxqV0MJ2vQXup/Z6hV6Xa3UpMUK+pB9a82QzX3/PDnpGueFkENBfPxKPb0hi9tptVoq2CmpyBjVKHS+JiDI42GFTBHYEAV6k8Iw9hUtvGUsS2uNPrVpWXkxJOnw4vp/5sWDbOiz8aF4tyL6LLdxt1GhnYLvKruF1leVKylVoZ+qW1hbB0NTRN5aXf3r0AMXrV2ysrEys2piBUXCS/O6UJFvdxwxN+tnJpYn0bAyWQd8mri9Lx2qFjN8X+VohdZ6WaHuZ4/pGybtTYIqCO9DcPV6UaICWJoPtOb87cncptm+jdN7AsQRzT/Xzw1zAPPNfWEU2kvHXS3GFNk3Lc87xwxv89IHbY2AzsyMzFbxezAZva+L/m6sdFqrIfl8NcBMrD/HBmfjNcnt4Q3/awQZ1UpVPB8br9ZlSR0vwH2HMuAQmnMuTS2u4PVPAoSg8L+Ep/k3IN9hWRJ7bF3bFBa+mmZEYOTpZ5XBfiXKy0xTWoW5m66WWq4jnA2h49pBpbYbdwSH12uVK6bYKB4mSnycjC7uhb2B8ufgfq2aC3zvnvnh4PREREdMeqJfiuZ1d2PdQWdaVLrXycDVdK5EpKDc2Wn9HqbHdnlTTLZO2MgZ5KacE3FzMRJy6ABur1sGuGulIP38mZ+LNkR1VVkZyMnw/H4bdraimRuQWa+Llh/ms+mFVfXLfHpuEnQ8FNpWiroOZh65+J8sVYQGunMh+ho+Ur8lzaIqevGSjbSUjHfim5nhU6KilVpu0MLvFCCnYavKlSiG2npOBPXGw3L1laVznKPpWHPRcylIQ7komT0dICWqC12ujZw17ZVw8FJVQYUGlvYly8XjoAuXQgHKO+jcRvZV7Aqx072VuiQ4nCs1TpmVDVzVrpeA1xqfjqotLRmsbLHiPLCcC063c8tPSxmXchE8fFX+v61hXub9WlKtvmZJTS23Nbue2sDm2Ni+rgYQkpS3EjW86L0pJxVK6vq4FHJWphVEWnVjYiBM/G5qOJ2BUpzo8BSj8UWlXJq7LlIeh8HNYeTlJr6EhNZezRu4+30lGXOI43H7+LjuvU5j8FV9Mw5VIWCsxrY1ibin5yrOAn5WVSNo6UqpldiF3B0nY3QZtGd1oibY0BAdLvQA7WHixjT0mPw0/XxF/b2hgq3wm4U1U9B1jjUR9xTGbk4NeDmYgwscYTan4ppeLifHg8GUfE75Wnj63ejeS7Oh7sTCtVw4uIiIjuXkVXQpXi6aC0qw1W29Xq8hMXkdIjVI7+dR0bSl4FpCdhzqFsMaDBwLbVfPUKcwx6wAqajHTMOSIuTz1rY5BeSakjXmotBR+5WLYxDrG6QWRBFtZ8E4KZlal2eTsLX2+Kx9if4nFWLxDNR4Z8VWwC6xLXQ4aVUTugufLYnohgqbdj3ceklc2sjQMGWoo47MRNBKboXuTlYMNvKXKnR53aGagFUFki0JvSRlz8Z9/Ca9+WyDtxgRy6LwyTLorgT1x8v6X77On6FnIHPyV7cs6LTMH2Ej3+dOpkK+83QQdisUZvHQoRezAMAzckFT8uTZaH7//UeYSakHU2Dp9LNz7cbDBArTpu385e7k0682IC5lzTr1Cdde06Bn4ZW9RUoGkbad8txNYd0frbNj0eH+5Mxx9RIggqs0q6JbylahPJmfj9RvHy56XEYcJf0j5fhtvSmtwJE/TrbAs3FOCnHxNxqNAE/Tu5lltzo+lDdmguNs+hvTFyXwJFCtKwYMctZIrj8plOd3bzpEgV1qcq26axi3LjYM/ZW8XTF8ftj+uScFR9W568rCxEJWUi0fA9QZU9+jcWGZSRhmmlHrsm9vM9CdiYIc5eXrYlzi3VwNceA0XAdmJXIvYUatCvlf75sSp5VTYzRJ1NwBubYjGr5GPzcm5DaqlhYVa5n4i8AsPB5AttxIlIqnoeKt7pPCatbLYY3tYCGvGdRZuT5GXQyouMxvtS7/22tni5VC2AyvPq4qS0cz8UhfGns/S3a24K5qxIkB/n2LyDs+G+NcqsCVHyHF71c0BTfys4i/P0DyfFjtnAuji/1JvJQSfTcF4cl1389aP5Ozoe1Cr+1nbmlazhRURERHerWoJvDy8LccEAXI5OUxJ0eXhgRVdzmGVnYsKHl9D3yzCM+la8vgxGqw+j8VNyLfh3rY855fTefafs29RGBxNxoSSuTTs94FzqAqPpY+6Y6FoLmaHx6LgwBBO3xGLRhlA8Ou8q3ryci+si6DN8kaXDqS4WdjaDJjkFj8+7glfENNZuj8CgD6/h4zhxnejviBcqaDPcsaEUnefjm7UhBkpT1cf2SHQek1YujTPeH2KLesjG3IXBGLT2Or6UlykEE4ILYevnhhWddWsBVJUJOg2qj+ke0mPL4vHg7CB1u4ai73uX0GVrFtItrbF4TH39UtN6Yl2k9sVxSej/aaiyHyy7DP/lKQgtee2u3W9ys/Cmzjo89+llPLg5A1dS8pRe5nVkXo1DW7GO2uk2//EW0k3MMO7pesW9fVu74tOBNnA0ycM3Yh989MsILNp7HROl5ViRgtOp+UjRTldaBrFtkZCCge8Hy9t20YYQPLwgTu6FuG8ft3I6vlODCORi8dLLSv5I81gQj7/zlSqn+j0p10Z7KW9SUjF6mRh3482qd4Lk7Yzn3UQ+5CoByihtz9hlcXHH4l4WsE1Px/99cAXPbYjGl1vCxP4fIVdh9el8N8flHaxPFbaN9sZB0N/haL9E2pfEdpl9FVPCbivVmm/mFD1D2ZCQXRF4cEEoJhc918kQcwweWgd9RWAdeiAC/h+p+5Z4DfooCN3+zEaOtQ0WD69rhODFAU8FaFCQfxsFhkpgq7Ifl6PXE3XQ07IQf/8ago7LxDQOx2Led1fQShw7meLYeaV7+TdfmjayECE2cGB7CJ4T+SI2tR5tLRnpnFH0mLQKePWqhxni3BJ3OhrtxHlixnZ1maTzhJjCuBfql9vhZIWs6yBwpCP8TfLx649X4T8/WF72UcuuoMlccZ4R+76jvxvW9ipxo9PDGnJfcdcSleP5r+KaRYbP4VU9Bwi+tSFOe7LmvvY6+5U5evuKeYhjO9PcCr1K7A93cjzkXc+Ra521aHintQiIiIioqqol+IavHfqJ65SosHQD7ZtN0LK/L4686oKhItC9FpGBP4LEKyIPFq62mP2qD7b3t6vURVmVaR/XVVYPu9IjlSb5YE0PazTKysH6AwlYeCIbsTY2+GhiE6zuqP8IMsPE+g1ojJ0DbdHMPB87xDTe2J2Gszlm6NHDAwdfrlPhhblHj7qY7ikC7ORs/HElC1dLFEK1a2YtTyOgmYPBR0YZYt/cCwcmuIo8v42z51MwRyzTySwzPN63IQ6O1H8k1x0ReTfh9SbYLa23TSGCQqXtmokgtUDHzM4MjqVKw2wwYaQHxnmaIvtmprwf7Ek2wYAnGuHTUg3D1f3mRSf0cCzAybPKOhxN16DfQC+cGVniEWQiBFg4zR2v2OVjzxVl/0JtS4x7sRFmNdTfzV3ae+OElDd1ayH8WhoWbkvBprjbaNfZHcemNNB5dJO0bf2w9ylbBIgg5095/8hFVh1bfDTBD6val1+lwatXY/FdG/iZFuKcyJ/tMbfh264ujgy1kQOWqHjdUjdrjBnkjIdqA5HiGNl+LRdVr3Bvg5EPWomLfbGvtC+j1K6Epj3EMkqdBdrk4+CxJMw5kIFwU0u8/Gwj7B5wN8flna1PpbeNizu2TnLF43VqITlG7EtXpO1ihxVT6+JxaZzUXARVIviskK0rVk33whedrdEgKxfbpXOXeJ3NMsUjnd2wc7o3BhspdtE+rquspxtUfj8uh1i/lZPd8UZjM6TFiGlsSsCy4HzUrmuLTyf5YVpF1WOau2NpKzOYZ+dirzj+z5S8/2rtiF7SIyjNrfGEFB1Wii3GjveWz8t1UrPw7W6xTJfzYdHAHoFimUoez3fCrGF9bJ/aALNbWcBenPv3Stv1ej40jtZ448XGOPOyoXOkM+Y+bYtGmgL5fLczqrjGQVnn8KqdAySO6CGf5HWfzKHwaFsbUoG/xssG3ZSkYlU+HrRV+Es2xyIiIiJjqnVbUIfvyokNlzDwmAZvTG2CKXcd2ZEuJW9NMX2aHybcYc/b904O9m0Ix/PHcpFnao6Xn/fCfP9K1bsnumcOrb+Ep0+YYNzr/pjFBq/Gk3kDT793E2eauePq8LtswkDVpyABY+bEYqt7HVwYa4yaG0RERGRI9ZR8C+36uaCneS4C/0ysuKo2VV5uAr4+VwCNh4HHpNVIFug62BdHnq2NeoX5uBKfx/2BapaCRPxwQRxT9ewwnIG3ERUiZH8ajhaa4PG2DLxrkvDdSdiaa4bRAxl4ExER3UvVVvItSdgXgtZb8zBslD8+kh6RRXcuLAaj9mUg6Go2ruWZ4KnnA/BFpatt1gxSJ0xmGu4HVMMk3MCzy1PR/EXfaqnCTCVl4reNN/DT9WwcjClAYT1n7J/kXukmM2Rk6XEY9lE8TjVxx4XhzsZp8kVEREQGVeuVp0vXhljsdxtr1oThm7iS7X2pStKysTMoG5Hi0mjos95Y/A8LvCUMvKlGcqmLH99uwsDbaApx9VoG9sYUwtHTCZvGMfCuMeTe3ONxwM4BPw9j4E1ERHSvVWvJt6wgC5vXXcfRDn6Yf1fPSCUiIqJqkxSDZ9bcxptjPCrXIR8RERFVq+oPvomIiIiIiIhID+tdEhERERERERkZg28iIiIiIiIiI2PwTURERERERGRkDL6JiIiIiIiIjIzBNxEREREREZGRMfgmIiIiIiIiMjIG3/9lmTcxYvZ5uM8Ox141yfhysfmbi3CfdhGTgtSkf5L7kmf/TRtWinyedhnzotWEavRPnTZVUXQUukw/jwafxeC+bQ6eM4iIiEhVrcF3fvIF/L50DqZMGIvRo0eL13hMnPE+vt11Fcn56kj/FUc/V/NgNGZujFIT74V8XD4Yjr4fXITnNCkIEBees4LQd10sTqaro2hZmMBO7AGa2qZwVZMkl7Zclr/3wnE14Y7E4wVp/h9exyU1RWEKK8ta0JhoUM9OTbrv0jHvQymvQrFBTSlTGXn231aI2EvRGP7xJfiIQEfZ5y6h21fXsSWuUB2H6D5Qj1drWzPUVpOMp4xzHs8ZREREpKq24Dv99ErMmrEUWy7EIiNXe8Gdj+zECBxevxAz3l2DoJLBH1Wvglv4ZvkV9NicjosZGrQNsMFj4tXerhAXzyRgwMfBWBqpEwxpnLF4dgtcn1ofTdUk4zNBr2FNcf0Df0zzUJP+Se5LntVkhTi7JRgPfpeE3cmAbyNln+vjboLrYSkYvfgyRhzPUcclusdc3LF1fgtcebkO7NWke47nDCIiIlJVT/B9cxuWfHkMyXJcZwqX5n0w5Pnn8fzAbvB1MZVHKYzbj+XfHUWm/I6qnxQERWFmeCFs/VxxbK4/Nr7kja/Fa+ObATj2lDVss3Pw0cYbCFe/QXTXwqLw0oE8FDjaY8vspvjzVWWf+3qcPy5PckEH0wL8uTkKG3jgExEREdF/XK3bgjp8h/Jx+qspWHFCKd1y6TkDc4d4ihBclR+MNTM+wf5U6Y0HBsx7B4/XkT8RchGzfy2+/f0krqfkivDRBOYODdD28ZfwXBd3mKtjIWojZr63HQli0KXPJAw334Wfdl5GbHa+iPXt4PfoCLw6KAC2ytgyqQr8n2t+wc7LsZBGg6kl6vn3wtPD+6K5Y9HSySozbtTGmXhvu7QEtug0/Clk//UzzsVmi7U3hZ1nezw5cjgedpPGPYrPR6/Ceflb+lqMCMRrHaShfMSdXI81G44gLFGahjRLZ3i07oeXnusCd+2Kpx/F8tnf4kyWFVq9NBdjO+iuYQmZN/D0ezdxyLQ2Vs5phH4aNb1IDgKXBmNulAYvj26K+d5SmlRNMg67HB2w660GaHo8FO6/lI6Sej7dAqvbK8N5cTexYHMSvg/PRbpYcI2ZBj6+zlgxzA3+8nJLVbjDsSxZHr2Ydh5iUGoTOyHYDONe98cs3dLv3HSRJ7H49GIObuSJ96Ym8PNywLvPeqCr7qqry+nZ2RNr6iRg5LZMBGeL3Vgav7kr1g2tg3ql1r882mW2xtIFPhisphpWIs/UVEnC5WhM+j0F+28WQlp8KzsLDHjUHQs71oaZMkoR/XFrwbaOFUY/Xh9T/C3UMXTyaXx9NN4TjdnBSp6bWZrjqScbYmFrK73pZsXEYeLaRPyVWICsQmW8Lp3qYHEfJ7io42jlxcVh6o9J2HIjXx63vGUtT/TOYLTflSO2hRcODyi9fx5afwlPnyhA32daYFUbNVGoTF6Vuf61LfB/jzfA3BLrr1R/j8XUPyreBmXtgwnXYjFvc0pRvphZmqJdO1d8/pizzj5VvL98NMYSv65JxuFbt4vWUX/aGfj00zB8HKd73Km0x6yVHX55xxOd1GRDKr1vFWRh964YvHsoSzkmTExQt64N3ny2IZ5107nXGn0dD32Wgih/N+wNyMT4vzJwMa0QBdIx5OeClcPd0DA9EQvWxuOb69p9xBIvD26IWTr7qPZY9OlaH/NNk/COOl+NmSke7OCGwAFOsJH3ywRsL9rXrTH3eS+95SnznKAuZ4SfG2JGKpW2q3RcGPi+ohChRyKL17uMY1By9+e8ss8Z0jE7fX3xcVjmMVvt5zwiIiK6H6qh5PsSTp3XViv1Rc/+OoG3xNQPXdo7q2+iERosrl5k6Tj6+ZuYu+YwIuTAW1KI3JQIHF7zHt5aflSMUVrSzs+weMsFJfCW5KchePtnWLLtpvJeIoLWFXOVKvDa0ZCfjdgLW7B07goc1ZlwfsQ2LCxz3IXYUaq5djoOrVmNU3LgLclHWsRhrP5Af7ply0fExncx58u9CFYDbzk1OxERh9fgvXkbEaEmxv/9J85kiJwpzMCZA6eQrSQbdjkTR8Wo1k3sDATeEgt097eEi42YboJ0+W5AIyd8/KQr/uejTCCgjav8/tVG8lvkRV5Hj8U3sCz8Npq1kcZ1wvPuJrh2KR69lkSp7RwtMLCv9D1bBEhvbazxPzGNj/vao9xa5pmJmLQwHG+eEftCHRuM6+GAIR4aXLuahGc/DsUGA3l788R1dNuSDUsPazwWYI0A80IEn7mBxzalqGPcOwni4vjhb6Sq1xq0bemAqZ1t4JWfg59/vYYeW9LkgElLO+7+fHM82dkJ41pawDE5Ex9/cxUjTuWqY2kV4PuV1zAtshba+trgMR9z1M7Nxc8/XsOcMHUUQdo2vZfG4/dkE7RsIc3fFm2t8rB7d7SY103I975UynaMx4YUE3Ro54SpD1oXL+vWqrUN8XA2hbS33IzNlG+OldSsg7IPjWioJghVySuD65+Zg29/jMCCEj1oXdp9Fd2+S8LfKWK6D5ZYr1LTLU1erhUJcr706OSCj/s5oLf9bRw7EINuq/XzUJGNOauScCzHRBxXGtgaPJvaYGQ7S/G3AH+c1t8v8y5myMesWzP78gPvSudXOpZ/EYbhuzNx3cYCL/VwwkuNTJFzIx1TFgdjnm6TE1VBcJx8DFl7WKGP9hgSx/NjX4Zh2KIYfJVmiu5NRL57inD2VjaWfXetVL5Lwg9E4f+O5MO9kXQsWsLjdj4OH4jGU9+EyfvlQRNL9AqwQTdxvsi+mYEpy8Kx+a5qQ1TuuDBMaSrR7dd0XMw3RRd5Xyk+Bl/QaSZhzHNe6oVwdBZ583P8bfj6lzhmV8YbPJ5q0jmPiIiIqu7ug++kaMRqr1VcvOFrrQ7r8BzyPgIDA+XXxIeV0Dxz35f49nyWPGzi2AoDx72Ft8b1RYCNtEiFyDjzA747WvrqrLDQAl7dhmDcuHEY0sFNXYFCXD98CLHycDr2BH4LZdJWYtzhmPzWZAxp5aiMm3UeP/x4Wg16b2Ln95sRLo1rYgMfddzh3bzEN4WscPz6077SVeWtvNBtyCiMGjUEndzVWw1iuus2XBQDHfCatK4jWijpgkuft+V1l0u9809iy8445WaDS3e8segLBH7xIV5oIc8RhXHbsX6/MkfXDt2U/BDL1qpzG0iX8GW5FJ0rLkcBbzdlOob49fLFuXea4qsH9csLi7g44rmH3NCvnpKrHt5u8vvOahHMnsO3kGpljlde8sPGwR7iMw+8P84P37fWoCAhFV9ckMYyxwOtpO9ZKxee5uboJ6bxXCu7ctpcFmLnxhv4OQ1o0cMLxyd6Y1afBlgyzh8nn5aqy2di0pobpYKfTJEjC6f6q1WdffDXFBd0EIsedzEVh9Rx7onMeEwRkUS6pTWWvuWPjc81wOQB3vhrlidedQRCD8VjnXYnSo/FKxszUeDjiiNTfbFkgAdmPeeLI2+54hFxIf3nHzdwQh1VIfaUhmLcGX5YK1XnfrUJ/u5nKQLeAmw+WVzUtu2vFIQWavDM82LbyPP3wsapDeX5p19OxuokdcSCZMxcLca1t8em6U2wVmzHyYNF3mmX9UAcVlclKGrpgtFi/8gMjccjn4YjMDgTylGtsG/oorcPVSmvZGWtfx42Hxc7jFZCDCbtzEG6bW18NU1MV2e9xol5h4rgsPygLAM/i6DLQgRO86c0wVcD6uG5bg3w1RQfzKpfIg+LFKJe2wYIntdUPq6WtFKTS7BvZ4tO0n4ZlKazbQuxKyhbbEUNHmvtoKYZUIX8Ct8Zi/ejC0UwXw9H3/TF+33E8Sny68xYB/iI/Fq2OqrEviWYWmGhNF25iYqUX/Uw0Fysb3gGzni44uRbvkXNCI5K+V6YhzWHShbxit3K3gG/zxL7kzwdsT9PdpID0dDLGcjv4IkzIh+l6ayd6I917TRAdga+OVHyRlNVVO64MCg6GmMO5InznbrM8r5SfAzu2h5XlE9GO+cVJGLG+nTxm2WBqa+Lc9iL6jEr8nupnwnSg+PEMpbOnxpzziMiIqI7okRZdyMzS+9iu3KS8Pe+YOnySfBA//+NRf+WjdCo5VOYNL6resGSg/P7DbQRbzoEU4f1RMuWLdFzxHA8rK3pelN9lEzSARwMUaYM78fx2rAu8G/kj55jX0MvNQDICb+GG9JA1H4cuK6Ma9vxFUxRx+0ybCqGqHUDC69eLNFbt7QIUzGsZ3u0b98TL059BuJaSZZ14TSClcGypSUhRV082LmgrrUI3k0d8fCzY/C81E5evHpoq6bWeQSTPl2OwOWfll/lXEddBwN3P6pJ72cCRJDRBHN9dXcbE3T1kappFiK96juCoiAB318UmWJrj/l99KvRurSvi9FuYpTwtFLBT/3WdfCsg86yiMCrrbTzZOSrN2LujbyL6dgjrpMDOtXFYN3NpLHDKw9ZwcUqD2dDlaToI+k4KoLkQd3d9KuJ2rrhaS/xNz0bh/XW0xTDeumP6+JjCREPIjGtuMwzT96nTOCsW/wq5j/tNR8cm9YAL2qjgKAUbEwHOohlbVvUrkMQ4w5tJnK+MAdHKyw51CG+N2uMB8Y10CAtLh1zV4bCZ/pFtFkSjkXn00udG6qSV4qy1z8qsbguyKXDabgg8qBTNw/0LTHdab1rw1oEZT8dSlQTDbHBuHFSEO2DF/QONQt08ZL2yEKkltq/rTB+gINyo6481k4YKJX8p9/Cr0V5m4zfpfOU2Gef0q2KXkLl8ysda07moMDECpOfdtGrsmzW0AMzAsR+kZ6Ob+RgUYeXHZ7Vm64Lekn7oQhjpX1UdzqG9jstz2YOaKm7P7vYobujNGCJV3vb6RzTJujkpVTrvpF6Nx3xVe64MOTSqQxEiOXo39tDf5nFMTi6pSlcxDFwLF5JMtY5L+9UCjaL3detnSsm6zYHEPvb4Ccc5BsXh04klHo8Wk055xEREdGd0f3Vv4fCEK69qnAOQIuiNuCCT1s8oL0YjAzDVXWwiMZUp1q7NayV6zhxHVQgl/wiLLzogsXF11+nHXh9PP7W+3j/ffGa0kt+5EtmSFhR1b70Q4sxXn00mPSItNXaiLswCpElqp5rTHUq1lv7orF2+dNTxCV1BZzaoW0DNdvD1uOtiXPw8TcbsSvaAi0f7IzOnTujjafxAui7lRUTj3lfXUHTWcojpeSXgXbiVXIjB1IcovGwQjs1qZgN+vpKl+45OF2ipziNppY6dH+F3MgT+54J/D1s1JRiHo80FhfvAfhErQhxJFIKOAqw5mud/FNfE+Q7NyWDvFow1Q0QytCztY3Y1/OwbNkl9F0Xjd+C05Eogjar2tao72QFO3Ual67lyDe0jm69Umr+PaXSwDsJKGydMOu1pgh+sz5mP2gJP/PbuBGTjoVrwuE39yq+0XncWFXySlG59Q+Kl5bdDO19dO8oKMxa2sjVujNjsyq4OVaI2NBYTFoShCYzS+aLIbVgVollk0pGh7Wzlktli6qeh9zCPrF93ALsDOzzxSqfX2LdpJOPkyU6ljp9mKBfgFRvphDnIm4pSRUygV21nIaqazolVW6/MES7rzTTnod1dHtaCrZ9MU6nebgxznnKdgVaNzJQ60F74yIuGyeVlCI15ZxHREREd+bug29rq4pLfkoRgbL2eryWRlyU6tIJqHPuoFS9oEBcYhpmbusMZ2fpZSt35paUXGGoXAn1ULfoQi0W0RU+0rsO+k18Hd0amMuZn58di5Aj27F+2Yd4Y+IUfLQtoqgd+J1IzxJX9EaitCuOQ2AM0LuLK5aP9MKxaT441q/qe4CemFxEiD/1XcqrWC/ySr67UlNpUE8u6asMcwwZoLSFLv1ywcBKT6eYfRtvnJnoiqFiXww6k4SxK8PRYvZFPPxVNPaVasZtgs5dDc1beWnb+FeVlbMjRg/2xd65zREqBeJNzWCSmYWZyyKwU2/bVSWvKiMdQXKXD2ZoXE9OMKzgdrnHVsLxa+j2ZQJ+zTLH871c8e1YqdaAD35op3Oz7Q6ZtbFHf3HSiQtJl2vSHDqTgUSxvIM7llPlvEgl8is6ByHSXydz+MkJhuUX3mX/mv8aGrg7qYPlMNY5T3sDwNtNeW+Q2FZl3fYhIiKif6a7D76dPFBPGywnhCHEQIFA8Jo31BLl0VhyULr8FQG3ds631RLrIpnI1NZGtLiDwF6jqfRKWVsVT92554yidun6r/kYJNVlLFMsbqhVFKVA3KPccVW2ARg2axE+eW8yRg3shmaedkppfmEGQjctwnfnqh5+N/UwF7kKXI3LUBIMCN4ZggfevYRXjt3JJV0mVmxMQSgs8e6UJljcxw1P+NmivpM16tvcZWmMuzk8xZ+oBMNdyuWJoKnmK0Bspe/l3EadRkp7+tIvFzxwhyWFVu5uWDyxKSLe98epse6Y6q9BlNxh3bUSwW8hLF0NzVt5FbXPrlAuzp2Jw9rDyfLNE11yIP6iH1Y0E0dj9i2sOq57S6wqeVUZtgiQa5/k4aqhurdi/6l4j0/EbKltta0d1k31waxubujtJdUasIabZTWUNmqc8IRUdTk5AxujU7D1itggjjYYVG4vhFqVyC8PC/hKf5NyDZbu/zOOoXupADGl2vCXZLxzXoCrVJsnD2Fxynt9t5HPzUVERPSvdPfBN5qiTQtt9B2Kg3/r9DouyQ/GsXPaojcXNPCUwkxveGkvOhODcF73K6EnUTR6Q280VgcrzdurqIfZhJDLKC70u4kdn7yBN94Qr/c2yc+6dvLxKqqWnnh8P4o6Ypel4+jGbUU9j+vKztS5w5AZgqva5bd1QEUFVGmn1mPFihXi9T2O5/qjff9heH3GQix6pTWUXMxC2FW5RXrV+FvLHe8knkvBNoMlxLk4GJKNBBGbu7oUt8CsvAycli4U7S1Rsvl5qvSMnLtRVwQOYtkLorNKdwgl5vtXmLQRLNDeR0mpaXzrmkEjAtrL0aVvfKReiMKob8OwTG3rW0+u/52HPRfKvklSZTnp2H5YBMGXbilBpsYMdb2cMVkEv1LHUFLwu+6sPCY87JV6JoeCEioRkFYkF9t2xuONTfHYYKhrZnF68XRU5heVqBwzVcmrqtAGM8dDS9f8yLuQiePir3V9a73HPOmJzcI56av1rNBJWeQiKdl3uX/LTNCvjTWsxTJu/TMRu8WJKaC1U9nLo6p8flnBTzr5JGXjSKkboIXYFSzd0TRBm0YlDt7/IO2+clHt70PXpQPhIk8j8ZscmBvvnKdsV+D0NQO9lCekY7+ULPbFjkoKERER/UtUQ/Btitb9HoXSZ0whrm+ag5lLN2LXgQM4sHUdPp69RH3Gt5iZb0/0kkuGnfBIVz915tHY+slybD17DdfO/orFX+xTe7W2QIsuHcTFahU5dcbD2s5xwn7H5+v24/K1y9i/7mv8EZyO9PR05Nb1lDvmgV83dNF2dpO6H0tmB6rLsQvrPngbq7ZvwqKvTpTq9C3ktyVYt/8yrl3ej3VLNiJYvQ6zb/uQwSqfSWd2yPlxWQQodvb5CDt9GqdPH8GvP+2SalwLuUiITSwKhqys1LWWnvM9ZSxGj52C5RU9x8zaFVPaiMu53FuY9G0cYksE4AnHr+PDCBGX1XPAK+V08KQrr6htgMQS3lLHPsmZ+P1GcXpeShwm/FXOQ9BuS5e5FdC44HmphDQ9FfP3ZOmNn3D8BgLFBbDGyw4vVKKaaCm5OYhKysSNu71BUA6zZrbobg4EHbqh/0i0gjQs3ZaMP64UonZdJalTJ1u5lD/oQCzWFPW8JylE7MEwDNyQZPARQ+WyyMXmP0QQvK7E/IWMXKkIzQRWalNo+3b26CmGMy8mYM41/TtLWdeuY+CXsQhV9528rCw576S244bVxjOtLEQQkYvA9cXfKyLWf+NlaWtq0DWgtpxUlbyqiqYP2aG52IUO7Y2R21IXEdNdsOOWOIY1eKaT9pGHBriao5F0Kgi/hc0635fyZNopg3ezqq65AwbZABHBmYiAOfq3Ld2Ou6TK55cthrcV26IwC4s2J+k118mLjMb7QWJfs7XFy83VxBqmhQhGpTOF/k2pQpw9lYEKW/JUUdM2NuIYLMTWHdE4q7tp0+Px4c50/CFm6CGfa4x3zjNr44CBlkDciZsI1DsP5GDDbykIEkOd2rmU+6gyIiIi+udRI8+7VP8JTH2pFeSnhCEfCRe2Y/333+P7zXsRkqBc4Js4PohXR3cvKmm27voqXtI+Xiv5DDYv+xAfLvsTQdJzrcVi2bT6P7zY4U7q34qL1dEvQZl0FsL3rsGiDxdhzd5w5YLUqgX+79nWaqdt9dF//FD4qbXP8xNOqcuxHnvl549Zwc2nbqkbACY5kdi7ZhE+XLRGHU8Q0x38uE7RbIsHinpBL4w7KufHLqlXYp/HMbiVjZzxWcHrMXeCVB1/Aub+HikuB8W0bdqg7yNKlFml53yLKXYaVB/TPaTH1MTjwXlX8Ny3YXLJ2KCPL6LtL8rjihaPdIfcmXE5mjaykNf5wPYQeRpKyZp6cS8CrcVLL6Pvl2Layy7Df0E8/s5XqmCG3NCNDmqjvdT+NiUVo8UERm28Warn3mIm6DWoLobaAUf/DEWXZeGYtzcaM8T0i5Z7eN1yHlVWjrNReHBBKJ7aVZmS5hx8reZZqVd5y2/tik8Hqo9EW3AZgzZE48stYej7fiSWJdSCf2dXDNPuRB4eWNHVHGa5WXhzYTAGrb2OL7dH4LlPL+PBzRm4kpKHvCrHes6YK81fTHPKh8r81+69jlfENF+9WAiNiz3Ga4MueVlt4GiSh2++DMajX0ZgkRh3orQtV6TgdGo+UtT5h+yKkPNuslpqbohXL08s9tcgMzwBXd65pOwXUn6JabeZHSHWH3D0d8Fk7Q2fquRVVbi4Y3EvC9imp+P/PhD7vjrdR+cpy+DTuT7mlHfTSXsDKDcD498VyyXW4bkll+Q8iZSP4zwEx8hj3gVHDG2mFqu71cagylTvr0J+efWqhxni+I87HY12n4ZixvZYzPvuClotl6pOm2HcC/XL7dztfvLroNw8CdobIfZJZR8a9FEQHj+gdExWraRjsLMI9hNSMPD9YLyyJRaLNoTg4QVx2JWrQd8+bmo+GfGcp3HG+0NsUU+c1efqnAcGfRiCCcGFsPVzE8uo3jEjIiKifw01PLx7th3G4sO3R6JP83qwMddO1hSWzp54aMhUvD9vJFrrVd2zRYfXPsLs4Q/B00HpfExaHHMHMf7wt/Hh2A5FgXqV2XbAmNkTMEB3WUwtUa/5AEx67zW9KoSmbt3xv49mY/hDnnC2VDtWMjGHg+dDGDLtPUzvXboRd7PBr6OPnwOUSZvCzrMbXpk9Rr9qonVXvPpqN3jaqdMU87eRa3uL9R77Id6W1tvZUr0JIH3sDM+HhuPtD0ejnXox7fpIX7Sq5HO+ZRo7THi9CXYPtEUz03zsD8rAH+J1Mt0EAa1csXumj/7jisrS3B1LW5nBPDsXe4MycUZ9nLJXr8bY+5QN/EwLcS40A9tjbsO3XV0cGWojB+tR8bql1tYYM8gZD9UGIiPEuNdyUW74a+2MxVO98FErc+TGpGPZtiR8G12ARk1dsOWNSi73XSvAWTXPSr2Cs0s9Z1yXS3sfHHzZCY84FODksSTMOZCJa1ZWeONFH2zvr/+opZb9fXHkRSf0cBTjnk3BnN1pOJquQb+BXjgzssQjyCrJpX0j7JWnWYizJ5LwxrYU7EithWZiu++dUl+verNLe2+cmOCKoXVrIfxaGhaKcTfF3Ua7zu44NqWB/iPIKmSBwS/745iYd3/XWrgmtrWcX9fykO1gjXFDvHDiZVf9R1ZVOq+qpmkPsX+K5XjEJh8H5elmIFwcdy8/2wi7B1Q0XRP0Gt4YP3a2RB2xFx8R63AwSYMufRtgVzelQYh+oHVn2jWzlm8iBTRzqPAmmFbl88sWY8d7Y00Pa9RJzcK3uxOw7HI+LBrYI3CSH2Y11J6XayAXd6x90UGcL24jWJxb/riShXALGyyc4oqe6ijVRxyDA/zEucwWASZ5+PNAAhaeyEVWHVt8NMEPq9prm1EZ95xn39wLB6Tj0PU2zp5XzgMns8zweN+GODhS/5ghIiKif4datwV1mMoRtXEm3tuuVAhuMSIQr3WQB6mGS90XgoCt2ej5dDOsbl+Dg48a6ND6S3j6hAnGve6PWaz/Wi1ObLiEgcdMMX2aHybcSTMKIiIiIvrHYjRC/2IZWH0qG7CsjefbcFevkoJE/HChAJp6dhjOwLt65Cbg63MiTz1qYxADbyIiIqL/HEYk9O+VmYuEAg16Pu6OXndQlfs/LTkPiabmGD2obqWrR1MZwmIw6tsQPPxuLDZnm2Bgj7rsSIuIiIjoP4jBN/17WTti7v+aYrVOG06qJJe6+PHtJjW7nfA/RVo2dgZlIxJmGPqsNxZLPYsRERER0X8O23wTERERERERGRmLYIiIiIiIiIiMjME3ERERERERkZEx+CYiIiIiIiIyMgbfREREREREREbG4JuIiIiIiIjIyBh8ExERERERERkZg28iIiIiIiIiI2PwTURERERERGRkDL6JiIiIiIiIjIzBNxEREREREZGRMfgmIiIiIiIiMjIG30RERERERERGxuCbiIiIiIiIyMgYfBMREREREREZGYNvIiIiIiIiIiNj8E1ERERERERkZAy+iYiIiIiIiIyMwTcRERERERGRkTH4JiIiIiIiIjIyBt9ERERERERERsbgm4iIiIiIiMjIGHwTERERERERGRmDbyIiIiIiIiIjq3VbUIfvqfyIbVjy+e8Igzcef20i+nmaqp8YUdRGzHxvOxKk4RYjEPhaBzm5tKP4fPQqnJcGXfrg7fmDUF9OJyIiIiIiIqq6ag2+85Mv4M81v2B3cBwycgtFiiksnT3QusdQPNGtMRx14uvQdW/io72p8rB9NzE8zEcejto4E+9tl8NjER8Hosz4+E7844LvdMz7MBzLktW3JXh29sLhAbbqOyArJg7T1ydhy418ZIns15iZolkzJywe7AZ/c3UkrYIs7N4Vg3cPZSE4W9oFasHWwRz9urtjYcfaMFPGIiIiIiIiompQbdXO00+vxKwZS7HlQqwaeEvykZ0YgcPrF2LGu2sQlK4mC56dHoa7FIybuuPhTp5KIpWQj7Rc8cfSHN0CbPBYidej7hplNCH1Qjg6L43Hz/G10LKFA+b0sEOXOrcRdCYevZZcx9kCdURZOj5ZHIrhuzNx3cYCQzo7YVxLCzjeysHPv15Djy1pyFPHJCIiIiIiortXPcH3zW1Y8uUxJMsxtylcmvfBkOefx/MDu8HXRSnuLozbj+XfHUWm/E6M5fkEZn8RiMAvZuOJe1Hl/B8pDzcyxJ+Gjlj7kje+LvGa19ZaGQ0p+GhTOmJhgTcm+GHjcw3wah9PrJ3oj3XtNChISMF7h6UoXpF6IA6L42/Dtlk9XHjTF0sGeGDWc7448pYLOog9IvTQTWzWC9aJiIiIiIjoblRD8J2P05u24bpa2O3S803MnTAIPTt3Ruf+w/DG3InoYq98lnN+O3bfVIal6uWjR4+WX58flRMwUwxrq5xLzq+SPp+JjVFqgphX8oXfsXTORIxXvzt+4hws/f0CkvPVUbTy43AwcA4mjpfGG4sJbwfiYNydRJQFiDsYiLcnjJXnN3bC22J+QdAW4uef/gqvq8sy+uM9RTcXpGU9+rnyHWn+n+wTn+RH4Le548X78Zj7W4QYowKxubgm/jjbVVAJPCkTx6UFamCLkXV1N6kJOnlZyEPRyTnyX8muK1lirczw/KMusFLTZLZueKaR+FuYh6AbShIRERERERHdvWoIvi/h1HltYOeLnv09oVeObeqHLu2d1TfRCA2uMOQsQz4iti3E3KVbcCE2uyhwzc+OxYUtSzF34Q4Uxei4iW0fzsHqU7HIlkcsRG78Kaz+cpfS3rsqknbj69WnEK9WpS/MjRfz+wwLNyrBs2nrDmipxLdA6EWcL1q9S7gQrN6RMGmM9u2sgXN/YkeMNEI+Yg4eQoTyadnybkPK2dqWFdQMcHLHjgUtEDOuHtT7HEVSpcbfgq2ltop6LnzbuuLjJ93wvIeaVIoGHo7qIBEREREREd21uw++k6IRq429Xbzhq60JrcNzyPsIDAyUXxMfLiOQrD8I88Xnb/dxUROUDtcCA+djkNTb2c2d+H5zOLLEoImND7oNn4y3Jg9HNy+l7DYr/Ff8JJUuC5n7VmOztijeykuMOw7jRg1EK8c7WF0xGSufbhgyahRGDWwFZRKFiNu5FruTpOEH0F4bfRdexPGTavQdfA5Bar6YNOuMTlK+PNANXeVq+KZwf7gTKmzpHper3FCIike32RfgPu083KdfRJtl17E7RV2/shTk4dr563jur2xorG0xtYd2w5jjgVZueO4hx9LzT4/DT9dE6O1li0EGtiMRERERERHdmbsPvjOz5IDY2KL2H1Crttui4ytTMKyLPxr5d8GwqUPQVB6jEFcvXpKHLl28KsXMggXavThVjNsSLdv3x9ixPaAtg68024cx5s1h6Nm+Pdr3H4tXuqply4XhOHdWCfYf6PKgWCpJIYIvKMsQevKcWjXdBM3at1VqA5g2wTPzv0Bg4BeY/USJGgIGRKco1eQjIrOR5mSFxwIs4Wd+GzciUjB80TVs0OnArsjxUCVIn3EZD69JQaibM7ZN90Kv4r7ZDCtIw7wVCTgKM7w2sG6pEnQiIiIiIiK6c9VQ7fxeyERImLbCeDoOLZbaTavtrMevhhLuitA3KhJR4l9klLZU2AdNW+iEuBoNaqmDlWZhDd1CYB/fRkWZlpwsF30Dfg+ilfrEr5ygcwgWy3D2gvIYNVi0wcNtKwqzDXPtXBff9nPFmmkBODXRB1+/5Iu9c33xY2szIDsT035LVMfU0cgJHz/pijmdbdHNTYOMiEQMXhFTorfzknKw4dvrWJZQC536N8K0MqujExERERER0Z24++Db2kq/0y6jSBKBrjpYJRqY3lncW7a6bnBSBxNiotUhPzyojb7Tz+DY0fO4pN4rsGjRDrrxf1WYWdmhdzc39HDQ3UwW6DrECT1FUmZUZtGNhyIujnjuITe8OsALa6f44/fOZsiMTsSUXVK36YbkYN/6a5gUXAifzg2xrrO2ATsRERERERFVl7sPvp08UE8bryWEIaS4u+8iwWveKCqpXnKwqEeyKrCGVVGE74yeM5T246Ve8wdBah5uVNExRZ22ubgXFxH7PdRWraqdjnMb9uC6PGyBFu1aVFi9vMo0VvCTZpaciyAlpQwmaPmoPdqJoaDQNKhl8ToKcXbLNfzfiTx4tfPArwPsUEG/6kRERERERHQH7j74RlO0aVHU3TcO/q0+S0wrPxjHzmkbJ7ugwR0909sJPl5qyTIScXx/sP5jutKPYuM27aO76qNhfe1qBePcaZ0xCwpwWx2stJxMnceHAVHRseoQ4OioLQMXfB5Ea7WhdGqqtsp5C7S702JvsZ7j3z4P94VRYi1KykaYNAtHcwRIb6Ov46Fp59F4jYFq6GUSgffOqxh6IA92/m74dYiT2DpERERERERkDNUQfJuidb9H4SZPqRDXN83BzKUbsevAARzYug4fz16C/WosauLbE72qUDR99cCvOHDgFCJE9OvXrYs6DxHc7l+C2YFbcfbaNZzdtQ4fvL0K2zctwlcnlDC5Vcc2UG4H5ODEd0vw69lruHZ2K5Yv3y1C2ipKP4gVi3/F8cuXcXbrcny+U1vu7QH/5nqtwfGgNvpWWbTsgNa6sXeVnvPtiMd9xQonpOHrEP2ezRP2pWCnSLL1tFE6m6trhZbmQOaVZPyo1wlbIUL2p+OEGPJsUFuvE7WE49cwdFeOyFg3/P2yKwNvIiIiIiIiI9LMEdThO2fnj3Z1onDw7A3k3S5EZnwoLp07h3NXwpGUqQSOJo4P4tXJg+CpFpKnBe3GvlAlWHZrPQAPqkG5nXk89h8Ml59vnZ94FefORcD6wUcRUL8xmtpcxZELiSJoFfOIvYLjIsA/fikcKVIUa1UfD/fuAR87Ma96fnCK2I/T8eKD/ERcPX4AB45fwY1snXJvt9YYoJ1pKdE49vtpxEuDJrVQcDMEJ48cwfErN6BMwgRufV7DyHYOencvnBzTcWRfqFpSboG2T76ENm7yG8WZn7B0b7RY+kKkx2vQvFeLovbjpdWCrzdw9lg6Np1Iwh9hmUjKzcCWLTF47Xgu8i2t8clLHmgq5aeJNTra3sKa81nYcigZB+OykJqYhtV/3MCMM7m4bWeHL0WA3VB78+JUGB5an4l0O2u83tYccdEZOB9V4pVYiIZ1LWCpfIWIiIiIiIjuQvUE34JF/fboLiLNwsQbuJGSibwCKUo1haVzA7R//FWMH9ETjXR6Zisr+IZTAPxsInElJAEZYhom5nXQ/JEu8LU1Qe1GndCjrQNSwqORkJGFfBHXm5g7oOGDAzBm/ItoV0edhgh867dpDacbl3Hl5i0xngnMHXzRc0x/OJ8+i2ip5+/KBt/Nn8bE1vm4fD0Z2fLyuKLZY6Mw/onGpTuaE8Fs0uH9CJOevWbbCc8+/4D+o83q1EH+mcMISTeB+6PPYoC/fvBeioUNHm9tCtPYbOyJyMSeS1k4kwE09nbEF696op+2Jr5g7eGApz0KcDUqGyfCs7ArJBshOSYIaO6CtaM80EanMXfYiTh8HSkyLycPh4IzsOOygVd0LTzV2R5FWUpERERERER3rNZtQR2mu5W5D5/87wcES1XCu/wPHw/3Uz8gIiIiIiKi/7JyC16pkhIu48CBXVi3ZKMceAP2aPsQA28iIiIiIiJSMPiuDqG78P3367E3XKpvLjLVtx8e95EHiYiIiIiIiBh8VwszM+VZ3ibmcG3+DN6a1B06zbGJiIiIiIjoP45tvomIiIiIiIiMjCXfREREREREREbG4JuIiIiIiIjIyBh8ExERERERERkZg28iIiIiIiIiI2PwTURERERERGRkDL6JiIiIiIiIjIzBNxEREREREZGR3bfnfOdHbMOSz39HGLzx+GsT0c/TVP2EiIiIiIiI6N+lWoPv/OQL+HPNL9gdHIeM3EKRYgpLZw+07jEUT3RrDEed+Dp03Zv4aG+qPGzfTQwP85GHozbOxHvbE+ThFiMC8VoHebDGyEtJxNL1CQgMz0V6vkgwNYGflwPeGVIPPRxKViSIxwvT4rBLfVdSz6dbYHV79Q0RERERERH9a1VbtfP00ysxa8ZSbLkQqwbeknxkJ0bg8PqFmPHuGgSlq8mCZ6eH4S4F46bueLiTp5JY00XH4MlFMfg4rAD1Pe0wtZ8DhnhocD0sCcMXXcMGnfWTZRZAStLYWeKxAJtSr47OymhERERERET071Y9Jd83t2HeO5twXY65TeHS/FF0b+0Ky9TrOHLoAEISpCJiwKLFCHz4WgdYy+8Mq7kl37lYvfwK3go3wcDnmmBFy+Ji/IR9IWi9NRsuDzbA6cEOaqoQfR0PfZYCdPbC4QG2aiIRERERERH911RD8J2P019NwYoTOfI7l54zMHeIpwjBVfnBWDPjE+yXa5h7YMC8d/B4HQNBtsdGzHxvO5QUXS7o8/Z8DKovDecj+cKfWPPLTlyOzRbvRKhvWQ/+vZ7G8L7N9aq1Iz0Mu9auxh8X1CrwJuawcfNDj6eHo29zx6LlSz+6HLO/PYMsq1Z4ae5YdCgzRk7E+Ldj8KuZHX55xxOd1FSZGmRH+LkhZqSrmiicCkODnzLQrn8T/NrVXE0kIiIiIiKi/5pqqHZ+CafOK4E34Iue/XUCb4mpH7q019avjkZosFIKXnX5iNi2EHOXbsEFNfCWU7NjcWHLUsxduANRapqIqPH52wuw/pROFfjCXGTEXsCWpXOx4qi2fng8/v7zDDLEKIUZZ3DgVLaabogzvnivBWJKBt6SzELcEn+sLTTKe1WemHeB+GtrxcCbiIiIiIjov+zug++kaMRqY28Xb/gaqFPuOeR9BAYGyq+JD+uF5sXqD8J88fnbfVzUBKVEPDBQLfW+uRPfbw5Hlhg0sfFBt+GT8dbk4ejmZSWPmxX+K37alykPR+3cjPPSiLBA02HzsVRMd+m0nnCT1zYL59f/hmBpEK7o0C0ANiLdxKYVOrexlFMrLx+J4XEY8XMaEk0t8L+++o24Q25Ktwg0uHEqGG1mnYf7NPGaeRHdvovD5VxlHCIiIiIiIvr3u/vgOzNLDoiNLWr/AbVNuS06vjIFw7r4o5F/FwybOgRN5TEKcfXiJXkoKVlbsm0OBzcH8b8Y8u6Pka88j+efF68n28FJGQF1HpmET5cHYvmn5VU5L0GqZi4F0tOC0GJ5PPaY2uLLqY0xtvi+gSw6VSr3LsCFyDzYudvgMR8L1K1ViOBL8ei15DrOSh8TERERERHRv141VDu/FzIREqZtDZ6OQ4vHY/To0cpr/GooIbcIv6Mi5arnTdu3hFIeLsb9bDKmvf8Z1m29iKz6bdCxc2d07uyPEnFy1TjaY+aTrvi4hx0e8zRDYVI6xn4RgW0lejvv3M8dy/u5YcvsZtg7zhtfv+qHU3MbYbanCQoSUjB1t1JST0RERERERP9udx98W1upga4xJSE5WR2sBNMHXsT0Z5vDTqrhXpiLlIiL2Lv5ayx6ezImzvwWp0s+EqyqrO3w+ENueK6PJ74e54+TT1vDOu0WJvyagDx1FImVsyOe6OaKtrpNvjW1MfoJO0gPV7sQKbUUJyIiIiIion+7uw++nTxQz0IdTghDiIHC3OA1bxSVVC85eCcdrlnDqijCd0bPGUr78VKv+YMgd4oOU7h1n4CFiz7GW+OGoE9HX7iaK6uan3AYXy7Zhpvyu+rh0t4JT9gAmeEZOK6mlcvDAr7S35s5RaX2RERERERE9O9VDdXOm6JNC230HYqDf5cIa/ODceyctqjZBQ08y+hwrVxO8PHSNshOxPH9wUW9ncvSj2Ljtgg17Rp2fbUCK1aI1x/X4NayJwa9/AbeW/QOHvOQR0Dh9VCEKYNVEI8XpHbei2MQraaUKykGvcX4Db4xEObH5oqlFOpYqO3ViYiIiIiI6N+sGoJvU7Tu96jak3ghrm+ag5lLN2LXgQM4sHUdPp69RH3Gt5iZb0/0UoqmK+XqgV9x4MApRGQCft26qPMAUvcvwezArTh77RrO7lqHD95ehe2bFuGrE1KxuxvM087i9OnTOL39F2y8kCwH5fnpMYjX1vK2KK4qLz3ne8rY0Rg7ZTmKnkBmkA1auYk/sWn4KlJ9fJkq62wKfssANB5WaK+mwckefcX4BcEp+EZvuoU4dCANoWKodaPaShIRERERERH9q9W6LajDd0UKYmd/qzwz2xATxwfx6syRaK0WYEdtnIn3tiudqEmPFHutgzwIhK7Dmx/thRqvCy7o87b0uLF8xO1Zgg9+DDbcu7qVFwa/MR29RXCfH/Eb5n/0B2IM1nA3hfuA6Zj9uHQXIB6/z30bW2KUT/yeW4L/PVL248byIq+jx/IUEThrENDIBo+3MMXN87fw27VcJJtb4YMJjfGiTk9uReObmKFjMxv0dQeOn0rHn3EFYrUc8PuUBmip/2hwIiIiIiIi+hfSzBHU4btiUb89urdxQ2HiDdxIyURegRTTm8LSuQHaP/4qxo/oiUY6PbOlBe3GvlClgbhb6wF4UFsi7hQAP5tIXAlJQIaYhol5HTR/pAt8bU1Qu1En9GjrgJTwaCRkZCFfBPom5g5o+OAAjBn/ItrVUSZh4uCPzp0aQXPjOqK1y2JiDpu6Aej78iSM6OymFvnboJ5VFA6evYEC61YY+NxDqK+tQW+Axt4ew5oCNyKzcSomC3suZUHE3qjfyBFLRjbEU0611DEVReNHZGFfWCZ2hWQjLFeDZg+4YP0odwQw8CYiIiIiIvpPqLaSbyIiIiIiIiIyrBrafBMRERERERFReRh8ExERERERERkZg28iIiIiIiIiI2PwTURERERERGRkDL6JiIiIiIiIjIzBNxEREREREZGRMfgmIiIiIiIiMjIG30RERERERERGxuCbiIiIiIiIyMgYfBMREREREREZGYNvIiIiIiIiIiNj8E1ERERERERkZLVuC+pwDRWFjTPfw/YEabgFRgS+hg5yes1x9PPRWHVeGnJBn7fnY1B9OZmIiIiIiIhIVi3Bd3HwWZIpLJ090LrHUDzRrTEcTdXkKqmO4PsoPh+9Ckp83Advzx+E6oyPqzf4zkdk8E18ui0FW+ycEfqyq5quLy8lEUvXJyAwPBfp+YDGTAMfX2esGOYGf3N1JCIiIiIiIqoRjFztPB/ZiRE4vH4hZs3/DREiSCTDsm6l4tctoXh4VhA6rkzAzzH5yCpUPywp8yZGL4rBx1fz4Ohhi3E9HNC3DnDtUjx6LbmOswXqeERERERERFQjVHPwbYtmjz+P559XXkP6BMBRnUN+zJ/4fudN5Q2VkI5PPo/E+AOZuGFnjXHdbMotmT+x7Sb+zAY69PfFkXFemNWnAb6a6I/ND5mhICEF7x3OVcckIiIiIiKimqCaq52XrnadvudjvPljCORCXN9nseiN7rCWPxFyY7B/7bf4/eR1pOSKMUzM4dCgLR5/6Tl0cdfWnS672nl+8gX8ueYX7A6OQ4b6fRs3P/R45iU8HmArj1NmlfgWIxD4mjqlSi2HIj1oI778dg+upuSi0NQOfo+OQMuYxVhfcv3zI/Db/I/wRwzg/tibmPmEJ8qudZ+JnftuwbmNE9rUFmNFX8dDn6Ugws8NMSNLVju/hQULr2FJkjWWzvPBYI2aLEmKQe8Fibjg44qIV91gpiYTERERERHR/WX03s5tfb3hpA4jORlJ6iDST2PlO+9hzeEIJeCVFOYiJeIw1rz3Dr49l6mklSE/YiPenbEUWy7EKoG3RHw/I/YCtix+G8tPlP/9IlVYjvxzK/H24u0IlgJvOSENwdu1gXcJ5/7Ejhipnn0+Yg4eQoSSWgZr9OrqqgTeFcrERelGhL05AnQDb4mTBXylewVJuQhRUoiIiIiIiKgGMP6jxjIzkaMOwtFRDcTzce7n73AsWQphTeHSZiDGvfUWxg1spVRTL0zG4TW/IVQe15B8nNyyE3FyBGyPdiNn4+NFi/DeuE5wkT/Pwpk//5YD/Q6vBSIwcARayOmC1OFaoEiTS72rshyhWL/mmJiyxASOrcS448ZhSDcvWMlpJTzQDV1dpGDaFO4Pd4Knkmpk5qhnI/5k5CNaSSAiIiIiIqIawKjBd27CWaxZcxDp8jsTNGjWXKlynn8S+04oYSy8n8Jbo/ujZaNGaNl/LMb2cFbSU4NwIVYZLM1UBNXLRVAtBdYf4ZUH3WFrbQ3Xlo+irRJ9A9dDKy79rcpyxF5AUKqSBI/++N9YMW7Llug5bCqGNFXTdZk2wTPzvxDL9wVml1vl3AhyC5GmDhIREREREdH9V83BdwK2vzcao0crrwkzl2G/UjwNU/e+eL5XHXkYYSEIV5LF8Hq8oY4vvd7flah+EIfrkepgGXJj9uPb92dgyoSx6ve1bcMrqSrLEXldDCmcA1pAXRPBFKYlq38TERERERER6TB+tXPBueM4zJv5BDy1xb/JKWpp+J3LPLEcb85dg8MRicjIN4WDZzO0bu0PNwt1hMq4w+Wopanh0ba5CezUQSIiIiIiIrr/qjn41nnUWNeGRRNPjo6BiI+LWVmhKEZu+gK+kKuPl35pOyMvLQp//npGaX9t4osh7y/CghmvY8yYIWildHJeOXe9HDVNLmIzxB8bU3goCURERERERFQDVHPwbYH6rTujc2fx+r8X0Uttf114fTO+26NTxtzYGw3VQVw+jP16xc/5iNi2EUfLLZKORoy2ermTN/wdtZF9AQqq8uC0qixHwwZwUwcTLpxB8RPL85FfoA7eE9ZoJuVrcg7OlZxvUg5CpEd8O5nDV0khIiIiIiKiGsCI1c7rY+CLXWAvDxci5LefcU568pbEugO6tVL7CC8Mwc+zP8K6/Zdx7fJxbF0+Cx9u2o5vF/6GKGUMAxzhoC3hTjiJv87GIDHxGvYvX47d2qbaZUk6gx27DuDAZRG9V2U56nXCg9ri5OitWLpqPy5fu4z96xZi/SU1XZf0nO+54zF69HjM/S1ChOjVpTYG+EtP8M7CF3+kIU9JFApxdl8aLoihTk0d+YxvIiIiIiKiGsSobb5N/QZhcAu1YnfWMaz5MVgNQq3RbvhodHFTZl+YEYq9axbhw0VfY/OZZBFGmsDeu1Hx88FL8UO3Lm7qwifg0LK5mDHjQ6w5k6qzRgXIL4p4W+ABP/WDwjgcXf89vt8lPUCsKstRB31f7ANl1ELEHV2DRR8uwpq94erjx0qo0nO+q6bpo87oawmEHohEl2URWLT3OiYuC8bAw3nQuDjg7Yekh30TERERERFRTVEUqhqHNTo80w8N1LmkHvwZO7X1tW0DMPyd9zFhQHPUszFXF8QUlvWao8+rczDvpQfEt8tW/4lZeHt4G9SzVKqcm5g7wK/P6xjeTtuKOxSXi0qkrdH11VfRzdNOfeSXmI+NWjZcheUw9RyEqa/3gZ+DOp6pJeq1eQGTBjSQP9fzQF/0dpfmZoTnfFvXwao3PPBGYzMkR6dh4bYUbIwpRKOmrtg5sQFasvd1IiIiIiKiGqXWbUEdJiIiIiIiIiIjMHLJNxEREREREREx+CYiIiIiIiIyMgbfREREREREREbG4JuIiIiIiIjIyBh8ExERERERERkZg28iIiIiIiIiI2PwTURERERERGRkDL6JiIiIiIiIjIzBNxEREREREZGRMfgmIiIiIiIiMjIG30RERERERERGxuCbiIiIiIiIyMgYfBMREREREREZGYNvIiIiIiIiIiNj8E1ERERERERkZAy+iYiIiIiIiIyMwTcRERERERGRkTH4JiIiIiIiIjIyBt9ERERERERERsbgm4iIiIiIiMjIGHwTERERERERGRmDbyIiIiIiIiIjY/BNREREREREZGQMvomIiIiIiIiMjME3ERERERERkZEx+CYiIiIiIiIyslrh4eG31WEiIiIiIiIiMoJatwV1mIiIiIiIiIiMgNXOiYiIiIiIiIyMwTcRERERERGRkTH4JiIiIiIiIjIyBt9ERERERERERsbgm4iIiIiIiMjIGHwTERERERERGRmDbyIiIiIiIiIjY/BNREREREREZGQMvomIiIiIiIiMjME3ERERERERkZEx+CYiIiIiIiIyMgbfREREREREREbG4JuIiIiIiIjIyBh8ExERERERERkZg28iIiIiIiIiI2PwTURERERERGRkDL6JiIiIiIiIjIzBNxEREREREZGRMfgmIiIiIiIiMjIG30RERERERERGxuCbiIiIiIiIyMjuY/Adic/6ecPbux8+i1STSto0UnzujZGb1PdERERERERE/0D3L/iO3IRtV6SBK1i78pScRERERERERPRvdN+C71Mr14qwuyEaNgTit/+GexV+bxoplbZ3w4IgNeEeu9/zJyIiIiIionvvPgXfp/Db9nig2TNYPqK9iL43YPVu9SMiIiIiIiIiSUEUroTcUt9U7FbIFUQVqG9qmPsTfO9ejQ1S7P3YEwh4oj/aIxO7ft2BPPXjUrJO4esRPdDMVyo19kWzTsOw4ECi+qFWFoLXjUefB5rI7cS9fZuh08CpWB+mTDVoQTc5fcoe6V0kAvtL0xoJuTl50AJ0E591m7cey4d1UuajbWiedwN7PxuhP91hC7D3RumlzQpeh/F92ugv594b8nqVO38iIiIiIiLSJwLvPcu+xMqVH+O7UxUH4LcurMOSlSvx5bI9NTIAvw/Bdx52/LpLhNvN8NgT7oD9ExjYUYPMP3/C1jKi733vDMPyG/54YfoHmDy8LVwSjyLw5Wew4Lz2C3k4v2AA+s/cgYT6AzH5gw8wa1QHmF3ZgGl9BmF5JODefxo+EOlDm0jjO6HrxA/E+5FoI39fEf3dDCwUG7V+2z7o+oCTSAnCJ/26YMTik0Cf1+TvzxolvnEiECP6TMVuneXNO/wOHu0/EzsS6uKx18W0Z41CB7NTCBzRB2M2JVZq/kRERERERKTIjTqNE9HZQGEmLv5cfgAuB95rTiO1EMiOPoHTUbnqJzVHrduCOnxv5O3AhNZjsLXZHJz+6QXYi6TUH55Du7ePo/17J7D2/6QUldTb+ZQ9sO3+KXavfBLOanLe+Xno9cQqRLecjr9/fQXu2I1JzUdhs+MI/LZ/Flooo4lZTUDrMVvhOOI37J+lpEptrqfsaYjRW/diWoCcpJR89w9EZMMX8Mu2OWhjpaYfnovur/8Ou+Gr8dtE7chA4srBaD//HHp/FoIVj0sppzC749P4/lYXLPj7OwwpXlDM6/UEViUMxNcXFqOHSDI4fyIiIiIiIirlVsgGLF95FDdFUA0TazQb+gZebFNb+VClG3jDpA46jByLwb7649QE97zkO/Xnb/FnJtC+/xNy4C2xf7w/2msKcGTzb0hV03S1G1AceEvMWkyA1FS84OwBHJRLn+uhnov4k3weBy+mFVVfN+s+H3/t348fxzVWU8rXsN8zxYG35KHZ2HP8uF7gLXF2dhD/F+DyRbXXtJA9OBgPOD0xtjjwlpi1wIj/vYg+XRyREaOmERERERERUaXU9h2MsSM7oI4UuRooAf+nBN6Sexx8p+L3rcdF2Noe/Z/QKeG2fxz922uA4+uxtlJBqj3q17MWfyMQdlV6H4ApS6eircUpfDSgFZo0eQBdB47Dgm3XYeXqAQ8n3Yi6ihJPY+XUgeiqbfMtvZSG28UuXkKY+OPTpHRRtvuA2Vi+fDYGuKsJREREREREVGllBeD/pMBbcm+D75i1+PGI1PL9OOa0VgNZ+dUab8vpF7H5l0h51KoyazEW64+cxO4f3sfoAW3gkPA3vp40AG07jsGmkn2zVVbq7xjTYzDm78hBh1c+xg/b92P/fvGa1UkdQZ+llXRDgIiIiIiIiKpT6QB8Pub/gwJvyT0NviN/2SzCaw2aPyd1NlbyNRLtRex6ZeM6VPwI7FRExWaKv57wlmqUZyUhOjoacVlW8HroWUz7+FtsPnQRRz7tDuvkHZj13p09xyxmbSB2pFuj/8LfsXDCADzk6wEPD6kk3UIdQ9WsKbzFn4tnTirvdaRe2IafftqGC4bq0xMREREREVGl6AfgBSj4BwXeknsYfAdh3cYrgHVfvDb7GTzzTMnXmxjZXUTfkb/ix1PqV1QntmyCbuF13vmlWHUc0HTsjd5mIiH8K/xfly54dIL+eM5dOkGKzXOypUBdYWqmUYcqlpGZJf7PQWbx14UsnDoTqg6rfLvjYVcg6fevSpSyR2Lt9Ncx/b0/EKMWildl/kRERERERFRMLwD/BwXeknsXfJ/6Eb9Giti7+wB0lwLmUszQ+/+egBPisXXDETVNkblvKjo98izeWfoTlr7zLHo+vQqRGm+Mmj5U6bQtYBQmdbdF5v4Z6P3YVCz96Sf8tHQqHuv9IU7DFo8+3kWejqRNS3/xvwiKZ8zGqqWbULqsupjvY/3grSnAnqkd8dhLYzF27Fg8+0grPL26ZNX4Npj1/mA4Zu7B1N6PYapYzp9WLcCIR3ph4UVrdJ83R7lJII1ZhfkTERERERGRPjkAf743ev+DAm/JPQq+83Dgx60irLZGz6d6izC7DB0Ho79UgvzbD9hR9Axta/Rf/BOm+iRj0+fTsWjNSSQ4d8Dob37CtBbaKTnjyZW7sXpSF7hEbcai6dMxfdFmRLl0waRV27H08eLO3dxHvY+pHeog++z3mPf5TtxU0w0K+B9++mYSujXIRsi+7di+ax8i3Udg1erRcjXz6OArxT2r91iIA1vno7fLDfzxmZj/vK9xVPOwPP8VTxZ3gV6l+RMREREREVEptZv1RM9/UOAtuffP+SYiIiIiIiL6j7mHbb6JiIiIiIiI/psYfBMREREREREZGYNvIiIiIiIiIiNj8E1ERERERERkZAy+iYiIiIiIiIyMwTcRERERERGRkTH4JiIiIiIiIjIyBt9ERERERERERsbgm4iIiIiIiMjIGHwTERERERERGRmDbyIiIiIiIiIjY/BNREREREREZGQMvomIiIiIiIiMjME3ERERERERkZEx+CYiIiIiIiIyMgbfREREREREREbG4JuIiIiIiIjIyBh8ExERERERERkZg28iIiIiIiIiI2PwTURERERERGRkDL6JiIiIiIiIjIzBNxEREREREZGRMfgmIiIiIiIiMrJa4eHht9VhIiIiIiIiIjKCWrcFdZiIiIiIiIiIjIDVzomIiIiIiIiMjME3ERERERERkZEx+CYiIiIiIiIyMgbfREREREREREbG4JuIiIiIiIjIyBh8ExERERERERkZg28iIiIiIiIiI2PwTURERERERGRkDL6JiIiIiIiIjIzBNxEREREREZGRMfgmIiIiIiIiMjIG30RERERERERGxuCbiIiIiIiIyMgYfBMREREREREZGYNvIiIiIiIiIiNj8E1ERERERERkZAy+iYiIiIiIiIyMwTcRERERERGRkTH4JiIiIiIiIjIyBt9ERERERERERsbgm4iIiIiIiMjIGHwTERERERERGRmDbyIiIiIiIiIjY/BNREREREREZGT3NPgOWtAN3t7eGLlJTfgHCfqkJ3x9O2PeKTWhpso6hc+eGoPVqer7csXgqxFDsPx8nvqeiIiIiIiIjIEl35WUlZUt/Y+MW8r7mikInwwYhs0dx2OYvZokybuBvZ+NQJ8HmsDbeySK732446XJ7bDhpTHYlKgmERERERERUbVj8F3SppFy6Xy3BUFqgqLNrAMICTmJD7qqCTVQ5PI3scJsPFZNawEzNQ1557GgXxeMWJmMjjO+xfb9C9FH/Uhi1mIK5vW9iKnjVoPxNxERERERkXEw+P63yNuBhV9cRvvhL6KhmiSRAvLAG52wYPevmPvsQ/D1cIKV+pnCDB3fHIc2x5fhs5pepZ6IiIiIiP5bCqJwJaTy1Y9vhVxBVIH6poapucF3VjDWje+DB5p4yyXRvs06YeDU9Qgz0Dw5K3gdxvdpg2a+0ri+aNZpGBbsvQG9UfWqXovxfJuh07AF2HtDHStoAbpJ6VP2yG8jA/vL42nbpyvt1btBv0A8Dzf2LsCwTs3gK33Xuwke6DMCnx0oUYaslqaPXB+G9VMHooO6Tk06DMQ7O0qMW4X11rP/D+zJ7ISnhurWNz+FlWuvoOHzb2GIs5pkiP0T6N8+Hls3HFETiIiIiIiI7jMReO9Z9iVWrvwY352qOAC/dWEdlqxciS+X7amRAXjNDL4TN2Fkx76YuSMB9QdOxgcfzMKoDma4smEa+vRbAN3+wfIOv4NH+8/EjoS6eOz1D/DBrFHoYHYKgSP6YExRQ+YgfCJVvV58EujzmpjeB5g1qg1wIhAj+kzFbml67v0xTaR/MLSJ/A2nrhPl8UaK0QzLw/kF/dBlRCBOmXXAqFniu5MHon7Cfix+oYcI2ktX4j4x7ynMOmYtFuEDTB7+IOqmXMCa8S9heaQ6glRFfEB/w+s9aDm0oxly/tBJZDZsiuZF9c2F1Au4HG8P36xVRTcdmnQYhgUlbw7AHq1beCDp6EGEqClERERERET3U27UaZyIzgYKM3Hx5/IDcDnwXnMaqYVAdvQJnI7KVT+pOWpg8J2H3e/Nxp50W/T/4gD+WDgBzzwzAtNW7cLfM9sDYYGY8Km2+PkU5k1egxsWXfD+jj+wcMIzeGbENKza9QtGNEzHnlnvYbc02uGf8XuqA1pM/BHb5ek9gxHTvseWt1oD6Vvx83Yxjn1z9BPpz3R0l76B2gG95fE66dbh1hX5NWZ8HQY0m4Stu1Zh2gjx3QkL8ceBb/C0qzTvN7GpRI/jBa1m4dDfP+JdsZwT3v0Rm9/pCE3BRfyxNUYZYf9KfB9WAI8Xv9Vb76X9rVFwcS1Wn1dGMyT0WjTg0wQB6ntZTCzikIq9W+IwdPVu7N+/EXNaR+Drl3UCflXDhmK9I0JwRX1PRERERER0P5l7DsDYkR1QR4paywnAdQNvmNRBh5FjMcDTXPmwBqmBwfd2/Lw1HWgyElN767ZONkPdkZMx1EnEvds2Qw6/Q/bgYDzg9MRY/WrVZi0w4n8vok8XR2RIce1DIpg/fhy/TdQLTeHs7CD+L8Dli/qdq1VGyPoNuFhgjb4TxqKxbmmzVWfMHNceyNyHLXv064p3eGoIdBfTvk1LeIi/6WlqlF6vHlzEn+TzB3ExTftdM3Sf/5cInH/EuMZqUpU4YegXqzGylQc8PFph2NI56GuhE/Cr7O1qi6zIQ776noiIiIiI6H6r7Tu43ADcUOA92FfENjVQzQu+gy7icgGg8fTW6zhMEYAmPuJPZLBSQnvxEsLEH58m+kG1xH3AbCxfPhsDlIJsIPE0Vk4diK7aNt/SS23ffScuXpLmXBdejXQjb4W9X2MR8hYg9MpVNaWSAqZg6dS2sDj1EQa0aoImD3TFwHELsO26FVw9POCk31NaJdWGnW4zcLMGqC8i/KKAX5WXJ8JujRlM1fdEREREREQ1QVkB+D8p8JbUwJJvhYWltTpUMUurCsZN/R1jegzG/B056PDKx/hh+37s3y9eszqpI9wpK1jbqIPVwgwtxq7HkZO78cP7ozGgjQMS/v4akwa0Rccxm8p9FJhPIw+IaF+pEaAV0B6trCOxd6dOHfO864hKAGz1InLg8pUwwNMXSot3IiIiIiKimqN0AD4f8/9Bgbek5gXfAc3grwEyRSCpXzFachKnLoo/Df2UILFZU3iLPxfPnJTe6Um9sA0//bQNF1KBmLWB2JFujf4Lf8fCCQPwkK9UBVu8nCzUsauuWVNpztdw5bLyXlfM6XNIggY+TapWTzwrKRrR0XHIsvLCQ89Ow8ffbsahi0fwaXdrJO+YhffkBuyGtejUFtaRl3BBr6Z7D4x+2RtXl47AzJ0hYtpnsG7CHPyJ7hj5nLZKgCQVp89Hw6nDw/BVU4iIiIiIiGoS/QC8AAX/oMBbUgNLvvtgUF9rEVGvwAc7stQ0ReLqQGzNFLF3v4FKx2K+3fGwK5D0+1fQ71w8Emunv47p7/2BGDGpjExpOjnIFN8tloVTZ0LVYR2mZiJsrpjvkIFogkxsXfQZruoGvHlH8MV3FwHrrhjQvXSV9PKEf/V/6NLlUUzQWxlndOkkBfE5yNZb/hK6PIbu1ofw51b9duYB//sJ34yqg12v9RHTHoJ5wf6YuW4FntQt+E79HX+eckX/wR3VBCIiIiIioppHLwD/BwXeklq3BXXY6KRnZfcPjESToR/gpdZqoi67ZujbrznspUeN9ZiCPZmO8H/yJbzYzgbh27/Dqr3XUeg9Ghu3TUMLNa7N2z0VHUdvQJqdP5586UW0swnH9u9WYe91S3T/dDdWPuksZvwJeg78AmEQ03v4QXhaAcmXduPYdSVQbTh6K/ZOU9uNxyzHgM4LcdG2JZ6f2AOtW07Ak221yw6M3roXyqjKo8YGBYbBpEE3jHixD7wyTuC7bzfhcrJ18bwl0nO+p+wRaWEiTUmSSc8WVyaqzL/Uersi/sR3+HbTZSRb98Zn+1bgcf3a4noilw/Ao5t74a9trxtoL182ad0GnhqBIz+9oNchHBERERERUU106+IuHDHviJ7/kMBbcl+C7zI1HI2te6cppdqJB/DZ1Pfw9cEQ3BIxssaqLgIem4zF7w+Bd4kC5azgdXhjwkLsDUtBVoEGVl5dMPqd9zG2W11oR0088BmmvhOI/eFZKNBYoW67F/D+eGDeC4GI6P4pLomoWBlXBNXLX8CoxUdxM88M/ZZdwRd9DQXfkjyErZ+BSYv+QNANMV0xhdq+D2PU2wvxemedMLaywbekxHrDrDZ8Hx6F6e+PRbe6FZWkR2L5gF7Y0PkXbJvWomjdy5N3fgH6vRSM13ashPZeAREREREREVWvexp80z2Qdx7Lh66A3Q9f4P8q7LMuBl+NmIj8yWsxVluVgIiIiIiIiKodg28iIiIiIiIiI6uBHa4RERERERER/bsw+CYiIiIiIiIyMgbfREREREREREbG4JuIiIiIiIjIyBh8ExERERERERkZg28iIiIiIiIiI2PwTURERERERGRkDL6JiIiIiIiIjIzBNxEREREREZGRMfgmIiIiIiIiMjIG30RERERERERGxuCbiIiIiIiIyMgYfBMREREREREZGYNvIiIiIiIiIiNj8E1ERERERERkZAy+iYiIiIiIiIyMwTcRERERERGRkTH4JiIiIiIiIjIyBt9ERERERERERsbgm4iIiIiIiMjIGHwTERERERERGRmDbyIiIiIiIiIjY/BNREREREREZGQMvomIiIiIiIiMrFZ4ePhtdZiIiIiIiIiIjKDWbUEdJiIiIiIiIiIjYLVzIiIiIiIiIiNj8E1ERERERERkZAy+iYiIiIiIiIyMwTcRERERERGRkTH4JiIiIiIiIjIyBt9ERERERERERsbgm4iIiIiIiMjIGHwTERERERERGRmDbyIiIiIiIiIjY/BNREREREREZGQMvomIiIiIiIiMjME3ERERERERkZEx+CYiIiIiIiIyMgbfREREREREREbG4JuIiIiIiIjIyBh8ExERERERERkZg28iIiIiIiIiI2PwTURERERERGRkDL6JiIiIiIiIjIzBNxEREREREZGRMfgmIiIiIiIiMjIG30RERERERERGxuCbiIiIiIiIyMgYfBMREREREREZGYNvIiIiIiIiIiNj8E1ERERERERkZAy+iYiIiIiIiIyMwTcRERERERGRkTH4JiIiIiIiIjIyBt9ERERERERERsbgm4iIiIiIiMjI7m3wvWkkvL290W1BkJpQDnXckZvU9/dQ0Cc94evbGfNOqQlaiQewYFhXPNDEW162Jg90xcBxP6ASa0NERERERET/YSz5NiArK1v6Hxm3lPeKU5jd/wUEHo2DY+s+6NOnD3o0tUJUdAJM1TFqiqxTn+GpMauRqr4vV8xXGDFkOc7nqe+JiIiIiIio2v23g++gBejm7Q3vEsXrbWYdQEjISXzQVU2QHNmArfGA09MrsevH5Vi+XLx+3I5Tv02ErzpKjRD0CQYM24yO44fBXk0qlohNI1vC27sbiiofuL+Eye024KUxm8SnRERERERENd+ti7uwK0SvtLTGY8l3Zd24gSTxp2WnzjBTUmqgSCx/cwXMxq/CtBallzL195mYvSddfadlhhZT5qHvxakYt5rhNxERERER1Wy3QjZg+fc7sGPlcmz4BwXgNSL4zgtbj/F9HkATqRTatxk6DVuAA2XEgXk39mLBsE5o5iu1u/ZFs07DsGDvDRTXmg7Cgm7is25iGgc+w4gezeCrTrfHiG/V6tWbMFJK6x8owlVhzxS9tuhBC7rplA6r05uyR/5szxRpvtpxi+el1+47KxjrxvfRaRveB+PXBSNL/ViyaaT02Uis3DEVfR5oojO/kuuofH/EZwcqLJnO27EQX1xuj+EvNlRTdKT+jmkzD6BVl9Zqgg6zjnhzXBscX/YZSjZzJyIiIiIiqinkwHvlUdwsFG8Kb+LoPygAv//Bd9An6NdnGraFmcFn8GR8MP0FtEr9GS/PV4JdXXnnF6BflxH4OtgBj73+AT6YNQodzE4hcEQfjNlUIjRNWIvxI7/DDf8XMH3WaPT1tcT1ve9i+NTdIlBvg5EfiO9P7AonadwmQ/GBeD+tv7v8VX3u6D9NjDu0ifyuyVAxXOa4QqII7Dv2xcxd2Wg3YpYYdzIG1k/Ajpn9MWDBeZ2bBJJ9+HD8JkTVboKufTrCS2o8Lr4/ps8IBJ4yQ4dRxd/fv/gF9JgkLXvZ9v+xB5mdnsLQUvXNU/H7tJn4y/9NfPqUg5qmz/6J/mgfvxUbjqgJRERERERENYhe4G2igUaKZv9BAfh9Dr5T8cN7KxBW4Iph3x/BHwsn4JkR07DsjyPYOKJk6W0kvp7xNcIsuuD9HX9g4YRn5HFX7foOw1zTsefDEqW2mY4Y8ouY5rJpGCFP8ys85wqk79qM/WiITs+I7/cOQG1pXPeOeEa879e8dCtpEZaieT8xbkcl2HbvKIbLHDcPu9+bjT3pDTHil11YNW2EGHcCFv6xA2+3B8K+/gA/6/WCZoFO7+7HmUOb8e3yD/GMLxDz80rxfaDLPN3v/4oJIvZP3/wdNpUZfZ/HoZOZaNi0ealq8Xm7Z2PmX/54e9kLcFbTSrFvjRYeSTh6MERNICIiIiIiqhn0A297tB4+EzOHNoP1PygAv8/B937sP14ANHkOozvqhoxmaNHcRx1WhazHhosFcHpiLIboRpBmHTHgUScg/hSOxqhpkob9MFiv3XMbtG4m/mSmI01JMILt+HmriJzbj8AEvXk744n+bYCCczh+Uk2SdcBTw+rqBct16rlCI/5GHN+L60X11BvilR9EXu3/CH3UlNJCcS0a8GkSoL5X5e3G1Mlb4f/2MrxQZuQtaYiG7mK+IVfU90RERERERPdf6cB7IoY1r43abV7EG/+gAPz+Bt8i0LsqYm+4i8BPSSnbxUsIE3+S1j0nt4PWfT23TuoKTQTVlXq2lhEFXcRlaX2Oz0HrEsvYes5x8UEm0iuI/M2e/AhfDG6A2F9G45FmvmjWpg+efWclzmQ4wcPDDXYli7XLlYcjc2Zgq//bWFZ+5C3Yw642UJCXr74nIiIiIiK6v8oKvLX+SQH4fS75rrr6fafLba5Lv6ahrGbY95plm5cMLJ/yGtlGHalMzui98G+cObERX04ehq5+wKWf5uP/HmmFvp+UbDNegZDPMGtdPAqOz0F77Y0AueO4SAT2F8N6j1jLgxR3a8xq2lPLiYiIiIjovyg3Yku5gbeWoQB8S0Su8mENcn+Db98maCzVsY6PhW6NcYN8GsFD/Ml0bCG3uS796geDzbDvpcbe8BR/sjVe6GtwGZ9Bp3KL+POQFheN6OgkwKkVek54V36W+LkLv2G0dyGCv5iBr8vMKB80EhkUekWn33WvV/DDfqm6us5rVifxgQee+0YML9StxH4ZV8IAT7FNiIiIiIiI7jfz+q3RzsOy3MBbSzcAt/Roh9b1zdVPao77XPLdB4P6WgMXv8MXR3TLdPNw5PhFdVjV4jH0cAWSfp6FBcrzworknV+PlXqPG6skU1NUazmvWW/07qgBjn+CKSV7X0/cgZUlHjdmyO4Z3dClyyB8oruOZv54uI10ZyELmRlKUmkt0KmtNSIvXSjOBzM7uHl4wEP35WQhPtDA1lUatlLGk6SexvloJ3R42FdNICIiIiIiuo809dF93KsYObL8wFtLDsBHjsSr47qjvlTIW8Pc5+DbDL2njkczTTzWPd8Rj01dip9WLcC4xzri+XXx6jhabTDrq9HwRhgCn+6JZ98R4/70E5ZOfQwdB03Dh/O+xvlMddTK8m2N5iL2x76PMGbpKqzeXWH5ewXs8X9LF6K7bTr2TO2Nx8YtwCqxjKsWjMAjncZg/ofzsCVWHdUgM/SfNAremkisEus4YsEqsY6rsGBET4z8JQka7354rJzYuMtj3WF96E9srfJdCOkx4H/ilGt/DO6oJhAREREREd1vIgBv4ltx4K1V27dJjQy8Jfc5+BYajsXG7QvQzzsPoRsWYfoHq3HGfii++XyY8gxuHWYtpmGbGHdwkzycXyfGnT4dn2+/Bb/nPsf2bbPQRgqkq6QH3v50MLzMb2LHog+w9nyZxcqV5/wkVu5ejUldXBD1VyDmiWX8YPUZWPaciQ0ifWg9dbwy6K7j0a/niXWch6+P5qHJ4PnYuuV/KNGXuR6z3lMx3n8fApdHqikGPLkSYWF7MU1vQkFY8dVxtBn3Oipskk5ERERERERVVuu2oA7Tv0HkcgzotQGdf9mGaf/f3r3HV1UdeP//kpNwyZUkJJAQUgwSQoIoIEQQuclFLgKKFPHpWKudl+VnO9NxXtbOtJ2x03Z8mE772HY6lGdmRNRHbcEWhKBcFAUEwv1OCCRiCAnkkPuFhJMTf2vvc3IlQGi7NaGf9+u1Weesvc7e++zwz/esy271uLNr8ejo0pl6Ivub2vQ/86/9HHAAAAAAwB/ti+/5xp+XNZJg9QLt/s3v1KFR+AWv6P/sW6BXfkPwBgAAAACn0PMNAAAAAIDD6PkGAAAAAMBhhG8AAAAAABxG+AYAAAAAwGGEbwAAAAAAHEb4BgAAAADAYYRvAAAAAAAcRvgGAAAAAMBhhG8AAAAAABxG+AYAAAAAwGGEbwAAAAAAHEb4BgAAAADAYYRvAAAAAAAcRvgGAAAAAMBhhG8AAAAAABxG+AYAAAAAwGGEbwAAAAAAHEb4BgAAAADAYYRvAAAAAAAcRvgGAAAAAMBhhG8AAAAAABxG+AYAAAAAwGGEbwAAAAAAHEb4BgAAAADAYYRvAAAAAAAcRvgGAAAAAMBhhG8AAAAAABxG+AYAAAAAwGGEbwAAAAAAHEb4BgAAAADAYYRvAAAAAAAcRvgGAAAAAMBhhG8AAAAAABxG+AYAAAAAwGGEbwAAAAAAHEb4BgAAAADAYYRvAAAAAAAcRvgGAAAAAMBhhG8AAAAAABxG+AYAAAAAwGGEbwAAAAAAHEb4BgAAAADAYYRvAAAAAAAcRvgGAAAAAMBhhG8AAAAAABxG+AYAAAAAwGGdN3x7crXqubkalzZYSUlJGpw2TnOfe1PZl/37v2Dlry6yrytp0asq99c1O6mlk8y+pKe0xl8DAAAAAPjL1TnDt+eols6coeffPqZiV5LGzJigoaHFOvb29zR7/DNaf3Xa/ZwV6I1Ve30v967SGwW+lwAAAAAAtKdThu+TP/+Wlud6FTb559p5ZKPeWvaK3sncqd/MiZW39F19758/kMff9guRt1rvHJdcQUFy6bjeWZ3n3wEAAAAAwNU6YfjerddXWWF2iJ765/mK9lUa0Zr+o2/pHpdUueUdbffXrnnKGt69QD998zlNsYeoD1bauMX65YE249OLd2jp4nFKG2y1H6L0xUu1o9i/T2v0lDWEfNILevOXi/1D3c1xpjynTU1tmuWteVenTDnym9/USFOeeneNbhy/Pcpd9YxmDB9ijm0No5+iZ1bl+n9E8OjojyfZ9ff88wG7pnno+p369gdf6E8NAAAAAIA/UecL3wUHdaTElP3v1eREX1WTiJG6s78paw5p70lflc9BLXthj2InTNWMMfGqv5Cplx7/ptY0Dk8vX69vTHlcyzOrlXDvDM2YMFC1mcv1+IIf62jLXJv3qv5pZbmSzXHGDAjQ5bNv65nvrGnTy35Sb/7eit6jNfvxBZqUZl6e+r3ebHU9Vzv5s5ma8fy7yg29QzNmzNCdEef07vNz9fVVVroP0h3P/5PmhklFbyzVq6aqfM2/6zWT6IPv+75+MCXIdxAAAAAAQJfU+cJ3eYUqrdIVpEC7oqWhGjLIKqtU0Wred5Qe+Z8temvZMi17a4t+NTvYBPSt+h//ZOy8lb/WJnPQ2MXLtf4V0+aV9Vq+ONbaoZcyWkTr4Nn69e4NesUc560tP9Z9psp7eK/2+/b6HHhLf7C6udMmaWpEvObNstJ3nv7wVmOPdTs8m/SfK3LldY3WD9at1jJz/NXrfqDRrhpt//V/mzhvBE3RD/5+tFzevfrZC0v1k/+9VTWuND3zo4Utev8BAAAAAF1R51xw7aaFKjq6sXc4SNMfmioTv3V83x7zb4EyNls91f0159F7zF5LkO4ZbYVmr7KPZdk1tj4JGtB0GH/4L7mgC3aFz4G1G1VkyrRZ8xRvyvhJ42V10BdtXKtrxu/tG7S1xpTjHtHixiQdPVojrV78vBM65s//0Y//VM+muVSZsVyrzUkSv/qv+nrb3n8AAAAAQJfT+cJ3RLjCrNLrUb1d0dJp5XxqlaEKj7Ar2hcXpz7+l1K5Kuyu9PN6eZ41h9q/PbvV3nv+kxy77JjdejvDit6JGj/Jit7G0LmaaafvDL2921d1FXMBVvbW9uc1pPH8SbO13J4o/qlyz1ilJVFPPJbufz1Cf7XkDv+PBQAAAACArqzzhe/4ERoeZcrzH2tr21XMyvdovxW+g+/S6KG+qnYVFuqS/6VJ8wq303yUJvzti3rxxTbbU9aSaR30wVtaa81HV56Wz24boku09q0PrBdXMxdg9cRryJevPv+Lz2u2P8dbj1j72fKd/jcH9csffcGrugMAAAAA/iw64bDze/SVhVZX8in9zw/XqHmx8cs68H/+S7u9UtjUufZ87GZVKi5ujKke7X5/t93TnHb3GPNvvNJHxpqyXMXdRunhRYu0yN6mKrIhUlPHdXRct0eb/rDFPm7Y4An2omlN24TBdm99zZY/aFN7aXnUaA13mbKgWpFzG8+/SA+nBiggdaqG+Xvx8/77H7XSBPnYxS/oSXNZle/8i35+g4XcAAAAAACdX6ec8z302V/p6SSXKrc+q3Hpc/XEkic0N/0uPfJqnlyRM/WTH05pMxy7RKufmqpHlyzRkken6qtvFpmEPF1PP+brUh75N9/V5DCvjr80W1MfNW1Mu0cnjtM3vvcP+pfN1XabG/Jk6LfvWdF7iJ76r1fsRdOatlf+S08NMbtqtmrd1nbSd8SX9Q9fT5KrMkPPjJ9lvo+5hidm6Z6Hn9c/Pr9cZ602xa/quZ8flzd4sr77ncf1/D/NNYE+T//9nWUdeIwZAAAAAKAz65wLrgXdoeff3aj/+Kt0RVed1LaN23SyKlrDFvxEGTt+rTlXzffur4eeHqOibVu0cU+BAvul67nXf9XcLnq+frPxZT2dHq1L+zdq48YtOuoZqadfztC/TwvxN7q+8t/9Ttu8kuuer+irV3WWJ+qri0ebskbv/TajnaHi1qPE1injJzOV5Mkx38dcw6589Zluvs/b39RAXdamF36mvV6X0p75Z8031x005Qf6+9EueY//Wj+wH0cGAAAAAOiqun1m+F93SWueStKzWxP1dMaHev5688ABAAAAAPiCdM6ebwAAAAAAbiGEbwAAAAAAHNblh50DAAAAANDZ0fMNAAAAAPiceFRdWt1mkeqO1nVt9HwDAAAAAD4Hhdr401/ofXeDAmIm6ZvPzlKCq6N1/kN0YfR8AwAAAACcV3hQB02gtjS4j+hI0U3U3QII3wAAAAAA58WN0IgYXwQNiBmu4bE3UXcLYNg5AAAAAOBzYs3lvqLukSEK8td0vK5rI3wDAAAAAOAwhp0DAAAAAOCwTtfzfXHn77ThVLUihy/Q/FHhjbXa+bsNOlUdo1GL52h4T3917vt67aM81fdL1+MzU+WSVyUntmnb0XyV19SrISBQwREDNfL+cRocZi2Pl6X3VuxSoe/T7YjT2K89oBT/uybuTK3ecEKVDaFKmbNQY2P89Y28lTp/dJ/2nPBo6GPTr/p8Td4ufbDrjIrbvSYfb+Vp7Xx/n3JLa9WgAAWF99fIyZOVGtViWT9viU5s3aoD5yvkaQhQYFhf3THuft0V33IgRo3ydn2gXWeKVVNvjhQYrIiBI3X/uMFqcTp5Cg7p/Z1HdbHSf03Rt2vslLFKDDY73bu0an2WqnxNrxaaojkLx6rtbQAAAAAAtK/T9Xz37dPbvqjKsku+CktFvoqqrRelchfYNbZid6nqTRkZm2CCt4mdWZu1IfOsyr2hik1IUEJkd9WWntGOtR8q12t9ItxX33brG6ZAszfAHGeg1ayVGh3JzDLB2/+2BW9dkU5tX683X1+tTQfPqqyunUYmuG/YmiV3rUvh/cy5onu0uSbDm6+PM3boTKlXoVabfuEKqDqnzA3vK7vW30Zl2r9unTLPVSkgvJ+57mj1qC7Uwc0Z2l/mb2K4Mzdoa5Zbta5w9TPfLbpHrUrP7NDaD3PVeDrVHNHGzQdVWN1dkdb3t67JnaWtGzLltvb3iFZcy/vTuEX1sj/eq9+XCN4AAAAAcBM637DzftGKMEV9qVvFvhp5C9wqt1/Vq/jCRfuVxV1aaf7tqai+Vg+5W4ePFspjPp066yHNnDZN0+bO06hY8xU9+TqTY30iXiOt+jZbWli9OXKg+qcMNUdrrTZrmw77l7lv6/TWDO08U6z6kN4Ks9J7O9xn8uzgHpE6Sw/NNOebM7fNNZnvd/qYPrlsvsltEzTfajPzIc1KNXfBc14njlf4GhUc1elS6zl3IzT/oZnmuudowfgBCmwo1Yn9ub425h6cyatUQ4t7MGfuKPlOd0b+08l9+JSsrxR954Oaa92DOQs0fkCgGiqzdcQ6VHiyxre4P77tPsUF1pmdERp0R7x9HAAAAABAx3S+8B3eV1FWAq4s0UV/V21hUakJlKEKDZWqi/Lli6MXVWK/6K0+cVbpUY/eCUq4PVWDe1vvLT3VN8oaR92ghvbzs0m+OTpx1iTfXgOVOqjFuGyLN197DhWqITJRA8y524oePEZTH35Mf/XIePVvm9rbCA5rvKieiom0epCbr+mS+SLWy8h+iXYPvqV3Yj+FmLLU39XvLauSuUoFR8fJ+kYW16BE9TV/wfriC+ZutBSs5tPFyHc6cz67wiu3OZbM/Yzp33QkDYzvY8p6lVy0+76vVnZU2UUm/Mcm646m+wsAAAAA6IjOF76VoH7R1mVVyjfyvFjni2pNMk1SSlSgVF6sC1Z1rQnf1lD0sCj1tROrv1f7vhQTxxvV6LzbCpq9FNI4fbyN2pNZOl8vRQy6wxyhNfeeXcq53Eu33T3MDsJtxQxK04CI6y98H9U3yl4a333mgC55TPStPKGDuebCA2KV4B/jXlphfZFQRUT73tsCuqmbVVaV2yMAXOa9pd5j9T43ilCoFayrK1Rqvzf3Iso+m84cuCSPCdqVJw7Kd7rGIfUlKrcnc4cpssXY8cbj11T6jtRWwdEclV9jdAAAAAAA4Po6Yfi2Rp5bA8+rVXLRhO7a83JXSiEmPKb2j1FAgwnf+WZ3gdsOnD1j+6tlZm2pJmubjpnkGhCTqlHtjpQu09HsIjWYIJzctju35ogys6sUGHeXxiT88bfJlTRJs+6OVYD7sNa9vkKvrs5UYUOEhk6brmEdSbGf+Xus/cPxaz89pAN2iq9T0aF9drBu5lLSpFm6OzZA7sPr9PqKV7U6s1ANEUM1bfqwDoXmhvaGCFxvdAAAAAAA4IY6ZfgO7xtlB0V7yHXeBRUrUNH9+soVH2MCaK0J5RWqKK20F1vr7RtzfhXvxV3aYIKnJyhO6VOGNw3VbqXgqHLKpcD+KRraKpnWKmvbYbkVqdR7Uv60nt6a09pzuEhXAkIUYy1aFhOiAG+5Tu0+0DSsvkN6j9S9qREKqHfr8LrXteLVN5RxzN9LHRDQ9IesOb1Hh4uuKCAkxl4kLSYkQN7yU9p94GLzgms36XqjAwAAAAAAN9Ypw7fiYhVprsxadO3YhWI1qI/ivmTqwxMUG2JCeVG+CoqtJdjCFOUbc95aTZY2b85SpdmfMm2aUtpN3iZgHzmry+qlgamDmuZaW7y5H2tfYb1Ck+/VqD9pfrNXOTv3qtATqAHjF2iONSx+zgI9MCRUDeVZ2n3Ev5ia7TOrk/tq3RqDtUt90+fp0dkTNWbMGI25d6oeXjjS1+sfEuErvTnaubdQnsABGr9gjr1Q2pwFD2hIaIPKs3ar1enM+RraSeMBJsi35tbBk9cYHQAAAAAA6JDOGb5d8YqxR55fUE6JNd87Vgl2Ou6rftGB0qVsZZWbpBoYqZi2Y85r8rRtQ6YJvEGKS5+lse2Fc0vZUZ0wAVsRg9R68e4rOnEyTx7zqiprvVasWGG29cqy50lXKWv9Cq3adY1Fya5SoqJSq38+SnGJjddhQnRUmCkbVOa2Z68rMtyaUV6tipbTrRtMGLfKUH+wtrnUIzZJaWlpSkseoND8AlnT4puG3pcUyXe6ODWfrq98pyuT73RRirAXj6tSeYlV+njN+SzBYZF22cibc1hnzHe/enQAAAAAAKCjOmf4VrgJqCbpNZSoxARSa75343ppX4rrY3WJq9QKw33iZHWIN/Fe1K4NW5VTKYWlTNO09ru8bb4FxAIUm3xHiwXaLN0VHdfi2db21tf/KLFAhfVNUFx0D7vljYUpxH40dokK85q7mcsqa+yyMej2iQq3/xDu/JymoeFleRdMHDfBPKb9gd7Wwm2bd51TfUCkkocn+CrDQuQ7XaGaT1cm3+mC5TudSzG9rfRdpcKzjQ8I9+psgRXjAxXVt+UTvGt1Muu86tsZHQAAAAAA6DjXC4b/dacSUp2vw+ethB2ouGHjlOTvkA3oUaFPT140sdBkzcRRGpbQGLBrlb1lvQ5eMqmzR4T6BJXqbG6uchu3Qq9iEqNlx2ZvjjK356giIEGjpiQrqs1PEGFxgzRoUMutt8qzs3XpSrCSJj+oexPbhu8a5Z+w9odpwIjbZT20yydQEXLr1LlylZ47o/PuAn2afUSHz5bL2y1SKeNHKb6n+U6RYarJOS33pXM6c96tghx/m8D+GjUpVVZnv0+Fsnds054D+5R56KwqvEGKumOiJiSF+n5FCYwwCf6UzpWX6tyZ83IXfKrsI4d1ttyrbpEpGj8q3p6/HhLdTRdOnVdx0Sc6W3hB+acO6HhhnbqFmTb3JjSv7F52UDv2X1RdRIomjunPKucAAAAA8EfqpD3fkishVnbeDohR/5bd2/5531awjWw15rxSxeXWYHGjrkwF+fnKb7kVFqvxIV01x0/aC4j1Gpgqpxfv7pl8v+ZNTlFMzzoVW9dxoUINoQOU/uCDzfPJXX01bvb9SonpqbriFm1m3a/kVonXHKMwXxfM9+wRMVBjHlykeaP6tuiR7qnk++dpckqMetYV29/7QkWDQgek68EHRzX38AenavrsdA0IbVDFBXO+4jr1jEnR5Fnpau739ir/yLVGBwAAAAAAbka3zwz/awAAAAAA4IBO2/MNAAAAAMCtgvANAAAAAIDDCN8AAAAAADiM8A0AAAAAgMMI3wAAAAAAOIzwDQAAAACAwwjfAAAAAAA4jPANAAAAAIDDCN8AAAAAADiM8A0AAAAAgMMI3wAAAAAAOIzwDQAAAACAwwjfAAAAAAA4jPANAAAAAIDDCN8AAAAAADiM8A0AAAAAgMMI3wAAAAAAOIzwDQAAAACAwwjfAAAAAAA4jPANAAAAAIDDCN8AAAAAADiM8A0AAAAAgMMI3wAAAAAAOIzwDQAAAACAwwjfAAAAAAA4jPANAAAAAIDDCN8AAAAAADiM8A0AAAAAgMMI3wAAAAAAOIzwDQAAAACAwwjfAAAAAAA4jPANAAAAAIDDCN8AAAAAADiM8A0AAAAAgMM6Yfg+qaWTkpSU1GIbMlwznvylPrzg8bdpo3iHfvnkDA0f4ms/ZPgMPfnLD9W6eeNxJ2npSX8VAAAAAACfg07c8x2s28bN0IwZMzRmoHT2w5f05MQH9bOjbQJ48Ro9NeVxvfRhrrzRwzRhxhj19+bqw5ee1MQHf2EiNwAAAAAAX6xOHL77aPr3lmnZsmV6a+MR7fz5ZIV5svXrv35Bu5vyd7nWfOf72lrpUtLTv9ehne/olWVv6YNDG/V3w1zyZP+HvrMsz98WAAAAAIAvRpeZ8x09/+f6zj0uqWit/t9Wf/ouX6s3t9ZIwQ/oO8/eoSBfrRSUpG+98Jhi5dXxDRkq8FcDAAAAAPBF6EILrkVo8n0ppqzRoT1Zvqr9B3TcKkdN0OSm5O03coTSrPL4Pu2xKwAAAAAA+GJ0ofAtxcfF2uX5T3LsUhWVJoobgUHNvd5Nhig50SqrVFFuVwAAAAAA8IXoUuEbAAAAAICuqEuF74LCIrvsf9sgu1R4mIKtst6jqx9ClqNPzltlqMIj7AoAAAAAAL4QXSh8l2vrdmuut0vJw6y538aokb553fu3qXENtiYH9uqQ15Rpd2uMrwYAAAAAgC9ElwnfxWue1b/tNmk69sv669n+Gd4R87R4crBU857+7edHm3u/PRf05i/eVpEJ6mmzZiveXw0AAAAAwBehE4fvS9r0kyVasmSJHp0xXOOe3arKoGQ9818v6J6m1dUiNP/ffqzJYV7lLn9Yd0151LR/VFPuuk/f216joORv6t+W2KuuAQAAAADwhenE4btGn+zcqI0bN2p/fqAGTvq2Xv5onf7+jjbrmkfP1/988La+NzNJrvN7TPs9Ou9K0qRvv6yP1v2thvqbAQAAAADwRen2meF/DQAAAAAAHNClVjsHAAAAAKArInwDAAAAAOAwwjcAAAAAAA4jfAMAAAAAPiceVZdWNz8m2tbRuq6NBdcAAAAAAJ+DQm386S/0vrtBATGT9M1nZynB1dE6/yG6MHq+AQAAAADOKzyogyZQWxrcR3Sk6CbqbgGEbwAAAACA8+JGaESML4IGxAzX8NibqLsFMOwcAAAAAPA5seZyX1H3yBAF+Ws6Xte1Eb4BAAAAAHAYw84BAAAAAHBY5+759lbq/NF92nPCo6GPTVeKv7qRp+CQ3t95VBcr69UQEKjg6Ns1dspYJQb7G7Th3rVK67Oq/O+uFpoyRwtvP6NV67N0zVahKZqzcKxi/G8tnkuntG/fYRVGTNbDY5v3ZL23QrsK/W/aETf2a3qg1Zfyms+8rl01qXro4dHq7a/9wrgztXrDCVXHpmvRzFT19FdfW62yN63Wx+c91pfT15q+nFeVZ/foo8wzKq4xfysFKCi8v0ZMnKi0Pr5BJB2+V94TevfVTF3wVbcQqpQ5C9Xi9gMAAABAp9Epe769dUU6tX293nx9tTYdPKuyOt9Kd63UHNHGzQdVWN1dkQkJSojuoVp3lrZuyJTb36StHtFxSrDattmiell7e6nfl0xy6xGtuHbaJPgaqVe/L/mDt0fl5w5py+rX9Ma6ncoqrDYRs7Xw2HaOk9BXYYFmZ0CsEgb62jWpPamciw2KGDD4iw/etoCb+g/izd+jA1bwbsOb+6HWbs2Su7aHoq170C9cAVXntCdjo47U+Np0+F6VlNs/jASG9W3TNk7mvwAAAAAAdEqdsufb1wsaYAJWuHpdLlNlfZzGfu2BVj3fjb3Y0SMWae5dVle3Vzlb3tC2c1LixL/S/Um+djdUe0wZv92rorBh1+ltrtWxjN9qb1GYhj30sEZbjdy7fD3kAT0VGdpNpRWXfT3nN+p6LdiutzaekWfABD02dZBaPq6u9liGfru3TqmN5+hS3Nq1ar2aBha06PnO3rRSH58P0IAJj2nqIN83bvz7RQ5foPmjwu26q7R3r3Lf12sf5alnR+41AAAAAHQSnbLnO3rwGE19+DH91SPj1b/dsc5eucuslBeqmP6NY8xdGhjfx5T1Krl4rb7vq5UdzVZRQ4Bik++4dm9z2VFlFzUoIDZZdzQ26jFAaRNn67GvLNb8tI4mZa9yTpzVZfXSwNTWwdsK+Gc+vaSGiAEa7D+c9SPEihXvaPfxrVr92krzeqVe++167S1o07tck6dd63+r11Za7VfqzfW7lOfvUW7kLTmhLW+/rpUrTJuVr2n1lhMqaeqqz9J7Vv2qD7V36+/sNu9lmWrrBwa7ftc1RxM0qjmSqeyqICUm9vPXNLqihPSHtGDBQ7pvYPM3DgvxjSTwXKmzy6td415d8Zi/sPl8JMEbAAAAQNfRKcN3zKA0DYi43oLyJSq3e1jD1DKDuQK62WVNZald3liBjuaUS4H9lTL02jOaC47mqFyB6p8ytHnec3iCUpNi1aN1gr6+2pPKOm+iY8Qg3RHvr2tUe0afXmpQ5JeGtPkRoFgn97nVs1+8EmJ6qaHGrWPvv6+sWv/u2mxt+r157/Yo2Bq63S9UXneW3s/YqYuN4dqdqT+sy9Q5E47tIfqR3VV9LlMZm06oVUav+kTHzl6Wq2dP9bCGe3dUbZa2HTbxPGa4xvb3/Q2adVdwRLjCw0Ob7pW38qz2ZBeb/31hSrz9GiH6GvfKXVppl5cOXv/HBgAAAADoTG7J1c4bGtqZI94Ob84JmaypXgNT5R8NfTVvjk74Gin1mo065nq97LXZZ82+SA0Y3HYIdk/dNnmB5kybpmlzFmj8AJOK6wuVdbzC3lt29Jisada9Bk3S/Jmmzcz5mjSolwnSp3XwtJW+vco5nK1Kc96YEQ9qrnWcuQ/aD62vv3BcVmZuYsJwyqyv6CuLF2vy7f66G/Iqf88hFdaHKjl9uK6x1p3NGmq+YsUKvbp6q3JqQjVo4iylXyN7X+te1dT6esq9rhD1i09QTIi5dzeY6w8AAAAAX7RbMnx3TK1OZp1XvSI06Kpu6Ga1J7Pk64C9Q9du1RHX62WvVXaeiY6RA3RV9lagevRqDP0uDUqKNzVSqbvA/FuhnPPmmApR4pAE/9BslxJirbjaoIqSS6b8VGcLrYHasUpKa4zGwYqLtl5XqczdYpm44P66ve9N/sDg3qNdOZcVlDhKY24wErxpwbt+vdXjswp9snOHstrtsb72vfrS5MV6bOEiPfblOZo2bZrmfHmhRsUEqKEyW0dy/Y0AAAAAoJPp4uH7MzW0XWLcCAjowNdyH9TJtvO4r+LWwZNFagiIVfK1G3VIbdaRa/eyVxxXrjVqOylN11h6rFlYcItHftVZU6CNap3aYA3B9m/+Z3ZVV1jD76/IY2VvXVDmq81tGh+5VlVeYpd/nDLt/zhbVYFxuvvepDZz2K8WnjzeDszTZj6k+XdGq6HuvA7tt35EaO2698qcpUdosJonJTT+kFCvUnexrwoAAAAAOpkuGr6jFBFqlVVqmR29Db6F24PDIu3y2qyh2GfMp9vM427Dm3NYZ0xGDeyfoutMCe+AMh09UXjNXvaK0+dUqhglJnfgJJU1apzuLfVQdzuF9lS/YWM0ZkybLc1a/Ky7guz5272V1Ha/2e4aFGbt/OMUHNXp0gZ7GPyuN1sHfxXuMu/fU5a513VVFaqoqFHLZeKC+8fI+hNervYNn292vXtVpnPHj+v46aIW9wAAAAAAOr8uGr5diultRbcqFZ4t81WZkHe2wBpmHaiovjcY/9y4mNd153E3Dktvb2Xym2RCqjWKuv1e9gqdPldq9g1U+9m7XnWXG7v3vcrPd5saKTLGCqbhiou2Vg2/ojrFKSUtTWn2dpuJ4z112wDrZPHqG2X9mavl6Zns32+2lD7q1q2PkmL/hF8VQts+a9ts/uehq1eUeR9rrrBax7a8rbfffke78puHKdScd9vP6+4ZbP+K0uy698qj/BN7tGfHDh1t/LOrRoXF1tj1QHNPon1VAAAAANDJuF4w/K87oRoTtrJ16UqYBoy4XdaDxBqFRHfThVPnVVz0ic4WXlD+qQM6XlinbmEpGn9vgkJMG2/u+3pjzUc64g5R8qBoe660pezgDu2/WKeIlIka0/6zzKxG2rH/ouoiUjRxTP9r9o7bLp3Rofwqde9jwu0A68wteZWTuV05FQFKGDVFyXYQbqHsiHYfvKTw1AlKjW29xPilM4eUX1Wvsk/P6Ly7QJ+ePKAj+TX6LKi/Rk1KVbRpHhYTqIvZ5+S+cFpnTKAt+DRXJ/dn6uTZQlVGDFFSZA9FR1xWbk6R3HmnfPfqbLaO7DmsnHNFavjSUMX3uqQzh/JV1b2PktMG2PfOVpOvE9mXdKWx3pur999Yo4+OuBWSPEjRIdFKHDRIg1puyrfvhWLu0oIZdyhMPdRbF5WdX6pLZ/3fI/uIDuSWytstUqkTxyi+6ebe4F6ZK4t2Wce6pKJPzqrwQr7OHDmgnJL6Vn93AAAAAOhsumjPtxGcqumz0zUgtEEVJoTlF9epZ0yKJs9KV2O/t8sVaM//DggKbJ4j7M3XEV/X6nXmcXuVf8R6vNgNnv/dETXHdfI6vexlp8+pPKCPvnT7teJ9iAYOjVHthQLluy8rIDhGw6fd39xLHpyiafMmKyWmp+qKzX3IL1DpZ9FKmfygJiV1t5u4+o7VvNljmu9VfpGqe/TXmNlzdPeNRui35HIp0LqfAUEKvN6T4NoITpmmWekDFdmzTsX55vxFVXJFDFT6gw9qVMube4N7ZWk8VoSrSkXmWBcqGhQaN8Lcg+a/OwAAAAB0Nt0+M/yv8bkr097f/0EneozWotnDrupdz3pvhXYVhiplzkKN/SKSpXuXVq3PUlVYquY+ki4GdQMAAADAH6fr9nzfEnpr9MNf01fbCd5frApl79isd7fl2POyAyNjCN4AAAAA8CcgfKMdHpVesIZ0exUYNlDjxib56wEAAAAAfwyGnQMAAAAA4DB6vgEAAAAAcBjhGwAAAAAAhxG+AQAAAABwGOEbAAAAAACHEb4BAAAAAHAY4RsAAAAAAIcRvgEAAAAAcBjhGwAAAAAAhxG+AQAAAABwGOEbAAAAAACHEb4BAAAAAHAY4RsAAAAAAIcRvgEAAAAAcBjhGwAAAAAAhxG+AQAAAABwGOEbAAAAAACHEb4BAAAAAHAY4RsAAAAAAIcRvgEAAAAAcBjhGwAAAAAAhxG+AQAAAABwGOEbAAAAAACHEb4BAAAAAHAY4RsAAAAAAIcRvgEAAAAAcBjhGwAAAAAAhxG+AQAAAABwGOEbAAAAAACHEb4BAAAAAHAY4RsAAAAAAIcRvgEAAAAAcFgnDN8ntXRSkpKS2mxDhmvGk7/UjmJ/sw46uXSS/fmn1vgr2rPmqabzLHq13F/ZWvmri5raXPdYHeE/36SlJ/0VAAAAAIBbWSfu+Q7WbeNmaMYM3zamX51Of/iSHp/yDa1vPx//WezNWKurD1+utRl7/a8BAAAAALg5nTh899H07y3TsmW+7a2PdmrpfcFS5SYtf6PA3+bPy+VyWelba9um7/K1srK3vR8AAAAAgJvUheZ8R2vhQ+n2q+P79thle0PKG+vaDumuP7ZMi8elabDZNzhtip7LuCCPf1+j/hMmKFF7tapNuC94Y5WpTdSECf39NS0Va8fSxRqXNtg+75D0xVraZmx88Y6lWpw+pGn/smP1/j0AAAAAgL8EXWrBtfKKKrt0BQXa5c3Y/vJLKkicoKkTUhR+5aze/tZ8vbC7TfxOflAzE02437BWzfG7QGs3HJcSZ+rBZH9Vk3Kt/8YUPb48U9UJ92rGjAkaWJup5Y8v0I+P+o998mda9LXlyiwJVcqEGZpy20X9x8rtvn0AAAAAgL8IXSZ8Xz63Vt//T2vetUuj77vPV3kThnx7sz56a5mWvbJBm34w2hylSGvfahuCh2jxw0Os9K21jem7YK2s7D3k4cVmbxt5K/XrTZVS7GItX/+Kli17ReuXL1as8rTypQy7Z/2D5SuU6zWf/9YftOEVc/63PtC2747wfR4AAAAA8BehE4fvPC2f3bzaedrEv1NGkUuR03+qX/2vCH+bjotPTPS/kqLnzdZIU9Yc2quWg9OrKsqVOH+mCdnHtcGfvgvWbjDvhmjm/EQVFl6y6xoVZGzWKVP2n/Oo7gny1QXdM1pppvRmH1OWTuvgsRrzLk1zH2lx/uje/lcAAAAAgL8EnTh8t17t/OGnv6//u26/dv9mvqL9Lf5oEeEK9b9sqeTCBZn0rZlW5/c7q038z9Pqd46b7DxXVnauqLSCdLPyikq7PP/yvKYfCZKSntVWu/IT5ahe9fb07ljFxVslAAAAAOAvUScO361XO//355/U1LRw+TuY/zTlFfLNHm9Poh6Zmyadeldrtq/Ru6dM9p41T+1l54jwMLuMmvC3evHFF9tsT2mkAhVoT08vUqEzC7QDAAAAALqALrXg2rVYw8V9PCoubj9WF+Tl+V9JxWszdMCUwXeN1lBfVSvx82YpTaf0xnNvmH9Ha+Fj7Xdbx6ePVKwpy4u7adTDi7RokW+bGtmgyKnjTIwfrHvTo0yLLH24pXkF9Lw8kjgAAAAA/CXp0uF76NjRsvqe9/5krh5dskRPzB2vp1aX+Ha2ceqlaZr46BIteWKWpv9or7wmNs979BoLt8U/poWjpaKiImn0bM271hTzkX+j704Ok/f4S5o99VEtMdew5NGJGveN7+kf/mWzqk2Te55+Smkur/b+aLpmPeHbP+0la6Y4AAAAAOAvRdfu+Z7wL1rx7XTF6Jz2bNyivVV368d/016g7q/Hf/Jtxedt05ZtWaroPlALfrVGLzSuknaVCM2bbdK3XLpn7jzz7lqiNf83G/Xy0+mKvrRfGzdu1JajHo18+mVl/Ps0hVhNEpfolRVPKz2qSlnbNuqDT+L1zA8fM1cEAAAAAPhL0e0zw/8aAAAAAAA44JaY8w0AAAAAQGdG+AYAAAAAwGGEbwAAAAAAHEb4BgAAAAB8TjyqLq02/7bU0bqujQXXAAAAAACfg0Jt/Okv9L67QQExk/TNZ2cpwdXROv8hujB6vgEAAAAAzis8qIMmUFsa3Ed0pOgm6m4BhG8AAAAAgPPiRmhEjC+CBsQM1/DYm6i7BTDsHAAAAADwObHmcl9R98gQBflrOl7XtRG+AQAAAABwGMPOAQAAAABwWOfs+faW6MS2bTqaX66a+gYFBAYrYuBI3T9usMJarHJXk7dLH+w6o+KaejUE9FRk0t1XtWnJnblaG05UqiE0RXMWjlWMv14Xd+p3G06p2v+2WZzGfu0BpfjfWTyXjmvHjuM6X14tT3Cb4xitrylQwREDNfL+cRrc4qK8JSe0desBna/w2G3C+t6hcfffpfhrjKe45nUDAAAAALqETtjzXaOszRuUebZc3tBYJSQkKLJ7rUrP7NDaD3Pl9bfy5r6v37+fJXdtD0WbNv3CP1N5mzat1BxRZpYJsP63rZRW2MG7V1SCfb7mLVbhvha2mqz39Nt1e3S2vE5BEf2UEBetHv59NnemNmy1rsml8H7m89E9VFt6RjvWfqjcxosq26916zJ1riqgqU114UFtztivMn+TVq533QAAAACALqHzhW/3YR0t9EgRqZr10ExNmzZNc+eNUqy5Uk/+GeXYjWp18mS+POqlQfcv0BzTZuZDs5QaYdrkHdGhCrtRC7XK2nZY/tXqr1JRXWuXvYdMs8/XvI1UvL3HMKF5U2ahPEFxSn/4MS2ab65tfHKrcO4+k6dKc46I1Fl6aKb5/Jy5GuW7cJ3xXbgKjp5WaUOAYkbM97dZoPEDAtVQekL7c31tml3/ugEAAAAAXUPnC9+eHuqdkKDbUwert79KPfsqKtiUDQ3+HuByE5itV70V2/S09d5K6h9mylIV5bfu+/bm79GhwgZFJg5QqL+upborJuybPRHRvvftyd1/woTmQA0YO02p1xrX7hcc1njlPRUT2cuU5rrtC/eqrOqyKYMVHWd9IYtLgxL7mj9EvYovXPTX+dzougEAAAAAXUPnC9/xI+1e5/tSmqK3VHNe7ipT9grx9zQHqFs3q6zXFV+nta13WIhdVpWX2KWPW3t25ehyr9t09zDf/raKy62D1+qTD17XyhUrtGLla1q95YRKmjL8RV0orpcC+yi46F29udK0WbFSr7+9VTk1/iZGVN8oexl895kDumTyvLfyhA7mVpvLjVXCQKuFSwH+6/bUWaVfRKisiF5dUep7b7vxdQMAAAAAuobOF76vUqOsbcdUbC41JnWUfxh4lGIjA03p1qndZ1VpQrKnPFcfnyiy97ZUcyRT2VWBirtrjBLa/bbVumwH4Qape7TiE/qpd1CDKs9lasP72SaSW0pVYU0Kr7+gU9k1CotPUL/eQfJWnNWODZnmKnxcSZM06+5YBbgPa93rK/Tq6kwVNkRo6LTpGtbT16ZfdIT5t1afHvIH9LoiHdqXe9Vibze+bgAAAABAV9HJY51XF3dtUGahR0Fx6ZoyvMVQ7XGj1b9HgKo+2arVr67Q67/frrxa39fpFuD/WrVZ2nbYROPIVN2T4k+/VwnRiHlf0aKFj2qRPcd8ph5adL8G9TKB/vwJHW85fzwgRqMWfrnVHPOGymwdaZyrXXNaew4X6UpAiGKsBdtiQhTgLdep3Qd00d+L3nvkveZzAapvDOhvZOiYv8M74KauGwAAAADQVXTq8F2TtVmbsyqlsBQTilPUGL1twSmavnC+pt47RmPGjNHE2Y9qSpK19niAwiOtydte5X68T4X1oUq+d1Tz/PF2BSk4tIeJ9H6uBMXaHyhX8QW7xic4Wk1Ttc0RB8ZZM7HrVeouNqVXOTv3qtATqAHjfYvAWYupPTAkVA3lWdp9xJ/iXX2VPu9RzZ7ou+57pz6shSN9k81D7EnnN3PdAAAAAICuoNOG75q8bdrQuLr4rLHq294aZ0ERGpCcprS0NCXFXtb5C9bg7Wj1SzTFlRM6mWctpFalrPXWHG2zrc8y76yqLK1fsUq7rPHitUU6ffy4jp9r90FffgGyO6XrPWo5VbtRYKA107tERaX1poxSXGLjxbrUN8paBK5BZe4WKd7VQ7FJvutOHhCq/IJLprKnYvub8N3R6wYAAAAAdBmdMnx7L+7Shq05qlSYUqZNU0qrLu/2eFSwc4tOlJs8npiqNGukdvdoxbV6ZrfZ+obJmimuwDD1TYhTtNVRHlSinH17tOfDfcppXGDNm68iO4tHKLqfVSYqvo+5VbV5OtX0wO4anfetAqfoOGsZuDCFWKummRBemNe0UpvKKn0rsgWHRdpla15VntisXefqFRCZrOEJpqqj1w0AAAAA6DK6fWb4X3cOtdnatPpjnfdIPXrHKya09e8Dvb6UrvHJ/qdrFxzQ5uMFqrhYrApPgwKCEzX+wfs16Fph3b1Lq6xJSyQ0AAAUZElEQVRe5NAUzVk4VjF2pTWv/A96zxreHhKj+MgeqistkLu6QUH979Uj05Nlz7p2Z2r1hhOqVIhi4iPlqnKbgF4nxY7WwtnD7CHxtdmbtPrj8/JYc75Nmx71VXKbFF+nSA2fN1+jGseQV2RrR2aOLpVcUnlNvRqCojR82hyNard732j3ugEAAAAAXUXn6/muLFa5NeraqCsrUH5+fqutsLjFwO+KIlNXrJpuoYobNlkPP3Kd4H1NLvUdO0uTh8Up9EqxfY7iup6KvH285t3vD96WmHTNmzZCcSF1KjZtLlQ0KHRAuh58wBe8LT2T79e8ySmK6elrk3+hQg2hA5T+4IPNwdtSV6zC/Avme/ZQxMAxenDRvGsHbwAAAABAl9f5er4BAAAAALjFdMo53wAAAAAA3EoI3wAAAAAAOIzwDQAAAACAwwjfAAAAAAA4jPANAAAAAIDDCN8AAAAAADiM8A0AAAAAgMMI3wAAAAAAOIzwDQAAAACAwwjfAAAAAAA4jPANAAAAAIDDCN8AAAAAADiM8A0AAAAAgMMI3wAAAAAAOIzwDQAAAACAwwjfAAAAAAA4jPANAAAAAIDDCN8AAAAAADiM8A0AAAAAgMMI3wAAAAAAOIzwDQAAAACAwwjfAAAAAAA4jPANAAAAAIDDCN8AAAAAADiM8A0AAAAAgMMI3wAAAAAAOIzwDQAAAACAwwjfAAAAAAA4jPANAAAAAIDDCN8AAAAAADiM8A0AAAAAgMMI3wAAAAAAOIzwDQAAAACAwwjfAAAAAAA4rBOG75NaOilJSUlttiHDNePJX2pHsb9ZB51cOsn+/FNr/BXtWfNU03kWvVrur2yt/NVFTW2ue6yO8J9v0tKT/or2eS58qF8+OUPDh/jOO2T4BC3+5w3K9fgbdFpr9JR1ryYtNX9NAAAAAEAn7vkO1m3jZmjGDN82pl+dTn/4kh6f8g2tbz8f/1nszVirqw9frrUZe/2vPycnf6EHJz6plz48q15DJph7MEFDel1U5mvf1IyZP/uzh9oO/UgBAAAAAPijdOLw3UfTv7dMy5b5trc+2qml9wVLlZu0/I0Cf5s/L5fLZaVvrW2bvsvXysre9v7PRbFefeE/lO0J1n0/+Ug73nnF3INX9E7mTr0w2iVv7m/0o//n4C8QAAAAAIA/qy405ztaCx9Kt18d37fHLtvrrW2sazuku/7YMi0el6bBZt/gtCl6LuOC2o7e7j9hghK1V6vahPuCN1aZ2kRNmNDfX9NSsXYsXaxxaYN9Q8PTF2tpm7HxxTuWanH6kKb9y47V+/dcQ8HvtGqvV4qapyWL+ynIX23dg8WPjDOlV3u3b/dVGZ7cVXpmxnANMcdPGpymKc+sajE0vXEI+At685eN1zlYaVOe0yb7Mn37Zy/Ps1tvfbZ5uHjjvfzqj5dp4SjzucZh5J4Lyvinuc3fefgMPbMq96r7CQAAAADw6VILrpVXVNmlKyjQLm/G9pdfUkHiBE2dkKLwK2f19rfm64XdbeJi8oOamWjC/Ya1ao7fBVq74biUOFMPJvurmpRr/Tem6PHlmapOuNceGj6wNlPLH1+gHx/1H/vkz7Toa8uVWRKqlAkzNOW2i/qPlc3BuV179smcUbpztO6xK5oFLVyp3Nxcnf7NHF+FOf7MGc/r3dxQ3WEN0b8zQufefV5zv75KrX4CyHtV/7SyXMkTpmrMgABdPvu2nvnOGhOYR+qpF1/U306IspsN+fKLevH52Yq33/lsf/mnOlQbpug+YQq0vvO3Zuhbr5sYPvLr+v73/0qp3U7r3ecf0nMfEL8BAAAAoD1dJnxfPrdW3/9Pa961S6Pvu89XeROGfHuzPnprmZa9skGbfjDaHKVIa99qG4KHaPHDQ6z0rbWN6btgrazsPeThxWZvG3kr9etNlVLsYi1f7xsavn75YsUqTytfyrB7gj9YvkK5XvP5b/1BG14x53/rA2377gjf5/9kHm36T+v45p78YJ1WW0P0V6/TD0a7VLP91/rvlp3/wbP1690b9Io1hH/Lj2XdQe/hvdqvRI1btEjTh4bazeLvWaRFM4cpwn7nEzb559p9/ID2rv7/NLh8rV6zvnP/r2r5a8/rySd/qN993zpapTJ+t9H3AQAAAABAK504fOdp+WzfKt/Wljbx75RR5FLk9J/qV/+rZTTsmPjERP8rKXrebI00Zc2hva0WLquqKFfi/JkmZB/XBn/6Lli7wbwbopnzE1VYeMmua1SQsVmnTNl/zqO6xz82POie0UozpTf7mLJ0WgeP1Zh3aZr7SIvzR/f2v/pTbdeGrdbxx+mRxdG+KkVr9EhreHyeThxr0RPdJ0EDGsevBwXJHjtQckEX7Irru/vB+eaofhGP67e5ucrd/n3d4a8KGpZqIrz5zp4bDKcHAAAAgL9QnTh8t17t/OGnv6//u26/dv+mRRD8Y0WEy9fP21rJBRNFE+drptX5/c5qE1/ztPqd4yY7z5WVnSsqraDbrLyi0i7Pvzyv6UeCpKRntdWu/EQ5qle9nUdjFddyHPefTYV8l7Rdz/sfR2ZtjfO3P809Y5d/btYc8+fmTmh6BFrS7OXmTgEAAAAArqUTh+/Wq53/+/NPampaeIvFx/4E5RXyzR5vT6IemZsmnXpXa7av0bunTPaeNa/VHOhGEeFhdhk14W/14osvttme0kgFKtDuYi5S4c0s0D7mbrv3XIf3ardd0cyz/tsaPXq0xn53i3kXrrBgq3aIvnzV+V/U87MdSPzla/SNuc/r7ZPdNfWnv9f27du1fcVjam8pOgAAAACAT5dacO1arOHiPh4VF7cfqwvymvtmi9dm6IApg+8araG+qlbi580y4feU3njuDfPvaC18rP0QG58+UrGmLC/uplEPL9KiRb5tamSDIqeOMzF+sO5NtxYyy9KHW5qXP8vLu0ESj5+tWWkuqWStlq1quWxasd58LcN8xzLddsdo836URg+3Hn9WoOrIuU3nX/RwqgICUjV12M0Pz7+h7e9pmz3S/WktnXuX+vfvr1jXFV327QUAAAAAtKNLh++hY0fL6nve+5O5enTJEj0xd7yeWl3i29nGqZemaeKjS7TkiVma/qO98prYPO/RayzcFv+YFppsW1RUJI2erXnXyrAj/0bfnRwm7/GXNHvqo1pirmHJoxM17hvf0z/8y2ZVmyb3PP2U0lxe7f3RdM16wrd/2kvWTPHrSdTX//UbSg6q0fbnxyl97hPm2E9obvo4vbDXK1fSN/QDe957hL78D19XkqtSGc+M9x3ftJt1z8N6/h+f1/KzvqN1RGMv/rZ/e0RLfriuxWrvbYwcpWFW3t/5vzXPOt8TczX+qdVq/64DAAAAACxdu+d7wr9oxbfTFaNz2rNxi/ZW3a0f/017gbq/Hv/JtxWft01btmWpovtALfjVGr3QuEraVSI0b7bVs+zSPXPntVr5u7Vozf/NRr38dLqiL+3Xxo0bteWoRyOfflkZ/z5NIVaTxCV6ZcXTSo+qUta2jfrgk3g988MbD9MOuuPvte6jl/V0erSqTm4zx96mU5f7Kt0ce/u7f9/UYx90x/Nal/ETzUzyKMccf+PGXcrvM10/yXhb3xzob9QB8V//Vz2T2ku6cEBbduXaPxy0K/6v9d8tv8+BOk147nHfSvDtDJMHAAAAAEjdPjP8rwEAAAAAgANuiTnfAAAAAAB0ZoRvAAAAAAAcRvgGAAAAAMBhhG8AAAAAwOfEo+rSavNvSx2t69pYcA0AAAAA8Dko1Maf/kLvuxsUEDNJ33x2lhJcHa3zH6ILo+cbAAAAAOC8woM6aAK1pcF9REeKbqLuFkD4BgAAAAA4L26ERsT4ImhAzHANj72JulsAw84BAAAAAJ8Tay73FXWPDFGQv6bjdV0b4RsAAAAAAIcx7BwAAAAAAId1zp5v7wm9+2qmLvjfNgtVypyFGhvje1eTt0sf7Dqj4pp6NQQEKjhioEbeP06Dw65eCs9z6ZT27TuswojJerjxAI0u7tTvNpxStf9tsziN/doDSrFeei7p+Ecf6eD5CnkapIDAYEXfnq6JYwaq+XQeXTr+kT46eF4VvkYKjr5d6RPHaGCLa6rJ26tte0/pYoVHDQpQUHhfDRt7v+6Kv1UGVAAAAAAAWuqcPd8l5aoyRWBYXyUkJLTY4hTdw9dE7kxt2Jold61L4f3MPrOjtvSMdqz9ULlefxsThsvPHdKW1a/pjXU7lVVYraZdLZVW2MG7V1TLc1lbrMLtBmXan5GhPeeqFBDez94X3aNW7qytyvg4v+mYZfszlLHnnKoCwtXP+rx1Te4sbc34WPn+Rt6Lu8x1H1NhVXdFW236hUoVhTq4OUP7y3xtAAAAAAC3ls4ZvitrVGuKnv1Ha9q0aS228Ur2pWG5z+SpskGKSJ2lh2aafXPmalSs+TqefJ3J8bWRe582bTmoc9WBigjv5a+8WkW1dTap95CW57K2kYq3dhSf0iel9sk066GZ9r45C9IVZ053+dNT+tT+dLFOfVKqBkUoddZDmml9fs4Cpfsa6ZTdyKvTB7PNdQdqwPgFmmO1mblAU24319ZQqk9OFdtHAgAAAADcWjpn+L7iUb0pwiLbDA9vR3BYb/+rnoqJtAJ2gxp8j4STegxQ2sTZeuwrizU/rbHd1erM+awh7RHRvvdXCUnV/QsWaMEDd6npKK5QBXc3Zb1HV+yKEKXeb9oseEB3NTdSqK+RPHajagWExishIVVDBjYPQ4+P8X3gs6YLBwAAAADcSjpl+HaXVtrlpYO/1WsrV2jFipV6c/0u5dXY1baovlH2kvPuMwd0yWRnb+UJHcytNt8oVgkDfW0UnqDUpFj1uHoKeCvF5dYg91p98sHrWrnCnG/la1q95YRKGseT9wxTZHi4woMb52R7dOnQYeXVSkH9k+Q7XU+FRZo24cFNS+F7Lh3SYV8jJdmNwpU83upRH6UBTdfkVd6FUlMGKDgszFcFAAAAALildMrwXVNbZ5deV4j6xScoJsREY2vu9IZMue09kitpkmbdHasA92Gte32FXl2dqcKGCA2dNl3DevobdUi1Ltuna5C6Rys+oZ96BzWo8lymNryfbQ9/b5al96xwvuJ1rTtYpG6xd2vW/ckmdreW9Z7VZoVeX3dQRd1idfes+5V8jWvyXtyjPZ+as/S6TXcOvakLBwAAAAB0Ea4XDP/rTqP3bWlKHZyi4SPSNHjQICWnJct1/qQKSktUG3GnkiJNo5psffThKZUrRDH9+yqqh1dVVZUqvlSvuOQEhbb9WeHSGR3Kr1L3PslKG2DSfJPuiksZpiGD03TnnSm6fdBgDU3to8rsXF0qqVLAoBTFNy7ypiuquFSnoPBw9fBWqbKsUBc8cUpOCG31K8aVikuqCwpXuHVNlWUqvOBp/5pqsrQp45CKPwtTyrTpSgvrlL+FAAAAAAD+RJ007bnUI7R5+LYUrLjoYFPWq9RtLUrmVc7OvSr0tFi4bM4CPTAkVA3lWdp9pML+VMcFKTi0hzmrnytBsfY07HIVt3reWbxG2guxWQuuTdZtPRtUnrVPJ1t3jyt+pK+NdU2Tb+tpX9O+to28F7VrQ6b5DkGKS5+lsX1vMDYeAAAAANBldcLwXaZzx4/r+OmiNkO+WypRUam1JFuU4hIbQ6tLfaOsOdMNKnNf/YTwa6ot0mnrfOeu85wvT40qKipUVdfiQWWuRPWzeuAbalRpT1H3qMa0qaiqa/E4M5cSfY1U42vk4y3Rkfc2K8tUhaWYkJ5i/bAAAAAAALhVdcLw7VH+iT3as2OHjjbl4RoVFlurrQUqMsZakjxMIfaTw0pUmNccdcsqfSuyBYdZgbeDgkqUs8+c78N9ymk8lDdfRfa5IxTdzxTndmnt22/r7c3HzZX4efNkr5OmXgqx10k7p11rTZu3N+t4cyP/Ymqmla+RUaOszRu0v8ijoLh0zRrbt7nHHQAAAABwS+r2meF/3WnUZL2n3+8qlLdHb8XGhEpVbhOG60zmTtWsR9JlPYCsNnuTVn98Xp6AEMXER6pHfZXcJjHXKVLD583XqLZPFjPHXGGOGZoyRwvHtnyEmVcXd/1B71nd0CExio/sobrSArmrGxTU/149Mj1ZPa0h4n94z+6p7tE7VjGhgc1tEidq8f1JJkC3OI7/ugPrSlXgrlZDUKImLr5fSSZluzNXa8OJSjW4zHXHmev2X4VPtNIany0OAAAAALhldMoF14L63KaEHuW66L6kkuIyVV4JUFi/OzVx5t3q5+8mDoweqNsi6+S+6FaxaVNedUUBYQkaPWOG7oxsp0P/mguuBSh0wEBF1ZfoUpFb7rJy1X7WS72T0jVzYrJCrEMFhGrAwCjVl1zSpZJilZVXqFZh6pc6Xg+MH+gP0C2Oc6lExeY4FbUy152q8Q+M10B/yj53LFPnrCebfeYfpt5qC1DsiNvVx9cUAAAAAHCL6JQ93wAAAAAA3Eo66WrnAAAAAADcOgjfAAAAAAA4jPANAAAAAIDDCN8AAAAAADiM8A0AAAAAgMMI3wAAAAAAOIzwDQAAAACAwwjfAAAAAAA4jPANAAAAAIDDCN8AAAAAADiM8A0AAAAAgMMI3wAAAAAAOIzwDQAAAACAwwjfAAAAAAA4jPANAAAAAIDDCN8AAAAAADiM8A0AAAAAgMMI3wAAAAAAOIzwDQAAAACAwwjfAAAAAAA4jPANAAAAAIDDCN8AAAAAADiM8A0AAAAAgMMI3wAAAAAAOIzwDQAAAACAwwjfAAAAAAA4jPANAAAAAIDDCN8AAAAAADiM8A0AAAAAgMMI3wAAAAAAOIzwDQAAAACAwwjfAAAAAAA4jPANAAAAAIDDCN8AAAAAADiM8A0AAAAAgMO6nT179jP/awAAAAAA8Gfk8XhUVlZGzzcAAAAAAE4JDgnR7YOHqNvlunp6vgEAAAAAcBA93wAAAAAAOIzwDQAAAACAwwjfAAAAAAA4Svr/AYhBKXzVRLUiAAAAAElFTkSuQmCC;" vertex="1" parent="1">
                    <mxGeometry x="10" y="10" width="834.23" height="900" as="geometry"/>
                </mxCell>
                <UserObject label="" link="https://ourresearch.gitbook.io/help.openalex.org/JlVPOlASuTMT9J7JfrcO/the-data/works#abstract" id="4">
                    <mxCell style="whiteSpace=wrap;html=1;fillColor=#5E4DFF;strokeColor=#6c8ebf;opacity=15;" vertex="1" parent="1">
                        <mxGeometry x="20" y="490" width="150" height="40" as="geometry"/>
                    </mxCell>
                </UserObject>
                <UserObject label="" link="https://ourresearch.gitbook.io/help.openalex.org/JlVPOlASuTMT9J7JfrcO/the-data/works#locations" id="6">
                    <mxCell style="whiteSpace=wrap;html=1;fillColor=#5E4DFF;strokeColor=#6c8ebf;opacity=15;" vertex="1" parent="1">
                        <mxGeometry x="20" y="540" width="150" height="40" as="geometry"/>
                    </mxCell>
                </UserObject>
                <UserObject label="" link="https://ourresearch.gitbook.io/help.openalex.org/JlVPOlASuTMT9J7JfrcO/the-data/works#identifiers" id="7">
                    <mxCell style="whiteSpace=wrap;html=1;fillColor=#5E4DFF;strokeColor=#6c8ebf;opacity=15;" vertex="1" parent="1">
                        <mxGeometry x="20" y="600" width="150" height="40" as="geometry"/>
                    </mxCell>
                </UserObject>
                <UserObject label="" link="https://ourresearch.gitbook.io/help.openalex.org/JlVPOlASuTMT9J7JfrcO/the-data/works#source" id="8">
                    <mxCell style="whiteSpace=wrap;html=1;fillColor=#5E4DFF;strokeColor=#6c8ebf;opacity=15;" vertex="1" parent="1">
                        <mxGeometry x="10" y="200" width="150" height="20" as="geometry"/>
                    </mxCell>
                </UserObject>
                <UserObject label="" link="https://ourresearch.gitbook.io/help.openalex.org/JlVPOlASuTMT9J7JfrcO/the-data/works#authors" id="9">
                    <mxCell style="whiteSpace=wrap;html=1;fillColor=#5E4DFF;strokeColor=#6c8ebf;opacity=15;" vertex="1" parent="1">
                        <mxGeometry x="10" y="220" width="90" height="20" as="geometry"/>
                    </mxCell>
                </UserObject>
            </root>
        </mxGraphModel>
    </diagram>
</mxfile>